<svg width="1025" height="497" viewBox="0 0 1025 497" fill="none" xmlns="http://www.w3.org/2000/svg">
<g filter="url(#filter0_bdi_42_244)">
<g clip-path="url(#clip0_42_244)">
<rect x="168.862" y="10.4365" width="710" height="456" rx="16" fill="white" fill-opacity="0.8" shape-rendering="crispEdges"/>
<rect width="710" height="396" transform="translate(168.862 70.0918)" fill="#F3F3F3"/>
<rect x="417.359" y="103.429" width="213.007" height="329.326" rx="15" fill="#E5E5E5"/>
<rect x="433.615" y="298.879" width="180.495" height="36.9959" fill="white"/>
<rect x="433.615" y="232.822" width="180.495" height="36.9959" fill="#BCBDBF"/>
<rect x="433.615" y="186.765" width="180.495" height="36.9959" fill="#BCBDBF"/>
<rect x="433.615" y="126.226" width="180.495" height="24.8489" fill="#BCBDBF"/>
<rect x="433.615" y="340.449" width="180.495" height="36.9959" fill="white"/>
<rect x="433.615" y="382.58" width="180.495" height="32.5116" fill="#BCBDBF"/>
<g clip-path="url(#clip1_42_244)">
<path d="M560.294 213.22C560.295 213.22 560.296 213.22 560.297 213.22C560.482 213.22 560.634 213.068 560.634 212.883C560.634 212.877 560.634 212.87 560.633 212.864C560.633 212.612 560.481 212.491 560.168 212.491H559.663V213.813H559.853V213.237H560.087L560.092 213.244L560.454 213.813H560.658L560.268 213.224L560.294 213.22ZM560.074 213.088H559.853V212.641H560.133C560.277 212.641 560.441 212.664 560.441 212.853C560.441 213.07 560.275 213.088 560.073 213.088H560.074ZM486.301 198.766H489.104V208.978H494.295V211.565H486.301V198.766ZM495.534 202.887H498.227V211.56H495.534V202.887ZM496.881 198.575C497.738 198.575 498.443 199.28 498.443 200.137C498.443 200.994 497.737 201.699 496.88 201.699C496.023 201.699 495.318 200.994 495.318 200.137C495.318 199.28 496.023 198.575 496.88 198.575C496.88 198.575 496.881 198.575 496.881 198.575ZM509.493 198.764H512.187V206.413L515.239 202.883H518.541L515.006 206.898L518.467 211.564H515.082L512.223 207.276H512.187V211.563H509.494L509.493 198.764ZM499.721 202.887H502.307V204.073H502.344C502.869 203.172 503.852 202.632 504.894 202.672C507.625 202.672 508.128 204.469 508.128 206.803V211.559H505.434V207.343C505.434 206.336 505.416 205.042 504.032 205.042C502.632 205.042 502.416 206.138 502.416 207.269V211.558H499.723L499.721 202.887Z" fill="#7F7F7F"/>
<path d="M524.213 206.215C524.213 206.202 524.213 206.189 524.213 206.176C524.213 205.291 523.484 204.562 522.599 204.562C522.585 204.562 522.572 204.562 522.559 204.562C521.587 204.501 520.733 205.243 520.656 206.215H524.213ZM526.494 210.058C525.589 211.156 524.235 211.791 522.811 211.784C520.118 211.784 517.962 209.986 517.962 207.202C517.962 204.418 520.118 202.621 522.811 202.621C525.329 202.621 526.907 204.417 526.907 207.202V208.046H520.656C520.816 209.032 521.688 209.757 522.686 209.735C523.464 209.73 524.189 209.331 524.608 208.675L526.494 210.058ZM532.521 204.983C531.175 204.983 530.367 205.882 530.367 207.192C530.367 208.503 531.174 209.403 532.521 209.403C533.868 209.403 534.678 208.505 534.678 207.192C534.678 205.88 533.869 204.983 532.521 204.983ZM537.157 211.558H534.678V210.408H534.641C534.011 211.256 533.019 211.761 531.963 211.774C529.376 211.774 527.671 209.906 527.671 207.265C527.671 204.84 529.18 202.612 531.659 202.612C532.774 202.612 533.815 202.917 534.426 203.762H534.461V198.763H537.157L537.157 211.558ZM555.339 211.563H552.646V207.346C552.646 206.34 552.628 205.045 551.245 205.045C549.842 205.045 549.628 206.141 549.628 207.272V211.563H546.935V202.89H549.52V204.075H549.556C550.083 203.175 551.065 202.635 552.107 202.674C554.837 202.674 555.34 204.469 555.34 206.805L555.339 211.563ZM543.896 201.704C543.896 201.704 543.895 201.704 543.895 201.704C543.038 201.704 542.332 200.999 542.332 200.141C542.332 199.284 543.038 198.578 543.895 198.578C544.753 198.578 545.458 199.284 545.458 200.141C545.458 200.141 545.458 200.141 545.458 200.141C545.458 200.998 544.753 201.704 543.896 201.704ZM545.242 211.563H542.546V202.89H545.242V211.563ZM556.682 196.077H541.193C540.466 196.069 539.86 196.66 539.852 197.387V212.941C539.86 213.668 540.465 214.26 541.193 214.252H556.682C557.411 214.261 558.018 213.67 558.028 212.941V197.386C558.018 196.658 557.41 196.066 556.682 196.076V196.077ZM560.097 211.902C559.422 211.909 558.87 212.466 558.87 213.141C558.87 213.821 559.429 214.381 560.109 214.381C560.789 214.381 561.349 213.821 561.349 213.141C561.349 212.466 560.797 211.909 560.121 211.902H560.097ZM560.097 214.239C560.091 214.239 560.085 214.239 560.079 214.239C559.483 214.239 558.992 213.749 558.992 213.152C558.992 212.556 559.483 212.065 560.079 212.065C560.668 212.065 561.156 212.545 561.166 213.134V213.152C561.178 213.736 560.709 214.226 560.126 214.238H560.097" fill="#7F7F7F"/>
</g>
<g clip-path="url(#clip2_42_244)">
<path d="M553.767 254.82L555.537 255.991C554.962 256.832 553.589 258.273 551.214 258.273C548.265 258.273 546.069 256.007 546.069 253.124C546.069 250.056 548.288 247.975 550.966 247.975C553.659 247.975 554.978 250.102 555.405 251.251L555.638 251.837L548.7 254.689C549.227 255.722 550.05 256.246 551.214 256.246C552.378 256.246 553.185 255.675 553.767 254.82ZM548.327 252.962L552.96 251.05C552.704 250.411 551.944 249.956 551.036 249.956C549.879 249.956 548.273 250.973 548.327 252.962Z" fill="#7F7F7F"/>
<path d="M542.724 242.725H544.959V257.803H542.724V242.725Z" fill="#7F7F7F"/>
<path d="M539.201 248.375H541.358V257.533C541.358 261.333 539.1 262.898 536.43 262.898C533.916 262.898 532.403 261.218 531.836 259.853L533.815 259.036C534.172 259.877 535.033 260.871 536.43 260.871C538.145 260.871 539.201 259.815 539.201 257.842V257.102H539.123C538.611 257.718 537.633 258.273 536.392 258.273C533.8 258.273 531.425 256.03 531.425 253.139C531.425 250.233 533.8 247.967 536.392 247.967C537.625 247.967 538.611 248.514 539.123 249.115H539.201V248.375ZM539.356 253.139C539.356 251.32 538.138 249.994 536.586 249.994C535.018 249.994 533.699 251.32 533.699 253.139C533.699 254.935 535.018 256.238 536.586 256.238C538.138 256.246 539.356 254.935 539.356 253.139Z" fill="#7F7F7F"/>
<path d="M519.155 253.101C519.155 256.069 516.827 258.25 513.971 258.25C511.116 258.25 508.787 256.061 508.787 253.101C508.787 250.118 511.116 247.944 513.971 247.944C516.827 247.944 519.155 250.118 519.155 253.101ZM516.889 253.101C516.889 251.251 515.539 249.979 513.971 249.979C512.404 249.979 511.053 251.251 511.053 253.101C511.053 254.935 512.404 256.223 513.971 256.223C515.539 256.223 516.889 254.935 516.889 253.101Z" fill="#7F7F7F"/>
<path d="M530.478 253.124C530.478 256.092 528.15 258.273 525.294 258.273C522.438 258.273 520.11 256.092 520.11 253.124C520.11 250.141 522.438 247.975 525.294 247.975C528.15 247.975 530.478 250.133 530.478 253.124ZM528.204 253.124C528.204 251.274 526.854 250.002 525.286 250.002C523.719 250.002 522.368 251.274 522.368 253.124C522.368 254.959 523.719 256.246 525.286 256.246C526.862 256.246 528.204 254.951 528.204 253.124Z" fill="#7F7F7F"/>
<path d="M500.266 256.015C497.015 256.015 494.469 253.409 494.469 250.179C494.469 246.949 497.015 244.344 500.266 244.344C502.02 244.344 503.301 245.03 504.247 245.909L505.807 244.359C504.488 243.103 502.726 242.147 500.266 242.147C495.812 242.147 492.063 245.755 492.063 250.179C492.063 254.604 495.812 258.212 500.266 258.212C502.672 258.212 504.488 257.425 505.908 255.961C507.367 254.511 507.817 252.476 507.817 250.827C507.817 250.31 507.755 249.778 507.685 249.385H500.266V251.528H505.551C505.396 252.87 504.969 253.787 504.341 254.411C503.58 255.174 502.377 256.015 500.266 256.015Z" fill="#7F7F7F"/>
</g>
<rect width="69" height="8" transform="translate(677.195 35.4365)" fill="#E7E7E7"/>
<rect width="69" height="21" transform="translate(777.862 28.9365)" fill="#E7E7E7"/>
<rect width="69" height="8" transform="translate(576.529 35.4365)" fill="#E7E7E7"/>
<rect width="69" height="8" transform="translate(475.862 35.4365)" fill="#E7E7E7"/>
<rect width="69" height="30" transform="translate(203.862 24.4365)" fill="#E7E7E7"/>
</g>
<rect x="169.362" y="10.9365" width="709" height="455" rx="15.5" stroke="url(#paint0_linear_42_244)" shape-rendering="crispEdges"/>
<rect x="169.362" y="10.9365" width="709" height="455" rx="15.5" stroke="url(#paint1_linear_42_244)" stroke-opacity="0.2" shape-rendering="crispEdges"/>
</g>
<path d="M905.012 160.453C905.033 160.453 905.044 160.442 905.044 160.421C905.065 160.399 905.087 160.357 905.108 160.293C905.087 160.335 905.055 160.389 905.012 160.453ZM894.292 158.949C894.271 159.034 894.068 159.909 893.684 161.573C893.321 163.237 893.012 164.794 892.756 166.245C892.5 167.653 892.319 169.05 892.212 170.437C891.999 172.933 892.095 174.895 892.5 176.325C892.948 177.946 893.791 178.874 895.028 179.109C895.732 179.258 896.511 178.842 897.364 177.861C898.153 176.943 898.964 175.61 899.796 173.861C900.137 173.135 900.489 172.325 900.852 171.429C901.215 170.511 901.503 169.754 901.716 169.157L902.42 167.109C902.676 166.319 902.825 165.871 902.868 165.765L903.124 165.061C903.337 162.65 903.647 160.922 904.052 159.877C904.073 159.813 904.105 159.759 904.148 159.717C904.276 159.546 904.447 159.471 904.66 159.493C904.831 159.514 904.969 159.599 905.076 159.749L905.14 159.877C905.161 159.919 905.172 159.962 905.172 160.005V160.165C905.193 160.271 905.193 160.41 905.172 160.581C905.151 161.007 905.108 161.477 905.044 161.989C904.852 163.226 904.575 164.367 904.212 165.413C904.041 167.546 903.999 169.541 904.084 171.397C904.191 173.935 904.521 175.909 905.076 177.317C905.652 178.853 906.441 179.621 907.444 179.621C907.593 179.621 907.721 179.685 907.828 179.813C907.956 179.919 908.02 180.047 908.02 180.197C908.02 180.346 907.956 180.474 907.828 180.581C907.721 180.709 907.593 180.773 907.444 180.773C905.929 180.773 904.777 179.759 903.988 177.733C903.391 176.175 903.039 174.085 902.932 171.461C902.889 170.757 902.879 170.031 902.9 169.285C902.196 171.247 901.513 172.943 900.852 174.373C899.956 176.229 899.081 177.647 898.228 178.629C897.076 179.951 895.924 180.495 894.772 180.261C893.087 179.919 891.956 178.714 891.38 176.645C890.932 175.045 890.825 172.943 891.06 170.341C891.167 168.975 891.348 167.557 891.604 166.085C891.881 164.591 892.201 163.002 892.564 161.317C892.948 159.631 893.14 158.757 893.14 158.693C893.183 158.543 893.268 158.426 893.396 158.341C893.524 158.255 893.663 158.234 893.812 158.277C893.983 158.298 894.111 158.373 894.196 158.501C894.281 158.629 894.313 158.778 894.292 158.949ZM914.406 166.853C914.128 166.021 913.894 165.509 913.702 165.317C913.552 165.146 913.307 165.029 912.966 164.965C912.646 164.901 912.283 164.911 911.878 164.997C911.472 165.103 911.152 165.253 910.918 165.445C910.704 165.637 910.598 165.839 910.598 166.053C910.64 166.138 910.704 166.245 910.79 166.373C910.939 166.565 911.195 166.863 911.558 167.269C912.923 168.719 913.734 169.594 913.99 169.893C916.379 172.73 917.307 175.301 916.774 177.605C916.56 178.437 916.144 179.098 915.526 179.589C914.907 180.058 914.182 180.357 913.35 180.485C912.582 180.591 911.803 180.527 911.014 180.293C910.246 180.058 909.606 179.685 909.094 179.173C908.496 178.554 908.006 177.914 907.622 177.253C907.259 176.57 907.003 175.834 906.854 175.045C906.704 174.234 906.608 173.53 906.566 172.933C906.523 172.335 906.502 171.557 906.502 170.597C906.502 170.447 906.555 170.319 906.662 170.213C906.79 170.085 906.928 170.021 907.078 170.021C907.227 170.021 907.355 170.085 907.462 170.213C907.59 170.319 907.654 170.447 907.654 170.597C907.654 172.474 907.782 173.989 908.038 175.141C908.315 176.293 908.944 177.359 909.926 178.341C910.31 178.746 910.8 179.034 911.398 179.205C911.995 179.375 912.592 179.418 913.19 179.333C913.808 179.247 914.331 179.034 914.758 178.693C915.206 178.351 915.494 177.903 915.622 177.349C916.091 175.407 915.259 173.167 913.126 170.629C912.891 170.351 912.091 169.487 910.726 168.037C910.299 167.589 910.011 167.258 909.862 167.045C909.563 166.661 909.424 166.319 909.446 166.021C909.467 165.466 909.691 165.007 910.118 164.645C910.544 164.282 911.035 164.026 911.59 163.877C912.059 163.727 912.592 163.706 913.19 163.813C913.787 163.919 914.256 164.165 914.598 164.549C914.854 164.869 915.152 165.509 915.494 166.469C915.536 166.618 915.526 166.767 915.462 166.917C915.398 167.066 915.291 167.162 915.142 167.205C914.992 167.247 914.843 167.237 914.694 167.173C914.544 167.109 914.448 167.002 914.406 166.853ZM924.673 165.157C924.609 165.135 924.524 165.146 924.417 165.189C924.14 165.253 923.777 165.487 923.329 165.893C922.86 166.341 922.359 166.927 921.825 167.653C920.695 169.21 919.788 170.885 919.105 172.677C918.871 173.295 918.679 173.893 918.529 174.469C919.34 173.957 920.161 173.167 920.993 172.101C921.612 171.29 922.487 169.914 923.617 167.973C924.065 167.183 924.385 166.501 924.577 165.925C924.684 165.562 924.716 165.306 924.673 165.157ZM924.705 165.157H924.737H924.705ZM917.217 175.141C917.367 174.266 917.633 173.306 918.017 172.261C918.743 170.383 919.703 168.623 920.897 166.981C921.473 166.191 922.017 165.551 922.529 165.061C923.127 164.506 923.671 164.165 924.161 164.037C924.524 163.951 924.844 163.962 925.121 164.069C925.42 164.175 925.633 164.389 925.761 164.709C925.889 165.093 925.857 165.605 925.665 166.245C925.452 166.927 925.111 167.695 924.641 168.549C923.511 170.49 922.593 171.909 921.889 172.805C920.716 174.341 919.511 175.365 918.273 175.877C918.231 176.41 918.252 176.879 918.337 177.285C918.444 177.818 918.679 178.213 919.041 178.469C919.468 178.746 920.065 178.863 920.833 178.821C921.623 178.778 922.337 178.554 922.977 178.149C923.639 177.722 924.385 177.125 925.217 176.357L925.889 175.685C926.081 175.493 926.273 175.29 926.465 175.077C926.657 174.842 926.796 174.661 926.881 174.533L927.393 173.861L928.001 173.061C928.087 172.933 928.204 172.858 928.353 172.837C928.524 172.815 928.673 172.858 928.801 172.965C928.929 173.05 929.004 173.178 929.025 173.349C929.047 173.498 929.004 173.637 928.897 173.765L928.321 174.533C928.065 174.895 927.884 175.13 927.777 175.237L927.329 175.813C927.137 176.047 926.935 176.271 926.721 176.485C926.529 176.698 926.284 176.933 925.985 177.189C925.431 177.722 924.94 178.159 924.513 178.501C924.108 178.821 923.575 179.141 922.913 179.461C922.252 179.759 921.58 179.93 920.897 179.973C919.852 180.037 919.02 179.845 918.401 179.397C917.783 178.991 917.388 178.373 917.217 177.541C917.111 177.007 917.089 176.399 917.153 175.717L917.121 175.685C917.057 175.471 917.089 175.29 917.217 175.141ZM929.678 176.581V175.365C929.635 171.354 929.753 168.271 930.03 166.117C930.051 165.946 930.126 165.818 930.254 165.733C930.382 165.626 930.521 165.583 930.67 165.605C930.841 165.626 930.969 165.701 931.054 165.829C931.161 165.957 931.203 166.095 931.182 166.245C930.969 167.823 930.851 169.679 930.83 171.813C931.939 169.082 933.721 166.49 936.174 164.037C936.302 163.93 936.441 163.877 936.59 163.877C936.739 163.877 936.867 163.941 936.974 164.069C937.102 164.175 937.166 164.303 937.166 164.453C937.166 164.602 937.113 164.741 937.006 164.869C935.278 166.597 933.849 168.474 932.718 170.501C931.587 172.527 930.958 174.586 930.83 176.677C930.83 176.911 930.862 177.391 930.926 178.117C930.99 178.842 931.022 179.269 931.022 179.397C931.043 179.653 931.054 179.823 931.054 179.909C931.054 179.973 931.033 180.037 930.99 180.101C930.947 180.229 930.851 180.325 930.702 180.389C930.489 180.474 930.297 180.453 930.126 180.325C929.998 180.218 929.934 180.133 929.934 180.069C929.934 180.047 929.923 180.015 929.902 179.973C929.881 179.93 929.859 179.834 929.838 179.685C929.667 178.661 929.614 177.626 929.678 176.581ZM948.829 158.437C948.595 160.463 948.456 162.501 948.413 164.549C948.371 166.597 948.381 169.221 948.445 172.421C948.509 175.621 948.541 177.679 948.541 178.597C949.459 178.554 951.016 178.543 953.213 178.565C955.496 178.586 957.256 178.543 958.493 178.437C958.664 178.415 958.803 178.458 958.909 178.565C959.037 178.671 959.112 178.81 959.133 178.981C959.155 179.13 959.112 179.269 959.005 179.397C958.899 179.503 958.771 179.567 958.621 179.589C957.363 179.695 955.56 179.738 953.213 179.717C950.739 179.695 948.968 179.717 947.901 179.781C947.752 179.781 947.613 179.738 947.485 179.653C947.379 179.546 947.315 179.407 947.293 179.237C947.293 179.109 947.325 178.991 947.389 178.885C947.389 177.861 947.357 175.77 947.293 172.613C947.229 169.455 947.219 166.799 947.261 164.645C947.304 162.49 947.443 160.378 947.677 158.309C947.699 158.159 947.773 158.031 947.901 157.925C948.029 157.818 948.168 157.775 948.317 157.797C948.467 157.818 948.595 157.893 948.701 158.021C948.808 158.149 948.851 158.287 948.829 158.437ZM962.286 165.541C962.222 165.562 962.168 165.573 962.126 165.573C961.23 165.978 960.44 166.863 959.758 168.229C959.075 169.594 958.67 171.087 958.542 172.709C958.414 174.415 958.648 175.855 959.246 177.029C959.864 178.202 960.835 178.895 962.158 179.109C963.523 179.343 964.632 178.842 965.486 177.605C966.318 176.389 966.755 174.821 966.798 172.901C966.862 170.959 966.499 169.295 965.71 167.909C964.878 166.437 963.736 165.647 962.286 165.541ZM964.91 165.285C965.614 165.797 966.211 166.479 966.702 167.333C967.598 168.911 968.014 170.778 967.95 172.933C967.907 175.087 967.406 176.858 966.446 178.245C965.294 179.887 963.8 180.559 961.966 180.261C961.07 180.111 960.302 179.791 959.662 179.301C959.022 178.789 958.531 178.181 958.19 177.477C957.848 176.751 957.614 175.983 957.486 175.173C957.358 174.362 957.326 173.519 957.39 172.645C957.518 170.874 957.966 169.21 958.734 167.653C959.523 166.095 960.504 165.061 961.678 164.549C962.019 164.378 962.52 164.314 963.182 164.357C963.352 164.378 963.587 164.41 963.886 164.453C964.206 164.474 964.387 164.485 964.43 164.485C964.579 164.506 964.707 164.581 964.814 164.709C964.92 164.815 964.963 164.954 964.942 165.125C964.942 165.167 964.931 165.221 964.91 165.285ZM981.26 168.133C981.046 167.365 980.769 166.778 980.428 166.373C980.108 165.946 979.638 165.637 979.02 165.445C977.868 165.103 976.716 165.306 975.564 166.053C974.412 166.778 973.377 167.898 972.46 169.413C971.585 170.821 970.956 172.314 970.572 173.893C970.209 175.45 970.166 176.719 970.444 177.701C970.572 178.085 970.881 178.373 971.372 178.565C972.481 179.013 973.676 178.554 974.956 177.189C975.66 176.421 976.545 175.098 977.612 173.221C977.868 172.773 978.22 171.973 978.668 170.821C979.116 169.647 979.393 168.997 979.5 168.869V168.709C979.521 168.474 979.532 168.271 979.532 168.101C979.553 167.845 979.564 167.642 979.564 167.493C979.585 167.386 979.596 167.301 979.596 167.237C979.617 167.173 979.638 167.119 979.66 167.077C979.681 167.013 979.713 166.959 979.756 166.917C979.862 166.767 980.012 166.693 980.204 166.693C980.353 166.693 980.47 166.735 980.556 166.821C980.662 166.906 980.726 166.981 980.748 167.045L980.78 167.173V167.333V167.685V169.765C980.801 171.45 980.833 172.773 980.876 173.733C980.897 174.202 980.961 174.981 981.068 176.069C981.196 177.199 981.27 178.063 981.292 178.661C981.398 180.794 981.153 182.49 980.556 183.749C980.086 184.73 979.35 185.445 978.348 185.893C977.366 186.341 976.278 186.533 975.084 186.469C973.974 186.426 972.897 186.191 971.852 185.765C970.806 185.359 969.964 184.826 969.324 184.165C969.217 184.058 969.164 183.919 969.164 183.749C969.164 183.599 969.217 183.471 969.324 183.365C969.452 183.258 969.59 183.205 969.74 183.205C969.91 183.205 970.049 183.269 970.156 183.397C970.668 183.93 971.382 184.367 972.3 184.709C973.217 185.071 974.156 185.274 975.116 185.317C976.14 185.359 977.036 185.21 977.804 184.869C978.593 184.527 979.169 183.983 979.532 183.237C980.044 182.17 980.246 180.666 980.14 178.725C980.118 178.149 980.054 177.306 979.948 176.197C979.82 175.087 979.745 174.287 979.724 173.797C979.702 173.434 979.681 172.762 979.66 171.781C979.382 172.399 979.041 173.071 978.636 173.797C977.548 175.717 976.598 177.114 975.788 177.989C974.166 179.738 972.545 180.293 970.924 179.653C970.092 179.311 969.569 178.767 969.356 178.021C968.993 176.847 969.014 175.397 969.42 173.669C969.846 171.941 970.529 170.319 971.468 168.805C972.492 167.162 973.686 165.903 975.052 165.029C976.438 164.133 977.868 163.909 979.34 164.357C980.193 164.613 980.844 165.029 981.292 165.605C981.761 166.181 982.113 166.917 982.348 167.813C982.39 167.983 982.369 168.143 982.284 168.293C982.22 168.421 982.102 168.506 981.932 168.549C981.782 168.57 981.633 168.549 981.484 168.485C981.356 168.399 981.281 168.282 981.26 168.133ZM982.679 164.165C982.06 167.514 981.719 170.191 981.655 172.197C981.569 175.546 982.124 177.903 983.319 179.269C983.425 179.397 983.468 179.546 983.447 179.717C983.447 179.866 983.383 179.994 983.255 180.101C983.148 180.186 983.009 180.229 982.839 180.229C982.689 180.207 982.572 180.143 982.487 180.037C981.079 178.437 980.417 175.813 980.503 172.165C980.567 170.117 980.908 167.386 981.527 163.973C981.569 163.802 981.655 163.674 981.783 163.589C981.911 163.503 982.049 163.482 982.199 163.525C982.369 163.546 982.497 163.621 982.583 163.749C982.668 163.877 982.7 164.015 982.679 164.165ZM982.487 160.069C982.615 160.175 982.679 160.303 982.679 160.453C982.679 160.602 982.615 160.741 982.487 160.869C982.38 160.975 982.252 161.029 982.103 161.029C981.953 161.029 981.815 160.975 981.687 160.869C981.58 160.741 981.527 160.602 981.527 160.453C981.527 160.303 981.58 160.175 981.687 160.069C981.815 159.941 981.953 159.877 982.103 159.877C982.252 159.877 982.38 159.941 982.487 160.069ZM985.767 165.477C985.618 166.394 985.565 167.887 985.607 169.957C985.607 170.298 985.629 170.703 985.671 171.173C985.949 170.533 986.375 169.754 986.951 168.837C987.527 167.962 988.157 167.162 988.839 166.437C989.735 165.498 990.589 164.901 991.399 164.645C992.487 164.325 993.437 164.602 994.247 165.477C995.015 166.287 995.517 167.525 995.751 169.189C995.858 169.914 995.933 171.183 995.975 172.997C995.997 173.743 995.975 174.863 995.911 176.357C995.847 177.914 995.815 179.013 995.815 179.653C995.815 179.802 995.751 179.941 995.623 180.069C995.517 180.175 995.389 180.229 995.239 180.229C995.09 180.229 994.951 180.175 994.823 180.069C994.717 179.941 994.663 179.802 994.663 179.653C994.663 178.991 994.695 177.871 994.759 176.293C994.823 174.799 994.845 173.701 994.823 172.997C994.781 171.247 994.717 170.031 994.631 169.349C994.418 167.919 994.013 166.885 993.415 166.245C992.925 165.733 992.359 165.573 991.719 165.765C991.101 165.957 990.418 166.447 989.671 167.237C989.031 167.898 988.423 168.677 987.847 169.573C987.293 170.447 986.909 171.173 986.695 171.749C986.525 172.154 986.258 173.082 985.895 174.533C985.981 176.239 985.874 177.637 985.575 178.725V178.885C985.554 179.034 985.533 179.13 985.511 179.173C985.49 179.365 985.447 179.503 985.383 179.589C985.277 179.759 985.127 179.866 984.935 179.909C984.765 179.93 984.605 179.887 984.455 179.781C984.221 179.631 984.082 179.343 984.039 178.917C984.018 178.661 984.029 178.341 984.071 177.957C984.157 177.359 984.306 176.517 984.519 175.429C984.583 175.066 984.658 174.725 984.743 174.405C984.722 174.063 984.669 173.381 984.583 172.357C984.519 171.333 984.477 170.533 984.455 169.957C984.413 167.845 984.466 166.287 984.615 165.285C984.637 165.135 984.711 165.018 984.839 164.933C984.989 164.826 985.138 164.783 985.287 164.805C985.437 164.826 985.554 164.911 985.639 165.061C985.746 165.189 985.789 165.327 985.767 165.477Z" fill="#181818"/>
<path d="M15.9828 260.048C16.0042 260.048 16.0148 260.038 16.0148 260.016C16.0362 259.995 16.0575 259.952 16.0788 259.888C16.0575 259.931 16.0255 259.984 15.9828 260.048ZM5.26283 258.544C5.2415 258.63 5.03883 259.504 4.65483 261.168C4.29216 262.832 3.98283 264.39 3.72683 265.84C3.47083 267.248 3.2895 268.646 3.18283 270.032C2.9695 272.528 3.0655 274.491 3.47083 275.92C3.91883 277.542 4.7615 278.47 5.99883 278.704C6.70283 278.854 7.4815 278.438 8.33483 277.456C9.12416 276.539 9.93483 275.206 10.7668 273.456C11.1082 272.731 11.4602 271.92 11.8228 271.024C12.1855 270.107 12.4735 269.35 12.6868 268.752L13.3908 266.704C13.6468 265.915 13.7962 265.467 13.8388 265.36L14.0948 264.656C14.3082 262.246 14.6175 260.518 15.0228 259.472C15.0442 259.408 15.0762 259.355 15.1188 259.312C15.2468 259.142 15.4175 259.067 15.6308 259.088C15.8015 259.11 15.9402 259.195 16.0468 259.344L16.1108 259.472C16.1322 259.515 16.1428 259.558 16.1428 259.6V259.76C16.1642 259.867 16.1642 260.006 16.1428 260.176C16.1215 260.603 16.0788 261.072 16.0148 261.584C15.8228 262.822 15.5455 263.963 15.1828 265.008C15.0122 267.142 14.9695 269.136 15.0548 270.992C15.1615 273.531 15.4922 275.504 16.0468 276.912C16.6228 278.448 17.4122 279.216 18.4148 279.216C18.5642 279.216 18.6922 279.28 18.7988 279.408C18.9268 279.515 18.9908 279.643 18.9908 279.792C18.9908 279.942 18.9268 280.07 18.7988 280.176C18.6922 280.304 18.5642 280.368 18.4148 280.368C16.9002 280.368 15.7482 279.355 14.9588 277.328C14.3615 275.771 14.0095 273.68 13.9028 271.056C13.8602 270.352 13.8495 269.627 13.8708 268.88C13.1668 270.843 12.4842 272.539 11.8228 273.968C10.9268 275.824 10.0522 277.243 9.19883 278.224C8.04683 279.547 6.89483 280.091 5.74283 279.856C4.0575 279.515 2.92683 278.31 2.35083 276.24C1.90283 274.64 1.79616 272.539 2.03083 269.936C2.1375 268.571 2.31883 267.152 2.57483 265.68C2.85216 264.187 3.17216 262.598 3.53483 260.912C3.91883 259.227 4.11083 258.352 4.11083 258.288C4.1535 258.139 4.23883 258.022 4.36683 257.936C4.49483 257.851 4.6335 257.83 4.78283 257.872C4.9535 257.894 5.0815 257.968 5.16683 258.096C5.25216 258.224 5.28416 258.374 5.26283 258.544ZM25.3766 266.448C25.0992 265.616 24.8646 265.104 24.6726 264.912C24.5232 264.742 24.2779 264.624 23.9366 264.56C23.6166 264.496 23.2539 264.507 22.8486 264.592C22.4432 264.699 22.1232 264.848 21.8886 265.04C21.6752 265.232 21.5686 265.435 21.5686 265.648C21.6112 265.734 21.6752 265.84 21.7606 265.968C21.9099 266.16 22.1659 266.459 22.5286 266.864C23.8939 268.315 24.7046 269.19 24.9606 269.488C27.3499 272.326 28.2779 274.896 27.7446 277.2C27.5312 278.032 27.1152 278.694 26.4966 279.184C25.8779 279.654 25.1526 279.952 24.3206 280.08C23.5526 280.187 22.7739 280.123 21.9846 279.888C21.2166 279.654 20.5766 279.28 20.0646 278.768C19.4672 278.15 18.9766 277.51 18.5926 276.848C18.2299 276.166 17.9739 275.43 17.8246 274.64C17.6752 273.83 17.5792 273.126 17.5366 272.528C17.4939 271.931 17.4726 271.152 17.4726 270.192C17.4726 270.043 17.5259 269.915 17.6326 269.808C17.7606 269.68 17.8992 269.616 18.0486 269.616C18.1979 269.616 18.3259 269.68 18.4326 269.808C18.5606 269.915 18.6246 270.043 18.6246 270.192C18.6246 272.07 18.7526 273.584 19.0086 274.736C19.2859 275.888 19.9152 276.955 20.8966 277.936C21.2806 278.342 21.7712 278.63 22.3686 278.8C22.9659 278.971 23.5632 279.014 24.1606 278.928C24.7792 278.843 25.3019 278.63 25.7286 278.288C26.1766 277.947 26.4646 277.499 26.5926 276.944C27.0619 275.003 26.2299 272.763 24.0966 270.224C23.8619 269.947 23.0619 269.083 21.6966 267.632C21.2699 267.184 20.9819 266.854 20.8326 266.64C20.5339 266.256 20.3952 265.915 20.4166 265.616C20.4379 265.062 20.6619 264.603 21.0886 264.24C21.5152 263.878 22.0059 263.622 22.5606 263.472C23.0299 263.323 23.5632 263.302 24.1606 263.408C24.7579 263.515 25.2272 263.76 25.5686 264.144C25.8246 264.464 26.1232 265.104 26.4646 266.064C26.5072 266.214 26.4966 266.363 26.4326 266.512C26.3686 266.662 26.2619 266.758 26.1126 266.8C25.9632 266.843 25.8139 266.832 25.6646 266.768C25.5152 266.704 25.4192 266.598 25.3766 266.448ZM35.6443 264.752C35.5803 264.731 35.495 264.742 35.3883 264.784C35.111 264.848 34.7483 265.083 34.3003 265.488C33.831 265.936 33.3297 266.523 32.7963 267.248C31.6657 268.806 30.759 270.48 30.0763 272.272C29.8417 272.891 29.6497 273.488 29.5003 274.064C30.311 273.552 31.1323 272.763 31.9643 271.696C32.583 270.886 33.4577 269.51 34.5883 267.568C35.0363 266.779 35.3563 266.096 35.5483 265.52C35.655 265.158 35.687 264.902 35.6443 264.752ZM35.6763 264.752H35.7083H35.6763ZM28.1883 274.736C28.3377 273.862 28.6043 272.902 28.9883 271.856C29.7137 269.979 30.6737 268.219 31.8683 266.576C32.4443 265.787 32.9883 265.147 33.5003 264.656C34.0977 264.102 34.6417 263.76 35.1323 263.632C35.495 263.547 35.815 263.558 36.0923 263.664C36.391 263.771 36.6043 263.984 36.7323 264.304C36.8603 264.688 36.8283 265.2 36.6363 265.84C36.423 266.523 36.0817 267.291 35.6123 268.144C34.4817 270.086 33.5643 271.504 32.8603 272.4C31.687 273.936 30.4817 274.96 29.2443 275.472C29.2017 276.006 29.223 276.475 29.3083 276.88C29.415 277.414 29.6497 277.808 30.0123 278.064C30.439 278.342 31.0363 278.459 31.8043 278.416C32.5937 278.374 33.3083 278.15 33.9483 277.744C34.6097 277.318 35.3563 276.72 36.1883 275.952L36.8603 275.28C37.0523 275.088 37.2443 274.886 37.4363 274.672C37.6283 274.438 37.767 274.256 37.8523 274.128L38.3643 273.456L38.9723 272.656C39.0577 272.528 39.175 272.454 39.3243 272.432C39.495 272.411 39.6443 272.454 39.7723 272.56C39.9003 272.646 39.975 272.774 39.9963 272.944C40.0177 273.094 39.975 273.232 39.8683 273.36L39.2923 274.128C39.0363 274.491 38.855 274.726 38.7483 274.832L38.3003 275.408C38.1083 275.643 37.9057 275.867 37.6923 276.08C37.5003 276.294 37.255 276.528 36.9563 276.784C36.4017 277.318 35.911 277.755 35.4843 278.096C35.079 278.416 34.5457 278.736 33.8843 279.056C33.223 279.355 32.551 279.526 31.8683 279.568C30.823 279.632 29.991 279.44 29.3723 278.992C28.7537 278.587 28.359 277.968 28.1883 277.136C28.0817 276.603 28.0603 275.995 28.1243 275.312L28.0923 275.28C28.0283 275.067 28.0603 274.886 28.1883 274.736ZM40.6488 276.176V274.96C40.6062 270.95 40.7235 267.867 41.0008 265.712C41.0222 265.542 41.0968 265.414 41.2248 265.328C41.3528 265.222 41.4915 265.179 41.6408 265.2C41.8115 265.222 41.9395 265.296 42.0248 265.424C42.1315 265.552 42.1742 265.691 42.1528 265.84C41.9395 267.419 41.8222 269.275 41.8008 271.408C42.9102 268.678 44.6915 266.086 47.1448 263.632C47.2728 263.526 47.4115 263.472 47.5608 263.472C47.7102 263.472 47.8382 263.536 47.9448 263.664C48.0728 263.771 48.1368 263.899 48.1368 264.048C48.1368 264.198 48.0835 264.336 47.9768 264.464C46.2488 266.192 44.8195 268.07 43.6888 270.096C42.5582 272.123 41.9288 274.182 41.8008 276.272C41.8008 276.507 41.8328 276.987 41.8968 277.712C41.9608 278.438 41.9928 278.864 41.9928 278.992C42.0142 279.248 42.0248 279.419 42.0248 279.504C42.0248 279.568 42.0035 279.632 41.9608 279.696C41.9182 279.824 41.8222 279.92 41.6728 279.984C41.4595 280.07 41.2675 280.048 41.0968 279.92C40.9688 279.814 40.9048 279.728 40.9048 279.664C40.9048 279.643 40.8942 279.611 40.8728 279.568C40.8515 279.526 40.8302 279.43 40.8088 279.28C40.6382 278.256 40.5848 277.222 40.6488 276.176ZM71.3841 260.24C71.5334 259.558 71.3841 259.078 70.9361 258.8C70.4454 258.523 69.7201 258.427 68.7601 258.512C67.8001 258.619 66.9041 258.864 66.0721 259.248C65.2827 259.632 64.8241 260.006 64.6961 260.368C64.4614 261.051 64.8347 261.766 65.8161 262.512C66.1361 262.768 66.6374 263.099 67.3201 263.504C68.0027 263.931 68.4507 264.23 68.6641 264.4C71.2027 266.47 72.6961 268.486 73.1441 270.448C73.7201 272.88 72.7601 275.163 70.2641 277.296C69.0694 278.299 67.7894 278.971 66.4241 279.312C65.4214 279.547 64.3441 279.579 63.1921 279.408C62.0614 279.216 61.1014 278.832 60.3121 278.256C59.4161 277.616 58.8934 276.806 58.7441 275.824C58.5947 274.758 58.9361 273.627 59.7681 272.432C60.1947 271.814 60.7067 271.206 61.3041 270.608C61.9014 270.011 62.3601 269.584 62.6801 269.328C63.0001 269.051 63.6294 268.56 64.5681 267.856L66.1681 266.672C66.2961 266.566 66.4347 266.523 66.5841 266.544C66.7547 266.566 66.8827 266.64 66.9681 266.768C67.0747 266.896 67.1174 267.046 67.0961 267.216C67.0747 267.366 67.0001 267.483 66.8721 267.568C66.5734 267.803 66.1147 268.144 65.4961 268.592C64.8774 269.04 64.4081 269.392 64.0881 269.648C63.7681 269.904 63.3841 270.235 62.9361 270.64C62.4881 271.024 62.0827 271.419 61.7201 271.824C61.3787 272.208 61.0481 272.624 60.7281 273.072C60.0667 274.032 59.7894 274.896 59.8961 275.664C59.9814 276.326 60.3441 276.88 60.9841 277.328C61.6241 277.798 62.4241 278.118 63.3841 278.288C64.3441 278.438 65.2721 278.395 66.1681 278.16C67.3201 277.883 68.4294 277.296 69.4961 276.4C71.6507 274.566 72.4934 272.667 72.0241 270.704C71.6187 268.998 70.2641 267.195 67.9601 265.296C67.7894 265.168 67.3734 264.902 66.7121 264.496C66.0081 264.07 65.4747 263.718 65.1121 263.44C63.7041 262.352 63.2027 261.2 63.6081 259.984C63.8214 259.323 64.4721 258.736 65.5601 258.224C66.5201 257.755 67.5441 257.467 68.6321 257.36C69.8694 257.254 70.8401 257.414 71.5441 257.84C72.4827 258.395 72.7921 259.28 72.4721 260.496C72.4507 260.667 72.3654 260.795 72.2161 260.88C72.0881 260.944 71.9387 260.966 71.7681 260.944C71.6187 260.902 71.5014 260.816 71.4161 260.688C71.3521 260.539 71.3414 260.39 71.3841 260.24ZM75.3521 263.76C74.7334 267.11 74.3921 269.787 74.3281 271.792C74.2427 275.142 74.7974 277.499 75.9921 278.864C76.0987 278.992 76.1414 279.142 76.1201 279.312C76.1201 279.462 76.0561 279.59 75.9281 279.696C75.8214 279.782 75.6827 279.824 75.5121 279.824C75.3627 279.803 75.2454 279.739 75.1601 279.632C73.7521 278.032 73.0907 275.408 73.1761 271.76C73.2401 269.712 73.5814 266.982 74.2001 263.568C74.2427 263.398 74.3281 263.27 74.4561 263.184C74.5841 263.099 74.7227 263.078 74.8721 263.12C75.0427 263.142 75.1707 263.216 75.2561 263.344C75.3414 263.472 75.3734 263.611 75.3521 263.76ZM75.1601 259.664C75.2881 259.771 75.3521 259.899 75.3521 260.048C75.3521 260.198 75.2881 260.336 75.1601 260.464C75.0534 260.571 74.9254 260.624 74.7761 260.624C74.6267 260.624 74.4881 260.571 74.3601 260.464C74.2534 260.336 74.2001 260.198 74.2001 260.048C74.2001 259.899 74.2534 259.771 74.3601 259.664C74.4881 259.536 74.6267 259.472 74.7761 259.472C74.9254 259.472 75.0534 259.536 75.1601 259.664ZM89.4806 267.728C89.2672 266.96 88.9899 266.374 88.6486 265.968C88.3286 265.542 87.8592 265.232 87.2406 265.04C86.0886 264.699 84.9366 264.902 83.7846 265.648C82.6326 266.374 81.5979 267.494 80.6806 269.008C79.8059 270.416 79.1766 271.91 78.7926 273.488C78.4299 275.046 78.3872 276.315 78.6646 277.296C78.7926 277.68 79.1019 277.968 79.5926 278.16C80.7019 278.608 81.8966 278.15 83.1766 276.784C83.8806 276.016 84.7659 274.694 85.8326 272.816C86.0886 272.368 86.4406 271.568 86.8886 270.416C87.3366 269.243 87.6139 268.592 87.7206 268.464V268.304C87.7419 268.07 87.7526 267.867 87.7526 267.696C87.7739 267.44 87.7846 267.238 87.7846 267.088C87.8059 266.982 87.8166 266.896 87.8166 266.832C87.8379 266.768 87.8592 266.715 87.8806 266.672C87.9019 266.608 87.9339 266.555 87.9766 266.512C88.0832 266.363 88.2326 266.288 88.4246 266.288C88.5739 266.288 88.6912 266.331 88.7766 266.416C88.8832 266.502 88.9472 266.576 88.9686 266.64L89.0006 266.768V266.928V267.28V269.36C89.0219 271.046 89.0539 272.368 89.0966 273.328C89.1179 273.798 89.1819 274.576 89.2886 275.664C89.4166 276.795 89.4912 277.659 89.5126 278.256C89.6192 280.39 89.3739 282.086 88.7766 283.344C88.3072 284.326 87.5712 285.04 86.5686 285.488C85.5872 285.936 84.4992 286.128 83.3046 286.064C82.1952 286.022 81.1179 285.787 80.0726 285.36C79.0272 284.955 78.1846 284.422 77.5446 283.76C77.4379 283.654 77.3846 283.515 77.3846 283.344C77.3846 283.195 77.4379 283.067 77.5446 282.96C77.6726 282.854 77.8112 282.8 77.9606 282.8C78.1312 282.8 78.2699 282.864 78.3766 282.992C78.8886 283.526 79.6032 283.963 80.5206 284.304C81.4379 284.667 82.3766 284.87 83.3366 284.912C84.3606 284.955 85.2566 284.806 86.0246 284.464C86.8139 284.123 87.3899 283.579 87.7526 282.832C88.2646 281.766 88.4672 280.262 88.3606 278.32C88.3392 277.744 88.2752 276.902 88.1686 275.792C88.0406 274.683 87.9659 273.883 87.9446 273.392C87.9232 273.03 87.9019 272.358 87.8806 271.376C87.6032 271.995 87.2619 272.667 86.8566 273.392C85.7686 275.312 84.8192 276.71 84.0086 277.584C82.3872 279.334 80.7659 279.888 79.1446 279.248C78.3126 278.907 77.7899 278.363 77.5766 277.616C77.2139 276.443 77.2352 274.992 77.6406 273.264C78.0672 271.536 78.7499 269.915 79.6886 268.4C80.7126 266.758 81.9072 265.499 83.2726 264.624C84.6592 263.728 86.0886 263.504 87.5606 263.952C88.4139 264.208 89.0646 264.624 89.5126 265.2C89.9819 265.776 90.3339 266.512 90.5686 267.408C90.6112 267.579 90.5899 267.739 90.5046 267.888C90.4406 268.016 90.3232 268.102 90.1526 268.144C90.0032 268.166 89.8539 268.144 89.7046 268.08C89.5766 267.995 89.5019 267.878 89.4806 267.728ZM90.9956 265.072C90.8462 265.99 90.7929 267.483 90.8356 269.552C90.8356 269.894 90.8569 270.299 90.8996 270.768C91.1769 270.128 91.6036 269.35 92.1796 268.432C92.7556 267.558 93.3849 266.758 94.0676 266.032C94.9636 265.094 95.8169 264.496 96.6276 264.24C97.7156 263.92 98.6649 264.198 99.4756 265.072C100.244 265.883 100.745 267.12 100.98 268.784C101.086 269.51 101.161 270.779 101.204 272.592C101.225 273.339 101.204 274.459 101.14 275.952C101.076 277.51 101.044 278.608 101.044 279.248C101.044 279.398 100.98 279.536 100.852 279.664C100.745 279.771 100.617 279.824 100.468 279.824C100.318 279.824 100.18 279.771 100.052 279.664C99.9449 279.536 99.8916 279.398 99.8916 279.248C99.8916 278.587 99.9236 277.467 99.9876 275.888C100.052 274.395 100.073 273.296 100.052 272.592C100.009 270.843 99.9449 269.627 99.8596 268.944C99.6462 267.515 99.2409 266.48 98.6436 265.84C98.1529 265.328 97.5876 265.168 96.9476 265.36C96.3289 265.552 95.6462 266.043 94.8996 266.832C94.2596 267.494 93.6516 268.272 93.0756 269.168C92.5209 270.043 92.1369 270.768 91.9236 271.344C91.7529 271.75 91.4862 272.678 91.1236 274.128C91.2089 275.835 91.1022 277.232 90.8036 278.32V278.48C90.7822 278.63 90.7609 278.726 90.7396 278.768C90.7182 278.96 90.6756 279.099 90.6116 279.184C90.5049 279.355 90.3556 279.462 90.1636 279.504C89.9929 279.526 89.8329 279.483 89.6836 279.376C89.4489 279.227 89.3102 278.939 89.2676 278.512C89.2462 278.256 89.2569 277.936 89.2996 277.552C89.3849 276.955 89.5342 276.112 89.7476 275.024C89.8116 274.662 89.8862 274.32 89.9716 274C89.9502 273.659 89.8969 272.976 89.8116 271.952C89.7476 270.928 89.7049 270.128 89.6836 269.552C89.6409 267.44 89.6942 265.883 89.8436 264.88C89.8649 264.731 89.9396 264.614 90.0676 264.528C90.2169 264.422 90.3662 264.379 90.5156 264.4C90.6649 264.422 90.7822 264.507 90.8676 264.656C90.9742 264.784 91.0169 264.923 90.9956 265.072ZM104.194 264.272C103.874 265.126 103.597 266.32 103.362 267.856C103.128 269.371 103.032 270.864 103.074 272.336C103.117 274.043 103.362 275.398 103.81 276.4C104.301 277.488 105.005 278.107 105.922 278.256C106.584 278.363 107.266 277.936 107.97 276.976C108.632 276.059 109.261 274.736 109.858 273.008C110.648 270.662 111.181 268.358 111.458 266.096C111.458 265.968 111.458 265.755 111.458 265.456C111.48 265.158 111.49 264.955 111.49 264.848V264.528C111.49 264.486 111.501 264.443 111.522 264.4V264.368C111.522 264.304 111.544 264.23 111.586 264.144C111.65 263.995 111.768 263.899 111.938 263.856C112.216 263.792 112.429 263.878 112.578 264.112L112.642 264.304C112.664 264.347 112.674 264.379 112.674 264.4V264.528V264.976C112.674 265.296 112.642 265.702 112.578 266.192V266.512C112.514 267.686 112.44 268.752 112.354 269.712C112.269 270.758 112.216 271.782 112.194 272.784C112.173 273.787 112.322 274.79 112.642 275.792C112.984 276.774 113.496 277.542 114.178 278.096C114.306 278.203 114.381 278.342 114.402 278.512C114.424 278.662 114.381 278.8 114.274 278.928C114.168 279.035 114.029 279.099 113.858 279.12C113.709 279.142 113.581 279.099 113.474 278.992C111.981 277.755 111.181 275.771 111.074 273.04L110.946 273.392C110.306 275.227 109.624 276.656 108.898 277.68C107.917 279.024 106.861 279.6 105.73 279.408C104.408 279.174 103.416 278.331 102.754 276.88C102.242 275.75 101.965 274.246 101.922 272.368C101.88 270.832 101.986 269.264 102.242 267.664C102.477 266.064 102.765 264.806 103.106 263.888C103.17 263.739 103.266 263.632 103.394 263.568C103.544 263.504 103.693 263.504 103.842 263.568C103.992 263.611 104.098 263.707 104.162 263.856C104.226 263.984 104.237 264.123 104.194 264.272ZM114.818 277.68C115.672 277.659 116.589 277.318 117.57 276.656C118.552 275.974 119.448 275.11 120.258 274.064C121.09 272.955 121.677 271.846 122.018 270.736C122.36 269.606 122.37 268.635 122.05 267.824C121.474 266.331 120.312 265.67 118.562 265.84C117.794 265.926 117.037 266.16 116.29 266.544C115.565 266.928 114.968 267.408 114.498 267.984C114.498 268.944 114.509 269.926 114.53 270.928C114.552 271.931 114.594 273.19 114.658 274.704C114.744 276.219 114.797 277.211 114.818 277.68ZM115.042 285.968V286.032C115.042 286.054 115.032 286.096 115.01 286.16C115.01 286.182 115 286.214 114.978 286.256C114.936 286.384 114.84 286.48 114.69 286.544C114.434 286.651 114.21 286.587 114.018 286.352C113.976 286.31 113.944 286.256 113.922 286.192L113.89 286.064V286V285.936V285.328C113.869 284.304 113.858 283.75 113.858 283.664C113.858 283.366 113.816 281.862 113.73 279.152C113.688 277.979 113.645 276.795 113.602 275.6C113.517 274.064 113.453 272.784 113.41 271.76C113.368 270.736 113.346 269.542 113.346 268.176C113.368 266.811 113.432 265.552 113.538 264.4C113.56 264.251 113.624 264.123 113.73 264.016C113.858 263.91 113.997 263.867 114.146 263.888C114.317 263.91 114.456 263.984 114.562 264.112C114.669 264.219 114.712 264.358 114.69 264.528C114.626 265.104 114.584 265.702 114.562 266.32C115.736 265.382 117.026 264.848 118.434 264.72C119.48 264.614 120.418 264.784 121.25 265.232C122.104 265.659 122.733 266.395 123.138 267.44C123.544 268.486 123.544 269.67 123.138 270.992C122.754 272.294 122.104 273.552 121.186 274.768C120.29 275.899 119.277 276.848 118.146 277.616C117.037 278.384 115.949 278.79 114.882 278.832V279.088C114.968 281.776 115.01 283.302 115.01 283.664C115.01 283.878 115.021 284.326 115.042 285.008V285.136V285.84V285.968Z" fill="#181818"/>
<path d="M816.302 42.3759C815.716 42.9616 815.716 43.9114 816.302 44.4972L825.848 54.0431C826.433 54.6289 827.383 54.6289 827.969 54.0431C828.555 53.4573 828.555 52.5076 827.969 51.9218L819.484 43.4365L827.969 34.9512C828.555 34.3655 828.555 33.4157 827.969 32.8299C827.383 32.2441 826.433 32.2441 825.848 32.8299L816.302 42.3759ZM873.616 52.7746L873.045 54.1618L873.616 52.7746ZM903.242 69.3706L902.335 70.5656L903.242 69.3706ZM920.083 91.5872L918.765 92.3038L920.083 91.5872ZM938.334 131.241L939.758 130.768L938.334 131.241ZM939.113 138.266C939.571 138.956 940.502 139.144 941.192 138.686C941.882 138.228 942.07 137.297 941.612 136.607L939.113 138.266ZM820.22 44.9494C821.048 44.9571 821.726 44.2917 821.734 43.4633C821.741 42.6349 821.076 41.9572 820.248 41.9495L820.22 44.9494ZM826.021 42.0643C825.193 42.0383 824.5 42.6885 824.474 43.5165C824.448 44.3446 825.099 45.0369 825.927 45.0628L826.021 42.0643ZM831.621 45.3165C832.448 45.3649 833.157 44.7338 833.206 43.9068C833.254 43.0798 832.623 42.3701 831.796 42.3216L831.621 45.3165ZM837.57 42.7511C836.745 42.6759 836.015 43.2839 835.94 44.1089C835.865 44.9339 836.473 45.6636 837.298 45.7387L837.57 42.7511ZM842.949 46.3569C843.771 46.4626 844.522 45.8822 844.628 45.0606C844.734 44.2389 844.153 43.4871 843.332 43.3815L842.949 46.3569ZM849.071 44.2395C848.254 44.0997 847.479 44.6483 847.339 45.4649C847.2 46.2814 847.748 47.0567 848.565 47.1965L849.071 44.2395ZM854.133 48.2791C854.942 48.4558 855.742 47.943 855.919 47.1337C856.095 46.3243 855.583 45.5249 854.773 45.3482L854.133 48.2791ZM860.421 46.7246C859.621 46.5088 858.798 46.9823 858.582 47.7822C858.366 48.582 858.84 49.4053 859.64 49.6211L860.421 46.7246ZM865.07 51.2326C865.858 51.4883 866.704 51.0567 866.96 50.2687C867.216 49.4807 866.784 48.6347 865.996 48.379L865.07 51.2326ZM871.481 50.3146C870.707 50.0191 869.84 50.4069 869.545 51.1808C869.249 51.9547 869.637 52.8217 870.411 53.1172L871.481 50.3146ZM875.634 55.2544C876.394 55.5835 877.277 55.2341 877.607 54.4739C877.936 53.7137 877.586 52.8305 876.826 52.5014L875.634 55.2544ZM882.042 54.8767C881.295 54.5191 880.399 54.8351 880.042 55.5824C879.684 56.3297 880 57.2254 880.747 57.5829L882.042 54.8767ZM885.765 60.1049C886.497 60.4916 887.405 60.2111 887.792 59.4784C888.178 58.7458 887.898 57.8384 887.165 57.4517L885.765 60.1049ZM892.183 60.2342C891.467 59.8172 890.549 60.0595 890.132 60.7753C889.715 61.4911 889.957 62.4094 890.673 62.8264L892.183 60.2342ZM895.453 65.7561C896.149 66.205 897.078 66.0046 897.527 65.3084C897.976 64.6122 897.775 63.6838 897.079 63.2348L895.453 65.7561ZM901.833 66.4675C901.16 65.9846 900.223 66.1387 899.74 66.8118C899.257 67.4849 899.411 68.4221 900.084 68.905L901.833 66.4675ZM904.939 72.7257C905.554 73.2815 906.502 73.2342 907.058 72.6199C907.614 72.0056 907.567 71.057 906.952 70.5012L904.939 72.7257ZM911.921 75.7878C911.401 75.143 910.456 75.0419 909.811 75.562C909.167 76.0821 909.065 77.0264 909.586 77.6713L911.921 75.7878ZM913.558 83.2585C914.002 83.9576 914.929 84.164 915.628 83.7195C916.328 83.275 916.534 82.348 916.089 81.6489L913.558 83.2585ZM919.703 87.7772C919.3 87.0534 918.386 86.7932 917.662 87.1962C916.939 87.5991 916.678 88.5125 917.081 89.2364L919.703 87.7772ZM920.064 94.7015C920.457 95.4306 921.367 95.7028 922.096 95.3094C922.825 94.9161 923.098 94.0062 922.704 93.2771L920.064 94.7015ZM925.284 98.1104C924.897 97.3776 923.99 97.0965 923.257 97.4827C922.524 97.869 922.243 98.7762 922.63 99.5091L925.284 98.1104ZM925.135 104.341C925.511 105.079 926.415 105.373 927.153 104.997C927.891 104.621 928.185 103.718 927.809 102.979L925.135 104.341ZM930.258 107.894C929.896 107.149 928.998 106.839 928.253 107.202C927.508 107.564 927.198 108.462 927.561 109.207L930.258 107.894ZM929.885 114.115C930.231 114.868 931.122 115.197 931.874 114.851C932.627 114.506 932.957 113.615 932.611 112.862L929.885 114.115ZM934.845 117.892C934.519 117.13 933.637 116.777 932.876 117.103C932.114 117.429 931.761 118.311 932.087 119.072L934.845 117.892ZM934.144 124.085C934.446 124.856 935.317 125.236 936.088 124.933C936.859 124.631 937.239 123.76 936.937 122.989L934.144 124.085ZM938.863 128.157C938.588 127.376 937.731 126.966 936.95 127.242C936.169 127.517 935.759 128.374 936.035 129.155L938.863 128.157ZM937.319 133.177C937.518 133.981 938.331 134.472 939.135 134.272C939.939 134.073 940.43 133.26 940.231 132.456L937.319 133.177ZM941.052 135.451C940.765 134.674 939.903 134.276 939.126 134.563C938.348 134.849 937.951 135.712 938.237 136.489L941.052 135.451ZM817.362 44.9365C818.319 44.9365 819.271 44.9407 820.22 44.9494L820.248 41.9495C819.289 41.9407 818.327 41.9365 817.362 41.9365V44.9365ZM825.927 45.0628C827.838 45.1228 829.735 45.206 831.621 45.3165L831.796 42.3216C829.881 42.2094 827.956 42.125 826.021 42.0643L825.927 45.0628ZM837.298 45.7387C839.191 45.9111 841.074 46.1157 842.949 46.3569L843.332 43.3815C841.418 43.1352 839.498 42.9266 837.57 42.7511L837.298 45.7387ZM848.565 47.1965C850.426 47.5152 852.281 47.8746 854.133 48.2791L854.773 45.3482C852.875 44.9336 850.975 44.5656 849.071 44.2395L848.565 47.1965ZM859.64 49.6211C861.451 50.1095 863.26 50.6454 865.07 51.2326L865.996 48.379C864.137 47.776 862.279 47.2259 860.421 46.7246L859.64 49.6211ZM870.411 53.1172C871.288 53.4523 872.167 53.8003 873.045 54.1618L874.187 51.3873C873.284 51.0161 872.382 50.6587 871.481 50.3146L870.411 53.1172ZM873.045 54.1618C873.909 54.5168 874.772 54.881 875.634 55.2544L876.826 52.5014C875.947 52.1206 875.067 51.7492 874.187 51.3873L873.045 54.1618ZM880.747 57.5829C882.432 58.3888 884.107 59.2297 885.765 60.1049L887.165 57.4517C885.471 56.5576 883.761 55.6991 882.042 54.8767L880.747 57.5829ZM890.673 62.8264C892.292 63.7696 893.887 64.7463 895.453 65.7561L897.079 63.2348C895.474 62.1996 893.839 61.1992 892.183 60.2342L890.673 62.8264ZM900.084 68.905C900.844 69.4503 901.595 70.0038 902.335 70.5656L904.149 68.1757C903.386 67.5974 902.614 67.028 901.833 66.4675L900.084 68.905ZM902.335 70.5656C903.249 71.2589 904.115 71.9796 904.939 72.7257L906.952 70.5012C906.065 69.6986 905.133 68.9226 904.149 68.1757L902.335 70.5656ZM909.586 77.6713C911.013 79.4407 912.318 81.308 913.558 83.2585L916.089 81.6489C914.804 79.6268 913.434 77.6639 911.921 75.7878L909.586 77.6713ZM917.081 89.2364C917.643 90.2458 918.202 91.2682 918.765 92.3038L921.4 90.8706C920.836 89.8324 920.272 88.7997 919.703 87.7772L917.081 89.2364ZM918.765 92.3038C919.199 93.1027 919.633 93.9018 920.064 94.7015L922.704 93.2771C922.271 92.474 921.836 91.6719 921.4 90.8706L918.765 92.3038ZM922.63 99.5091C923.476 101.116 924.313 102.726 925.135 104.341L927.809 102.979C926.979 101.35 926.136 99.7276 925.284 98.1104L922.63 99.5091ZM927.561 109.207C928.354 110.836 929.13 112.471 929.885 114.115L932.611 112.862C931.846 111.197 931.06 109.541 930.258 107.894L927.561 109.207ZM932.087 119.072C932.797 120.733 933.484 122.403 934.144 124.085L936.937 122.989C936.265 121.277 935.567 119.579 934.845 117.892L932.087 119.072ZM936.035 129.155C936.334 130.005 936.627 130.857 936.911 131.713L939.758 130.768C939.468 129.894 939.169 129.024 938.863 128.157L936.035 129.155ZM936.911 131.713C937.056 132.15 937.185 132.637 937.319 133.177L940.231 132.456C940.093 131.9 939.941 131.32 939.758 130.768L936.911 131.713ZM938.237 136.489C938.46 137.092 938.74 137.704 939.113 138.266L941.612 136.607C941.408 136.299 941.223 135.915 941.052 135.451L938.237 136.489Z" fill="black"/>
<path d="M74.6784 303.898C74.2791 303.173 73.3669 302.908 72.6411 303.307C71.9153 303.707 71.6507 304.619 72.0501 305.345L74.6784 303.898ZM116.444 344.775L115.62 346.029L115.65 346.048L115.68 346.066L116.444 344.775ZM132.964 354.54L132.201 355.831L132.279 355.877L132.362 355.913L132.964 354.54ZM188.8 377.741L188.324 379.164L188.8 377.741ZM404.668 393.944C405.074 393.222 404.818 392.307 404.096 391.901L392.328 385.285C391.606 384.879 390.692 385.135 390.286 385.857C389.88 386.579 390.136 387.494 390.858 387.9L401.318 393.781L395.436 404.241C395.03 404.963 395.286 405.878 396.009 406.284C396.731 406.69 397.645 406.433 398.051 405.711L404.668 393.944ZM73.6248 307.972C74.0747 308.668 75.0033 308.867 75.6989 308.417C76.3946 307.967 76.5939 307.039 76.1441 306.343L73.6248 307.972ZM79.5434 311.022C79.0256 310.376 78.0816 310.271 77.4349 310.789C76.7882 311.307 76.6837 312.251 77.2015 312.897L79.5434 311.022ZM81.1415 317.468C81.7025 318.077 82.6514 318.117 83.261 317.556C83.8705 316.995 83.9098 316.046 83.3488 315.436L81.1415 317.468ZM87.4294 319.64C86.8382 319.06 85.8885 319.069 85.3082 319.66C84.7279 320.251 84.7367 321.201 85.3279 321.781L87.4294 319.64ZM89.6898 325.891C90.3034 326.447 91.2521 326.401 91.8086 325.787C92.3651 325.174 92.3188 324.225 91.7052 323.669L89.6898 325.891ZM96.1275 327.547C95.4963 327.011 94.5496 327.088 94.0132 327.719C93.4767 328.35 93.5535 329.297 94.1848 329.833L96.1275 327.547ZM98.7961 333.642C99.4419 334.161 100.386 334.058 100.905 333.412C101.424 332.767 101.321 331.822 100.675 331.303L98.7961 333.642ZM105.318 334.941C104.66 334.438 103.718 334.563 103.215 335.222C102.712 335.88 102.838 336.821 103.496 337.324L105.318 334.941ZM108.283 340.896C108.953 341.383 109.891 341.236 110.379 340.566C110.866 339.897 110.719 338.959 110.049 338.471L108.283 340.896ZM114.857 341.885C114.175 341.414 113.241 341.585 112.77 342.266C112.299 342.948 112.469 343.882 113.151 344.353L114.857 341.885ZM117.745 347.287C118.459 347.708 119.378 347.472 119.8 346.759C120.222 346.046 119.985 345.126 119.272 344.704L117.745 347.287ZM123.402 347.145C122.689 346.724 121.769 346.96 121.348 347.673C120.926 348.387 121.162 349.306 121.876 349.728L123.402 347.145ZM126.006 352.169C126.719 352.591 127.639 352.354 128.06 351.641C128.482 350.928 128.245 350.008 127.532 349.587L126.006 352.169ZM131.662 352.028C130.949 351.606 130.029 351.843 129.608 352.556C129.186 353.269 129.423 354.189 130.136 354.61L131.662 352.028ZM135.125 357.133C135.882 357.469 136.768 357.127 137.104 356.37C137.44 355.613 137.099 354.726 136.342 354.39L135.125 357.133ZM141.87 356.865C141.115 356.524 140.227 356.861 139.886 357.616C139.546 358.371 139.882 359.259 140.637 359.6L141.87 356.865ZM146.148 362.09C146.903 362.432 147.792 362.096 148.133 361.342C148.474 360.587 148.139 359.698 147.385 359.357L146.148 362.09ZM152.894 361.841C152.139 361.502 151.251 361.84 150.912 362.596C150.573 363.352 150.911 364.239 151.667 364.578L152.894 361.841ZM157.208 367.037C157.966 367.37 158.851 367.025 159.184 366.266C159.517 365.508 159.171 364.623 158.413 364.29L157.208 367.037ZM163.948 366.681C163.186 366.357 162.305 366.713 161.982 367.476C161.658 368.238 162.014 369.119 162.777 369.442L163.948 366.681ZM168.383 371.773C169.151 372.085 170.026 371.715 170.338 370.948C170.65 370.18 170.28 369.305 169.513 368.993L168.383 371.773ZM175.112 371.214C174.339 370.915 173.471 371.3 173.172 372.072C172.873 372.845 173.258 373.714 174.03 374.012L175.112 371.214ZM179.718 376.151C180.496 376.436 181.357 376.036 181.642 375.258C181.926 374.48 181.526 373.618 180.748 373.334L179.718 376.151ZM186.421 375.349C185.638 375.079 184.784 375.495 184.514 376.278C184.244 377.061 184.66 377.915 185.443 378.185L186.421 375.349ZM191.13 380.093C191.918 380.35 192.765 379.921 193.023 379.134C193.28 378.347 192.851 377.499 192.064 377.242L191.13 380.093ZM197.632 379.024C196.841 378.777 195.999 379.217 195.752 380.008C195.505 380.798 195.946 381.64 196.736 381.887L197.632 379.024ZM202.366 383.605C203.16 383.841 203.995 383.389 204.231 382.595C204.468 381.801 204.016 380.966 203.222 380.73L202.366 383.605ZM208.833 382.356C208.036 382.131 207.207 382.595 206.982 383.393C206.757 384.19 207.221 385.019 208.019 385.244L208.833 382.356ZM213.694 386.8C214.495 387.013 215.316 386.537 215.53 385.737C215.743 384.936 215.267 384.114 214.466 383.901L213.694 386.8ZM220.124 385.363C219.321 385.162 218.506 385.65 218.305 386.454C218.104 387.257 218.592 388.072 219.396 388.273L220.124 385.363ZM225.124 389.66C225.931 389.849 226.738 389.348 226.926 388.541C227.115 387.735 226.614 386.928 225.808 386.739L225.124 389.66ZM231.509 388.027C230.7 387.85 229.901 388.364 229.724 389.173C229.548 389.983 230.062 390.782 230.871 390.958L231.509 388.027ZM236.636 392.165C237.448 392.328 238.239 391.802 238.402 390.99C238.565 390.178 238.04 389.387 237.227 389.224L236.636 392.165ZM242.961 390.33C242.147 390.18 241.364 390.718 241.214 391.533C241.063 392.347 241.602 393.13 242.417 393.28L242.961 390.33ZM248.216 394.304C249.033 394.442 249.807 393.891 249.945 393.074C250.082 392.257 249.531 391.483 248.714 391.346L248.216 394.304ZM254.487 392.271C253.668 392.146 252.903 392.709 252.778 393.528C252.653 394.347 253.216 395.112 254.035 395.237L254.487 392.271ZM259.864 396.078C260.685 396.19 261.441 395.616 261.553 394.795C261.665 393.974 261.091 393.218 260.27 393.106L259.864 396.078ZM266.064 393.852C265.242 393.752 264.494 394.338 264.394 395.161C264.295 395.983 264.881 396.73 265.703 396.83L266.064 393.852ZM271.555 397.495C272.378 397.583 273.117 396.986 273.205 396.162C273.292 395.338 272.695 394.599 271.872 394.512L271.555 397.495ZM277.689 395.089C276.864 395.013 276.134 395.62 276.058 396.445C275.982 397.27 276.589 398 277.414 398.076L277.689 395.089ZM283.279 398.577C284.105 398.642 284.827 398.025 284.892 397.199C284.957 396.373 284.34 395.651 283.514 395.586L283.279 398.577ZM289.346 396.008C288.52 395.953 287.805 396.579 287.751 397.406C287.696 398.232 288.322 398.947 289.149 399.001L289.346 396.008ZM295.022 399.355C295.849 399.4 296.556 398.766 296.601 397.938C296.646 397.111 296.012 396.404 295.185 396.359L295.022 399.355ZM301.029 396.645C300.201 396.609 299.501 397.251 299.464 398.078C299.428 398.906 300.07 399.606 300.897 399.643L301.029 396.645ZM306.775 399.871C307.603 399.899 308.297 399.25 308.325 398.422C308.354 397.594 307.705 396.9 306.877 396.872L306.775 399.871ZM312.727 397.046C311.899 397.025 311.21 397.679 311.189 398.507C311.168 399.335 311.823 400.024 312.651 400.045L312.727 397.046ZM318.527 400.171C319.355 400.186 320.039 399.527 320.053 398.699C320.068 397.87 319.409 397.187 318.58 397.172L318.527 400.171ZM324.438 397.257C323.61 397.248 322.931 397.912 322.921 398.74C322.912 399.569 323.575 400.248 324.404 400.257L324.438 397.257ZM330.279 400.308C331.107 400.313 331.783 399.646 331.788 398.817C331.793 397.989 331.125 397.313 330.297 397.308L330.279 400.308ZM336.155 397.331C335.326 397.329 334.654 398 334.652 398.828C334.651 399.657 335.321 400.329 336.149 400.331L336.155 397.331ZM342.326 400.335C343.154 400.335 343.826 399.664 343.827 398.836C343.827 398.007 343.156 397.335 342.328 397.335L342.326 400.335ZM348.796 397.331C347.968 397.333 347.298 398.007 347.301 398.835C347.303 399.664 347.976 400.333 348.805 400.331L348.796 397.331ZM355.292 400.286C356.12 400.276 356.784 399.597 356.774 398.768C356.764 397.94 356.084 397.277 355.256 397.287L355.292 400.286ZM361.705 397.162C360.877 397.185 360.224 397.875 360.247 398.703C360.27 399.531 360.959 400.184 361.788 400.161L361.705 397.162ZM368.289 399.916C369.116 399.875 369.754 399.171 369.713 398.344C369.673 397.516 368.969 396.879 368.142 396.919L368.289 399.916ZM374.561 396.518C373.735 396.582 373.117 397.303 373.18 398.129C373.244 398.955 373.965 399.573 374.791 399.509L374.561 396.518ZM381.287 398.901C382.11 398.81 382.703 398.068 382.612 397.245C382.52 396.421 381.779 395.828 380.955 395.92L381.287 398.901ZM387.315 395.087C386.496 395.212 385.932 395.976 386.057 396.795C386.181 397.614 386.945 398.178 387.765 398.053L387.315 395.087ZM394.208 396.929C395.021 396.767 395.549 395.978 395.387 395.165C395.226 394.353 394.436 393.825 393.624 393.986L394.208 396.929ZM399.866 392.585C399.062 392.787 398.575 393.602 398.777 394.406C398.979 395.209 399.794 395.697 400.597 395.495L399.866 392.585ZM72.0501 305.345C72.5311 306.219 73.058 307.095 73.6248 307.972L76.1441 306.343C75.6118 305.52 75.1219 304.704 74.6784 303.898L72.0501 305.345ZM77.2015 312.897C78.4291 314.431 79.7522 315.958 81.1415 317.468L83.3488 315.436C81.9992 313.97 80.722 312.495 79.5434 311.022L77.2015 312.897ZM85.3279 321.781C86.7523 323.179 88.2145 324.553 89.6898 325.891L91.7052 323.669C90.2557 322.354 88.8226 321.008 87.4294 319.64L85.3279 321.781ZM94.1848 329.833C95.7427 331.157 97.2893 332.431 98.7961 333.642L100.675 331.303C99.1877 330.108 97.6625 328.852 96.1275 327.547L94.1848 329.833ZM103.496 337.324C105.216 338.639 106.83 339.837 108.283 340.896L110.049 338.471C108.613 337.424 107.018 336.24 105.318 334.941L103.496 337.324ZM113.151 344.353C113.928 344.891 114.543 345.308 114.965 345.592C115.176 345.734 115.339 345.842 115.449 345.916C115.505 345.952 115.547 345.98 115.575 345.999C115.59 346.009 115.601 346.016 115.608 346.021C115.612 346.023 115.615 346.025 115.617 346.027C115.618 346.027 115.619 346.028 115.619 346.028C115.62 346.028 115.62 346.028 115.62 346.029C115.62 346.029 115.62 346.029 115.62 346.029C115.62 346.029 115.62 346.029 115.62 346.029C115.62 346.029 115.62 346.029 116.444 344.775C117.267 343.521 117.267 343.521 117.267 343.521C117.267 343.521 117.267 343.521 117.267 343.521C117.267 343.521 117.267 343.521 117.267 343.521C117.267 343.521 117.267 343.521 117.267 343.521C117.266 343.521 117.266 343.52 117.265 343.52C117.264 343.519 117.261 343.517 117.258 343.515C117.252 343.511 117.242 343.505 117.229 343.496C117.202 343.478 117.162 343.452 117.109 343.417C117.004 343.346 116.846 343.241 116.64 343.103C116.227 342.825 115.623 342.415 114.857 341.885L113.151 344.353ZM115.68 346.066L117.745 347.287L119.272 344.704L117.207 343.484L115.68 346.066ZM121.876 349.728L126.006 352.169L127.532 349.587L123.402 347.145L121.876 349.728ZM130.136 354.61L132.201 355.831L133.728 353.248L131.662 352.028L130.136 354.61ZM132.362 355.913C133.29 356.321 134.211 356.727 135.125 357.133L136.342 354.39C135.424 353.983 134.5 353.575 133.567 353.166L132.362 355.913ZM140.637 359.6C142.487 360.433 144.32 361.263 146.148 362.09L147.385 359.357C145.558 358.53 143.723 357.699 141.87 356.865L140.637 359.6ZM151.667 364.578C153.503 365.401 155.346 366.221 157.208 367.037L158.413 364.29C156.56 363.477 154.725 362.661 152.894 361.841L151.667 364.578ZM162.777 369.442C164.613 370.222 166.479 370.998 168.383 371.773L169.513 368.993C167.624 368.226 165.773 367.455 163.948 366.681L162.777 369.442ZM174.03 374.012C175.881 374.727 177.774 375.44 179.718 376.151L180.748 373.334C178.822 372.629 176.946 371.923 175.112 371.214L174.03 374.012ZM185.443 378.185C186.391 378.512 187.351 378.838 188.324 379.164L189.276 376.319C188.311 375.996 187.36 375.673 186.421 375.349L185.443 378.185ZM188.324 379.164C189.263 379.478 190.199 379.788 191.13 380.093L192.064 377.242C191.138 376.939 190.209 376.631 189.276 376.319L188.324 379.164ZM196.736 381.887C198.627 382.478 200.503 383.051 202.366 383.605L203.222 380.73C201.372 380.179 199.509 379.611 197.632 379.024L196.736 381.887ZM208.019 385.244C209.924 385.781 211.815 386.3 213.694 386.8L214.466 383.901C212.602 383.404 210.724 382.89 208.833 382.356L208.019 385.244ZM219.396 388.273C221.318 388.754 223.227 389.216 225.124 389.66L225.808 386.739C223.925 386.299 222.031 385.84 220.124 385.363L219.396 388.273ZM230.871 390.958C232.804 391.378 234.725 391.781 236.636 392.165L237.227 389.224C235.332 388.843 233.426 388.444 231.509 388.027L230.871 390.958ZM242.417 393.28C244.359 393.639 246.292 393.98 248.216 394.304L248.714 391.346C246.806 391.024 244.888 390.686 242.961 390.33L242.417 393.28ZM254.035 395.237C255.985 395.534 257.928 395.814 259.864 396.078L260.27 393.106C258.349 392.844 256.421 392.566 254.487 392.271L254.035 395.237ZM265.703 396.83C267.659 397.067 269.609 397.288 271.555 397.495L271.872 394.512C269.94 394.307 268.005 394.087 266.064 393.852L265.703 396.83ZM277.414 398.076C279.372 398.256 281.326 398.423 283.279 398.577L283.514 395.586C281.574 395.433 279.633 395.268 277.689 395.089L277.414 398.076ZM289.149 399.001C291.106 399.131 293.064 399.248 295.022 399.355L295.185 396.359C293.238 396.253 291.292 396.136 289.346 396.008L289.149 399.001ZM300.897 399.643C302.854 399.728 304.813 399.804 306.775 399.871L306.877 396.872C304.924 396.806 302.975 396.73 301.029 396.645L300.897 399.643ZM312.651 400.045C314.604 400.094 316.562 400.136 318.527 400.171L318.58 397.172C316.623 397.137 314.672 397.095 312.727 397.046L312.651 400.045ZM324.404 400.257C326.354 400.28 328.312 400.296 330.279 400.308L330.297 397.308C328.335 397.296 326.383 397.28 324.438 397.257L324.404 400.257ZM336.149 400.331C337.127 400.333 338.107 400.333 339.09 400.333V397.333C338.109 397.333 337.131 397.333 336.155 397.331L336.149 400.331ZM339.09 400.333C340.169 400.333 341.247 400.334 342.326 400.335L342.328 397.335C341.249 397.334 340.17 397.333 339.09 397.333V400.333ZM348.805 400.331C350.967 400.325 353.13 400.312 355.292 400.286L355.256 397.287C353.106 397.313 350.953 397.325 348.796 397.331L348.805 400.331ZM361.788 400.161C363.956 400.102 366.123 400.022 368.289 399.916L368.142 396.919C366 397.024 363.855 397.103 361.705 397.162L361.788 400.161ZM374.791 399.509C376.958 399.342 379.123 399.142 381.287 398.901L380.955 395.92C378.828 396.156 376.697 396.354 374.561 396.518L374.791 399.509ZM387.765 398.053C389.914 397.727 392.062 397.355 394.208 396.929L393.624 393.986C391.526 394.403 389.422 394.768 387.315 395.087L387.765 398.053ZM400.597 395.495C401.654 395.229 402.71 394.949 403.765 394.653L402.956 391.764C401.927 392.053 400.897 392.326 399.866 392.585L400.597 395.495Z" fill="black"/>
<defs>
<filter id="filter0_bdi_42_244" x="138.862" y="0.436523" width="750" height="496" filterUnits="userSpaceOnUse" color-interpolation-filters="sRGB">
<feFlood flood-opacity="0" result="BackgroundImageFix"/>
<feGaussianBlur in="BackgroundImage" stdDeviation="5"/>
<feComposite in2="SourceAlpha" operator="in" result="effect1_backgroundBlur_42_244"/>
<feColorMatrix in="SourceAlpha" type="matrix" values="0 0 0 0 0 0 0 0 0 0 0 0 0 0 0 0 0 0 127 0" result="hardAlpha"/>
<feOffset dx="-10" dy="10"/>
<feGaussianBlur stdDeviation="10"/>
<feComposite in2="hardAlpha" operator="out"/>
<feColorMatrix type="matrix" values="0 0 0 0 0 0 0 0 0 0 0 0 0 0 0 0 0 0 0.16 0"/>
<feBlend mode="normal" in2="effect1_backgroundBlur_42_244" result="effect2_dropShadow_42_244"/>
<feBlend mode="normal" in="SourceGraphic" in2="effect2_dropShadow_42_244" result="shape"/>
<feColorMatrix in="SourceAlpha" type="matrix" values="0 0 0 0 0 0 0 0 0 0 0 0 0 0 0 0 0 0 127 0" result="hardAlpha"/>
<feOffset dy="-1"/>
<feGaussianBlur stdDeviation="5"/>
<feComposite in2="hardAlpha" operator="arithmetic" k2="-1" k3="1"/>
<feColorMatrix type="matrix" values="0 0 0 0 1 0 0 0 0 1 0 0 0 0 1 0 0 0 0.25 0"/>
<feBlend mode="normal" in2="shape" result="effect3_innerShadow_42_244"/>
</filter>
<linearGradient id="paint0_linear_42_244" x1="391.895" y1="-75.9124" x2="590.599" y2="440.771" gradientUnits="userSpaceOnUse">
<stop stop-color="#E6E5E5" stop-opacity="0.23"/>
<stop offset="1" stop-opacity="0"/>
</linearGradient>
<linearGradient id="paint1_linear_42_244" x1="953.721" y1="486.811" x2="523.638" y2="473.913" gradientUnits="userSpaceOnUse">
<stop stop-color="white"/>
<stop offset="1" stop-color="#FFFDFD" stop-opacity="0"/>
</linearGradient>
<clipPath id="clip0_42_244">
<rect x="168.862" y="10.4365" width="710" height="456" rx="16" fill="white"/>
</clipPath>
<clipPath id="clip1_42_244">
<rect width="75.1227" height="75.1227" fill="white" transform="translate(486.301 167.702)"/>
</clipPath>
<clipPath id="clip2_42_244">
<rect width="63.7834" height="20.7887" fill="white" transform="translate(491.971 242.115)"/>
</clipPath>
</defs>
</svg>
