<svg width="69" height="70" viewBox="0 0 69 70" fill="none" xmlns="http://www.w3.org/2000/svg">
<rect x="0.0449219" y="0.125488" width="68.8989" height="68.8989" rx="1" fill="#2F2F2F"/>
<path d="M50.7168 25.0938V50.625C50.7168 52.0505 50.1505 53.4177 49.1425 54.4257C48.1345 55.4337 46.7673 56 45.3418 56H23.8418C22.4163 56 21.0491 55.4337 20.0411 54.4257C19.0331 53.4177 18.4668 52.0505 18.4668 50.625V18.375C18.4668 16.9495 19.0331 15.5823 20.0411 14.5743C21.0491 13.5663 22.4163 13 23.8418 13H38.623L50.7168 25.0938ZM42.6543 25.0938C41.5851 25.0938 40.5598 24.669 39.8038 23.913C39.0478 23.157 38.623 22.1317 38.623 21.0625V15.6875H23.8418C23.129 15.6875 22.4455 15.9706 21.9414 16.4747C21.4374 16.9787 21.1543 17.6622 21.1543 18.375V50.625C21.1543 51.3378 21.4374 52.0213 21.9414 52.5253C22.4455 53.0294 23.129 53.3125 23.8418 53.3125H45.3418C46.0546 53.3125 46.7381 53.0294 47.2421 52.5253C47.7461 52.0213 48.0293 51.3378 48.0293 50.625V25.0938H42.6543Z" fill="white"/>
<path d="M36.3279 30.8611C36.4527 30.7359 36.601 30.6367 36.7642 30.5689C36.9275 30.5012 37.1025 30.4663 37.2793 30.4663C37.456 30.4663 37.631 30.5012 37.7943 30.5689C37.9575 30.6367 38.1058 30.7359 38.2306 30.8611L43.6056 36.2361C43.7308 36.3609 43.8301 36.5092 43.8978 36.6724C43.9655 36.8357 44.0004 37.0107 44.0004 37.1875C44.0004 37.3642 43.9655 37.5392 43.8978 37.7025C43.8301 37.8657 43.7308 38.014 43.6056 38.1388L38.2306 43.5138C37.9783 43.7662 37.6361 43.9079 37.2793 43.9079C36.9224 43.9079 36.5802 43.7662 36.3279 43.5138C36.0756 43.2615 35.9338 42.9193 35.9338 42.5625C35.9338 42.2056 36.0756 41.8634 36.3279 41.6111L40.7542 37.1875L36.3279 32.7638C36.2027 32.639 36.1035 32.4907 36.0357 32.3275C35.968 32.1642 35.9331 31.9892 35.9331 31.8125C35.9331 31.6357 35.968 31.4607 36.0357 31.2974C36.1035 31.1342 36.2027 30.9859 36.3279 30.8611ZM32.8556 30.8611C32.7308 30.7359 32.5825 30.6367 32.4193 30.5689C32.256 30.5012 32.081 30.4663 31.9043 30.4663C31.7275 30.4663 31.5525 30.5012 31.3892 30.5689C31.226 30.6367 31.0777 30.7359 30.9529 30.8611L25.5779 36.2361C25.4527 36.3609 25.3535 36.5092 25.2857 36.6724C25.218 36.8357 25.1831 37.0107 25.1831 37.1875C25.1831 37.3642 25.218 37.5392 25.2857 37.7025C25.3535 37.8657 25.4527 38.014 25.5779 38.1388L30.9529 43.5138C31.2052 43.7662 31.5474 43.9079 31.9043 43.9079C32.2611 43.9079 32.6033 43.7662 32.8556 43.5138C33.108 43.2615 33.2497 42.9193 33.2497 42.5625C33.2497 42.2056 33.108 41.8634 32.8556 41.6111L28.4293 37.1875L32.8556 32.7638C32.9808 32.639 33.0801 32.4907 33.1478 32.3275C33.2155 32.1642 33.2504 31.9892 33.2504 31.8125C33.2504 31.6357 33.2155 31.4607 33.1478 31.2974C33.0801 31.1342 32.9808 30.9859 32.8556 30.8611Z" fill="white"/>
</svg>
