<svg width="106" height="106" viewBox="0 0 106 106" fill="none" xmlns="http://www.w3.org/2000/svg">
<rect x="0.561523" y="0.245361" width="104.906" height="104.906" fill="white"/>
<g clip-path="url(#clip0_2_394)">
<path d="M17.5119 97.6415C15.7905 97.1929 14.3049 96.5325 12.9346 95.6075C11.7781 94.8266 10.0876 93.212 9.44468 92.2747C8.65945 91.1293 7.75706 89.1686 7.38906 87.8085C7.01387 86.4211 7.00812 85.8687 7.00093 52.5695C6.99446 19.4387 7.00201 18.71 7.36965 17.2864C8.67023 12.2512 12.697 8.42027 17.8907 7.27709C19.3839 6.94863 86.0911 6.8914 87.7018 7.21666C92.0628 8.09929 95.4906 10.6931 97.474 14.6122C99.0509 17.7279 98.91 14.2994 98.9823 51.2912C99.0283 74.8275 98.9858 84.7088 98.8342 85.9398C98.1241 91.7002 94.1142 96.1685 88.344 97.6284C86.8677 98.0016 86.3542 98.0073 52.8417 97.997C20.439 97.9874 18.7751 97.9707 17.5119 97.6415Z" fill="#F06A35"/>
<path d="M66.059 80.395C70.181 79.8391 73.4111 78.2046 76.4413 75.1426C78.6335 72.9273 80.0056 70.5297 80.9026 67.3472C81.2749 66.0252 81.3062 65.3815 81.3745 57.6198C81.4262 51.7613 81.3831 49.0175 81.2289 48.325C81.0054 47.3208 80.3718 46.3884 79.6488 45.9999C79.4259 45.8801 78.0007 45.7276 76.4809 45.6611C73.934 45.5491 73.649 45.5001 72.8454 45.0341C71.5704 44.2947 71.2192 43.497 71.2157 41.3301C71.2088 37.1899 69.4669 33.3463 66.0256 29.8769C63.5735 27.4057 60.8383 25.7328 57.7168 24.7955C56.9693 24.5708 55.2957 24.4944 49.6909 24.4293C40.8963 24.3262 38.9441 24.5047 35.9498 25.6841C30.4298 27.8589 26.4641 32.4419 25.0173 38.3178C24.7456 39.4216 24.6928 41.19 24.6284 51.3504C24.5483 64.079 24.6367 65.9481 25.4406 68.4705C26.1055 70.5546 26.7757 71.8318 28.1564 73.6443C30.7871 77.0977 34.7294 79.5913 38.671 80.2959C40.547 80.6311 63.6889 80.715 66.059 80.3954V80.395Z" fill="white"/>
<path d="M65.3327 60.4771C66.854 61.8823 66.533 64.3837 64.6999 65.411L62.8157 65.7142L51.697 65.8415C44.2004 65.9108 41.9478 65.7647 41.4875 65.5841L41.4731 65.5781C40.5682 65.1881 39.7258 64.1054 39.5803 63.1449C39.4415 62.2303 39.9066 60.973 40.6189 60.3349L40.7773 60.1984C41.4796 59.6279 42.2874 59.5255 48.9118 59.5024L56.5726 59.4946C64.3168 59.5003 64.3847 59.6016 65.3327 60.4771ZM54.4174 39.7351C55.5983 40.3252 56.1115 41.157 56.1115 42.4818C56.1115 43.6321 55.6659 44.4511 54.6762 45.1116L54.4843 45.2328C54.0027 45.5172 53.5305 45.5666 49.7977 45.5954L47.3888 45.6089C44.4027 45.6149 42.1042 45.5531 41.7369 45.4528C39.6295 44.8784 38.8421 41.8878 40.391 40.3412L40.5351 40.1997C41.3642 39.4053 41.8918 39.3231 46.7494 39.3157L50.41 39.3185C53.5035 39.3327 53.7504 39.4021 54.4174 39.7351Z" fill="#F06A35"/>
</g>
<defs>
<clipPath id="clip0_2_394">
<rect width="92" height="91" fill="white" transform="translate(7 7)"/>
</clipPath>
</defs>
</svg>
