<svg width="70" height="70" viewBox="0 0 70 70" fill="none" xmlns="http://www.w3.org/2000/svg">
<rect x="0.202148" y="0.125488" width="68.8989" height="68.8989" rx="1" fill="#2F2F2F"/>
<path d="M52.1514 27.5749C52.1684 27.453 52.1684 27.3293 52.1514 27.2074V27.0674C52.1213 26.9698 52.0802 26.8758 52.0289 26.7874C52.0061 26.737 51.9767 26.6899 51.9414 26.6474L51.7664 26.4199L51.6264 26.3149L51.4164 26.1574L35.6664 17.4074C35.4003 17.2538 35.0986 17.173 34.7914 17.173C34.4842 17.173 34.1824 17.2538 33.9164 17.4074L18.1664 26.1574L18.0089 26.2799L17.8164 26.4199C17.7655 26.4772 17.7242 26.5421 17.6939 26.6124C17.6379 26.6627 17.5906 26.7218 17.5539 26.7874C17.5084 26.8642 17.4731 26.9466 17.4489 27.0324C17.4391 27.0904 17.4391 27.1495 17.4489 27.2074C17.3285 27.3112 17.2278 27.4356 17.1514 27.5749V41.5749C17.1536 41.8868 17.2392 42.1923 17.3992 42.46C17.5592 42.7277 17.7878 42.9478 18.0614 43.0974L33.8114 51.8474C33.8837 51.8896 33.9599 51.9248 34.0389 51.9524H34.2139C34.5014 52.0222 34.8014 52.0222 35.0889 51.9524H35.2639L35.5089 51.8474L51.2589 43.0974C51.5292 42.9455 51.7543 42.7244 51.9111 42.4569C52.0679 42.1894 52.1508 41.885 52.1514 41.5749V27.5749ZM34.6514 34.3474L22.5064 27.5749L27.3364 24.9149L39.2889 31.7399L34.6514 34.3474ZM34.6514 20.8374L46.7964 27.5749L42.8764 29.7624L30.9239 22.9199L34.6514 20.8374ZM20.6514 30.5499L32.9014 37.4099V47.3499L20.6514 40.5424V30.5499ZM36.4014 47.3499V37.4099L41.6514 34.4699V39.8249L45.1514 38.0749V32.5099L48.6514 30.5674V40.5424L36.4014 47.3499Z" fill="white"/>
</svg>
