<svg width="1247" height="497" viewBox="0 0 1247 497" fill="none" xmlns="http://www.w3.org/2000/svg">
<g filter="url(#filter0_bdi_201_2254)">
<g clip-path="url(#clip0_201_2254)">
<rect x="299" y="10.9395" width="710" height="456" rx="16" fill="white" fill-opacity="0.8" shape-rendering="crispEdges"/>
<rect width="710" height="312" transform="translate(299 70.9395)" fill="#F3F3F3"/>
<rect width="292" height="36" transform="translate(508 170.939)" fill="#D7D7D7"/>
<rect width="69" height="8" transform="translate(807.333 35.9395)" fill="#E7E7E7"/>
<rect width="69" height="21" transform="translate(908 29.4395)" fill="#E7E7E7"/>
<rect width="69" height="21" transform="translate(619.5 293.939)" fill="#D7D7D7"/>
<rect width="69" height="8" transform="translate(706.667 35.9395)" fill="#E7E7E7"/>
<rect width="69" height="8" transform="translate(606 35.9395)" fill="#E7E7E7"/>
<rect width="69" height="30" transform="translate(334 24.9395)" fill="#E7E7E7"/>
<rect width="468" height="36" transform="translate(420 222.939)" fill="#D7D7D7"/>
<rect width="165" height="97" transform="translate(372 419.939)" fill="#D7D7D7"/>
<rect width="164" height="97" transform="translate(572 419.939)" fill="#D7D7D7"/>
<rect width="165" height="97" transform="translate(771 419.939)" fill="#D7D7D7"/>
</g>
<rect x="299.5" y="11.4395" width="709" height="455" rx="15.5" stroke="url(#paint0_linear_201_2254)" shape-rendering="crispEdges"/>
<rect x="299.5" y="11.4395" width="709" height="455" rx="15.5" stroke="url(#paint1_linear_201_2254)" stroke-opacity="0.2" shape-rendering="crispEdges"/>
</g>
<path d="M1086.92 149.163C1086.94 149.163 1086.95 149.153 1086.95 149.131C1086.98 149.11 1087 149.067 1087.02 149.003C1087 149.046 1086.96 149.099 1086.92 149.163ZM1076.2 147.659C1076.18 147.745 1075.98 148.619 1075.59 150.283C1075.23 151.947 1074.92 153.505 1074.67 154.955C1074.41 156.363 1074.23 157.761 1074.12 159.147C1073.91 161.643 1074 163.606 1074.41 165.035C1074.86 166.657 1075.7 167.585 1076.94 167.819C1077.64 167.969 1078.42 167.553 1079.27 166.571C1080.06 165.654 1080.87 164.321 1081.71 162.571C1082.05 161.846 1082.4 161.035 1082.76 160.139C1083.12 159.222 1083.41 158.465 1083.63 157.867L1084.33 155.819C1084.59 155.03 1084.74 154.582 1084.78 154.475L1085.03 153.771C1085.25 151.361 1085.56 149.633 1085.96 148.587C1085.98 148.523 1086.02 148.47 1086.06 148.427C1086.19 148.257 1086.36 148.182 1086.57 148.203C1086.74 148.225 1086.88 148.31 1086.99 148.459L1087.05 148.587C1087.07 148.63 1087.08 148.673 1087.08 148.715V148.875C1087.1 148.982 1087.1 149.121 1087.08 149.291C1087.06 149.718 1087.02 150.187 1086.95 150.699C1086.76 151.937 1086.48 153.078 1086.12 154.123C1085.95 156.257 1085.91 158.251 1085.99 160.107C1086.1 162.646 1086.43 164.619 1086.99 166.027C1087.56 167.563 1088.35 168.331 1089.35 168.331C1089.5 168.331 1089.63 168.395 1089.74 168.523C1089.87 168.63 1089.93 168.758 1089.93 168.907C1089.93 169.057 1089.87 169.185 1089.74 169.291C1089.63 169.419 1089.5 169.483 1089.35 169.483C1087.84 169.483 1086.69 168.47 1085.9 166.443C1085.3 164.886 1084.95 162.795 1084.84 160.171C1084.8 159.467 1084.79 158.742 1084.81 157.995C1084.11 159.958 1083.42 161.654 1082.76 163.083C1081.87 164.939 1080.99 166.358 1080.14 167.339C1078.99 168.662 1077.83 169.206 1076.68 168.971C1075 168.63 1073.87 167.425 1073.29 165.355C1072.84 163.755 1072.74 161.654 1072.97 159.051C1073.08 157.686 1073.26 156.267 1073.51 154.795C1073.79 153.302 1074.11 151.713 1074.47 150.027C1074.86 148.342 1075.05 147.467 1075.05 147.403C1075.09 147.254 1075.18 147.137 1075.31 147.051C1075.43 146.966 1075.57 146.945 1075.72 146.987C1075.89 147.009 1076.02 147.083 1076.11 147.211C1076.19 147.339 1076.22 147.489 1076.2 147.659ZM1096.32 155.563C1096.04 154.731 1095.8 154.219 1095.61 154.027C1095.46 153.857 1095.22 153.739 1094.88 153.675C1094.56 153.611 1094.19 153.622 1093.79 153.707C1093.38 153.814 1093.06 153.963 1092.83 154.155C1092.61 154.347 1092.51 154.55 1092.51 154.763C1092.55 154.849 1092.61 154.955 1092.7 155.083C1092.85 155.275 1093.1 155.574 1093.47 155.979C1094.83 157.43 1095.64 158.305 1095.9 158.603C1098.29 161.441 1099.22 164.011 1098.68 166.315C1098.47 167.147 1098.05 167.809 1097.44 168.299C1096.82 168.769 1096.09 169.067 1095.26 169.195C1094.49 169.302 1093.71 169.238 1092.92 169.003C1092.16 168.769 1091.52 168.395 1091 167.883C1090.41 167.265 1089.92 166.625 1089.53 165.963C1089.17 165.281 1088.91 164.545 1088.76 163.755C1088.61 162.945 1088.52 162.241 1088.48 161.643C1088.43 161.046 1088.41 160.267 1088.41 159.307C1088.41 159.158 1088.46 159.03 1088.57 158.923C1088.7 158.795 1088.84 158.731 1088.99 158.731C1089.14 158.731 1089.26 158.795 1089.37 158.923C1089.5 159.03 1089.56 159.158 1089.56 159.307C1089.56 161.185 1089.69 162.699 1089.95 163.851C1090.22 165.003 1090.85 166.07 1091.84 167.051C1092.22 167.457 1092.71 167.745 1093.31 167.915C1093.9 168.086 1094.5 168.129 1095.1 168.043C1095.72 167.958 1096.24 167.745 1096.67 167.403C1097.12 167.062 1097.4 166.614 1097.53 166.059C1098 164.118 1097.17 161.878 1095.04 159.339C1094.8 159.062 1094 158.198 1092.64 156.747C1092.21 156.299 1091.92 155.969 1091.77 155.755C1091.47 155.371 1091.33 155.03 1091.36 154.731C1091.38 154.177 1091.6 153.718 1092.03 153.355C1092.45 152.993 1092.94 152.737 1093.5 152.587C1093.97 152.438 1094.5 152.417 1095.1 152.523C1095.7 152.63 1096.17 152.875 1096.51 153.259C1096.76 153.579 1097.06 154.219 1097.4 155.179C1097.45 155.329 1097.44 155.478 1097.37 155.627C1097.31 155.777 1097.2 155.873 1097.05 155.915C1096.9 155.958 1096.75 155.947 1096.6 155.883C1096.45 155.819 1096.36 155.713 1096.32 155.563ZM1106.58 153.867C1106.52 153.846 1106.43 153.857 1106.33 153.899C1106.05 153.963 1105.69 154.198 1105.24 154.603C1104.77 155.051 1104.27 155.638 1103.74 156.363C1102.6 157.921 1101.7 159.595 1101.02 161.387C1100.78 162.006 1100.59 162.603 1100.44 163.179C1101.25 162.667 1102.07 161.878 1102.9 160.811C1103.52 160.001 1104.4 158.625 1105.53 156.683C1105.98 155.894 1106.3 155.211 1106.49 154.635C1106.59 154.273 1106.63 154.017 1106.58 153.867ZM1106.62 153.867H1106.65H1106.62ZM1099.13 163.851C1099.28 162.977 1099.54 162.017 1099.93 160.971C1100.65 159.094 1101.61 157.334 1102.81 155.691C1103.38 154.902 1103.93 154.262 1104.44 153.771C1105.04 153.217 1105.58 152.875 1106.07 152.747C1106.43 152.662 1106.75 152.673 1107.03 152.779C1107.33 152.886 1107.54 153.099 1107.67 153.419C1107.8 153.803 1107.77 154.315 1107.58 154.955C1107.36 155.638 1107.02 156.406 1106.55 157.259C1105.42 159.201 1104.5 160.619 1103.8 161.515C1102.63 163.051 1101.42 164.075 1100.18 164.587C1100.14 165.121 1100.16 165.59 1100.25 165.995C1100.35 166.529 1100.59 166.923 1100.95 167.179C1101.38 167.457 1101.98 167.574 1102.74 167.531C1103.53 167.489 1104.25 167.265 1104.89 166.859C1105.55 166.433 1106.3 165.835 1107.13 165.067L1107.8 164.395C1107.99 164.203 1108.18 164.001 1108.38 163.787C1108.57 163.553 1108.71 163.371 1108.79 163.243L1109.3 162.571L1109.91 161.771C1110 161.643 1110.11 161.569 1110.26 161.547C1110.43 161.526 1110.58 161.569 1110.71 161.675C1110.84 161.761 1110.91 161.889 1110.94 162.059C1110.96 162.209 1110.91 162.347 1110.81 162.475L1110.23 163.243C1109.98 163.606 1109.79 163.841 1109.69 163.947L1109.24 164.523C1109.05 164.758 1108.84 164.982 1108.63 165.195C1108.44 165.409 1108.19 165.643 1107.9 165.899C1107.34 166.433 1106.85 166.87 1106.42 167.211C1106.02 167.531 1105.48 167.851 1104.82 168.171C1104.16 168.47 1103.49 168.641 1102.81 168.683C1101.76 168.747 1100.93 168.555 1100.31 168.107C1099.69 167.702 1099.3 167.083 1099.13 166.251C1099.02 165.718 1099 165.11 1099.06 164.427L1099.03 164.395C1098.97 164.182 1099 164.001 1099.13 163.851ZM1111.59 165.291V164.075C1111.55 160.065 1111.66 156.982 1111.94 154.827C1111.96 154.657 1112.04 154.529 1112.16 154.443C1112.29 154.337 1112.43 154.294 1112.58 154.315C1112.75 154.337 1112.88 154.411 1112.96 154.539C1113.07 154.667 1113.11 154.806 1113.09 154.955C1112.88 156.534 1112.76 158.39 1112.74 160.523C1113.85 157.793 1115.63 155.201 1118.08 152.747C1118.21 152.641 1118.35 152.587 1118.5 152.587C1118.65 152.587 1118.78 152.651 1118.88 152.779C1119.01 152.886 1119.08 153.014 1119.08 153.163C1119.08 153.313 1119.02 153.451 1118.92 153.579C1117.19 155.307 1115.76 157.185 1114.63 159.211C1113.5 161.238 1112.87 163.297 1112.74 165.387C1112.74 165.622 1112.77 166.102 1112.84 166.827C1112.9 167.553 1112.93 167.979 1112.93 168.107C1112.95 168.363 1112.96 168.534 1112.96 168.619C1112.96 168.683 1112.94 168.747 1112.9 168.811C1112.86 168.939 1112.76 169.035 1112.61 169.099C1112.4 169.185 1112.21 169.163 1112.04 169.035C1111.91 168.929 1111.84 168.843 1111.84 168.779C1111.84 168.758 1111.83 168.726 1111.81 168.683C1111.79 168.641 1111.77 168.545 1111.75 168.395C1111.58 167.371 1111.52 166.337 1111.59 165.291ZM1085.71 203.251C1085.34 205.321 1084.9 207.145 1084.36 208.723C1083.72 210.579 1082.99 211.955 1082.15 212.851C1081.02 214.046 1079.73 214.441 1078.28 214.035C1077.24 213.758 1076.38 212.83 1075.72 211.251C1075 209.374 1074.73 207.39 1074.92 205.299C1075.11 203.209 1075.65 201.182 1076.52 199.219C1077.4 197.235 1078.48 195.571 1079.79 194.227C1080.79 193.203 1081.78 192.489 1082.76 192.083C1084.3 191.422 1085.52 191.657 1086.44 192.787C1086.59 192.979 1086.61 193.182 1086.51 193.395C1086.66 193.417 1086.77 193.491 1086.86 193.619C1086.9 193.662 1086.93 193.715 1086.95 193.779C1086.98 193.822 1086.99 193.865 1086.99 193.907C1087.03 194.377 1086.98 195.059 1086.83 195.955C1086.66 196.851 1086.57 197.438 1086.57 197.715C1086.53 201.854 1087.02 205.758 1088.04 209.427C1088.4 210.729 1088.86 211.774 1089.42 212.563C1089.76 213.075 1090.09 213.406 1090.41 213.555C1090.73 213.705 1091.07 213.662 1091.43 213.427C1091.58 213.342 1091.73 213.321 1091.88 213.363C1092.03 213.385 1092.15 213.47 1092.23 213.619C1092.32 213.747 1092.34 213.886 1092.3 214.035C1092.28 214.185 1092.2 214.302 1092.07 214.387C1091.35 214.835 1090.63 214.91 1089.93 214.611C1089.4 214.355 1088.91 213.886 1088.46 213.203C1087.84 212.329 1087.34 211.177 1086.95 209.747C1086.38 207.657 1085.96 205.491 1085.71 203.251ZM1085.87 194.099L1085.83 194.035C1085.83 194.057 1085.84 194.078 1085.87 194.099ZM1085.55 193.491C1084.99 192.83 1084.21 192.713 1083.21 193.139C1082.38 193.481 1081.51 194.121 1080.62 195.059C1078.72 197.001 1077.36 199.486 1076.55 202.515C1075.76 205.523 1075.85 208.286 1076.81 210.803C1077.32 212.041 1077.92 212.755 1078.6 212.947C1079.6 213.203 1080.5 212.905 1081.29 212.051C1082.04 211.262 1082.7 210.025 1083.27 208.339C1084 206.227 1084.56 203.486 1084.97 200.115C1085.03 199.582 1085.13 198.835 1085.26 197.875C1085.41 196.894 1085.5 196.211 1085.55 195.827L1085.74 194.483C1085.76 194.249 1085.78 194.078 1085.8 193.971C1085.82 193.886 1085.84 193.822 1085.87 193.779C1085.87 193.758 1085.88 193.737 1085.9 193.715C1085.75 193.673 1085.63 193.598 1085.55 193.491ZM1093.57 198.387C1093.25 199.241 1092.97 200.435 1092.74 201.971C1092.5 203.486 1092.41 204.979 1092.45 206.451C1092.49 208.158 1092.74 209.513 1093.18 210.515C1093.68 211.603 1094.38 212.222 1095.3 212.371C1095.96 212.478 1096.64 212.051 1097.34 211.091C1098.01 210.174 1098.64 208.851 1099.23 207.123C1100.02 204.777 1100.56 202.473 1100.83 200.211C1100.83 200.083 1100.83 199.87 1100.83 199.571C1100.85 199.273 1100.86 199.07 1100.86 198.963V198.643C1100.86 198.601 1100.88 198.558 1100.9 198.515V198.483C1100.9 198.419 1100.92 198.345 1100.96 198.259C1101.02 198.11 1101.14 198.014 1101.31 197.971C1101.59 197.907 1101.8 197.993 1101.95 198.227L1102.02 198.419C1102.04 198.462 1102.05 198.494 1102.05 198.515V198.643V199.091C1102.05 199.411 1102.02 199.817 1101.95 200.307V200.627C1101.89 201.801 1101.81 202.867 1101.73 203.827C1101.64 204.873 1101.59 205.897 1101.57 206.899C1101.55 207.902 1101.7 208.905 1102.02 209.907C1102.36 210.889 1102.87 211.657 1103.55 212.211C1103.68 212.318 1103.76 212.457 1103.78 212.627C1103.8 212.777 1103.76 212.915 1103.65 213.043C1103.54 213.15 1103.4 213.214 1103.23 213.235C1103.08 213.257 1102.96 213.214 1102.85 213.107C1101.36 211.87 1100.56 209.886 1100.45 207.155L1100.32 207.507C1099.68 209.342 1099 210.771 1098.27 211.795C1097.29 213.139 1096.24 213.715 1095.1 213.523C1093.78 213.289 1092.79 212.446 1092.13 210.995C1091.62 209.865 1091.34 208.361 1091.3 206.483C1091.25 204.947 1091.36 203.379 1091.62 201.779C1091.85 200.179 1092.14 198.921 1092.48 198.003C1092.54 197.854 1092.64 197.747 1092.77 197.683C1092.92 197.619 1093.07 197.619 1093.22 197.683C1093.37 197.726 1093.47 197.822 1093.54 197.971C1093.6 198.099 1093.61 198.238 1093.57 198.387ZM1102.98 198.867C1103.87 199.017 1104.76 199.081 1105.63 199.059C1105.72 196.521 1105.82 194.11 1105.95 191.827C1105.95 191.657 1106.02 191.529 1106.14 191.443C1106.27 191.337 1106.41 191.283 1106.56 191.283C1106.71 191.283 1106.84 191.347 1106.94 191.475C1107.05 191.603 1107.1 191.742 1107.1 191.891C1106.98 194.153 1106.87 196.521 1106.78 198.995C1107.74 198.91 1108.73 198.729 1109.73 198.451C1109.88 198.409 1110.02 198.43 1110.14 198.515C1110.29 198.579 1110.39 198.686 1110.43 198.835C1110.48 198.985 1110.45 199.134 1110.37 199.283C1110.3 199.411 1110.2 199.497 1110.05 199.539C1108.94 199.859 1107.84 200.073 1106.75 200.179C1106.65 203.87 1106.59 208.126 1106.59 212.947C1106.59 213.097 1106.53 213.235 1106.4 213.363C1106.29 213.47 1106.17 213.523 1106.02 213.523C1105.87 213.523 1105.73 213.47 1105.6 213.363C1105.49 213.235 1105.44 213.097 1105.44 212.947C1105.44 208.169 1105.49 203.923 1105.6 200.211C1104.66 200.233 1103.72 200.169 1102.78 200.019C1102.64 199.998 1102.51 199.923 1102.4 199.795C1102.32 199.667 1102.28 199.529 1102.3 199.379C1102.33 199.209 1102.4 199.081 1102.53 198.995C1102.66 198.889 1102.81 198.846 1102.98 198.867ZM1111.58 191.699C1111.3 192.595 1111.11 194.099 1111 196.211C1110.96 196.851 1110.91 197.715 1110.87 198.803C1110.85 199.827 1110.83 200.553 1110.81 200.979L1110.71 202.739C1110.9 202.291 1111.14 201.854 1111.42 201.427C1111.95 200.531 1112.57 199.87 1113.27 199.443C1114 199.017 1114.74 198.857 1115.51 198.963C1116.26 199.049 1116.94 199.379 1117.56 199.955C1118.18 200.51 1118.68 201.257 1119.06 202.195C1119.49 203.262 1119.77 204.499 1119.9 205.907C1120.04 207.294 1120.07 208.617 1119.96 209.875C1119.87 211.134 1119.7 212.371 1119.45 213.587C1119.4 213.737 1119.32 213.854 1119.19 213.939C1119.06 214.025 1118.91 214.046 1118.74 214.003C1118.59 213.982 1118.48 213.907 1118.39 213.779C1118.31 213.651 1118.27 213.502 1118.3 213.331C1118.7 211.795 1118.89 209.982 1118.87 207.891C1118.85 205.801 1118.55 204.051 1117.98 202.643C1117.68 201.854 1117.29 201.246 1116.82 200.819C1116.35 200.393 1115.86 200.147 1115.35 200.083C1114.24 199.955 1113.25 200.595 1112.38 202.003C1111.31 203.774 1110.73 205.822 1110.65 208.147C1110.67 208.297 1110.7 208.521 1110.74 208.819L1111 210.515C1111.11 211.219 1111.17 211.785 1111.19 212.211C1111.26 212.809 1111.24 213.235 1111.16 213.491C1111.14 213.619 1111.1 213.715 1111.03 213.779C1110.9 213.907 1110.75 213.971 1110.58 213.971C1110.46 213.971 1110.34 213.929 1110.23 213.843C1110.15 213.779 1110.08 213.705 1110.04 213.619C1110.04 213.577 1110.03 213.534 1110.01 213.491C1109.96 213.385 1109.93 213.235 1109.91 213.043C1109.85 212.723 1109.77 212.275 1109.69 211.699C1109.56 210.697 1109.5 209.673 1109.5 208.627V208.179C1109.47 207.987 1109.46 207.838 1109.46 207.731C1109.42 206.494 1109.48 204.222 1109.66 200.915C1109.68 200.425 1109.7 199.699 1109.72 198.739C1109.76 197.651 1109.8 196.787 1109.85 196.147C1109.95 193.929 1110.17 192.339 1110.49 191.379C1110.53 191.209 1110.62 191.091 1110.74 191.027C1110.89 190.963 1111.04 190.953 1111.19 190.995C1111.36 191.038 1111.48 191.134 1111.54 191.283C1111.61 191.411 1111.62 191.55 1111.58 191.699ZM1128.35 198.867C1128.29 198.846 1128.2 198.857 1128.09 198.899C1127.82 198.963 1127.45 199.198 1127.01 199.603C1126.54 200.051 1126.03 200.638 1125.5 201.363C1124.37 202.921 1123.46 204.595 1122.78 206.387C1122.55 207.006 1122.35 207.603 1122.21 208.179C1123.02 207.667 1123.84 206.878 1124.67 205.811C1125.29 205.001 1126.16 203.625 1127.29 201.683C1127.74 200.894 1128.06 200.211 1128.25 199.635C1128.36 199.273 1128.39 199.017 1128.35 198.867ZM1128.38 198.867H1128.41H1128.38ZM1120.89 208.851C1121.04 207.977 1121.31 207.017 1121.69 205.971C1122.42 204.094 1123.38 202.334 1124.57 200.691C1125.15 199.902 1125.69 199.262 1126.21 198.771C1126.8 198.217 1127.35 197.875 1127.84 197.747C1128.2 197.662 1128.52 197.673 1128.8 197.779C1129.1 197.886 1129.31 198.099 1129.44 198.419C1129.57 198.803 1129.53 199.315 1129.34 199.955C1129.13 200.638 1128.79 201.406 1128.32 202.259C1127.19 204.201 1126.27 205.619 1125.57 206.515C1124.39 208.051 1123.19 209.075 1121.95 209.587C1121.91 210.121 1121.93 210.59 1122.01 210.995C1122.12 211.529 1122.35 211.923 1122.72 212.179C1123.14 212.457 1123.74 212.574 1124.51 212.531C1125.3 212.489 1126.01 212.265 1126.65 211.859C1127.31 211.433 1128.06 210.835 1128.89 210.067L1129.57 209.395C1129.76 209.203 1129.95 209.001 1130.14 208.787C1130.33 208.553 1130.47 208.371 1130.56 208.243L1131.07 207.571L1131.68 206.771C1131.76 206.643 1131.88 206.569 1132.03 206.547C1132.2 206.526 1132.35 206.569 1132.48 206.675C1132.61 206.761 1132.68 206.889 1132.7 207.059C1132.72 207.209 1132.68 207.347 1132.57 207.475L1132 208.243C1131.74 208.606 1131.56 208.841 1131.45 208.947L1131.01 209.523C1130.81 209.758 1130.61 209.982 1130.4 210.195C1130.21 210.409 1129.96 210.643 1129.66 210.899C1129.11 211.433 1128.62 211.87 1128.19 212.211C1127.78 212.531 1127.25 212.851 1126.59 213.171C1125.93 213.47 1125.26 213.641 1124.57 213.683C1123.53 213.747 1122.7 213.555 1122.08 213.107C1121.46 212.702 1121.06 212.083 1120.89 211.251C1120.79 210.718 1120.77 210.11 1120.83 209.427L1120.8 209.395C1120.73 209.182 1120.77 209.001 1120.89 208.851ZM1135.08 199.187C1134.93 200.105 1134.88 201.598 1134.92 203.667C1134.92 204.009 1134.94 204.414 1134.99 204.883C1135.26 204.243 1135.69 203.465 1136.27 202.547C1136.84 201.673 1137.47 200.873 1138.15 200.147C1139.05 199.209 1139.9 198.611 1140.71 198.355C1141.8 198.035 1142.75 198.313 1143.56 199.187C1144.33 199.998 1144.83 201.235 1145.07 202.899C1145.17 203.625 1145.25 204.894 1145.29 206.707C1145.31 207.454 1145.29 208.574 1145.23 210.067C1145.16 211.625 1145.13 212.723 1145.13 213.363C1145.13 213.513 1145.07 213.651 1144.94 213.779C1144.83 213.886 1144.7 213.939 1144.55 213.939C1144.4 213.939 1144.27 213.886 1144.14 213.779C1144.03 213.651 1143.98 213.513 1143.98 213.363C1143.98 212.702 1144.01 211.582 1144.07 210.003C1144.14 208.51 1144.16 207.411 1144.14 206.707C1144.1 204.958 1144.03 203.742 1143.95 203.059C1143.73 201.63 1143.33 200.595 1142.73 199.955C1142.24 199.443 1141.67 199.283 1141.03 199.475C1140.42 199.667 1139.73 200.158 1138.99 200.947C1138.35 201.609 1137.74 202.387 1137.16 203.283C1136.61 204.158 1136.22 204.883 1136.01 205.459C1135.84 205.865 1135.57 206.793 1135.21 208.243C1135.3 209.95 1135.19 211.347 1134.89 212.435V212.595C1134.87 212.745 1134.85 212.841 1134.83 212.883C1134.8 213.075 1134.76 213.214 1134.7 213.299C1134.59 213.47 1134.44 213.577 1134.25 213.619C1134.08 213.641 1133.92 213.598 1133.77 213.491C1133.54 213.342 1133.4 213.054 1133.35 212.627C1133.33 212.371 1133.34 212.051 1133.39 211.667C1133.47 211.07 1133.62 210.227 1133.83 209.139C1133.9 208.777 1133.97 208.435 1134.06 208.115C1134.04 207.774 1133.98 207.091 1133.9 206.067C1133.83 205.043 1133.79 204.243 1133.77 203.667C1133.73 201.555 1133.78 199.998 1133.93 198.995C1133.95 198.846 1134.03 198.729 1134.15 198.643C1134.3 198.537 1134.45 198.494 1134.6 198.515C1134.75 198.537 1134.87 198.622 1134.95 198.771C1135.06 198.899 1135.1 199.038 1135.08 199.187ZM1146.01 198.867C1146.9 199.017 1147.79 199.081 1148.66 199.059C1148.75 196.521 1148.86 194.11 1148.98 191.827C1148.98 191.657 1149.05 191.529 1149.18 191.443C1149.3 191.337 1149.44 191.283 1149.59 191.283C1149.74 191.283 1149.87 191.347 1149.98 191.475C1150.08 191.603 1150.14 191.742 1150.14 191.891C1150.01 194.153 1149.9 196.521 1149.82 198.995C1150.78 198.91 1151.76 198.729 1152.76 198.451C1152.91 198.409 1153.05 198.43 1153.18 198.515C1153.33 198.579 1153.42 198.686 1153.46 198.835C1153.51 198.985 1153.49 199.134 1153.4 199.283C1153.34 199.411 1153.23 199.497 1153.08 199.539C1151.97 199.859 1150.87 200.073 1149.78 200.179C1149.68 203.87 1149.62 208.126 1149.62 212.947C1149.62 213.097 1149.56 213.235 1149.43 213.363C1149.33 213.47 1149.2 213.523 1149.05 213.523C1148.9 213.523 1148.76 213.47 1148.63 213.363C1148.53 213.235 1148.47 213.097 1148.47 212.947C1148.47 208.169 1148.53 203.923 1148.63 200.211C1147.69 200.233 1146.76 200.169 1145.82 200.019C1145.67 199.998 1145.54 199.923 1145.43 199.795C1145.35 199.667 1145.32 199.529 1145.34 199.379C1145.36 199.209 1145.43 199.081 1145.56 198.995C1145.69 198.889 1145.84 198.846 1146.01 198.867ZM1154.1 197.875C1153.48 201.225 1153.14 203.902 1153.07 205.907C1152.99 209.257 1153.54 211.614 1154.74 212.979C1154.84 213.107 1154.89 213.257 1154.86 213.427C1154.86 213.577 1154.8 213.705 1154.67 213.811C1154.57 213.897 1154.43 213.939 1154.26 213.939C1154.11 213.918 1153.99 213.854 1153.9 213.747C1152.5 212.147 1151.83 209.523 1151.92 205.875C1151.98 203.827 1152.33 201.097 1152.94 197.683C1152.99 197.513 1153.07 197.385 1153.2 197.299C1153.33 197.214 1153.47 197.193 1153.62 197.235C1153.79 197.257 1153.91 197.331 1154 197.459C1154.09 197.587 1154.12 197.726 1154.1 197.875ZM1153.9 193.779C1154.03 193.886 1154.1 194.014 1154.1 194.163C1154.1 194.313 1154.03 194.451 1153.9 194.579C1153.8 194.686 1153.67 194.739 1153.52 194.739C1153.37 194.739 1153.23 194.686 1153.1 194.579C1153 194.451 1152.94 194.313 1152.94 194.163C1152.94 194.014 1153 193.886 1153.1 193.779C1153.23 193.651 1153.37 193.587 1153.52 193.587C1153.67 193.587 1153.8 193.651 1153.9 193.779ZM1163.68 200.851C1163.53 200.702 1163.24 200.286 1162.82 199.603C1162.6 199.262 1162.34 199.038 1162.02 198.931C1161.21 198.611 1160.3 199.155 1159.3 200.563C1158.25 202.035 1157.5 203.849 1157.06 206.003C1156.57 208.243 1156.61 209.971 1157.18 211.187C1157.44 211.806 1157.82 212.222 1158.34 212.435C1158.91 212.67 1159.66 212.67 1160.58 212.435C1160.92 212.329 1161.21 212.233 1161.44 212.147C1161.68 212.062 1161.9 211.945 1162.11 211.795C1162.35 211.625 1162.52 211.486 1162.62 211.379C1162.75 211.273 1162.96 211.081 1163.23 210.803C1163.53 210.505 1163.79 210.27 1164 210.099C1164.11 209.993 1164.24 209.939 1164.38 209.939C1164.56 209.939 1164.69 210.003 1164.8 210.131C1164.91 210.238 1164.96 210.377 1164.96 210.547C1164.96 210.697 1164.9 210.825 1164.77 210.931L1164.06 211.635C1163.77 211.934 1163.54 212.147 1163.39 212.275C1163.24 212.382 1163.03 212.531 1162.75 212.723C1162.5 212.915 1162.22 213.065 1161.92 213.171C1161.66 213.299 1161.32 213.417 1160.9 213.523C1159.72 213.843 1158.72 213.833 1157.89 213.491C1157.1 213.15 1156.51 212.542 1156.13 211.667C1155.47 210.217 1155.39 208.254 1155.9 205.779C1156.4 203.475 1157.22 201.513 1158.37 199.891C1159.71 197.993 1161.08 197.31 1162.46 197.843C1163 198.057 1163.44 198.441 1163.78 198.995C1164.18 199.593 1164.43 199.934 1164.51 200.019C1164.62 200.147 1164.67 200.286 1164.67 200.435C1164.67 200.585 1164.61 200.723 1164.48 200.851C1164.37 200.958 1164.25 201.011 1164.1 201.011C1163.95 201.011 1163.81 200.958 1163.68 200.851ZM1174.31 203.443L1174.34 203.283C1174.4 202.963 1174.55 202.27 1174.79 201.203C1174.92 200.649 1175.02 200.211 1175.11 199.891C1175.15 199.699 1175.19 199.55 1175.24 199.443L1175.33 199.251V199.219C1175.29 199.177 1175.24 199.155 1175.17 199.155C1174.94 199.134 1174.61 199.251 1174.18 199.507C1173.5 199.891 1172.8 200.435 1172.1 201.139C1171.55 201.673 1170.93 202.419 1170.24 203.379C1169.56 204.339 1168.94 205.353 1168.39 206.419C1167.04 209.022 1166.59 210.963 1167.01 212.243C1167.03 212.329 1167.14 212.467 1167.33 212.659C1167.55 212.851 1167.71 212.969 1167.81 213.011C1168.39 213.203 1169.01 213.001 1169.67 212.403C1170.33 211.806 1171 210.889 1171.68 209.651C1172.41 208.329 1173.27 206.302 1174.28 203.571L1174.31 203.443ZM1176.52 199.507C1176.52 199.614 1176.51 199.742 1176.48 199.891C1176.46 200.147 1176.4 200.499 1176.29 200.947C1176.08 201.822 1175.8 202.75 1175.46 203.731C1175.01 206.59 1174.88 208.617 1175.08 209.811C1175.25 210.793 1175.6 211.518 1176.13 211.987C1176.73 212.542 1177.62 212.777 1178.79 212.691C1178.94 212.691 1179.07 212.745 1179.17 212.851C1179.3 212.937 1179.36 213.065 1179.36 213.235C1179.39 213.385 1179.34 213.523 1179.24 213.651C1179.15 213.758 1179.02 213.822 1178.85 213.843C1177.36 213.95 1176.19 213.619 1175.33 212.851C1174.63 212.211 1174.17 211.262 1173.96 210.003C1173.85 209.385 1173.81 208.67 1173.83 207.859C1173.44 208.734 1173.07 209.513 1172.71 210.195C1171.94 211.561 1171.18 212.574 1170.44 213.235C1169.43 214.153 1168.43 214.441 1167.43 214.099C1167.17 214.014 1166.88 213.811 1166.56 213.491C1166.22 213.171 1166.01 212.883 1165.92 212.627C1165.39 211.027 1165.87 208.787 1167.36 205.907C1167.94 204.798 1168.59 203.742 1169.32 202.739C1170.04 201.715 1170.69 200.905 1171.27 200.307C1172.06 199.539 1172.84 198.931 1173.6 198.483C1174.22 198.142 1174.76 197.982 1175.2 198.003C1175.89 198.025 1176.32 198.398 1176.52 199.123C1176.56 199.251 1176.56 199.379 1176.52 199.507ZM1177.85 198.867C1178.75 199.017 1179.64 199.081 1180.51 199.059C1180.6 196.521 1180.7 194.11 1180.83 191.827C1180.83 191.657 1180.89 191.529 1181.02 191.443C1181.15 191.337 1181.29 191.283 1181.44 191.283C1181.59 191.283 1181.72 191.347 1181.82 191.475C1181.93 191.603 1181.98 191.742 1181.98 191.891C1181.85 194.153 1181.75 196.521 1181.66 198.995C1182.62 198.91 1183.6 198.729 1184.61 198.451C1184.76 198.409 1184.89 198.43 1185.02 198.515C1185.17 198.579 1185.27 198.686 1185.31 198.835C1185.35 198.985 1185.33 199.134 1185.25 199.283C1185.18 199.411 1185.08 199.497 1184.93 199.539C1183.82 199.859 1182.72 200.073 1181.63 200.179C1181.52 203.87 1181.47 208.126 1181.47 212.947C1181.47 213.097 1181.41 213.235 1181.28 213.363C1181.17 213.47 1181.04 213.523 1180.89 213.523C1180.74 213.523 1180.61 213.47 1180.48 213.363C1180.37 213.235 1180.32 213.097 1180.32 212.947C1180.32 208.169 1180.37 203.923 1180.48 200.211C1179.54 200.233 1178.6 200.169 1177.66 200.019C1177.51 199.998 1177.38 199.923 1177.28 199.795C1177.19 199.667 1177.16 199.529 1177.18 199.379C1177.2 199.209 1177.28 199.081 1177.41 198.995C1177.53 198.889 1177.68 198.846 1177.85 198.867ZM1185.94 197.875C1185.32 201.225 1184.98 203.902 1184.92 205.907C1184.83 209.257 1185.39 211.614 1186.58 212.979C1186.69 213.107 1186.73 213.257 1186.71 213.427C1186.71 213.577 1186.65 213.705 1186.52 213.811C1186.41 213.897 1186.27 213.939 1186.1 213.939C1185.95 213.918 1185.83 213.854 1185.75 213.747C1184.34 212.147 1183.68 209.523 1183.77 205.875C1183.83 203.827 1184.17 201.097 1184.79 197.683C1184.83 197.513 1184.92 197.385 1185.05 197.299C1185.17 197.214 1185.31 197.193 1185.46 197.235C1185.63 197.257 1185.76 197.331 1185.85 197.459C1185.93 197.587 1185.96 197.726 1185.94 197.875ZM1185.75 193.779C1185.88 193.886 1185.94 194.014 1185.94 194.163C1185.94 194.313 1185.88 194.451 1185.75 194.579C1185.64 194.686 1185.51 194.739 1185.37 194.739C1185.22 194.739 1185.08 194.686 1184.95 194.579C1184.84 194.451 1184.79 194.313 1184.79 194.163C1184.79 194.014 1184.84 193.886 1184.95 193.779C1185.08 193.651 1185.22 193.587 1185.37 193.587C1185.51 193.587 1185.64 193.651 1185.75 193.779ZM1191.53 199.251C1191.46 199.273 1191.41 199.283 1191.37 199.283C1190.47 199.689 1189.68 200.574 1189 201.939C1188.31 203.305 1187.91 204.798 1187.78 206.419C1187.65 208.126 1187.89 209.566 1188.49 210.739C1189.1 211.913 1190.07 212.606 1191.4 212.819C1192.76 213.054 1193.87 212.553 1194.73 211.315C1195.56 210.099 1195.99 208.531 1196.04 206.611C1196.1 204.67 1195.74 203.006 1194.95 201.619C1194.12 200.147 1192.98 199.358 1191.53 199.251ZM1194.15 198.995C1194.85 199.507 1195.45 200.19 1195.94 201.043C1196.84 202.622 1197.25 204.489 1197.19 206.643C1197.15 208.798 1196.65 210.569 1195.69 211.955C1194.53 213.598 1193.04 214.27 1191.21 213.971C1190.31 213.822 1189.54 213.502 1188.9 213.011C1188.26 212.499 1187.77 211.891 1187.43 211.187C1187.09 210.462 1186.85 209.694 1186.73 208.883C1186.6 208.073 1186.57 207.23 1186.63 206.355C1186.76 204.585 1187.21 202.921 1187.97 201.363C1188.76 199.806 1189.74 198.771 1190.92 198.259C1191.26 198.089 1191.76 198.025 1192.42 198.067C1192.59 198.089 1192.83 198.121 1193.13 198.163C1193.45 198.185 1193.63 198.195 1193.67 198.195C1193.82 198.217 1193.95 198.291 1194.05 198.419C1194.16 198.526 1194.2 198.665 1194.18 198.835C1194.18 198.878 1194.17 198.931 1194.15 198.995ZM1199.46 199.187C1199.31 200.105 1199.26 201.598 1199.3 203.667C1199.3 204.009 1199.32 204.414 1199.36 204.883C1199.64 204.243 1200.07 203.465 1200.64 202.547C1201.22 201.673 1201.85 200.873 1202.53 200.147C1203.43 199.209 1204.28 198.611 1205.09 198.355C1206.18 198.035 1207.13 198.313 1207.94 199.187C1208.71 199.998 1209.21 201.235 1209.44 202.899C1209.55 203.625 1209.62 204.894 1209.67 206.707C1209.69 207.454 1209.67 208.574 1209.6 210.067C1209.54 211.625 1209.51 212.723 1209.51 213.363C1209.51 213.513 1209.44 213.651 1209.32 213.779C1209.21 213.886 1209.08 213.939 1208.93 213.939C1208.78 213.939 1208.64 213.886 1208.52 213.779C1208.41 213.651 1208.36 213.513 1208.36 213.363C1208.36 212.702 1208.39 211.582 1208.45 210.003C1208.52 208.51 1208.54 207.411 1208.52 206.707C1208.47 204.958 1208.41 203.742 1208.32 203.059C1208.11 201.63 1207.7 200.595 1207.11 199.955C1206.62 199.443 1206.05 199.283 1205.41 199.475C1204.79 199.667 1204.11 200.158 1203.36 200.947C1202.72 201.609 1202.12 202.387 1201.54 203.283C1200.98 204.158 1200.6 204.883 1200.39 205.459C1200.22 205.865 1199.95 206.793 1199.59 208.243C1199.67 209.95 1199.57 211.347 1199.27 212.435V212.595C1199.25 212.745 1199.22 212.841 1199.2 212.883C1199.18 213.075 1199.14 213.214 1199.08 213.299C1198.97 213.47 1198.82 213.577 1198.63 213.619C1198.46 213.641 1198.3 213.598 1198.15 213.491C1197.91 213.342 1197.77 213.054 1197.73 212.627C1197.71 212.371 1197.72 212.051 1197.76 211.667C1197.85 211.07 1198 210.227 1198.21 209.139C1198.28 208.777 1198.35 208.435 1198.44 208.115C1198.41 207.774 1198.36 207.091 1198.28 206.067C1198.21 205.043 1198.17 204.243 1198.15 203.667C1198.1 201.555 1198.16 199.998 1198.31 198.995C1198.33 198.846 1198.4 198.729 1198.53 198.643C1198.68 198.537 1198.83 198.494 1198.98 198.515C1199.13 198.537 1199.25 198.622 1199.33 198.771C1199.44 198.899 1199.48 199.038 1199.46 199.187Z" fill="#181818"/>
<path d="M14.6917 372.855C14.841 372.173 14.6917 371.693 14.2437 371.415C13.753 371.138 13.0277 371.042 12.0677 371.127C11.1077 371.234 10.2117 371.479 9.37966 371.863C8.59033 372.247 8.13166 372.621 8.00366 372.983C7.76899 373.666 8.14233 374.381 9.12366 375.127C9.44366 375.383 9.94499 375.714 10.6277 376.119C11.3103 376.546 11.7583 376.845 11.9717 377.015C14.5103 379.085 16.0037 381.101 16.4517 383.063C17.0277 385.495 16.0677 387.778 13.5717 389.911C12.377 390.914 11.097 391.586 9.73166 391.927C8.72899 392.162 7.65166 392.194 6.49966 392.023C5.36899 391.831 4.40899 391.447 3.61966 390.871C2.72366 390.231 2.20099 389.421 2.05166 388.439C1.90233 387.373 2.24366 386.242 3.07566 385.047C3.50233 384.429 4.01433 383.821 4.61166 383.223C5.20899 382.626 5.66766 382.199 5.98766 381.943C6.30766 381.666 6.93699 381.175 7.87566 380.471L9.47566 379.287C9.60366 379.181 9.74233 379.138 9.89166 379.159C10.0623 379.181 10.1903 379.255 10.2757 379.383C10.3823 379.511 10.425 379.661 10.4037 379.831C10.3823 379.981 10.3077 380.098 10.1797 380.183C9.88099 380.418 9.42233 380.759 8.80366 381.207C8.18499 381.655 7.71566 382.007 7.39566 382.263C7.07566 382.519 6.69166 382.85 6.24366 383.255C5.79566 383.639 5.39033 384.034 5.02766 384.439C4.68633 384.823 4.35566 385.239 4.03566 385.687C3.37433 386.647 3.09699 387.511 3.20366 388.279C3.28899 388.941 3.65166 389.495 4.29166 389.943C4.93166 390.413 5.73166 390.733 6.69166 390.903C7.65166 391.053 8.57966 391.01 9.47566 390.775C10.6277 390.498 11.737 389.911 12.8037 389.015C14.9583 387.181 15.801 385.282 15.3317 383.319C14.9263 381.613 13.5717 379.81 11.2677 377.911C11.097 377.783 10.681 377.517 10.0197 377.111C9.31566 376.685 8.78233 376.333 8.41966 376.055C7.01166 374.967 6.51033 373.815 6.91566 372.599C7.12899 371.938 7.77966 371.351 8.86766 370.839C9.82766 370.37 10.8517 370.082 11.9397 369.975C13.177 369.869 14.1477 370.029 14.8517 370.455C15.7903 371.01 16.0997 371.895 15.7797 373.111C15.7583 373.282 15.673 373.41 15.5237 373.495C15.3957 373.559 15.2463 373.581 15.0757 373.559C14.9263 373.517 14.809 373.431 14.7237 373.303C14.6597 373.154 14.649 373.005 14.6917 372.855ZM18.6597 376.375C18.041 379.725 17.6997 382.402 17.6357 384.407C17.5503 387.757 18.105 390.114 19.2997 391.479C19.4063 391.607 19.449 391.757 19.4277 391.927C19.4277 392.077 19.3637 392.205 19.2357 392.311C19.129 392.397 18.9903 392.439 18.8197 392.439C18.6703 392.418 18.553 392.354 18.4677 392.247C17.0597 390.647 16.3983 388.023 16.4837 384.375C16.5477 382.327 16.889 379.597 17.5077 376.183C17.5503 376.013 17.6357 375.885 17.7637 375.799C17.8917 375.714 18.0303 375.693 18.1797 375.735C18.3503 375.757 18.4783 375.831 18.5637 375.959C18.649 376.087 18.681 376.226 18.6597 376.375ZM18.4677 372.279C18.5957 372.386 18.6597 372.514 18.6597 372.663C18.6597 372.813 18.5957 372.951 18.4677 373.079C18.361 373.186 18.233 373.239 18.0837 373.239C17.9343 373.239 17.7957 373.186 17.6677 373.079C17.561 372.951 17.5077 372.813 17.5077 372.663C17.5077 372.514 17.561 372.386 17.6677 372.279C17.7957 372.151 17.9343 372.087 18.0837 372.087C18.233 372.087 18.361 372.151 18.4677 372.279ZM21.7482 377.687C21.5988 378.605 21.5455 380.098 21.5882 382.167C21.5882 382.509 21.6095 382.914 21.6522 383.383C21.9295 382.743 22.3562 381.965 22.9322 381.047C23.5082 380.173 24.1375 379.373 24.8202 378.647C25.7162 377.709 26.5695 377.111 27.3802 376.855C28.4682 376.535 29.4175 376.813 30.2282 377.687C30.9962 378.498 31.4975 379.735 31.7322 381.399C31.8388 382.125 31.9135 383.394 31.9562 385.207C31.9775 385.954 31.9562 387.074 31.8922 388.567C31.8282 390.125 31.7962 391.223 31.7962 391.863C31.7962 392.013 31.7322 392.151 31.6042 392.279C31.4975 392.386 31.3695 392.439 31.2202 392.439C31.0708 392.439 30.9322 392.386 30.8042 392.279C30.6975 392.151 30.6442 392.013 30.6442 391.863C30.6442 391.202 30.6762 390.082 30.7402 388.503C30.8042 387.01 30.8255 385.911 30.8042 385.207C30.7615 383.458 30.6975 382.242 30.6122 381.559C30.3988 380.13 29.9935 379.095 29.3962 378.455C28.9055 377.943 28.3402 377.783 27.7002 377.975C27.0815 378.167 26.3988 378.658 25.6522 379.447C25.0122 380.109 24.4042 380.887 23.8282 381.783C23.2735 382.658 22.8895 383.383 22.6762 383.959C22.5055 384.365 22.2388 385.293 21.8762 386.743C21.9615 388.45 21.8548 389.847 21.5562 390.935V391.095C21.5348 391.245 21.5135 391.341 21.4922 391.383C21.4708 391.575 21.4282 391.714 21.3642 391.799C21.2575 391.97 21.1082 392.077 20.9162 392.119C20.7455 392.141 20.5855 392.098 20.4362 391.991C20.2015 391.842 20.0628 391.554 20.0202 391.127C19.9988 390.871 20.0095 390.551 20.0522 390.167C20.1375 389.57 20.2868 388.727 20.5002 387.639C20.5642 387.277 20.6388 386.935 20.7242 386.615C20.7028 386.274 20.6495 385.591 20.5642 384.567C20.5002 383.543 20.4575 382.743 20.4362 382.167C20.3935 380.055 20.4468 378.498 20.5962 377.495C20.6175 377.346 20.6922 377.229 20.8202 377.143C20.9695 377.037 21.1188 376.994 21.2682 377.015C21.4175 377.037 21.5348 377.122 21.6202 377.271C21.7268 377.399 21.7695 377.538 21.7482 377.687ZM45.1869 380.343C44.9736 379.575 44.6962 378.989 44.3549 378.583C44.0349 378.157 43.5656 377.847 42.9469 377.655C41.7949 377.314 40.6429 377.517 39.4909 378.263C38.3389 378.989 37.3042 380.109 36.3869 381.623C35.5122 383.031 34.8829 384.525 34.4989 386.103C34.1362 387.661 34.0936 388.93 34.3709 389.911C34.4989 390.295 34.8082 390.583 35.2989 390.775C36.4082 391.223 37.6029 390.765 38.8829 389.399C39.5869 388.631 40.4722 387.309 41.5389 385.431C41.7949 384.983 42.1469 384.183 42.5949 383.031C43.0429 381.858 43.3202 381.207 43.4269 381.079V380.919C43.4482 380.685 43.4589 380.482 43.4589 380.311C43.4802 380.055 43.4909 379.853 43.4909 379.703C43.5122 379.597 43.5229 379.511 43.5229 379.447C43.5442 379.383 43.5656 379.33 43.5869 379.287C43.6082 379.223 43.6402 379.17 43.6829 379.127C43.7896 378.978 43.9389 378.903 44.1309 378.903C44.2802 378.903 44.3976 378.946 44.4829 379.031C44.5896 379.117 44.6536 379.191 44.6749 379.255L44.7069 379.383V379.543V379.895V381.975C44.7282 383.661 44.7602 384.983 44.8029 385.943C44.8242 386.413 44.8882 387.191 44.9949 388.279C45.1229 389.41 45.1976 390.274 45.2189 390.871C45.3256 393.005 45.0802 394.701 44.4829 395.959C44.0136 396.941 43.2776 397.655 42.2749 398.103C41.2936 398.551 40.2056 398.743 39.0109 398.679C37.9016 398.637 36.8242 398.402 35.7789 397.975C34.7336 397.57 33.8909 397.037 33.2509 396.375C33.1442 396.269 33.0909 396.13 33.0909 395.959C33.0909 395.81 33.1442 395.682 33.2509 395.575C33.3789 395.469 33.5176 395.415 33.6669 395.415C33.8376 395.415 33.9762 395.479 34.0829 395.607C34.5949 396.141 35.3096 396.578 36.2269 396.919C37.1442 397.282 38.0829 397.485 39.0429 397.527C40.0669 397.57 40.9629 397.421 41.7309 397.079C42.5202 396.738 43.0962 396.194 43.4589 395.447C43.9709 394.381 44.1736 392.877 44.0669 390.935C44.0456 390.359 43.9816 389.517 43.8749 388.407C43.7469 387.298 43.6722 386.498 43.6509 386.007C43.6296 385.645 43.6082 384.973 43.5869 383.991C43.3096 384.61 42.9682 385.282 42.5629 386.007C41.4749 387.927 40.5256 389.325 39.7149 390.199C38.0936 391.949 36.4722 392.503 34.8509 391.863C34.0189 391.522 33.4962 390.978 33.2829 390.231C32.9202 389.058 32.9416 387.607 33.3469 385.879C33.7736 384.151 34.4562 382.53 35.3949 381.015C36.4189 379.373 37.6136 378.114 38.9789 377.239C40.3656 376.343 41.7949 376.119 43.2669 376.567C44.1202 376.823 44.7709 377.239 45.2189 377.815C45.6882 378.391 46.0402 379.127 46.2749 380.023C46.3176 380.194 46.2962 380.354 46.2109 380.503C46.1469 380.631 46.0296 380.717 45.8589 380.759C45.7096 380.781 45.5602 380.759 45.4109 380.695C45.2829 380.61 45.2082 380.493 45.1869 380.343ZM47.4379 370.615C46.9046 375.287 46.5739 378.946 46.4459 381.591C46.3392 384.002 46.3392 386.029 46.4459 387.671C46.5952 389.549 46.8939 390.839 47.3419 391.543C47.4272 391.693 47.4486 391.842 47.4059 391.991C47.3846 392.141 47.2992 392.258 47.1499 392.343C47.0219 392.429 46.8832 392.461 46.7339 392.439C46.5846 392.397 46.4672 392.311 46.3819 392.183C45.8272 391.287 45.4752 389.805 45.3259 387.735C45.1979 386.029 45.1872 383.959 45.2939 381.527C45.4219 378.861 45.7526 375.181 46.2859 370.487C46.3072 370.338 46.3819 370.21 46.5099 370.103C46.6379 369.997 46.7766 369.954 46.9259 369.975C47.0752 369.997 47.2032 370.071 47.3099 370.199C47.4166 370.327 47.4592 370.466 47.4379 370.615ZM55.6107 377.367C55.5467 377.346 55.4613 377.357 55.3547 377.399C55.0773 377.463 54.7147 377.698 54.2667 378.103C53.7973 378.551 53.296 379.138 52.7627 379.863C51.632 381.421 50.7253 383.095 50.0427 384.887C49.808 385.506 49.616 386.103 49.4667 386.679C50.2773 386.167 51.0987 385.378 51.9307 384.311C52.5493 383.501 53.424 382.125 54.5547 380.183C55.0027 379.394 55.3227 378.711 55.5147 378.135C55.6213 377.773 55.6533 377.517 55.6107 377.367ZM55.6427 377.367H55.6747H55.6427ZM48.1547 387.351C48.304 386.477 48.5707 385.517 48.9547 384.471C49.68 382.594 50.64 380.834 51.8347 379.191C52.4107 378.402 52.9547 377.762 53.4667 377.271C54.064 376.717 54.608 376.375 55.0987 376.247C55.4613 376.162 55.7813 376.173 56.0587 376.279C56.3573 376.386 56.5707 376.599 56.6987 376.919C56.8267 377.303 56.7947 377.815 56.6027 378.455C56.3893 379.138 56.048 379.906 55.5787 380.759C54.448 382.701 53.5307 384.119 52.8267 385.015C51.6533 386.551 50.448 387.575 49.2107 388.087C49.168 388.621 49.1893 389.09 49.2747 389.495C49.3813 390.029 49.616 390.423 49.9787 390.679C50.4053 390.957 51.0027 391.074 51.7707 391.031C52.56 390.989 53.2747 390.765 53.9147 390.359C54.576 389.933 55.3227 389.335 56.1547 388.567L56.8267 387.895C57.0187 387.703 57.2107 387.501 57.4027 387.287C57.5947 387.053 57.7333 386.871 57.8187 386.743L58.3307 386.071L58.9387 385.271C59.024 385.143 59.1413 385.069 59.2907 385.047C59.4613 385.026 59.6107 385.069 59.7387 385.175C59.8667 385.261 59.9413 385.389 59.9627 385.559C59.984 385.709 59.9413 385.847 59.8347 385.975L59.2587 386.743C59.0027 387.106 58.8213 387.341 58.7147 387.447L58.2667 388.023C58.0747 388.258 57.872 388.482 57.6587 388.695C57.4667 388.909 57.2213 389.143 56.9227 389.399C56.368 389.933 55.8773 390.37 55.4507 390.711C55.0453 391.031 54.512 391.351 53.8507 391.671C53.1893 391.97 52.5173 392.141 51.8347 392.183C50.7893 392.247 49.9573 392.055 49.3387 391.607C48.72 391.202 48.3253 390.583 48.1547 389.751C48.048 389.218 48.0267 388.61 48.0907 387.927L48.0587 387.895C47.9947 387.682 48.0267 387.501 48.1547 387.351ZM71.6169 383.639C73.6222 382.295 75.4569 380.845 77.1209 379.287C79.7876 376.77 81.1316 374.711 81.1529 373.111C81.1742 372.109 80.8009 371.405 80.0329 370.999C79.3076 370.594 78.3156 370.455 77.0569 370.583C75.8836 370.69 74.7849 370.999 73.7609 371.511C72.6942 372.002 71.9369 372.557 71.4889 373.175C71.3822 375.778 71.4142 379.053 71.5849 382.999C71.5849 383.213 71.5956 383.426 71.6169 383.639ZM70.3689 372.823C70.4116 371.97 70.4649 371.149 70.5289 370.359C70.5502 370.21 70.6142 370.082 70.7209 369.975C70.8489 369.869 70.9876 369.826 71.1369 369.847C71.3076 369.869 71.4462 369.943 71.5529 370.071C71.6596 370.178 71.7022 370.317 71.6809 370.487C71.6596 370.807 71.6276 371.127 71.5849 371.447C72.2676 370.914 73.0889 370.477 74.0489 370.135C75.0302 369.773 75.9902 369.538 76.9289 369.431C78.4222 369.282 79.6382 369.463 80.5769 369.975C81.7502 370.615 82.3262 371.661 82.3049 373.111C82.2836 375.053 80.8222 377.389 77.9209 380.119C76.0222 381.911 73.9529 383.522 71.7129 384.951C71.7342 385.186 71.8196 386.093 71.9689 387.671C72.1609 389.655 72.2569 391.245 72.2569 392.439C72.2569 392.589 72.1929 392.717 72.0649 392.823C71.9582 392.951 71.8302 393.015 71.6809 393.015C71.5316 393.015 71.3929 392.951 71.2649 392.823C71.1582 392.717 71.1049 392.589 71.1049 392.439C71.1049 391.287 71.0089 389.741 70.8169 387.799L70.5929 385.239C70.5289 385.197 70.4756 385.133 70.4329 385.047C70.2622 384.791 70.2836 384.557 70.4969 384.343C70.4756 383.895 70.4542 383.469 70.4329 383.063C70.2622 379.138 70.2302 375.874 70.3369 373.271C70.2729 373.122 70.2836 372.973 70.3689 372.823ZM89.8347 381.943L89.8667 381.783C89.9307 381.463 90.08 380.77 90.3147 379.703C90.4427 379.149 90.5493 378.711 90.6347 378.391C90.6773 378.199 90.72 378.05 90.7627 377.943L90.8587 377.751V377.719C90.816 377.677 90.7627 377.655 90.6987 377.655C90.464 377.634 90.1333 377.751 89.7067 378.007C89.024 378.391 88.3307 378.935 87.6267 379.639C87.072 380.173 86.4533 380.919 85.7707 381.879C85.088 382.839 84.4693 383.853 83.9147 384.919C82.5707 387.522 82.112 389.463 82.5387 390.743C82.56 390.829 82.6667 390.967 82.8587 391.159C83.072 391.351 83.232 391.469 83.3387 391.511C83.9147 391.703 84.5333 391.501 85.1947 390.903C85.856 390.306 86.528 389.389 87.2107 388.151C87.936 386.829 88.8 384.802 89.8027 382.071L89.8347 381.943ZM92.0427 378.007C92.0427 378.114 92.032 378.242 92.0107 378.391C91.9893 378.647 91.9253 378.999 91.8187 379.447C91.6053 380.322 91.328 381.25 90.9867 382.231C90.5387 385.09 90.4107 387.117 90.6027 388.311C90.7733 389.293 91.1253 390.018 91.6587 390.487C92.256 391.042 93.1413 391.277 94.3147 391.191C94.464 391.191 94.592 391.245 94.6987 391.351C94.8267 391.437 94.8907 391.565 94.8907 391.735C94.912 391.885 94.8693 392.023 94.7627 392.151C94.6773 392.258 94.5493 392.322 94.3787 392.343C92.8853 392.45 91.712 392.119 90.8587 391.351C90.1547 390.711 89.696 389.762 89.4827 388.503C89.376 387.885 89.3333 387.17 89.3547 386.359C88.9707 387.234 88.5973 388.013 88.2347 388.695C87.4667 390.061 86.7093 391.074 85.9627 391.735C84.96 392.653 83.9573 392.941 82.9547 392.599C82.6987 392.514 82.4107 392.311 82.0907 391.991C81.7493 391.671 81.536 391.383 81.4507 391.127C80.9173 389.527 81.3973 387.287 82.8907 384.407C83.4667 383.298 84.1173 382.242 84.8427 381.239C85.568 380.215 86.2187 379.405 86.7947 378.807C87.584 378.039 88.3627 377.431 89.1307 376.983C89.7493 376.642 90.2827 376.482 90.7307 376.503C91.4133 376.525 91.8507 376.898 92.0427 377.623C92.0853 377.751 92.0853 377.879 92.0427 378.007ZM105.892 380.343C105.679 379.575 105.401 378.989 105.06 378.583C104.74 378.157 104.271 377.847 103.652 377.655C102.5 377.314 101.348 377.517 100.196 378.263C99.0439 378.989 98.0092 380.109 97.0919 381.623C96.2172 383.031 95.5879 384.525 95.2039 386.103C94.8412 387.661 94.7986 388.93 95.0759 389.911C95.2039 390.295 95.5132 390.583 96.0039 390.775C97.1132 391.223 98.3079 390.765 99.5879 389.399C100.292 388.631 101.177 387.309 102.244 385.431C102.5 384.983 102.852 384.183 103.3 383.031C103.748 381.858 104.025 381.207 104.132 381.079V380.919C104.153 380.685 104.164 380.482 104.164 380.311C104.185 380.055 104.196 379.853 104.196 379.703C104.217 379.597 104.228 379.511 104.228 379.447C104.249 379.383 104.271 379.33 104.292 379.287C104.313 379.223 104.345 379.17 104.388 379.127C104.495 378.978 104.644 378.903 104.836 378.903C104.985 378.903 105.103 378.946 105.188 379.031C105.295 379.117 105.359 379.191 105.38 379.255L105.412 379.383V379.543V379.895V381.975C105.433 383.661 105.465 384.983 105.508 385.943C105.529 386.413 105.593 387.191 105.7 388.279C105.828 389.41 105.903 390.274 105.924 390.871C106.031 393.005 105.785 394.701 105.188 395.959C104.719 396.941 103.983 397.655 102.98 398.103C101.999 398.551 100.911 398.743 99.7159 398.679C98.6066 398.637 97.5292 398.402 96.4839 397.975C95.4386 397.57 94.5959 397.037 93.9559 396.375C93.8492 396.269 93.7959 396.13 93.7959 395.959C93.7959 395.81 93.8492 395.682 93.9559 395.575C94.0839 395.469 94.2226 395.415 94.3719 395.415C94.5426 395.415 94.6812 395.479 94.7879 395.607C95.2999 396.141 96.0146 396.578 96.9319 396.919C97.8492 397.282 98.7879 397.485 99.7479 397.527C100.772 397.57 101.668 397.421 102.436 397.079C103.225 396.738 103.801 396.194 104.164 395.447C104.676 394.381 104.879 392.877 104.772 390.935C104.751 390.359 104.687 389.517 104.58 388.407C104.452 387.298 104.377 386.498 104.356 386.007C104.335 385.645 104.313 384.973 104.292 383.991C104.015 384.61 103.673 385.282 103.268 386.007C102.18 387.927 101.231 389.325 100.42 390.199C98.7986 391.949 97.1772 392.503 95.5559 391.863C94.7239 391.522 94.2012 390.978 93.9879 390.231C93.6252 389.058 93.6466 387.607 94.0519 385.879C94.4786 384.151 95.1612 382.53 96.0999 381.015C97.1239 379.373 98.3186 378.114 99.6839 377.239C101.071 376.343 102.5 376.119 103.972 376.567C104.825 376.823 105.476 377.239 105.924 377.815C106.393 378.391 106.745 379.127 106.98 380.023C107.023 380.194 107.001 380.354 106.916 380.503C106.852 380.631 106.735 380.717 106.564 380.759C106.415 380.781 106.265 380.759 106.116 380.695C105.988 380.61 105.913 380.493 105.892 380.343ZM113.167 377.367C113.103 377.346 113.018 377.357 112.911 377.399C112.634 377.463 112.271 377.698 111.823 378.103C111.354 378.551 110.852 379.138 110.319 379.863C109.188 381.421 108.282 383.095 107.599 384.887C107.364 385.506 107.172 386.103 107.023 386.679C107.834 386.167 108.655 385.378 109.487 384.311C110.106 383.501 110.98 382.125 112.111 380.183C112.559 379.394 112.879 378.711 113.071 378.135C113.178 377.773 113.21 377.517 113.167 377.367ZM113.199 377.367H113.231H113.199ZM105.711 387.351C105.86 386.477 106.127 385.517 106.511 384.471C107.236 382.594 108.196 380.834 109.391 379.191C109.967 378.402 110.511 377.762 111.023 377.271C111.62 376.717 112.164 376.375 112.655 376.247C113.018 376.162 113.338 376.173 113.615 376.279C113.914 376.386 114.127 376.599 114.255 376.919C114.383 377.303 114.351 377.815 114.159 378.455C113.946 379.138 113.604 379.906 113.135 380.759C112.004 382.701 111.087 384.119 110.383 385.015C109.21 386.551 108.004 387.575 106.767 388.087C106.724 388.621 106.746 389.09 106.831 389.495C106.938 390.029 107.172 390.423 107.535 390.679C107.962 390.957 108.559 391.074 109.327 391.031C110.116 390.989 110.831 390.765 111.471 390.359C112.132 389.933 112.879 389.335 113.711 388.567L114.383 387.895C114.575 387.703 114.767 387.501 114.959 387.287C115.151 387.053 115.29 386.871 115.375 386.743L115.887 386.071L116.495 385.271C116.58 385.143 116.698 385.069 116.847 385.047C117.018 385.026 117.167 385.069 117.295 385.175C117.423 385.261 117.498 385.389 117.519 385.559C117.54 385.709 117.498 385.847 117.391 385.975L116.815 386.743C116.559 387.106 116.378 387.341 116.271 387.447L115.823 388.023C115.631 388.258 115.428 388.482 115.215 388.695C115.023 388.909 114.778 389.143 114.479 389.399C113.924 389.933 113.434 390.37 113.007 390.711C112.602 391.031 112.068 391.351 111.407 391.671C110.746 391.97 110.074 392.141 109.391 392.183C108.346 392.247 107.514 392.055 106.895 391.607C106.276 391.202 105.882 390.583 105.711 389.751C105.604 389.218 105.583 388.61 105.647 387.927L105.615 387.895C105.551 387.682 105.583 387.501 105.711 387.351ZM125.915 379.063C125.638 378.231 125.403 377.719 125.211 377.527C125.062 377.357 124.817 377.239 124.475 377.175C124.155 377.111 123.793 377.122 123.387 377.207C122.982 377.314 122.662 377.463 122.427 377.655C122.214 377.847 122.107 378.05 122.107 378.263C122.15 378.349 122.214 378.455 122.299 378.583C122.449 378.775 122.705 379.074 123.067 379.479C124.433 380.93 125.243 381.805 125.499 382.103C127.889 384.941 128.817 387.511 128.283 389.815C128.07 390.647 127.654 391.309 127.035 391.799C126.417 392.269 125.691 392.567 124.859 392.695C124.091 392.802 123.313 392.738 122.523 392.503C121.755 392.269 121.115 391.895 120.603 391.383C120.006 390.765 119.515 390.125 119.131 389.463C118.769 388.781 118.513 388.045 118.363 387.255C118.214 386.445 118.118 385.741 118.075 385.143C118.033 384.546 118.011 383.767 118.011 382.807C118.011 382.658 118.065 382.53 118.171 382.423C118.299 382.295 118.438 382.231 118.587 382.231C118.737 382.231 118.865 382.295 118.971 382.423C119.099 382.53 119.163 382.658 119.163 382.807C119.163 384.685 119.291 386.199 119.547 387.351C119.825 388.503 120.454 389.57 121.435 390.551C121.819 390.957 122.31 391.245 122.907 391.415C123.505 391.586 124.102 391.629 124.699 391.543C125.318 391.458 125.841 391.245 126.267 390.903C126.715 390.562 127.003 390.114 127.131 389.559C127.601 387.618 126.769 385.378 124.635 382.839C124.401 382.562 123.601 381.698 122.235 380.247C121.809 379.799 121.521 379.469 121.371 379.255C121.073 378.871 120.934 378.53 120.955 378.231C120.977 377.677 121.201 377.218 121.627 376.855C122.054 376.493 122.545 376.237 123.099 376.087C123.569 375.938 124.102 375.917 124.699 376.023C125.297 376.13 125.766 376.375 126.107 376.759C126.363 377.079 126.662 377.719 127.003 378.679C127.046 378.829 127.035 378.978 126.971 379.127C126.907 379.277 126.801 379.373 126.651 379.415C126.502 379.458 126.353 379.447 126.203 379.383C126.054 379.319 125.958 379.213 125.915 379.063Z" fill="#181818"/>
<path d="M982.258 39.1591C981.673 39.7449 981.673 40.6946 982.258 41.2804L991.804 50.8263C992.39 51.4121 993.34 51.4121 993.926 50.8263C994.511 50.2405 994.511 49.2908 993.926 48.705L985.44 40.2197L993.926 31.7344C994.511 31.1487 994.511 30.1989 993.926 29.6131C993.34 29.0273 992.39 29.0273 991.804 29.6131L982.258 39.1591ZM1056.37 52.2999L1055.8 53.6879L1056.37 52.2999ZM1094.85 73.7693L1093.94 74.9659L1094.85 73.7693ZM1116.72 102.51L1115.4 103.228L1116.72 102.51ZM1140.42 153.807L1141.84 153.333L1140.42 153.807ZM1141.8 162.655C1142.26 163.344 1143.19 163.53 1143.88 163.071C1144.57 162.611 1144.76 161.68 1144.3 160.99L1141.8 162.655ZM986.415 41.7312C987.243 41.7375 987.92 41.071 987.926 40.2426C987.933 39.4142 987.266 38.7376 986.438 38.7313L986.415 41.7312ZM992.675 38.8319C991.846 38.811 991.158 39.4654 991.137 40.2936C991.116 41.1217 991.771 41.81 992.599 41.831L992.675 38.8319ZM998.776 42.0505C999.604 42.089 1000.31 41.4493 1000.34 40.6217C1000.38 39.7942 999.743 39.0922 998.915 39.0538L998.776 42.0505ZM1005.15 39.4188C1004.33 39.36 1003.61 39.9821 1003.55 40.8085C1003.49 41.6348 1004.11 42.3524 1004.94 42.4112L1005.15 39.4188ZM1011.09 42.9341C1011.91 43.0162 1012.65 42.4144 1012.73 41.5901C1012.81 40.7657 1012.21 40.0309 1011.38 39.9489L1011.09 42.9341ZM1017.6 40.6653C1016.78 40.5573 1016.03 41.1356 1015.92 41.957C1015.81 42.7783 1016.39 43.5317 1017.21 43.6397L1017.6 40.6653ZM1023.3 44.5465C1024.12 44.6829 1024.89 44.1309 1025.03 43.3138C1025.17 42.4967 1024.61 41.7237 1023.8 41.5874L1023.3 44.5465ZM1029.96 42.7325C1029.15 42.5659 1028.36 43.0886 1028.19 43.9001C1028.02 44.7116 1028.55 45.5045 1029.36 45.6712L1029.96 42.7325ZM1035.36 47.0267C1036.16 47.2253 1036.97 46.7343 1037.17 45.93C1037.37 45.1257 1036.88 44.3128 1036.08 44.1142L1035.36 47.0267ZM1042.13 45.742C1041.34 45.5105 1040.51 45.9677 1040.28 46.7631C1040.04 47.5586 1040.5 48.391 1041.3 48.6225L1042.13 45.742ZM1047.16 50.4642C1047.95 50.7289 1048.8 50.3072 1049.06 49.5222C1049.33 48.7372 1048.91 47.8863 1048.12 47.6215L1047.16 50.4642ZM1054.02 49.7523C1053.25 49.4545 1052.38 49.8398 1052.08 50.6128C1051.79 51.3859 1052.17 52.254 1052.95 52.5518L1054.02 49.7523ZM1058.33 54.7442C1059.09 55.0688 1059.98 54.7141 1060.3 53.9519C1060.62 53.1897 1060.27 52.3087 1059.51 51.9841L1058.33 54.7442ZM1064.6 54.2351C1063.84 53.8893 1062.95 54.2194 1062.61 54.9722C1062.26 55.7251 1062.59 56.6156 1063.34 56.9613L1064.6 54.2351ZM1068.29 59.3188C1069.03 59.6859 1069.93 59.3816 1070.3 58.639C1070.67 57.8964 1070.36 56.9968 1069.62 56.6296L1068.29 59.3188ZM1074.57 59.1707C1073.84 58.7815 1072.93 59.0589 1072.54 59.7902C1072.15 60.5215 1072.43 61.4298 1073.16 61.8191L1074.57 59.1707ZM1077.96 64.466C1078.67 64.878 1079.59 64.6292 1080 63.9105C1080.42 63.1917 1080.17 62.2751 1079.45 61.8632L1077.96 64.466ZM1084.24 64.7127C1083.53 64.2772 1082.61 64.4954 1082.17 65.2001C1081.74 65.9048 1081.95 66.8291 1082.66 67.2646L1084.24 64.7127ZM1087.26 70.2208C1087.95 70.681 1088.88 70.4957 1089.34 69.8068C1089.8 69.118 1089.62 68.1865 1088.93 67.7263L1087.26 70.2208ZM1093.51 70.9122C1092.84 70.4261 1091.9 70.5759 1091.41 71.2467C1090.93 71.9175 1091.08 72.8554 1091.75 73.3415L1093.51 70.9122ZM1096.24 76.8113C1096.87 77.3481 1097.82 77.2718 1098.36 76.6409C1098.89 76.0099 1098.82 75.0633 1098.19 74.5264L1096.24 76.8113ZM1102.7 78.8251C1102.13 78.2217 1101.18 78.1928 1100.58 78.7605C1099.97 79.3282 1099.94 80.2775 1100.51 80.8808L1102.7 78.8251ZM1104.35 85.391C1104.86 86.0462 1105.8 86.1665 1106.45 85.6597C1107.11 85.1528 1107.23 84.2107 1106.72 83.5554L1104.35 85.391ZM1110.31 88.5898C1109.85 87.8983 1108.92 87.7075 1108.23 88.1637C1107.54 88.6199 1107.35 89.5503 1107.8 90.2418L1110.31 88.5898ZM1110.97 95.3328C1111.39 96.0467 1112.31 96.2847 1113.02 95.8644C1113.73 95.444 1113.97 94.5246 1113.55 93.8107L1110.97 95.3328ZM1116.57 99.1231C1116.17 98.398 1115.26 98.1351 1114.53 98.5359C1113.8 98.9366 1113.54 99.8493 1113.94 100.574L1116.57 99.1231ZM1116.75 105.71C1117.15 106.438 1118.06 106.708 1118.78 106.313C1119.51 105.918 1119.78 105.008 1119.39 104.279L1116.75 105.71ZM1122.07 109.272C1121.68 108.541 1120.78 108.264 1120.04 108.654C1119.31 109.044 1119.04 109.952 1119.43 110.683L1122.07 109.272ZM1122.06 115.676C1122.44 116.41 1123.35 116.696 1124.08 116.313C1124.82 115.93 1125.1 115.025 1124.72 114.29L1122.06 115.676ZM1127.31 119.341C1126.94 118.601 1126.04 118.305 1125.3 118.678C1124.56 119.052 1124.26 119.954 1124.63 120.693L1127.31 119.341ZM1127.14 125.743C1127.5 126.488 1128.4 126.798 1129.14 126.436C1129.89 126.074 1130.2 125.176 1129.84 124.431L1127.14 125.743ZM1132.28 129.565C1131.93 128.814 1131.04 128.488 1130.29 128.837C1129.53 129.185 1129.21 130.077 1129.56 130.829L1132.28 129.565ZM1131.87 135.957C1132.21 136.715 1133.09 137.06 1133.85 136.726C1134.61 136.393 1134.95 135.508 1134.62 134.749L1131.87 135.957ZM1136.85 139.987C1136.54 139.221 1135.66 138.856 1134.89 139.172C1134.13 139.488 1133.76 140.364 1134.08 141.13L1136.85 139.987ZM1136.16 146.353C1136.45 147.126 1137.32 147.514 1138.09 147.218C1138.87 146.922 1139.25 146.055 1138.96 145.281L1136.16 146.353ZM1140.92 150.634C1140.64 149.852 1139.79 149.44 1139.01 149.714C1138.23 149.988 1137.81 150.844 1138.09 151.626L1140.92 150.634ZM1139.53 156.208C1139.73 157.012 1140.55 157.502 1141.35 157.302C1142.16 157.102 1142.65 156.288 1142.45 155.484L1139.53 156.208ZM1143.53 159.405C1143.24 158.628 1142.38 158.232 1141.6 158.519C1140.82 158.807 1140.43 159.67 1140.71 160.447L1143.53 159.405ZM983.319 41.7197C984.354 41.7197 985.386 41.7234 986.415 41.7312L986.438 38.7313C985.401 38.7235 984.362 38.7197 983.319 38.7197V41.7197ZM992.599 41.831C994.67 41.8833 996.728 41.9555 998.776 42.0505L998.915 39.0538C996.845 38.9576 994.765 38.8847 992.675 38.8319L992.599 41.831ZM1004.94 42.4112C1007 42.5578 1009.05 42.731 1011.09 42.9341L1011.38 39.9489C1009.31 39.7428 1007.24 39.5672 1005.15 39.4188L1004.94 42.4112ZM1017.21 43.6397C1019.25 43.9075 1021.28 44.2087 1023.3 44.5465L1023.8 41.5874C1021.74 41.2437 1019.67 40.9374 1017.6 40.6653L1017.21 43.6397ZM1029.36 45.6712C1031.36 46.0827 1033.36 46.5335 1035.36 47.0267L1036.08 44.1142C1034.04 43.6112 1032 43.1518 1029.96 42.7325L1029.36 45.6712ZM1041.3 48.6225C1043.25 49.1916 1045.21 49.8045 1047.16 50.4642L1048.12 47.6215C1046.13 46.9482 1044.13 46.3227 1042.13 45.742L1041.3 48.6225ZM1052.95 52.5518C1053.9 52.9186 1054.85 53.2972 1055.8 53.6879L1056.94 50.9118C1055.97 50.5131 1055 50.1267 1054.02 49.7523L1052.95 52.5518ZM1055.8 53.6879C1056.65 54.0332 1057.49 54.3854 1058.33 54.7442L1059.51 51.9841C1058.65 51.6198 1057.8 51.2624 1056.94 50.9118L1055.8 53.6879ZM1063.34 56.9613C1065 57.7214 1066.65 58.5073 1068.29 59.3188L1069.62 56.6296C1067.95 55.8052 1066.28 55.0069 1064.6 54.2351L1063.34 56.9613ZM1073.16 61.8191C1074.77 62.6766 1076.37 63.559 1077.96 64.466L1079.45 61.8632C1077.84 60.9402 1076.21 60.0426 1074.57 59.1707L1073.16 61.8191ZM1082.66 67.2646C1084.21 68.2257 1085.75 69.2112 1087.26 70.2208L1088.93 67.7263C1087.38 66.6964 1085.82 65.6918 1084.24 64.7127L1082.66 67.2646ZM1091.75 73.3415C1092.48 73.8769 1093.22 74.4184 1093.94 74.9659L1095.75 72.5727C1095.01 72.0127 1094.26 71.4592 1093.51 70.9122L1091.75 73.3415ZM1093.94 74.9659C1094.73 75.5656 1095.5 76.181 1096.24 76.8113L1098.19 74.5264C1097.4 73.8593 1096.59 73.2077 1095.75 72.5727L1093.94 74.9659ZM1100.51 80.8808C1101.87 82.326 1103.14 83.8316 1104.35 85.391L1106.72 83.5554C1105.46 81.9276 1104.13 80.3476 1102.7 78.8251L1100.51 80.8808ZM1107.8 90.2418C1108.9 91.8949 1109.94 93.5938 1110.97 95.3328L1113.55 93.8107C1112.51 92.0385 1111.43 90.2948 1110.31 88.5898L1107.8 90.2418ZM1113.94 100.574C1114.43 101.452 1114.91 102.337 1115.4 103.228L1118.03 101.791C1117.54 100.897 1117.06 100.007 1116.57 99.1231L1113.94 100.574ZM1115.4 103.228C1115.85 104.055 1116.3 104.882 1116.75 105.71L1119.39 104.279C1118.94 103.449 1118.48 102.62 1118.03 101.791L1115.4 103.228ZM1119.43 110.683C1120.31 112.344 1121.19 114.008 1122.06 115.676L1124.72 114.29C1123.85 112.613 1122.96 110.94 1122.07 109.272L1119.43 110.683ZM1124.63 120.693C1125.48 122.371 1126.32 124.054 1127.14 125.743L1129.84 124.431C1129.01 122.728 1128.17 121.031 1127.31 119.341L1124.63 120.693ZM1129.56 130.829C1130.35 132.531 1131.12 134.24 1131.87 135.957L1134.62 134.749C1133.86 133.013 1133.08 131.285 1132.28 129.565L1129.56 130.829ZM1134.08 141.13C1134.79 142.862 1135.49 144.603 1136.16 146.353L1138.96 145.281C1138.28 143.506 1137.58 141.741 1136.85 139.987L1134.08 141.13ZM1138.09 151.626C1138.4 152.508 1138.7 153.394 1138.99 154.282L1141.84 153.333C1141.54 152.43 1141.23 151.531 1140.92 150.634L1138.09 151.626ZM1138.99 154.282C1139.19 154.864 1139.36 155.507 1139.53 156.208L1142.45 155.484C1142.27 154.767 1142.07 154.03 1141.84 153.333L1138.99 154.282ZM1140.71 160.447C1140.99 161.207 1141.34 161.965 1141.8 162.655L1144.3 160.99C1144.01 160.555 1143.76 160.026 1143.53 159.405L1140.71 160.447Z" fill="black"/>
<path d="M616.111 56.3539C616.931 56.2368 617.691 56.8066 617.808 57.6267L619.717 70.991C619.834 71.8111 619.264 72.5709 618.444 72.6881C617.624 72.8053 616.864 72.2354 616.747 71.4153L615.05 59.5359L603.171 61.2331C602.35 61.3503 601.591 60.7804 601.474 59.9603C601.356 59.1402 601.926 58.3804 602.746 58.2632L616.111 56.3539ZM341.717 167.91L342.297 166.527L341.717 167.91ZM112.377 261.936L113.777 262.475L113.769 262.495L113.761 262.514L112.377 261.936ZM97.8501 296.727L99.2343 297.305L99.2075 297.369L99.1747 297.431L97.8501 296.727ZM74.1479 348.025L72.7228 347.556L72.7249 347.55L74.1479 348.025ZM72.9394 356.508C72.6808 357.295 71.8331 357.724 71.0461 357.465C70.2591 357.206 69.8307 356.359 70.0893 355.572L72.9394 356.508ZM615.854 61.0892C615.383 61.7709 614.449 61.9419 613.767 61.4712C613.085 61.0005 612.914 60.0663 613.385 59.3846L615.854 61.0892ZM609.985 64.3559C610.453 63.6723 611.387 63.4974 612.071 63.9654C612.754 64.4334 612.929 65.3669 612.461 66.0505L609.985 64.3559ZM608.993 71.0659C608.518 71.7447 607.583 71.9098 606.904 71.4349C606.225 70.9599 606.06 70.0246 606.535 69.3459L608.993 71.0659ZM603.07 74.2288C603.554 73.5565 604.491 73.404 605.164 73.888C605.836 74.3721 605.989 75.3095 605.504 75.9818L603.07 74.2288ZM601.93 80.8694C601.436 81.5344 600.497 81.673 599.832 81.179C599.167 80.6849 599.028 79.7453 599.522 79.0803L601.93 80.8694ZM595.932 83.8355C596.437 83.1782 597.378 83.0542 598.035 83.5585C598.693 84.0628 598.817 85.0044 598.312 85.6617L595.932 83.8355ZM594.61 90.4081C594.095 91.0571 593.151 91.166 592.502 90.6511C591.853 90.1363 591.745 89.1928 592.259 88.5438L594.61 90.4081ZM588.493 93.2121C589.019 92.5718 589.964 92.4787 590.604 93.0042C591.245 93.5298 591.338 94.475 590.812 95.1153L588.493 93.2121ZM586.913 99.7834C586.377 100.415 585.43 100.491 584.799 99.9549C584.168 99.4184 584.091 98.4717 584.628 97.8405L586.913 99.7834ZM580.715 102.363C581.262 101.741 582.21 101.681 582.832 102.229C583.454 102.776 583.514 103.724 582.966 104.346L580.715 102.363ZM578.94 108.835C578.382 109.447 577.433 109.49 576.821 108.932C576.209 108.373 576.166 107.424 576.725 106.812L578.94 108.835ZM572.623 111.221C573.193 110.62 574.143 110.595 574.744 111.165C575.345 111.735 575.37 112.684 574.8 113.285L572.623 111.221ZM570.607 117.625C570.026 118.215 569.076 118.222 568.486 117.641C567.895 117.059 567.888 116.11 568.47 115.52L570.607 117.625ZM564.228 119.742C564.821 119.163 565.771 119.174 566.35 119.767C566.928 120.36 566.917 121.31 566.324 121.889L564.228 119.742ZM561.926 126.095C561.321 126.661 560.372 126.63 559.805 126.025C559.239 125.421 559.27 124.472 559.875 123.905L561.926 126.095ZM555.487 127.931C556.103 127.378 557.051 127.428 557.605 128.045C558.159 128.661 558.108 129.609 557.492 130.163L555.487 127.931ZM552.934 134.17C552.306 134.71 551.359 134.639 550.819 134.011C550.278 133.383 550.35 132.436 550.978 131.896L552.934 134.17ZM546.402 135.744C547.042 135.218 547.987 135.31 548.513 135.95C549.039 136.59 548.947 137.535 548.307 138.061L546.402 135.744ZM543.587 141.852C542.935 142.363 541.992 142.249 541.481 141.597C540.97 140.945 541.084 140.002 541.735 139.491L543.587 141.852ZM536.974 143.134C537.638 142.639 538.578 142.775 539.073 143.439C539.569 144.103 539.433 145.043 538.769 145.539L536.974 143.134ZM533.882 149.094C533.206 149.573 532.27 149.414 531.791 148.738C531.312 148.062 531.471 147.126 532.147 146.647L533.882 149.094ZM527.206 150.057C527.893 149.595 528.825 149.779 529.287 150.466C529.749 151.154 529.566 152.086 528.878 152.548L527.206 150.057ZM523.823 155.848C523.124 156.292 522.197 156.085 521.753 155.385C521.309 154.686 521.516 153.759 522.216 153.315L523.823 155.848ZM517.11 156.459C517.821 156.034 518.742 156.267 519.167 156.978C519.591 157.689 519.359 158.61 518.648 159.035L517.11 156.459ZM513.416 162.063C512.693 162.468 511.779 162.21 511.374 161.487C510.969 160.765 511.227 159.85 511.95 159.446L513.416 162.063ZM506.685 162.298C507.419 161.914 508.325 162.197 508.709 162.931C509.094 163.665 508.81 164.572 508.076 164.956L506.685 162.298ZM502.673 167.685C501.928 168.047 501.03 167.737 500.668 166.992C500.305 166.248 500.615 165.35 501.36 164.987L502.673 167.685ZM495.944 167.524C496.699 167.184 497.587 167.521 497.927 168.276C498.267 169.032 497.93 169.92 497.175 170.26L495.944 167.524ZM491.612 172.662C490.846 172.978 489.969 172.614 489.652 171.849C489.336 171.083 489.7 170.206 490.465 169.89L491.612 172.662ZM484.908 172.087C485.684 171.794 486.549 172.185 486.841 172.961C487.134 173.736 486.742 174.601 485.967 174.893L484.908 172.087ZM480.26 176.943C479.476 177.21 478.624 176.791 478.356 176.007C478.089 175.223 478.508 174.371 479.292 174.103L480.26 176.943ZM473.61 175.939C474.402 175.697 475.24 176.143 475.482 176.936C475.724 177.728 475.277 178.566 474.485 178.808L473.61 175.939ZM468.654 180.482C467.854 180.697 467.031 180.223 466.816 179.423C466.601 178.623 467.074 177.8 467.874 177.585L468.654 180.482ZM462.085 179.04C462.891 178.851 463.698 179.353 463.886 180.159C464.075 180.966 463.573 181.773 462.767 181.961L462.085 179.04ZM456.838 183.24C456.025 183.401 455.236 182.873 455.075 182.06C454.914 181.248 455.442 180.458 456.255 180.297L456.838 183.24ZM450.378 181.358C451.196 181.225 451.966 181.779 452.1 182.597C452.233 183.415 451.678 184.186 450.86 184.319L450.378 181.358ZM444.862 185.191C444.04 185.296 443.289 184.715 443.184 183.893C443.079 183.072 443.66 182.32 444.481 182.215L444.862 185.191ZM438.538 182.872C439.363 182.795 440.094 183.402 440.171 184.227C440.248 185.051 439.642 185.782 438.817 185.859L438.538 182.872ZM432.784 186.319C431.957 186.368 431.247 185.737 431.198 184.91C431.149 184.083 431.78 183.373 432.607 183.324L432.784 186.319ZM426.616 183.576C427.444 183.555 428.132 184.21 428.153 185.038C428.174 185.866 427.519 186.554 426.691 186.575L426.616 183.576ZM420.659 186.625C419.83 186.618 419.165 185.941 419.172 185.112C419.178 184.284 419.856 183.618 420.684 183.625L420.659 186.625ZM414.665 183.474C415.493 183.508 416.135 184.207 416.101 185.035C416.066 185.863 415.367 186.506 414.539 186.471L414.665 183.474ZM408.54 186.122C407.714 186.061 407.094 185.341 407.156 184.515C407.217 183.689 407.937 183.069 408.763 183.13L408.54 186.122ZM402.784 182.588C403.608 182.676 404.204 183.415 404.116 184.239C404.028 185.063 403.289 185.659 402.465 185.571L402.784 182.588ZM396.473 184.835C395.653 184.721 395.08 183.964 395.194 183.143C395.308 182.323 396.065 181.75 396.886 181.864L396.473 184.835ZM390.983 180.952C391.799 181.091 392.349 181.865 392.21 182.682C392.071 183.499 391.296 184.048 390.479 183.909L390.983 180.952ZM384.493 182.797C383.681 182.633 383.155 181.842 383.318 181.03C383.482 180.218 384.273 179.692 385.085 179.856L384.493 182.797ZM379.29 178.6C380.097 178.788 380.6 179.593 380.413 180.4C380.226 181.207 379.42 181.71 378.613 181.523L379.29 178.6ZM372.666 180.054C371.865 179.844 371.385 179.024 371.595 178.223C371.806 177.422 372.625 176.942 373.427 177.152L372.666 180.054ZM367.724 175.574C368.519 175.805 368.976 176.638 368.744 177.433C368.512 178.229 367.68 178.686 366.884 178.454L367.724 175.574ZM361.087 176.679C360.298 176.426 359.864 175.582 360.117 174.793C360.37 174.004 361.214 173.57 362.003 173.823L361.087 176.679ZM356.288 171.907C357.07 172.181 357.482 173.036 357.209 173.818C356.936 174.6 356.08 175.013 355.298 174.739L356.288 171.907ZM349.674 172.695C348.899 172.403 348.508 171.537 348.801 170.762C349.093 169.987 349.959 169.596 350.734 169.888L349.674 172.695ZM345.123 167.692C345.891 168.004 346.261 168.878 345.95 169.646C345.639 170.414 344.764 170.784 343.996 170.473L345.123 167.692ZM338.27 168.11C337.502 167.798 337.133 166.924 337.444 166.156C337.756 165.388 338.631 165.019 339.398 165.331L338.27 168.11ZM333.662 163.078C334.437 163.372 334.827 164.238 334.533 165.012C334.239 165.787 333.373 166.176 332.598 165.883L333.662 163.078ZM327.011 163.838C326.229 163.562 325.819 162.705 326.095 161.924C326.37 161.143 327.227 160.733 328.008 161.008L327.011 163.838ZM322.148 159.025C322.936 159.281 323.368 160.127 323.113 160.915C322.857 161.703 322.011 162.135 321.223 161.879L322.148 159.025ZM315.461 160.094C314.666 159.86 314.212 159.026 314.447 158.231C314.682 157.437 315.516 156.983 316.31 157.217L315.461 160.094ZM310.467 155.578C311.268 155.791 311.744 156.612 311.532 157.413C311.319 158.214 310.497 158.69 309.697 158.478L310.467 155.578ZM303.782 156.998C302.976 156.809 302.475 156.002 302.665 155.195C302.854 154.389 303.661 153.888 304.467 154.077L303.782 156.998ZM298.57 152.786C299.382 152.951 299.906 153.743 299.741 154.554C299.576 155.366 298.784 155.891 297.972 155.726L298.57 152.786ZM291.972 154.605C291.156 154.466 290.606 153.691 290.745 152.874C290.884 152.058 291.659 151.508 292.476 151.647L291.972 154.605ZM286.458 150.723C287.279 150.836 287.853 151.592 287.741 152.413C287.629 153.234 286.872 153.808 286.052 153.696L286.458 150.723ZM280.046 152.98C279.222 152.896 278.622 152.16 278.706 151.336C278.79 150.511 279.526 149.911 280.35 149.995L280.046 152.98ZM274.25 149.484C275.077 149.538 275.703 150.252 275.648 151.079C275.594 151.905 274.879 152.532 274.053 152.477L274.25 149.484ZM268.04 152.192C267.212 152.168 266.56 151.478 266.584 150.649C266.607 149.821 267.298 149.169 268.126 149.193L268.04 152.192ZM261.989 149.133C262.817 149.125 263.495 149.791 263.503 150.619C263.51 151.447 262.845 152.125 262.017 152.133L261.989 149.133ZM256.008 152.307C255.181 152.347 254.477 151.709 254.437 150.882C254.396 150.055 255.034 149.351 255.862 149.311L256.008 152.307ZM249.736 149.733C250.562 149.659 251.29 150.268 251.364 151.094C251.438 151.919 250.829 152.647 250.003 152.721L249.736 149.733ZM244.024 153.379C243.203 153.487 242.45 152.908 242.342 152.087C242.235 151.266 242.813 150.512 243.635 150.405L244.024 153.379ZM237.573 151.329C238.389 151.187 239.166 151.733 239.308 152.549C239.45 153.366 238.903 154.142 238.087 154.284L237.573 151.329ZM232.174 155.443C231.365 155.62 230.566 155.107 230.389 154.298C230.212 153.488 230.725 152.689 231.535 152.512L232.174 155.443ZM225.588 153.944C226.389 153.733 227.21 154.211 227.421 155.012C227.632 155.813 227.154 156.634 226.353 156.845L225.588 153.944ZM220.548 158.51C219.757 158.755 218.916 158.313 218.671 157.522C218.425 156.731 218.868 155.89 219.659 155.645L220.548 158.51ZM213.862 157.581C214.642 157.302 215.501 157.708 215.78 158.488C216.059 159.268 215.653 160.126 214.873 160.405L213.862 157.581ZM209.233 162.563C208.465 162.875 207.59 162.507 207.278 161.74C206.965 160.972 207.334 160.097 208.101 159.785L209.233 162.563ZM202.471 162.218C203.225 161.873 204.115 162.204 204.459 162.958C204.804 163.711 204.473 164.601 203.72 164.946L202.471 162.218ZM198.306 167.561C197.568 167.937 196.664 167.643 196.289 166.905C195.913 166.167 196.207 165.263 196.945 164.888L198.306 167.561ZM191.522 167.79C192.244 167.385 193.159 167.641 193.564 168.363C193.97 169.086 193.714 170 192.992 170.406L191.522 167.79ZM187.823 173.448C187.118 173.883 186.194 173.663 185.759 172.958C185.325 172.252 185.545 171.328 186.25 170.894L187.823 173.448ZM181.074 174.224C181.761 173.762 182.693 173.946 183.155 174.634C183.617 175.321 183.434 176.253 182.746 176.715L181.074 174.224ZM177.811 180.167C177.142 180.654 176.203 180.507 175.716 179.837C175.228 179.167 175.376 178.229 176.045 177.741L177.811 180.167ZM171.169 181.432C171.82 180.92 172.763 181.033 173.275 181.684C173.787 182.336 173.675 183.279 173.023 183.791L171.169 181.432ZM168.338 187.613C167.705 188.148 166.759 188.07 166.224 187.437C165.689 186.805 165.768 185.858 166.4 185.323L168.338 187.613ZM161.791 189.363C162.405 188.806 163.353 188.852 163.91 189.465C164.467 190.079 164.421 191.028 163.807 191.584L161.791 189.363ZM159.425 195.697C158.831 196.274 157.881 196.26 157.304 195.666C156.727 195.071 156.742 194.121 157.336 193.544L159.425 195.697ZM152.992 197.901C153.567 197.305 154.517 197.288 155.113 197.864C155.709 198.439 155.725 199.389 155.15 199.985L152.992 197.901ZM151.028 204.392C150.472 205.006 149.523 205.053 148.909 204.496C148.296 203.94 148.249 202.991 148.805 202.378L151.028 204.392ZM144.777 206.96C145.315 206.33 146.262 206.255 146.892 206.792C147.523 207.329 147.598 208.276 147.06 208.907L144.777 206.96ZM143.205 213.568C142.687 214.214 141.743 214.317 141.097 213.799C140.45 213.28 140.347 212.336 140.866 211.69L143.205 213.568ZM137.091 216.536C137.591 215.875 138.532 215.744 139.192 216.244C139.853 216.743 139.984 217.684 139.484 218.345L137.091 216.536ZM135.91 223.214C135.429 223.888 134.493 224.045 133.818 223.564C133.143 223.084 132.986 222.147 133.467 221.472L135.91 223.214ZM129.99 226.496C130.452 225.808 131.384 225.625 132.072 226.087C132.759 226.549 132.942 227.481 132.48 228.169L129.99 226.496ZM129.191 233.211C128.748 233.91 127.821 234.119 127.121 233.675C126.421 233.232 126.213 232.305 126.656 231.606L129.191 233.211ZM123.46 236.808C123.884 236.096 124.805 235.863 125.517 236.287C126.228 236.711 126.462 237.632 126.038 238.344L123.46 236.808ZM123.015 243.579C122.611 244.302 121.697 244.561 120.974 244.157C120.251 243.753 119.992 242.839 120.396 242.116L123.015 243.579ZM117.466 247.538C117.849 246.804 118.755 246.519 119.49 246.902C120.224 247.285 120.509 248.191 120.126 248.926L117.466 247.538ZM117.405 254.344C117.045 255.09 116.148 255.403 115.402 255.043C114.656 254.683 114.343 253.787 114.703 253.04L117.405 254.344ZM112.131 258.632C112.461 257.873 113.345 257.525 114.104 257.855C114.864 258.186 115.212 259.069 114.882 259.829L112.131 258.632ZM112.551 265.413C112.232 266.178 111.353 266.539 110.589 266.22C109.824 265.9 109.463 265.022 109.782 264.258L112.551 265.413ZM107.361 270.056C107.68 269.292 108.559 268.931 109.323 269.25C110.088 269.569 110.449 270.447 110.13 271.212L107.361 270.056ZM107.708 277.01C107.389 277.775 106.511 278.136 105.746 277.817C104.982 277.497 104.621 276.619 104.94 275.854L107.708 277.01ZM102.519 281.653C102.838 280.888 103.717 280.528 104.481 280.847C105.245 281.166 105.606 282.044 105.287 282.809L102.519 281.653ZM102.866 288.607C102.547 289.372 101.668 289.733 100.904 289.414C100.139 289.094 99.7785 288.216 100.098 287.451L102.866 288.607ZM97.6765 293.25C97.9957 292.485 98.8742 292.124 99.6387 292.444C100.403 292.763 100.764 293.641 100.445 294.406L97.6765 293.25ZM97.8733 299.91C97.4903 300.645 96.5844 300.93 95.8497 300.547C95.1152 300.164 94.8301 299.258 95.2131 298.523L97.8733 299.91ZM92.6137 303.56C92.9907 302.823 93.8944 302.53 94.632 302.907C95.3697 303.284 95.662 304.188 95.2849 304.926L92.6137 303.56ZM92.7326 309.965C92.361 310.705 91.4596 311.004 90.7192 310.633C89.9787 310.261 89.6797 309.36 90.0513 308.619L92.7326 309.965ZM87.5274 313.698C87.8931 312.955 88.7922 312.649 89.5355 313.014C90.2788 313.38 90.585 314.279 90.2192 315.022L87.5274 313.698ZM87.7484 320.1C87.3893 320.847 86.493 321.161 85.7464 320.802C84.9999 320.442 84.6858 319.546 85.0449 318.8L87.7484 320.1ZM82.6119 323.923C82.9633 323.173 83.8563 322.85 84.6065 323.201C85.3568 323.552 85.6801 324.445 85.3288 325.196L82.6119 323.923ZM82.9691 330.317C82.6274 331.071 81.7386 331.406 80.984 331.064C80.2293 330.723 79.8945 329.834 80.2362 329.079L82.9691 330.317ZM77.9337 334.274C78.2629 333.513 79.1459 333.164 79.9062 333.493C80.6664 333.822 81.0159 334.705 80.6868 335.465L77.9337 334.274ZM78.5085 340.651C78.197 341.419 77.3223 341.789 76.5546 341.477C75.7869 341.166 75.4171 340.291 75.7285 339.523L78.5085 340.651ZM73.668 344.853C73.9515 344.075 74.8124 343.673 75.5908 343.957C76.3691 344.241 76.7703 345.102 76.4867 345.88L73.668 344.853ZM74.9146 350.497C74.6559 351.284 73.8083 351.712 73.0213 351.454C72.2343 351.195 71.8058 350.347 72.0645 349.56L74.9146 350.497ZM70.7477 353.568C71.0063 352.781 71.8539 352.352 72.6409 352.611C73.428 352.87 73.8564 353.717 73.5978 354.504L70.7477 353.568ZM617.523 58.7389C617.088 59.3184 616.534 60.1037 615.854 61.0892L613.385 59.3846C614.068 58.3947 614.651 57.5685 615.123 56.9389L617.523 58.7389ZM612.461 66.0505C611.429 67.5587 610.272 69.238 608.993 71.0659L606.535 69.3459C607.806 67.5292 608.957 65.8589 609.985 64.3559L612.461 66.0505ZM605.504 75.9818C604.383 77.5399 603.191 79.1723 601.93 80.8694L599.522 79.0803C600.773 77.3961 601.956 75.7758 603.07 74.2288L605.504 75.9818ZM598.312 85.6617C597.128 87.2048 595.894 88.7889 594.61 90.4081L592.259 88.5438C593.533 86.9378 594.758 85.3664 595.932 83.8355L598.312 85.6617ZM590.812 95.1153C589.554 96.6483 588.254 98.2058 586.913 99.7834L584.628 97.8405C585.957 96.2765 587.245 94.7322 588.493 93.2121L590.812 95.1153ZM582.966 104.346C581.659 105.83 580.317 107.328 578.94 108.835L576.725 106.812C578.089 105.318 579.419 103.834 580.715 102.363L582.966 104.346ZM574.8 113.285C573.434 114.727 572.036 116.174 570.607 117.625L568.47 115.52C569.885 114.083 571.269 112.649 572.623 111.221L574.8 113.285ZM566.324 121.889C564.886 123.291 563.42 124.694 561.926 126.095L559.875 123.905C561.354 122.519 562.805 121.13 564.228 119.742L566.324 121.889ZM557.492 130.163C555.999 131.504 554.48 132.841 552.934 134.17L550.978 131.896C552.507 130.581 554.01 129.258 555.487 127.931L557.492 130.163ZM548.307 138.061C546.758 139.334 545.185 140.599 543.587 141.852L541.735 139.491C543.315 138.252 544.87 137.003 546.402 135.744L548.307 138.061ZM538.769 145.539C537.163 146.737 535.534 147.923 533.882 149.094L532.147 146.647C533.779 145.49 535.388 144.318 536.974 143.134L538.769 145.539ZM528.878 152.548C527.215 153.664 525.53 154.765 523.823 155.848L522.216 153.315C523.901 152.246 525.564 151.16 527.206 150.057L528.878 152.548ZM518.648 159.035C516.925 160.064 515.181 161.073 513.416 162.063L511.95 159.446C513.69 158.47 515.411 157.474 517.11 156.459L518.648 159.035ZM508.076 164.956C506.296 165.888 504.495 166.798 502.673 167.685L501.36 164.987C503.155 164.114 504.93 163.217 506.685 162.298L508.076 164.956ZM497.175 170.26C495.34 171.085 493.486 171.886 491.612 172.662L490.465 169.89C492.311 169.126 494.137 168.337 495.944 167.524L497.175 170.26ZM485.967 174.893C484.084 175.604 482.182 176.287 480.26 176.943L479.292 174.103C481.183 173.459 483.055 172.786 484.908 172.087L485.967 174.893ZM474.485 178.808C472.56 179.395 470.616 179.954 468.654 180.482L467.874 177.585C469.804 177.065 471.716 176.516 473.61 175.939L474.485 178.808ZM462.767 181.961C460.808 182.418 458.832 182.845 456.838 183.24L456.255 180.297C458.215 179.909 460.158 179.489 462.085 179.04L462.767 181.961ZM450.86 184.319C448.877 184.642 446.878 184.933 444.862 185.191L444.481 182.215C446.463 181.961 448.429 181.675 450.378 181.358L450.86 184.319ZM438.817 185.859C436.822 186.046 434.811 186.199 432.784 186.319L432.607 183.324C434.599 183.206 436.577 183.055 438.538 182.872L438.817 185.859ZM426.691 186.575C424.695 186.625 422.684 186.642 420.659 186.625L420.684 183.625C422.676 183.642 424.653 183.625 426.616 183.576L426.691 186.575ZM414.539 186.471C412.553 186.388 410.553 186.272 408.54 186.122L408.763 183.13C410.744 183.278 412.711 183.392 414.665 183.474L414.539 186.471ZM402.465 185.571C400.481 185.359 398.483 185.114 396.473 184.835L396.886 181.864C398.865 182.138 400.831 182.379 402.784 182.588L402.465 185.571ZM390.479 183.909C388.496 183.571 386.5 183.201 384.493 182.797L385.085 179.856C387.063 180.254 389.029 180.619 390.983 180.952L390.479 183.909ZM378.613 181.523C376.642 181.066 374.66 180.577 372.666 180.054L373.427 177.152C375.393 177.668 377.347 178.15 379.29 178.6L378.613 181.523ZM366.884 178.454C364.962 177.894 363.03 177.302 361.087 176.679L362.003 173.823C363.921 174.437 365.827 175.021 367.724 175.574L366.884 178.454ZM355.298 174.739C353.433 174.087 351.558 173.406 349.674 172.695L350.734 169.888C352.595 170.591 354.446 171.263 356.288 171.907L355.298 174.739ZM343.996 170.473C343.046 170.087 342.092 169.694 341.137 169.294L342.297 166.527C343.242 166.923 344.184 167.311 345.123 167.692L343.996 170.473ZM341.137 169.294C340.178 168.891 339.222 168.497 338.27 168.11L339.398 165.331C340.361 165.722 341.328 166.12 342.297 166.527L341.137 169.294ZM332.598 165.883C330.722 165.171 328.859 164.489 327.011 163.838L328.008 161.008C329.879 161.668 331.764 162.357 333.662 163.078L332.598 165.883ZM321.223 161.879C319.287 161.252 317.366 160.657 315.461 160.094L316.31 157.217C318.241 157.787 320.187 158.39 322.148 159.025L321.223 161.879ZM309.697 158.478C307.708 157.949 305.736 157.456 303.782 156.998L304.467 154.077C306.45 154.542 308.45 155.042 310.467 155.578L309.697 158.478ZM297.972 155.726C295.953 155.315 293.953 154.942 291.972 154.605L292.476 151.647C294.489 151.99 296.52 152.369 298.57 152.786L297.972 155.726ZM286.052 153.696C284.03 153.42 282.028 153.181 280.046 152.98L280.35 149.995C282.366 150.2 284.402 150.443 286.458 150.723L286.052 153.696ZM274.053 152.477C272.027 152.344 270.022 152.249 268.04 152.192L268.126 149.193C270.146 149.251 272.187 149.348 274.25 149.484L274.053 152.477ZM262.017 152.133C259.99 152.152 257.987 152.211 256.008 152.307L255.862 149.311C257.881 149.212 259.923 149.153 261.989 149.133L262.017 152.133ZM250.003 152.721C247.985 152.901 245.992 153.121 244.024 153.379L243.635 150.405C245.643 150.141 247.677 149.917 249.736 149.733L250.003 152.721ZM238.087 154.284C236.089 154.632 234.118 155.019 232.174 155.443L231.535 152.512C233.52 152.079 235.533 151.684 237.573 151.329L238.087 154.284ZM226.353 156.845C224.389 157.363 222.454 157.918 220.548 158.51L219.659 155.645C221.606 155.04 223.583 154.473 225.588 153.944L226.353 156.845ZM214.873 160.405C212.963 161.089 211.083 161.809 209.233 162.563L208.101 159.785C209.991 159.015 211.911 158.279 213.862 157.581L214.873 160.405ZM203.72 164.946C201.884 165.786 200.08 166.658 198.306 167.561L196.945 164.888C198.755 163.966 200.597 163.075 202.471 162.218L203.72 164.946ZM192.992 170.406C191.237 171.392 189.514 172.407 187.823 173.448L186.25 170.894C187.975 169.832 189.732 168.796 191.522 167.79L192.992 170.406ZM182.746 176.715C181.068 177.842 179.423 178.993 177.811 180.167L176.045 177.741C177.687 176.546 179.363 175.373 181.074 174.224L182.746 176.715ZM173.023 183.791C171.427 185.046 169.865 186.321 168.338 187.613L166.4 185.323C167.954 184.008 169.544 182.71 171.169 181.432L173.023 183.791ZM163.807 191.584C162.311 192.943 160.85 194.315 159.425 195.697L157.336 193.544C158.784 192.139 160.269 190.744 161.791 189.363L163.807 191.584ZM155.15 199.985C153.737 201.448 152.364 202.919 151.028 204.392L148.805 202.378C150.161 200.881 151.557 199.388 152.992 197.901L155.15 199.985ZM147.06 208.907C145.733 210.464 144.448 212.019 143.205 213.568L140.866 211.69C142.127 210.119 143.43 208.541 144.777 206.96L147.06 208.907ZM139.484 218.345C138.246 219.983 137.054 221.608 135.91 223.214L133.467 221.472C134.627 219.845 135.835 218.197 137.091 216.536L139.484 218.345ZM132.48 228.169C131.328 229.884 130.232 231.567 129.191 233.211L126.656 231.606C127.711 229.94 128.822 228.234 129.99 226.496L132.48 228.169ZM126.038 238.344C124.956 240.16 123.948 241.909 123.015 243.579L120.396 242.116C121.343 240.422 122.364 238.649 123.46 236.808L126.038 238.344ZM120.126 248.926C119.088 250.915 118.182 252.732 117.405 254.344L114.703 253.04C115.493 251.401 116.413 249.556 117.466 247.538L120.126 248.926ZM114.882 259.829C114.507 260.691 114.229 261.357 114.046 261.805C113.954 262.029 113.886 262.199 113.841 262.312C113.819 262.368 113.802 262.41 113.792 262.438C113.786 262.451 113.782 262.461 113.78 262.468C113.779 262.471 113.778 262.473 113.777 262.474C113.777 262.475 113.777 262.475 113.777 262.476C113.777 262.476 113.777 262.476 113.777 262.476C113.777 262.476 113.777 262.476 113.777 262.476C113.777 262.476 113.777 262.476 113.777 262.476C113.777 262.475 113.777 262.475 112.377 261.936C110.977 261.397 110.977 261.397 110.977 261.397C110.978 261.397 110.978 261.397 110.978 261.397C110.978 261.397 110.978 261.397 110.978 261.397C110.978 261.396 110.978 261.396 110.978 261.396C110.978 261.395 110.979 261.394 110.979 261.393C110.98 261.39 110.981 261.387 110.983 261.382C110.986 261.374 110.991 261.361 110.998 261.345C111.01 261.313 111.028 261.267 111.053 261.206C111.101 261.084 111.173 260.904 111.269 260.67C111.46 260.202 111.747 259.515 112.131 258.632L114.882 259.829ZM113.761 262.514L112.551 265.413L109.782 264.258L110.993 261.358L113.761 262.514ZM110.13 271.212L107.708 277.01L104.94 275.854L107.361 270.056L110.13 271.212ZM105.287 282.809L102.866 288.607L100.098 287.451L102.519 281.653L105.287 282.809ZM100.445 294.406L99.2343 297.305L96.4659 296.149L97.6765 293.25L100.445 294.406ZM97.8501 296.727C99.1747 297.431 99.1747 297.431 99.1747 297.431C99.1747 297.431 99.1747 297.431 99.1747 297.431C99.1747 297.431 99.1747 297.431 99.1747 297.431C99.1746 297.431 99.1746 297.431 99.1744 297.431C99.1743 297.432 99.174 297.432 99.1735 297.433C99.1726 297.435 99.1713 297.437 99.1694 297.441C99.1658 297.448 99.1604 297.458 99.1531 297.472C99.1386 297.499 99.1169 297.54 99.0881 297.594C99.0307 297.703 98.9454 297.864 98.8342 298.076C98.6118 298.498 98.2861 299.118 97.8733 299.91L95.2131 298.523C95.6279 297.728 95.9556 297.103 96.1798 296.678C96.2919 296.465 96.3781 296.302 96.4364 296.191C96.4655 296.136 96.4877 296.094 96.5026 296.066C96.5101 296.052 96.5157 296.042 96.5196 296.034C96.5215 296.031 96.5229 296.028 96.5239 296.026C96.5244 296.025 96.5248 296.025 96.525 296.024C96.5251 296.024 96.5253 296.024 96.5253 296.024C96.5254 296.023 96.5254 296.023 96.5254 296.023C96.5255 296.023 96.5255 296.023 96.5255 296.023C96.5255 296.023 96.5255 296.023 97.8501 296.727ZM95.2849 304.926C94.511 306.44 93.6511 308.135 92.7326 309.965L90.0513 308.619C90.9734 306.782 91.8368 305.08 92.6137 303.56L95.2849 304.926ZM90.2192 315.022C89.413 316.661 88.5846 318.362 87.7484 320.1L85.0449 318.8C85.8853 317.052 86.7177 315.344 87.5274 313.698L90.2192 315.022ZM85.3288 325.196C84.5323 326.897 83.7416 328.611 82.9691 330.317L80.2362 329.079C81.0145 327.36 81.8106 325.635 82.6119 323.923L85.3288 325.196ZM80.6868 335.465C79.9205 337.236 79.1895 338.972 78.5085 340.651L75.7285 339.523C76.4196 337.82 77.1597 336.062 77.9337 334.274L80.6868 335.465ZM76.4867 345.88C76.1566 346.786 75.8503 347.661 75.5709 348.499L72.7249 347.55C73.0141 346.683 73.3297 345.782 73.668 344.853L76.4867 345.88ZM75.5729 348.493L74.9146 350.497L72.0645 349.56L72.7228 347.556L75.5729 348.493ZM73.5978 354.504L72.9394 356.508L70.0893 355.572L70.7477 353.568L73.5978 354.504Z" fill="black"/>
<defs>
<filter id="filter0_bdi_201_2254" x="269" y="0.939453" width="750" height="496" filterUnits="userSpaceOnUse" color-interpolation-filters="sRGB">
<feFlood flood-opacity="0" result="BackgroundImageFix"/>
<feGaussianBlur in="BackgroundImage" stdDeviation="5"/>
<feComposite in2="SourceAlpha" operator="in" result="effect1_backgroundBlur_201_2254"/>
<feColorMatrix in="SourceAlpha" type="matrix" values="0 0 0 0 0 0 0 0 0 0 0 0 0 0 0 0 0 0 127 0" result="hardAlpha"/>
<feOffset dx="-10" dy="10"/>
<feGaussianBlur stdDeviation="10"/>
<feComposite in2="hardAlpha" operator="out"/>
<feColorMatrix type="matrix" values="0 0 0 0 0 0 0 0 0 0 0 0 0 0 0 0 0 0 0.16 0"/>
<feBlend mode="normal" in2="effect1_backgroundBlur_201_2254" result="effect2_dropShadow_201_2254"/>
<feBlend mode="normal" in="SourceGraphic" in2="effect2_dropShadow_201_2254" result="shape"/>
<feColorMatrix in="SourceAlpha" type="matrix" values="0 0 0 0 0 0 0 0 0 0 0 0 0 0 0 0 0 0 127 0" result="hardAlpha"/>
<feOffset dy="-1"/>
<feGaussianBlur stdDeviation="5"/>
<feComposite in2="hardAlpha" operator="arithmetic" k2="-1" k3="1"/>
<feColorMatrix type="matrix" values="0 0 0 0 1 0 0 0 0 1 0 0 0 0 1 0 0 0 0.25 0"/>
<feBlend mode="normal" in2="shape" result="effect3_innerShadow_201_2254"/>
</filter>
<linearGradient id="paint0_linear_201_2254" x1="522.033" y1="-75.4095" x2="720.736" y2="441.274" gradientUnits="userSpaceOnUse">
<stop stop-color="#E6E5E5" stop-opacity="0.23"/>
<stop offset="1" stop-opacity="0"/>
</linearGradient>
<linearGradient id="paint1_linear_201_2254" x1="1083.86" y1="487.314" x2="653.776" y2="474.416" gradientUnits="userSpaceOnUse">
<stop stop-color="white"/>
<stop offset="1" stop-color="#FFFDFD" stop-opacity="0"/>
</linearGradient>
<clipPath id="clip0_201_2254">
<rect x="299" y="10.9395" width="710" height="456" rx="16" fill="white"/>
</clipPath>
</defs>
</svg>
