<svg width="854" height="68" viewBox="0 0 854 68" fill="none" xmlns="http://www.w3.org/2000/svg">
<rect x="0.62793" y="0.72937" width="852.73" height="67.0369" rx="9" fill="#181818"/>
<path d="M831.07 42.3617C831.07 42.8921 830.86 43.4008 830.485 43.7759C830.109 44.151 829.601 44.3617 829.07 44.3617H822.07C821.54 44.3617 821.031 44.151 820.656 43.7759C820.281 43.4008 820.07 42.8921 820.07 42.3617V35.3617C820.07 34.8313 820.281 34.3226 820.656 33.9475C821.031 33.5724 821.54 33.3617 822.07 33.3617V34.3617C821.805 34.3617 821.551 34.4671 821.363 34.6546C821.176 34.8421 821.07 35.0965 821.07 35.3617V42.3617C821.07 42.6269 821.176 42.8813 821.363 43.0688C821.551 43.2563 821.805 43.3617 822.07 43.3617H829.07C829.336 43.3617 829.59 43.2563 829.777 43.0688C829.965 42.8813 830.07 42.6269 830.07 42.3617H831.07Z" fill="#8A97A6"/>
<path d="M825.07 31.3617C824.805 31.3617 824.551 31.4671 824.363 31.6546C824.176 31.8421 824.07 32.0965 824.07 32.3617V39.3617C824.07 39.6269 824.176 39.8813 824.363 40.0688C824.551 40.2563 824.805 40.3617 825.07 40.3617H832.07C832.336 40.3617 832.59 40.2563 832.777 40.0688C832.965 39.8813 833.07 39.6269 833.07 39.3617V32.3617C833.07 32.0965 832.965 31.8421 832.777 31.6546C832.59 31.4671 832.336 31.3617 832.07 31.3617H825.07ZM825.07 30.3617H832.07C832.601 30.3617 833.109 30.5724 833.485 30.9475C833.86 31.3226 834.07 31.8313 834.07 32.3617V39.3617C834.07 39.8921 833.86 40.4008 833.485 40.7759C833.109 41.151 832.601 41.3617 832.07 41.3617H825.07C824.54 41.3617 824.031 41.151 823.656 40.7759C823.281 40.4008 823.07 39.8921 823.07 39.3617V32.3617C823.07 31.8313 823.281 31.3226 823.656 30.9475C824.031 30.5724 824.54 30.3617 825.07 30.3617Z" fill="#8A97A6"/>
<path d="M44.4326 33.9398V37.3617H43.3486V28.8304H46.1143C46.4971 28.8383 46.8584 28.8988 47.1982 29.0121C47.542 29.1254 47.8428 29.2894 48.1006 29.5043C48.3584 29.7191 48.5615 29.9847 48.71 30.3011C48.8623 30.6176 48.9385 30.9808 48.9385 31.391C48.9385 31.8011 48.8623 32.1644 48.71 32.4808C48.5615 32.7933 48.3584 33.057 48.1006 33.2719C47.8428 33.4867 47.542 33.6508 47.1982 33.764C46.8584 33.8773 46.4971 33.9359 46.1143 33.9398H44.4326ZM44.4326 33.0492H46.1143C46.3643 33.0453 46.5947 33.0062 46.8057 32.932C47.0166 32.8539 47.2002 32.7445 47.3564 32.6039C47.5127 32.4633 47.6338 32.2933 47.7197 32.0941C47.8096 31.891 47.8545 31.6605 47.8545 31.4027C47.8545 31.1449 47.8096 30.9125 47.7197 30.7054C47.6338 30.4984 47.5127 30.3226 47.3564 30.1781C47.2041 30.0336 47.0205 29.9222 46.8057 29.8441C46.5947 29.766 46.3643 29.725 46.1143 29.7211H44.4326V33.0492ZM53.2568 37.4789C52.8115 37.4789 52.4014 37.4027 52.0264 37.2504C51.6553 37.098 51.3369 36.8851 51.0713 36.6117C50.8057 36.3383 50.5986 36.014 50.4502 35.639C50.3018 35.264 50.2275 34.8558 50.2275 34.4144V34.1683C50.2275 33.6566 50.3096 33.1996 50.4736 32.7972C50.6377 32.391 50.8545 32.0492 51.124 31.7719C51.3975 31.4906 51.7061 31.2758 52.0498 31.1273C52.3975 30.9789 52.7529 30.9047 53.1162 30.9047C53.5732 30.9047 53.9717 30.9847 54.3115 31.1449C54.6553 31.3011 54.9404 31.5199 55.167 31.8011C55.3936 32.0785 55.5615 32.4066 55.6709 32.7855C55.7842 33.1644 55.8408 33.5746 55.8408 34.016V34.5023H51.3115C51.3232 34.7914 51.3779 35.0629 51.4756 35.3168C51.5771 35.5707 51.7139 35.7933 51.8857 35.9847C52.0615 36.1722 52.2705 36.3207 52.5127 36.4301C52.7549 36.5394 53.0225 36.5941 53.3154 36.5941C53.7021 36.5941 54.0459 36.516 54.3467 36.3597C54.6475 36.2035 54.8975 35.9965 55.0967 35.7386L55.7588 36.2543C55.6533 36.4144 55.5205 36.5687 55.3604 36.7172C55.2041 36.8617 55.0225 36.9906 54.8154 37.1039C54.6084 37.2172 54.374 37.307 54.1123 37.3734C53.8506 37.4437 53.5654 37.4789 53.2568 37.4789ZM53.1162 31.7953C52.8975 31.7953 52.6904 31.8363 52.4951 31.9183C52.2998 31.9965 52.124 32.1136 51.9678 32.2699C51.8115 32.4222 51.6787 32.6117 51.5693 32.8383C51.4639 33.0609 51.3896 33.3187 51.3467 33.6117H54.7568V33.5297C54.7451 33.3187 54.7041 33.1097 54.6338 32.9027C54.5674 32.6957 54.4678 32.5101 54.335 32.3461C54.2021 32.182 54.0342 32.0492 53.8311 31.9476C53.6318 31.8461 53.3936 31.7953 53.1162 31.7953ZM60.4639 37.4789C60.0186 37.4789 59.6084 37.4027 59.2334 37.2504C58.8623 37.098 58.5439 36.8851 58.2783 36.6117C58.0127 36.3383 57.8057 36.014 57.6572 35.639C57.5088 35.264 57.4346 34.8558 57.4346 34.4144V34.1683C57.4346 33.6566 57.5166 33.1996 57.6807 32.7972C57.8447 32.391 58.0615 32.0492 58.3311 31.7719C58.6045 31.4906 58.9131 31.2758 59.2568 31.1273C59.6045 30.9789 59.96 30.9047 60.3232 30.9047C60.7803 30.9047 61.1787 30.9847 61.5186 31.1449C61.8623 31.3011 62.1475 31.5199 62.374 31.8011C62.6006 32.0785 62.7686 32.4066 62.8779 32.7855C62.9912 33.1644 63.0479 33.5746 63.0479 34.016V34.5023H58.5186C58.5303 34.7914 58.585 35.0629 58.6826 35.3168C58.7842 35.5707 58.9209 35.7933 59.0928 35.9847C59.2686 36.1722 59.4775 36.3207 59.7197 36.4301C59.9619 36.5394 60.2295 36.5941 60.5225 36.5941C60.9092 36.5941 61.2529 36.516 61.5537 36.3597C61.8545 36.2035 62.1045 35.9965 62.3037 35.7386L62.9658 36.2543C62.8604 36.4144 62.7275 36.5687 62.5674 36.7172C62.4111 36.8617 62.2295 36.9906 62.0225 37.1039C61.8154 37.2172 61.5811 37.307 61.3193 37.3734C61.0576 37.4437 60.7725 37.4789 60.4639 37.4789ZM60.3232 31.7953C60.1045 31.7953 59.8975 31.8363 59.7021 31.9183C59.5068 31.9965 59.3311 32.1136 59.1748 32.2699C59.0186 32.4222 58.8857 32.6117 58.7764 32.8383C58.6709 33.0609 58.5967 33.3187 58.5537 33.6117H61.9639V33.5297C61.9521 33.3187 61.9111 33.1097 61.8408 32.9027C61.7744 32.6957 61.6748 32.5101 61.542 32.3461C61.4092 32.182 61.2412 32.0492 61.0381 31.9476C60.8389 31.8461 60.6006 31.7953 60.3232 31.7953ZM69.0244 30.9047C69.126 30.9047 69.2314 30.9086 69.3408 30.9164C69.4502 30.9203 69.5537 30.9301 69.6514 30.9457C69.7529 30.9574 69.8447 30.973 69.9268 30.9926C70.0127 31.0121 70.083 31.0336 70.1377 31.057L69.9912 32.1176C69.7803 32.0707 69.5791 32.0375 69.3877 32.0179C69.2002 31.9945 69.0029 31.9828 68.7959 31.9828C68.2881 31.9828 67.876 32.098 67.5596 32.3285C67.2471 32.559 67.0166 32.8812 66.8682 33.2953V37.3617H65.7783V31.0219H66.8096L66.8623 32.0297C67.1201 31.682 67.4287 31.4086 67.7881 31.2094C68.1514 31.0062 68.5635 30.9047 69.0244 30.9047ZM79.2842 28.8304H84.4404V29.7738H82.3955V36.4242H84.4404V37.3617H79.2842V36.4242H81.2822V29.7738H79.2842V28.8304ZM86.2861 34.139C86.2861 33.6664 86.3447 33.2328 86.4619 32.8383C86.583 32.4398 86.7529 32.098 86.9717 31.8129C87.1943 31.5277 87.4619 31.3051 87.7744 31.1449C88.0869 30.9847 88.4365 30.9047 88.8232 30.9047C89.2021 30.9047 89.5322 30.9691 89.8135 31.098C90.0986 31.223 90.3447 31.4066 90.5518 31.6488V28.3617H91.6357V37.3617H90.6396L90.5928 36.6937C90.3818 36.9515 90.1299 37.1469 89.8369 37.2797C89.5439 37.4125 89.2021 37.4789 88.8115 37.4789C88.4287 37.4789 88.0811 37.3969 87.7686 37.2328C87.46 37.0687 87.1963 36.8422 86.9775 36.5531C86.7588 36.264 86.5889 35.9242 86.4678 35.5336C86.3467 35.139 86.2861 34.7152 86.2861 34.2621V34.139ZM87.3701 34.2621C87.3701 34.5707 87.4033 34.8636 87.4697 35.141C87.5361 35.4183 87.6377 35.6625 87.7744 35.8734C87.915 36.0844 88.0928 36.2523 88.3076 36.3773C88.5225 36.4984 88.7803 36.559 89.0811 36.559C89.2646 36.559 89.4307 36.5375 89.5791 36.4945C89.7275 36.4515 89.8623 36.391 89.9834 36.3129C90.1045 36.2308 90.2119 36.1351 90.3057 36.0258C90.3994 35.9125 90.4814 35.7875 90.5518 35.6508V32.7094C90.4111 32.4515 90.2217 32.2406 89.9834 32.0765C89.7451 31.9086 89.4482 31.8246 89.0928 31.8246C88.7881 31.8246 88.5264 31.8871 88.3076 32.0121C88.0928 32.1371 87.915 32.307 87.7744 32.5219C87.6377 32.7328 87.5361 32.9789 87.4697 33.2601C87.4033 33.5375 87.3701 33.8304 87.3701 34.139V34.2621ZM96.499 37.4789C96.0537 37.4789 95.6436 37.4027 95.2686 37.2504C94.8975 37.098 94.5791 36.8851 94.3135 36.6117C94.0479 36.3383 93.8408 36.014 93.6924 35.639C93.5439 35.264 93.4697 34.8558 93.4697 34.4144V34.1683C93.4697 33.6566 93.5518 33.1996 93.7158 32.7972C93.8799 32.391 94.0967 32.0492 94.3662 31.7719C94.6396 31.4906 94.9482 31.2758 95.292 31.1273C95.6396 30.9789 95.9951 30.9047 96.3584 30.9047C96.8154 30.9047 97.2139 30.9847 97.5537 31.1449C97.8975 31.3011 98.1826 31.5199 98.4092 31.8011C98.6357 32.0785 98.8037 32.4066 98.9131 32.7855C99.0264 33.1644 99.083 33.5746 99.083 34.016V34.5023H94.5537C94.5654 34.7914 94.6201 35.0629 94.7178 35.3168C94.8193 35.5707 94.9561 35.7933 95.1279 35.9847C95.3037 36.1722 95.5127 36.3207 95.7549 36.4301C95.9971 36.5394 96.2646 36.5941 96.5576 36.5941C96.9443 36.5941 97.2881 36.516 97.5889 36.3597C97.8896 36.2035 98.1396 35.9965 98.3389 35.7386L99.001 36.2543C98.8955 36.4144 98.7627 36.5687 98.6025 36.7172C98.4463 36.8617 98.2646 36.9906 98.0576 37.1039C97.8506 37.2172 97.6162 37.307 97.3545 37.3734C97.0928 37.4437 96.8076 37.4789 96.499 37.4789ZM96.3584 31.7953C96.1396 31.7953 95.9326 31.8363 95.7373 31.9183C95.542 31.9965 95.3662 32.1136 95.21 32.2699C95.0537 32.4222 94.9209 32.6117 94.8115 32.8383C94.7061 33.0609 94.6318 33.3187 94.5889 33.6117H97.999V33.5297C97.9873 33.3187 97.9463 33.1097 97.876 32.9027C97.8096 32.6957 97.71 32.5101 97.5771 32.3461C97.4443 32.182 97.2764 32.0492 97.0732 31.9476C96.874 31.8461 96.6357 31.7953 96.3584 31.7953ZM101.878 31.0219L101.954 31.9594C102.185 31.6312 102.468 31.3754 102.804 31.1918C103.14 31.0043 103.515 30.9086 103.929 30.9047C104.261 30.9047 104.562 30.9515 104.831 31.0453C105.104 31.139 105.337 31.2855 105.528 31.4847C105.72 31.684 105.866 31.9379 105.968 32.2465C106.073 32.5511 106.126 32.9144 106.126 33.3363V37.3617H105.042V33.3597C105.042 33.0785 105.011 32.8402 104.948 32.6449C104.886 32.4496 104.792 32.2914 104.667 32.1703C104.546 32.0492 104.396 31.9613 104.216 31.9066C104.04 31.8519 103.837 31.8246 103.606 31.8246C103.243 31.8246 102.923 31.9164 102.646 32.1C102.372 32.2797 102.153 32.5179 101.989 32.8148V37.3617H100.905V31.0219H101.878ZM110.679 29.4867V31.0219H113.093V31.8597H110.679V35.3051C110.679 35.5511 110.71 35.7543 110.772 35.9144C110.835 36.0746 110.921 36.2035 111.03 36.3011C111.14 36.3949 111.265 36.4613 111.405 36.5004C111.55 36.5394 111.702 36.559 111.862 36.559C111.979 36.559 112.101 36.5531 112.226 36.5414C112.351 36.5258 112.472 36.5082 112.589 36.4886C112.71 36.4691 112.821 36.4496 112.923 36.4301C113.028 36.4066 113.114 36.3871 113.181 36.3715L113.333 37.139C113.243 37.1937 113.134 37.2426 113.005 37.2855C112.876 37.3246 112.735 37.3578 112.583 37.3851C112.431 37.4164 112.269 37.4398 112.097 37.4554C111.929 37.4711 111.761 37.4789 111.593 37.4789C111.312 37.4789 111.048 37.4398 110.802 37.3617C110.56 37.2797 110.349 37.1527 110.169 36.9808C109.989 36.8051 109.847 36.5804 109.741 36.307C109.64 36.0297 109.589 35.6957 109.589 35.3051V31.8597H107.925V31.0219H109.589V29.4867H110.679ZM115.489 31.0219H118.729V36.4242H120.798V37.3617H115.489V36.4242H117.646V31.9652H115.489V31.0219ZM117.505 29.3578C117.505 29.1781 117.558 29.0277 117.663 28.9066C117.772 28.7816 117.937 28.7191 118.155 28.7191C118.37 28.7191 118.532 28.7816 118.642 28.9066C118.751 29.0277 118.806 29.1781 118.806 29.3578C118.806 29.5336 118.751 29.6801 118.642 29.7972C118.532 29.9144 118.37 29.973 118.155 29.973C117.937 29.973 117.772 29.9144 117.663 29.7972C117.558 29.6801 117.505 29.5336 117.505 29.3578ZM125.093 29.4867V31.0219H127.507V31.8597H125.093V35.3051C125.093 35.5511 125.124 35.7543 125.187 35.9144C125.249 36.0746 125.335 36.2035 125.444 36.3011C125.554 36.3949 125.679 36.4613 125.819 36.5004C125.964 36.5394 126.116 36.559 126.276 36.559C126.394 36.559 126.515 36.5531 126.64 36.5414C126.765 36.5258 126.886 36.5082 127.003 36.4886C127.124 36.4691 127.235 36.4496 127.337 36.4301C127.442 36.4066 127.528 36.3871 127.595 36.3715L127.747 37.139C127.657 37.1937 127.548 37.2426 127.419 37.2855C127.29 37.3246 127.149 37.3578 126.997 37.3851C126.845 37.4164 126.683 37.4398 126.511 37.4554C126.343 37.4711 126.175 37.4789 126.007 37.4789C125.726 37.4789 125.462 37.4398 125.216 37.3617C124.974 37.2797 124.763 37.1527 124.583 36.9808C124.403 36.8051 124.261 36.5804 124.155 36.307C124.054 36.0297 124.003 35.6957 124.003 35.3051V31.8597H122.339V31.0219H124.003V29.4867H125.093ZM132.065 35.1117L132.347 35.8793L134.28 31.0219H135.493L132.276 38.3402C132.202 38.5043 132.106 38.6781 131.989 38.8617C131.876 39.0453 131.737 39.2152 131.573 39.3715C131.409 39.5277 131.218 39.6586 130.999 39.764C130.78 39.8695 130.528 39.9222 130.243 39.9222C130.192 39.9222 130.136 39.9183 130.073 39.9105C130.011 39.9066 129.948 39.8988 129.886 39.8871C129.823 39.8793 129.765 39.8695 129.71 39.8578C129.655 39.8461 129.61 39.8363 129.575 39.8285L129.751 38.9437C129.778 38.9437 129.815 38.9457 129.862 38.9496C129.909 38.9535 129.958 38.9574 130.009 38.9613C130.06 38.9652 130.108 38.9672 130.155 38.9672C130.202 38.9711 130.239 38.973 130.267 38.973C130.415 38.973 130.55 38.932 130.671 38.85C130.796 38.7679 130.905 38.6703 130.999 38.557C131.097 38.4437 131.179 38.3265 131.245 38.2054C131.315 38.0844 131.37 37.9847 131.409 37.9066L131.843 37.0629L129.112 31.0219H130.325L132.065 35.1117ZM259.958 31.0219L259.987 31.6195C260.116 31.3969 260.284 31.223 260.491 31.098C260.702 30.973 260.956 30.9086 261.253 30.9047C261.835 30.9047 262.224 31.1312 262.419 31.5844C262.544 31.3812 262.708 31.2191 262.911 31.098C263.118 30.973 263.368 30.9086 263.661 30.9047C264.126 30.9047 264.483 31.0472 264.733 31.3324C264.983 31.6176 265.108 32.0492 265.108 32.6273V37.3617H264.077V32.6156C264.077 32.0844 263.833 31.8207 263.345 31.8246C263.216 31.8246 263.104 31.8422 263.011 31.8773C262.917 31.9125 262.839 31.9613 262.776 32.0238C262.714 32.0824 262.665 32.1527 262.63 32.2347C262.595 32.3129 262.571 32.3949 262.56 32.4808V37.3617H261.528V32.6097C261.528 32.3558 261.472 32.1605 261.358 32.0238C261.245 31.8871 261.065 31.8207 260.819 31.8246C260.593 31.8246 260.417 31.8695 260.292 31.9594C260.167 32.0492 260.075 32.1683 260.017 32.3168V37.3617H258.985V31.0219H259.958ZM270.88 35.6801C270.88 35.5511 270.854 35.4359 270.804 35.3344C270.753 35.2289 270.667 35.1332 270.546 35.0472C270.425 34.9613 270.265 34.8832 270.065 34.8129C269.866 34.7386 269.618 34.6722 269.321 34.6136C268.958 34.5394 268.626 34.4496 268.325 34.3441C268.028 34.2386 267.772 34.1136 267.558 33.9691C267.347 33.8207 267.183 33.6488 267.065 33.4535C266.948 33.2543 266.89 33.0238 266.89 32.7621C266.89 32.5043 266.95 32.264 267.071 32.0414C267.192 31.8148 267.362 31.6176 267.581 31.4496C267.8 31.2816 268.06 31.1488 268.36 31.0511C268.665 30.9535 268.999 30.9047 269.362 30.9047C269.753 30.9047 270.104 30.9554 270.417 31.057C270.729 31.1586 270.995 31.2992 271.214 31.4789C271.433 31.6586 271.601 31.8695 271.718 32.1117C271.839 32.35 271.899 32.6078 271.899 32.8851H270.815C270.815 32.7484 270.78 32.6156 270.71 32.4867C270.64 32.3539 270.542 32.2367 270.417 32.1351C270.292 32.0336 270.14 31.9515 269.96 31.889C269.784 31.8265 269.585 31.7953 269.362 31.7953C269.132 31.7953 268.929 31.8207 268.753 31.8715C268.581 31.9222 268.437 31.9906 268.319 32.0765C268.206 32.1625 268.12 32.2621 268.062 32.3754C268.003 32.4886 267.974 32.6058 267.974 32.7269C267.974 32.8519 267.997 32.9633 268.044 33.0609C268.091 33.1586 268.171 33.2465 268.284 33.3246C268.401 33.4027 268.556 33.473 268.747 33.5355C268.942 33.598 269.188 33.6586 269.485 33.7172C269.876 33.7992 270.226 33.8949 270.534 34.0043C270.843 34.1097 271.103 34.2386 271.313 34.391C271.524 34.5394 271.685 34.7133 271.794 34.9125C271.907 35.1117 271.964 35.3422 271.964 35.6039C271.964 35.8851 271.899 36.141 271.771 36.3715C271.646 36.6019 271.47 36.7992 271.243 36.9633C271.017 37.1273 270.745 37.2543 270.429 37.3441C270.112 37.434 269.767 37.4789 269.392 37.4789C268.962 37.4789 268.579 37.4222 268.243 37.309C267.907 37.1918 267.622 37.0394 267.388 36.8519C267.157 36.6605 266.979 36.4398 266.854 36.1898C266.733 35.9398 266.673 35.6801 266.673 35.4105H267.757C267.772 35.6332 267.831 35.8207 267.933 35.973C268.038 36.1254 268.167 36.2484 268.319 36.3422C268.476 36.4359 268.647 36.5023 268.835 36.5414C269.022 36.5804 269.208 36.6 269.392 36.6C269.849 36.6 270.21 36.516 270.476 36.348C270.741 36.1801 270.876 35.9574 270.88 35.6801ZM277.39 37.3617H276.306V30.2133L274.073 31.0629V30.0726L277.302 28.8304H277.39V37.3617ZM282.979 34.4027L282.183 35.1703V37.3617H281.093V28.3617H282.183V33.8695L282.892 33.1078L284.972 31.0219H286.29L283.724 33.6644L286.683 37.3617H285.306L282.979 34.4027ZM292.981 33.4183H289.419V36.4418H293.573V37.3617H288.335V28.8304H293.521V29.7562H289.419V32.4984H292.981V33.4183ZM296.456 35.0648L296.585 35.973L296.743 35.0648L297.757 31.0219H298.454L299.462 35.0648L299.632 36.0609L299.79 35.0648L300.493 31.0219H301.454L300.106 37.3617H299.251L298.261 33.4769L298.097 32.4926L297.938 33.4769L296.96 37.3617H296.104L294.757 31.0219H295.718L296.456 35.0648ZM307.396 33.4183H303.833V36.4418H307.987V37.3617H302.749V28.8304H307.935V29.7562H303.833V32.4984H307.396V33.4183ZM312.733 33.8812H311.028V37.3617H309.95V28.8304H312.452C312.851 28.8383 313.226 28.8949 313.577 29.0004C313.929 29.1058 314.235 29.264 314.497 29.475C314.763 29.6859 314.97 29.9515 315.118 30.2719C315.271 30.5883 315.347 30.9613 315.347 31.391C315.347 31.6683 315.306 31.9222 315.224 32.1527C315.146 32.3832 315.036 32.5922 314.896 32.7797C314.755 32.9672 314.587 33.1332 314.392 33.2777C314.196 33.4222 313.981 33.5453 313.747 33.6469L315.558 37.2914L315.552 37.3617H314.409L312.733 33.8812ZM311.028 32.9906H312.481C312.724 32.9867 312.952 32.9496 313.167 32.8793C313.382 32.8051 313.569 32.6996 313.729 32.5629C313.894 32.4261 314.022 32.2601 314.116 32.0648C314.21 31.8656 314.257 31.6371 314.257 31.3793C314.257 31.1058 314.212 30.8676 314.122 30.6644C314.032 30.4574 313.907 30.2855 313.747 30.1488C313.587 30.0082 313.396 29.9027 313.173 29.8324C312.954 29.7621 312.714 29.725 312.452 29.7211H311.028V32.9906ZM319.817 36.6C320.013 36.6 320.202 36.5687 320.386 36.5062C320.573 36.4437 320.739 36.3578 320.884 36.2484C321.028 36.1351 321.144 36.0043 321.229 35.8558C321.319 35.7035 321.366 35.5394 321.37 35.3636H322.396C322.392 35.6449 322.317 35.9144 322.173 36.1722C322.032 36.4261 321.843 36.6508 321.604 36.8461C321.366 37.0375 321.093 37.1918 320.784 37.309C320.476 37.4222 320.153 37.4789 319.817 37.4789C319.337 37.4789 318.917 37.3929 318.558 37.2211C318.198 37.0492 317.897 36.8187 317.655 36.5297C317.417 36.2367 317.237 35.9008 317.116 35.5219C316.995 35.139 316.935 34.7367 316.935 34.3148V34.0687C316.935 33.6508 316.995 33.2504 317.116 32.8676C317.237 32.4847 317.417 32.1488 317.655 31.8597C317.897 31.5668 318.198 31.3344 318.558 31.1625C318.917 30.9906 319.337 30.9047 319.817 30.9047C320.192 30.9047 320.536 30.9652 320.849 31.0863C321.165 31.2035 321.437 31.3656 321.663 31.5726C321.894 31.7758 322.073 32.0179 322.202 32.2992C322.331 32.5804 322.396 32.8812 322.396 33.2015H321.37C321.366 33.0101 321.323 32.8304 321.241 32.6625C321.163 32.4906 321.056 32.3402 320.919 32.2113C320.782 32.0824 320.618 31.9808 320.427 31.9066C320.239 31.8324 320.036 31.7953 319.817 31.7953C319.481 31.7953 319.198 31.8636 318.968 32.0004C318.741 32.1332 318.558 32.309 318.417 32.5277C318.276 32.7426 318.175 32.9847 318.112 33.2543C318.054 33.5238 318.024 33.7953 318.024 34.0687V34.3148C318.024 34.5922 318.054 34.8676 318.112 35.141C318.175 35.4105 318.274 35.6547 318.411 35.8734C318.552 36.0883 318.735 36.264 318.962 36.4008C319.192 36.5336 319.478 36.6 319.817 36.6ZM326.808 35.8031L326.907 36.1957L327.013 35.8031L328.788 31.0219H329.896L327.312 37.3617H326.485L323.878 31.0219H324.991L326.808 35.8031ZM332.714 33.9398V37.3617H331.63V28.8304H334.396C334.778 28.8383 335.14 28.8988 335.479 29.0121C335.823 29.1254 336.124 29.2894 336.382 29.5043C336.64 29.7191 336.843 29.9847 336.991 30.3011C337.144 30.6176 337.22 30.9808 337.22 31.391C337.22 31.8011 337.144 32.1644 336.991 32.4808C336.843 32.7933 336.64 33.057 336.382 33.2719C336.124 33.4867 335.823 33.6508 335.479 33.764C335.14 33.8773 334.778 33.9359 334.396 33.9398H332.714ZM332.714 33.0492H334.396C334.646 33.0453 334.876 33.0062 335.087 32.932C335.298 32.8539 335.481 32.7445 335.638 32.6039C335.794 32.4633 335.915 32.2933 336.001 32.0941C336.091 31.891 336.136 31.6605 336.136 31.4027C336.136 31.1449 336.091 30.9125 336.001 30.7054C335.915 30.4984 335.794 30.3226 335.638 30.1781C335.485 30.0336 335.302 29.9222 335.087 29.8441C334.876 29.766 334.646 29.725 334.396 29.7211H332.714V33.0492ZM343.132 34.4965H344.321V35.3812H343.132V37.3617H342.048V35.3812H338.157V34.7426L341.978 28.8304H343.132V34.4965ZM339.358 34.4965H342.048V30.2719L341.872 30.6L339.358 34.4965ZM351.317 34.2621C351.317 34.7152 351.263 35.139 351.153 35.5336C351.044 35.9242 350.884 36.264 350.673 36.5531C350.462 36.8422 350.2 37.0687 349.888 37.2328C349.579 37.3969 349.224 37.4789 348.821 37.4789C348.415 37.4789 348.062 37.4066 347.761 37.2621C347.464 37.1176 347.21 36.9105 346.999 36.641L346.946 37.3617H345.95V28.3617H347.034V31.7015C347.241 31.4437 347.491 31.2465 347.784 31.1097C348.077 30.973 348.419 30.9047 348.81 30.9047C349.216 30.9047 349.575 30.9847 349.888 31.1449C350.2 31.3051 350.462 31.5277 350.673 31.8129C350.884 32.098 351.044 32.4398 351.153 32.8383C351.263 33.2328 351.317 33.6664 351.317 34.139V34.2621ZM350.233 34.139C350.233 33.8304 350.202 33.5375 350.14 33.2601C350.081 32.9789 349.985 32.7328 349.853 32.5219C349.72 32.307 349.546 32.1371 349.331 32.0121C349.116 31.8871 348.853 31.8246 348.54 31.8246C348.353 31.8246 348.181 31.85 348.024 31.9008C347.868 31.9476 347.728 32.016 347.603 32.1058C347.481 32.1918 347.372 32.2953 347.274 32.4164C347.181 32.5336 347.101 32.6625 347.034 32.8031V35.5746C347.104 35.7152 347.187 35.8461 347.28 35.9672C347.378 36.0844 347.489 36.1879 347.614 36.2777C347.739 36.3676 347.88 36.4379 348.036 36.4886C348.192 36.5355 348.364 36.559 348.552 36.559C348.849 36.559 349.103 36.4984 349.313 36.3773C349.528 36.2523 349.702 36.0844 349.835 35.8734C349.972 35.6625 350.071 35.4183 350.134 35.141C350.2 34.8636 350.233 34.5707 350.233 34.2621V34.139ZM354.452 36.4769H358.489V37.3617H353.069V36.5648L356.854 31.9183H353.122V31.0219H358.278V31.7894L354.452 36.4769ZM361.331 31.0219L361.407 31.9594C361.638 31.6312 361.921 31.3754 362.257 31.1918C362.593 31.0043 362.968 30.9086 363.382 30.9047C363.714 30.9047 364.015 30.9515 364.284 31.0453C364.558 31.139 364.79 31.2855 364.981 31.4847C365.173 31.684 365.319 31.9379 365.421 32.2465C365.526 32.5511 365.579 32.9144 365.579 33.3363V37.3617H364.495V33.3597C364.495 33.0785 364.464 32.8402 364.401 32.6449C364.339 32.4496 364.245 32.2914 364.12 32.1703C363.999 32.0492 363.849 31.9613 363.669 31.9066C363.493 31.8519 363.29 31.8246 363.06 31.8246C362.696 31.8246 362.376 31.9164 362.099 32.1C361.825 32.2797 361.606 32.5179 361.442 32.8148V37.3617H360.358V31.0219H361.331ZM372.815 31.057C372.812 31.4828 372.696 31.8617 372.47 32.1937C372.243 32.5258 371.94 32.7855 371.562 32.973C371.78 33.0668 371.978 33.184 372.153 33.3246C372.333 33.4613 372.485 33.6195 372.61 33.7992C372.739 33.9789 372.837 34.1742 372.903 34.3851C372.974 34.5961 373.009 34.8207 373.009 35.059C373.009 35.4457 372.937 35.7894 372.792 36.0902C372.651 36.391 372.458 36.6449 372.212 36.8519C371.97 37.0551 371.685 37.2113 371.356 37.3207C371.028 37.4261 370.677 37.4789 370.302 37.4789C369.919 37.4789 369.562 37.4261 369.229 37.3207C368.901 37.2152 368.614 37.0609 368.368 36.8578C368.126 36.6508 367.935 36.3969 367.794 36.0961C367.653 35.7953 367.583 35.4496 367.583 35.059C367.583 34.8207 367.616 34.5961 367.683 34.3851C367.749 34.1703 367.845 33.975 367.97 33.7992C368.095 33.6195 368.245 33.4594 368.421 33.3187C368.597 33.1781 368.794 33.0609 369.013 32.9672C368.825 32.8734 368.655 32.7621 368.503 32.6332C368.351 32.5004 368.222 32.3539 368.116 32.1937C368.011 32.0297 367.929 31.8519 367.87 31.6605C367.812 31.4691 367.782 31.2679 367.782 31.057C367.782 30.6859 367.845 30.3558 367.97 30.0668C368.095 29.7738 368.267 29.5277 368.485 29.3285C368.708 29.1293 368.972 28.9769 369.276 28.8715C369.585 28.766 369.921 28.7133 370.284 28.7133C370.644 28.7133 370.978 28.766 371.286 28.8715C371.595 28.9769 371.862 29.1293 372.089 29.3285C372.315 29.5277 372.493 29.7738 372.622 30.0668C372.751 30.3558 372.815 30.6859 372.815 31.057ZM371.925 35.0355C371.925 34.7972 371.884 34.5785 371.802 34.3793C371.724 34.1801 371.612 34.0101 371.468 33.8695C371.323 33.725 371.149 33.6136 370.946 33.5355C370.747 33.4574 370.528 33.4183 370.29 33.4183C370.044 33.4183 369.821 33.4574 369.622 33.5355C369.423 33.6136 369.253 33.725 369.112 33.8695C368.972 34.0101 368.862 34.1801 368.784 34.3793C368.71 34.5785 368.673 34.7972 368.673 35.0355C368.673 35.2816 368.71 35.5023 368.784 35.6976C368.862 35.889 368.972 36.0511 369.112 36.184C369.253 36.3168 369.423 36.4183 369.622 36.4886C369.825 36.559 370.052 36.5941 370.302 36.5941C370.54 36.5941 370.759 36.559 370.958 36.4886C371.157 36.4183 371.327 36.3168 371.468 36.184C371.612 36.0511 371.724 35.889 371.802 35.6976C371.884 35.5023 371.925 35.2816 371.925 35.0355ZM371.726 31.0746C371.726 30.8597 371.688 30.6625 371.614 30.4828C371.544 30.3031 371.444 30.1488 371.315 30.0199C371.19 29.8871 371.04 29.7855 370.864 29.7152C370.688 29.641 370.495 29.6039 370.284 29.6039C370.073 29.6039 369.882 29.639 369.71 29.7094C369.538 29.7758 369.39 29.8734 369.265 30.0023C369.14 30.1312 369.042 30.2875 368.972 30.4711C368.905 30.6508 368.872 30.8519 368.872 31.0746C368.872 31.2972 368.905 31.4984 368.972 31.6781C369.042 31.8539 369.14 32.0062 369.265 32.1351C369.394 32.2601 369.544 32.3578 369.716 32.4281C369.892 32.4945 370.085 32.5277 370.296 32.5277C370.503 32.5277 370.694 32.4945 370.87 32.4281C371.046 32.3578 371.196 32.2601 371.321 32.1351C371.45 32.0062 371.55 31.8519 371.62 31.6722C371.69 31.4926 371.726 31.2933 371.726 31.0746ZM380.526 29.7562H377.89V37.3617H376.835V29.7562H374.198V28.8304H380.526V29.7562ZM384.546 29.4867V31.0219H386.96V31.8597H384.546V35.3051C384.546 35.5511 384.577 35.7543 384.64 35.9144C384.702 36.0746 384.788 36.2035 384.897 36.3011C385.007 36.3949 385.132 36.4613 385.272 36.5004C385.417 36.5394 385.569 36.559 385.729 36.559C385.847 36.559 385.968 36.5531 386.093 36.5414C386.218 36.5258 386.339 36.5082 386.456 36.4886C386.577 36.4691 386.688 36.4496 386.79 36.4301C386.896 36.4066 386.981 36.3871 387.048 36.3715L387.2 37.139C387.11 37.1937 387.001 37.2426 386.872 37.2855C386.743 37.3246 386.603 37.3578 386.45 37.3851C386.298 37.4164 386.136 37.4398 385.964 37.4554C385.796 37.4711 385.628 37.4789 385.46 37.4789C385.179 37.4789 384.915 37.4398 384.669 37.3617C384.427 37.2797 384.216 37.1527 384.036 36.9808C383.856 36.8051 383.714 36.5804 383.608 36.307C383.507 36.0297 383.456 35.6957 383.456 35.3051V31.8597H381.792V31.0219H383.456V29.4867H384.546ZM391.888 36.6C392.083 36.6 392.272 36.5687 392.456 36.5062C392.644 36.4437 392.81 36.3578 392.954 36.2484C393.099 36.1351 393.214 36.0043 393.3 35.8558C393.39 35.7035 393.437 35.5394 393.44 35.3636H394.466C394.462 35.6449 394.388 35.9144 394.243 36.1722C394.103 36.4261 393.913 36.6508 393.675 36.8461C393.437 37.0375 393.163 37.1918 392.854 37.309C392.546 37.4222 392.224 37.4789 391.888 37.4789C391.407 37.4789 390.987 37.3929 390.628 37.2211C390.269 37.0492 389.968 36.8187 389.726 36.5297C389.487 36.2367 389.308 35.9008 389.187 35.5219C389.065 35.139 389.005 34.7367 389.005 34.3148V34.0687C389.005 33.6508 389.065 33.2504 389.187 32.8676C389.308 32.4847 389.487 32.1488 389.726 31.8597C389.968 31.5668 390.269 31.3344 390.628 31.1625C390.987 30.9906 391.407 30.9047 391.888 30.9047C392.263 30.9047 392.606 30.9652 392.919 31.0863C393.235 31.2035 393.507 31.3656 393.733 31.5726C393.964 31.7758 394.144 32.0179 394.272 32.2992C394.401 32.5804 394.466 32.8812 394.466 33.2015H393.44C393.437 33.0101 393.394 32.8304 393.312 32.6625C393.233 32.4906 393.126 32.3402 392.989 32.2113C392.853 32.0824 392.688 31.9808 392.497 31.9066C392.31 31.8324 392.106 31.7953 391.888 31.7953C391.552 31.7953 391.269 31.8636 391.038 32.0004C390.812 32.1332 390.628 32.309 390.487 32.5277C390.347 32.7426 390.245 32.9847 390.183 33.2543C390.124 33.5238 390.095 33.7953 390.095 34.0687V34.3148C390.095 34.5922 390.124 34.8676 390.183 35.141C390.245 35.4105 390.345 35.6547 390.481 35.8734C390.622 36.0883 390.806 36.264 391.032 36.4008C391.263 36.5336 391.548 36.6 391.888 36.6ZM396.892 31.0219L396.921 31.6195C397.05 31.3969 397.218 31.223 397.425 31.098C397.636 30.973 397.89 30.9086 398.187 30.9047C398.769 30.9047 399.157 31.1312 399.353 31.5844C399.478 31.3812 399.642 31.2191 399.845 31.098C400.052 30.973 400.302 30.9086 400.595 30.9047C401.06 30.9047 401.417 31.0472 401.667 31.3324C401.917 31.6176 402.042 32.0492 402.042 32.6273V37.3617H401.011V32.6156C401.011 32.0844 400.767 31.8207 400.278 31.8246C400.149 31.8246 400.038 31.8422 399.944 31.8773C399.851 31.9125 399.772 31.9613 399.71 32.0238C399.647 32.0824 399.599 32.1527 399.563 32.2347C399.528 32.3129 399.505 32.3949 399.493 32.4808V37.3617H398.462V32.6097C398.462 32.3558 398.405 32.1605 398.292 32.0238C398.179 31.8871 397.999 31.8207 397.753 31.8246C397.526 31.8246 397.351 31.8695 397.226 31.9594C397.101 32.0492 397.009 32.1683 396.95 32.3168V37.3617H395.919V31.0219H396.892ZM405.218 37.3617V31.8597H403.472V31.0219H405.218V30.5765C405.218 30.1703 405.276 29.8148 405.394 29.5101C405.515 29.2015 405.683 28.9437 405.897 28.7367C406.116 28.5297 406.378 28.3734 406.683 28.2679C406.987 28.1625 407.327 28.1097 407.702 28.1097C407.96 28.1097 408.21 28.1312 408.452 28.1742C408.698 28.2172 408.95 28.2719 409.208 28.3383L409.079 29.2347C408.919 29.1801 408.731 29.1332 408.517 29.0941C408.306 29.0511 408.079 29.0297 407.837 29.0297C407.329 29.0336 406.946 29.1625 406.688 29.4164C406.435 29.6703 406.308 30.057 406.308 30.5765V31.0219H408.751V31.8597H406.308V37.3617H405.218ZM412.425 37.3617V31.8597H410.679V31.0219H412.425V30.5765C412.425 30.1703 412.483 29.8148 412.601 29.5101C412.722 29.2015 412.89 28.9437 413.104 28.7367C413.323 28.5297 413.585 28.3734 413.89 28.2679C414.194 28.1625 414.534 28.1097 414.909 28.1097C415.167 28.1097 415.417 28.1312 415.659 28.1742C415.905 28.2172 416.157 28.2719 416.415 28.3383L416.286 29.2347C416.126 29.1801 415.938 29.1332 415.724 29.0941C415.513 29.0511 415.286 29.0297 415.044 29.0297C414.536 29.0336 414.153 29.1625 413.896 29.4164C413.642 29.6703 413.515 30.057 413.515 30.5765V31.0219H415.958V31.8597H413.515V37.3617H412.425ZM422.479 35.2054C422.479 34.9437 422.419 34.723 422.298 34.5433C422.181 34.3636 422.028 34.2133 421.841 34.0922C421.653 33.9672 421.446 33.8636 421.22 33.7816C420.997 33.6996 420.782 33.6254 420.575 33.559C420.274 33.4613 419.968 33.3441 419.655 33.2074C419.347 33.0707 419.063 32.9027 418.806 32.7035C418.552 32.5043 418.343 32.2699 418.179 32.0004C418.019 31.7269 417.938 31.4066 417.938 31.0394C417.938 30.6722 418.019 30.3441 418.179 30.0551C418.343 29.766 418.556 29.5219 418.817 29.3226C419.079 29.1234 419.376 28.973 419.708 28.8715C420.04 28.766 420.374 28.7133 420.71 28.7133C421.081 28.7133 421.438 28.7758 421.782 28.9008C422.126 29.0219 422.431 29.1937 422.696 29.4164C422.962 29.639 423.175 29.9086 423.335 30.225C423.495 30.5414 423.579 30.8949 423.587 31.2855H422.474C422.442 31.0394 422.382 30.8168 422.292 30.6176C422.202 30.4144 422.083 30.2406 421.935 30.0961C421.786 29.9515 421.608 29.8402 421.401 29.7621C421.198 29.6801 420.968 29.639 420.71 29.639C420.503 29.639 420.3 29.6683 420.101 29.7269C419.905 29.7855 419.729 29.8734 419.573 29.9906C419.421 30.1078 419.298 30.2523 419.204 30.4242C419.114 30.5961 419.069 30.7953 419.069 31.0219C419.073 31.2679 419.136 31.4769 419.257 31.6488C419.378 31.8168 419.53 31.9594 419.714 32.0765C419.901 32.1937 420.103 32.2914 420.317 32.3695C420.536 32.4476 420.741 32.516 420.933 32.5746C421.144 32.641 421.356 32.7172 421.571 32.8031C421.786 32.8851 421.993 32.9808 422.192 33.0902C422.392 33.1996 422.577 33.3226 422.749 33.4594C422.921 33.5961 423.071 33.7523 423.2 33.9281C423.329 34.1 423.429 34.2914 423.499 34.5023C423.573 34.7094 423.61 34.9398 423.61 35.1937C423.61 35.5765 423.524 35.9105 423.353 36.1957C423.185 36.4808 422.966 36.7191 422.696 36.9105C422.427 37.098 422.122 37.2406 421.782 37.3383C421.442 37.432 421.103 37.4789 420.763 37.4789C420.384 37.4789 420.013 37.4203 419.649 37.3031C419.286 37.1859 418.96 37.0179 418.671 36.7992C418.386 36.5765 418.153 36.307 417.974 35.9906C417.794 35.6703 417.698 35.307 417.687 34.9008H418.794C418.829 35.1664 418.901 35.4027 419.011 35.6097C419.12 35.8129 419.261 35.9867 419.433 36.1312C419.604 36.2719 419.802 36.3793 420.024 36.4535C420.251 36.5238 420.497 36.559 420.763 36.559C420.974 36.559 421.181 36.5336 421.384 36.4828C421.591 36.4281 421.774 36.3461 421.935 36.2367C422.095 36.1234 422.226 35.9828 422.327 35.8148C422.429 35.6429 422.479 35.4398 422.479 35.2054ZM425.21 37.3617V28.8304H427.747C428.099 28.8344 428.442 28.8812 428.778 28.9711C429.114 29.057 429.413 29.1918 429.675 29.3754C429.937 29.559 430.146 29.7933 430.302 30.0785C430.458 30.3636 430.534 30.7054 430.53 31.1039C430.526 31.3265 430.489 31.5297 430.419 31.7133C430.353 31.8969 430.259 32.0629 430.138 32.2113C430.021 32.3558 429.882 32.4828 429.722 32.5922C429.562 32.7015 429.392 32.7953 429.212 32.8734C429.438 32.9398 429.646 33.0355 429.833 33.1605C430.024 33.2816 430.188 33.4301 430.325 33.6058C430.462 33.7777 430.567 33.973 430.642 34.1918C430.72 34.4105 430.759 34.6469 430.759 34.9008C430.763 35.2992 430.687 35.6508 430.53 35.9554C430.374 36.2601 430.165 36.516 429.903 36.723C429.642 36.9261 429.339 37.0824 428.995 37.1918C428.655 37.3011 428.304 37.3578 427.94 37.3617H425.21ZM426.3 33.3715V36.4418H427.97C428.196 36.4379 428.411 36.4008 428.614 36.3304C428.817 36.2562 428.997 36.1547 429.153 36.0258C429.31 35.8969 429.433 35.7386 429.522 35.5511C429.616 35.3636 429.663 35.1508 429.663 34.9125C429.667 34.6703 429.626 34.4554 429.54 34.2679C429.458 34.0804 429.343 33.9222 429.194 33.7933C429.046 33.6605 428.872 33.559 428.673 33.4886C428.474 33.4183 428.259 33.3793 428.028 33.3715H426.3ZM426.3 32.4691H427.812C428.015 32.4652 428.214 32.434 428.409 32.3754C428.604 32.3129 428.778 32.225 428.931 32.1117C429.083 31.9945 429.206 31.8519 429.3 31.684C429.394 31.516 429.44 31.3207 429.44 31.098C429.44 30.8597 429.394 30.6566 429.3 30.4886C429.21 30.3207 429.087 30.184 428.931 30.0785C428.778 29.9691 428.601 29.889 428.397 29.8383C428.198 29.7875 427.993 29.7601 427.782 29.7562H426.3V32.4691ZM437.778 37.3617H436.753V33.4183H433.255V37.3617H432.235V28.8304H433.255V32.4984H436.753V28.8304H437.778V37.3617ZM443.79 30.9047C443.892 30.9047 443.997 30.9086 444.106 30.9164C444.216 30.9203 444.319 30.9301 444.417 30.9457C444.519 30.9574 444.61 30.973 444.692 30.9926C444.778 31.0121 444.849 31.0336 444.903 31.057L444.757 32.1176C444.546 32.0707 444.345 32.0375 444.153 32.0179C443.966 31.9945 443.769 31.9828 443.562 31.9828C443.054 31.9828 442.642 32.098 442.325 32.3285C442.013 32.559 441.782 32.8812 441.634 33.2953V37.3617H440.544V31.0219H441.575L441.628 32.0297C441.886 31.682 442.194 31.4086 442.554 31.2094C442.917 31.0062 443.329 30.9047 443.79 30.9047ZM447.013 28.3617H450.253V36.4242H452.321V37.3617H447.013V36.4242H449.169V29.3051H447.013V28.3617ZM459.675 33.4769C459.671 33.7933 459.644 34.1117 459.593 34.432C459.542 34.7523 459.464 35.0609 459.358 35.3578C459.257 35.6547 459.124 35.934 458.96 36.1957C458.8 36.4535 458.606 36.6781 458.38 36.8695L459.851 38.0941L459.106 38.8031L457.419 37.3734C457.177 37.4437 456.915 37.4789 456.634 37.4789C456.271 37.4789 455.944 37.4242 455.655 37.3148C455.366 37.2015 455.108 37.0492 454.882 36.8578C454.659 36.6664 454.466 36.4418 454.302 36.184C454.138 35.9222 454.003 35.6429 453.897 35.3461C453.792 35.0492 453.714 34.7426 453.663 34.4261C453.612 34.1058 453.585 33.7894 453.581 33.4769V32.7269C453.585 32.4144 453.612 32.098 453.663 31.7777C453.714 31.4574 453.792 31.1488 453.897 30.8519C454.003 30.5551 454.136 30.2777 454.296 30.0199C454.456 29.7582 454.647 29.5316 454.87 29.3402C455.097 29.1449 455.354 28.9926 455.644 28.8832C455.937 28.7699 456.265 28.7133 456.628 28.7133C456.991 28.7133 457.317 28.7699 457.606 28.8832C457.899 28.9926 458.157 29.1429 458.38 29.3344C458.606 29.5258 458.8 29.7523 458.96 30.014C459.124 30.2719 459.257 30.5492 459.358 30.8461C459.464 31.1429 459.542 31.4535 459.593 31.7777C459.644 32.098 459.671 32.4144 459.675 32.7269V33.4769ZM458.597 32.7152C458.593 32.5004 458.579 32.2777 458.556 32.0472C458.536 31.8129 458.497 31.5844 458.438 31.3617C458.384 31.1351 458.308 30.9203 458.21 30.7172C458.116 30.514 457.997 30.3363 457.853 30.184C457.708 30.0277 457.534 29.9047 457.331 29.8148C457.132 29.725 456.897 29.6801 456.628 29.6801C456.362 29.6801 456.13 29.7269 455.931 29.8207C455.731 29.9105 455.56 30.0336 455.415 30.1898C455.271 30.3422 455.149 30.5199 455.052 30.723C454.958 30.9261 454.882 31.141 454.823 31.3676C454.765 31.5902 454.722 31.8187 454.694 32.0531C454.671 32.2836 454.659 32.5043 454.659 32.7152V33.4769C454.659 33.6879 454.671 33.9105 454.694 34.1449C454.722 34.3754 454.765 34.6039 454.823 34.8304C454.882 35.057 454.958 35.2719 455.052 35.475C455.149 35.6781 455.271 35.8578 455.415 36.014C455.56 36.1703 455.731 36.2953 455.931 36.389C456.134 36.4789 456.368 36.5238 456.634 36.5238C456.903 36.5238 457.138 36.4789 457.337 36.389C457.54 36.2953 457.714 36.1722 457.858 36.0199C458.003 35.8636 458.122 35.684 458.216 35.4808C458.31 35.2777 458.384 35.0629 458.438 34.8363C458.497 34.6097 458.536 34.3812 458.556 34.1508C458.579 33.9164 458.593 33.6918 458.597 33.4769V32.7152ZM462.874 37.3617V31.8597H461.128V31.0219H462.874V30.5765C462.874 30.1703 462.933 29.8148 463.05 29.5101C463.171 29.2015 463.339 28.9437 463.554 28.7367C463.772 28.5297 464.034 28.3734 464.339 28.2679C464.644 28.1625 464.983 28.1097 465.358 28.1097C465.616 28.1097 465.866 28.1312 466.108 28.1742C466.354 28.2172 466.606 28.2719 466.864 28.3383L466.735 29.2347C466.575 29.1801 466.388 29.1332 466.173 29.0941C465.962 29.0511 465.735 29.0297 465.493 29.0297C464.985 29.0336 464.603 29.1625 464.345 29.4164C464.091 29.6703 463.964 30.057 463.964 30.5765V31.0219H466.407V31.8597H463.964V37.3617H462.874ZM469.437 31.0219L469.513 31.9594C469.743 31.6312 470.026 31.3754 470.362 31.1918C470.698 31.0043 471.073 30.9086 471.487 30.9047C471.819 30.9047 472.12 30.9515 472.39 31.0453C472.663 31.139 472.896 31.2855 473.087 31.4847C473.278 31.684 473.425 31.9379 473.526 32.2465C473.632 32.5511 473.685 32.9144 473.685 33.3363V37.3617H472.601V33.3597C472.601 33.0785 472.569 32.8402 472.507 32.6449C472.444 32.4496 472.351 32.2914 472.226 32.1703C472.104 32.0492 471.954 31.9613 471.774 31.9066C471.599 31.8519 471.396 31.8246 471.165 31.8246C470.802 31.8246 470.481 31.9164 470.204 32.1C469.931 32.2797 469.712 32.5179 469.548 32.8148V37.3617H468.464V31.0219H469.437ZM476.837 36.4008C477.224 36.4008 477.563 36.3676 477.856 36.3011C478.149 36.2308 478.403 36.1332 478.618 36.0082C478.837 35.8832 479.019 35.7367 479.163 35.5687C479.308 35.3969 479.425 35.2094 479.515 35.0062C479.608 34.7992 479.677 34.5824 479.72 34.3558C479.763 34.1254 479.79 33.891 479.802 33.6527C479.708 33.7699 479.601 33.8812 479.479 33.9867C479.358 34.0883 479.222 34.1781 479.069 34.2562C478.917 34.3344 478.747 34.3969 478.56 34.4437C478.376 34.4867 478.175 34.5082 477.956 34.5082C477.534 34.5082 477.169 34.4261 476.86 34.2621C476.556 34.0941 476.304 33.8754 476.104 33.6058C475.905 33.3363 475.759 33.0316 475.665 32.6918C475.571 32.3519 475.524 32.0101 475.524 31.6664C475.524 31.264 475.579 30.8851 475.688 30.5297C475.802 30.1703 475.968 29.8578 476.187 29.5922C476.409 29.3226 476.685 29.1097 477.013 28.9535C477.345 28.7933 477.729 28.7133 478.167 28.7133C478.495 28.7133 478.79 28.7601 479.052 28.8539C479.317 28.9437 479.55 29.0707 479.749 29.2347C479.952 29.3949 480.126 29.5863 480.271 29.809C480.415 30.0277 480.532 30.266 480.622 30.5238C480.716 30.7777 480.784 31.0453 480.827 31.3265C480.87 31.6039 480.892 31.8832 480.892 32.1644V32.557C480.892 32.9203 480.874 33.2933 480.839 33.6761C480.804 34.0551 480.733 34.4222 480.628 34.7777C480.526 35.1332 480.382 35.4691 480.194 35.7855C480.007 36.098 479.763 36.3715 479.462 36.6058C479.161 36.8402 478.796 37.0258 478.366 37.1625C477.937 37.2992 477.427 37.3676 476.837 37.3676H476.726V36.4008H476.837ZM478.132 33.6117C478.315 33.6117 478.493 33.5824 478.665 33.5238C478.841 33.4613 479.001 33.3754 479.146 33.266C479.294 33.1527 479.425 33.0219 479.538 32.8734C479.655 32.7211 479.747 32.5531 479.813 32.3695V32.0179C479.813 31.639 479.769 31.3011 479.679 31.0043C479.593 30.7074 479.474 30.4574 479.321 30.2543C479.173 30.0472 478.999 29.889 478.8 29.7797C478.604 29.6703 478.396 29.6156 478.173 29.6156C477.919 29.6156 477.694 29.6664 477.499 29.7679C477.304 29.8695 477.138 30.0101 477.001 30.1898C476.868 30.3656 476.767 30.5765 476.696 30.8226C476.626 31.0648 476.591 31.3265 476.591 31.6078C476.591 31.8578 476.622 32.1039 476.685 32.3461C476.747 32.5844 476.841 32.7972 476.966 32.9847C477.095 33.1722 477.255 33.3246 477.446 33.4418C477.642 33.5551 477.87 33.6117 478.132 33.6117ZM483.048 31.0219H486.288V36.4242H488.356V37.3617H483.048V36.4242H485.204V31.9652H483.048V31.0219ZM485.063 29.3578C485.063 29.1781 485.116 29.0277 485.222 28.9066C485.331 28.7816 485.495 28.7191 485.714 28.7191C485.929 28.7191 486.091 28.7816 486.2 28.9066C486.31 29.0277 486.364 29.1781 486.364 29.3578C486.364 29.5336 486.31 29.6801 486.2 29.7972C486.091 29.9144 485.929 29.973 485.714 29.973C485.495 29.973 485.331 29.9144 485.222 29.7972C485.116 29.6801 485.063 29.5336 485.063 29.3578ZM491.386 36.4769H495.423V37.3617H490.003V36.5648L493.788 31.9183H490.056V31.0219H495.212V31.7894L491.386 36.4769ZM497.087 34.139C497.087 33.6664 497.146 33.2328 497.263 32.8383C497.384 32.4398 497.554 32.098 497.772 31.8129C497.995 31.5277 498.263 31.3051 498.575 31.1449C498.888 30.9847 499.237 30.9047 499.624 30.9047C500.003 30.9047 500.333 30.9691 500.614 31.098C500.899 31.223 501.146 31.4066 501.353 31.6488V28.3617H502.437V37.3617H501.44L501.394 36.6937C501.183 36.9515 500.931 37.1469 500.638 37.2797C500.345 37.4125 500.003 37.4789 499.612 37.4789C499.229 37.4789 498.882 37.3969 498.569 37.2328C498.261 37.0687 497.997 36.8422 497.778 36.5531C497.56 36.264 497.39 35.9242 497.269 35.5336C497.147 35.139 497.087 34.7152 497.087 34.2621V34.139ZM498.171 34.2621C498.171 34.5707 498.204 34.8636 498.271 35.141C498.337 35.4183 498.438 35.6625 498.575 35.8734C498.716 36.0844 498.894 36.2523 499.108 36.3773C499.323 36.4984 499.581 36.559 499.882 36.559C500.065 36.559 500.231 36.5375 500.38 36.4945C500.528 36.4515 500.663 36.391 500.784 36.3129C500.905 36.2308 501.013 36.1351 501.106 36.0258C501.2 35.9125 501.282 35.7875 501.353 35.6508V32.7094C501.212 32.4515 501.022 32.2406 500.784 32.0765C500.546 31.9086 500.249 31.8246 499.894 31.8246C499.589 31.8246 499.327 31.8871 499.108 32.0121C498.894 32.1371 498.716 32.307 498.575 32.5219C498.438 32.7328 498.337 32.9789 498.271 33.2601C498.204 33.5375 498.171 33.8304 498.171 34.139V34.2621ZM508.729 35.0531L509.38 28.8304H510.405L509.368 37.3617H508.261L507.165 30.934L506.058 37.3617H504.944L503.907 28.8304H504.938L505.589 35.0531L506.685 28.8304H507.628L508.729 35.0531ZM516.938 37.3617H511.349V36.5824L514.144 33.4769C514.394 33.1996 514.603 32.9535 514.771 32.7386C514.938 32.5238 515.073 32.3265 515.175 32.1469C515.276 31.9633 515.349 31.7914 515.392 31.6312C515.435 31.4672 515.456 31.2992 515.456 31.1273C515.456 30.9164 515.421 30.7191 515.351 30.5355C515.284 30.348 515.185 30.1859 515.052 30.0492C514.923 29.9125 514.765 29.8051 514.577 29.7269C514.394 29.6449 514.185 29.6039 513.95 29.6039C513.665 29.6039 513.417 29.6449 513.206 29.7269C512.999 29.809 512.825 29.9261 512.685 30.0785C512.548 30.2269 512.444 30.4086 512.374 30.6234C512.308 30.8383 512.274 31.0785 512.274 31.3441H511.185C511.185 30.9847 511.247 30.6469 511.372 30.3304C511.497 30.0101 511.677 29.7308 511.911 29.4926C512.149 29.2543 512.438 29.0648 512.778 28.9242C513.122 28.7836 513.513 28.7133 513.95 28.7133C514.353 28.7133 514.714 28.7738 515.034 28.8949C515.358 29.0121 515.632 29.1761 515.854 29.3871C516.077 29.598 516.247 29.848 516.364 30.1371C516.485 30.4261 516.546 30.7406 516.546 31.0804C516.546 31.3344 516.503 31.5863 516.417 31.8363C516.331 32.0824 516.214 32.3265 516.065 32.5687C515.921 32.8109 515.751 33.0511 515.556 33.2894C515.364 33.5238 515.161 33.7582 514.946 33.9926L512.655 36.4769H516.938V37.3617ZM520.958 33.4008L520.009 34.4789V37.3617H518.901V28.8304H520.009V32.9965L520.835 31.9652L523.337 28.8304H524.655L521.673 32.5629L524.854 37.3617H523.536L520.958 33.4008ZM526.29 28.3617H529.53V36.4242H531.599V37.3617H526.29V36.4242H528.446V29.3051H526.29V28.3617ZM533.825 31.0219L533.854 31.6195C533.983 31.3969 534.151 31.223 534.358 31.098C534.569 30.973 534.823 30.9086 535.12 30.9047C535.702 30.9047 536.091 31.1312 536.286 31.5844C536.411 31.3812 536.575 31.2191 536.778 31.098C536.985 30.973 537.235 30.9086 537.528 30.9047C537.993 30.9047 538.351 31.0472 538.601 31.3324C538.851 31.6176 538.976 32.0492 538.976 32.6273V37.3617H537.944V32.6156C537.944 32.0844 537.7 31.8207 537.212 31.8246C537.083 31.8246 536.972 31.8422 536.878 31.8773C536.784 31.9125 536.706 31.9613 536.644 32.0238C536.581 32.0824 536.532 32.1527 536.497 32.2347C536.462 32.3129 536.438 32.3949 536.427 32.4808V37.3617H535.396V32.6097C535.396 32.3558 535.339 32.1605 535.226 32.0238C535.112 31.8871 534.933 31.8207 534.687 31.8246C534.46 31.8246 534.284 31.8695 534.159 31.9594C534.034 32.0492 533.942 32.1683 533.884 32.3168V37.3617H532.853V31.0219H533.825ZM541.759 36.4418H545.931V37.3617H540.675V28.8304H541.759V36.4418ZM550.384 32.1761L552.224 28.8304H553.501L551.022 33.0609L553.56 37.3617H552.294L550.407 33.9515L548.515 37.3617H547.231L549.774 33.0609L547.296 28.8304H548.567L550.384 32.1761ZM555.118 31.0219H558.358V36.4242H560.427V37.3617H555.118V36.4242H557.274V31.9652H555.118V31.0219ZM557.134 29.3578C557.134 29.1781 557.187 29.0277 557.292 28.9066C557.401 28.7816 557.565 28.7191 557.784 28.7191C557.999 28.7191 558.161 28.7816 558.271 28.9066C558.38 29.0277 558.435 29.1781 558.435 29.3578C558.435 29.5336 558.38 29.6801 558.271 29.7972C558.161 29.9144 557.999 29.973 557.784 29.973C557.565 29.973 557.401 29.9144 557.292 29.7972C557.187 29.6801 557.134 29.5336 557.134 29.3578ZM566.228 35.1527H563.38L562.694 37.3617H561.61L564.364 28.8304H565.272L567.979 37.3617H566.901L566.228 35.1527ZM563.673 34.2094H565.94L564.815 30.5062L563.673 34.2094ZM574.589 32.7914H569.356V31.848H574.589V32.7914ZM574.589 35.223H569.356V34.2855H574.589V35.223Z" fill="white"/>
</svg>
