<svg width="106" height="106" viewBox="0 0 106 106" fill="none" xmlns="http://www.w3.org/2000/svg">
<rect x="0.673706" y="0.189941" width="104.906" height="104.906" fill="white"/>
<g clip-path="url(#clip0_2_404)">
<path d="M80.4776 30.0311C81.1765 30.173 81.8489 30.2348 81.9605 31.2345C82.0173 31.7437 82.7043 31.7958 83.2115 31.8096C84.1212 31.8344 84.3591 31.9814 84.305 32.7925C84.2613 33.4475 84.4729 33.6413 85.0853 33.6953C85.8916 33.7662 86.6471 33.9961 87.4958 33.6698C88.2595 33.3764 88.6963 33.7638 89.0589 34.6835C89.1358 34.8784 89.2459 35.1382 89.4735 34.9977C90.5112 34.3575 91.7503 34.8562 92.862 34.2912C93.6005 33.9159 94.6528 34.0859 95.3937 34.798C95.752 35.1423 96.1771 35.3078 96.6217 35.0051C97.0932 34.6841 97.4837 34.9795 97.7263 35.229C98.497 36.0217 99.3671 35.786 100.251 35.6175C100.37 35.5949 100.484 35.5522 100.601 35.519C101.081 35.3814 100.631 36.4837 101.169 36.0139C101.454 35.7649 101.654 35.7128 101.977 35.6736C103.446 35.495 104.53 36.3287 105.657 37.0676L105.118 38.3339C105.079 38.324 105.04 38.3149 105.001 38.3066C104.681 38.24 104.389 37.6805 104.293 37.8335C104.093 38.1494 103.692 38.4194 103.745 38.8612C103.811 39.428 103.531 39.5619 103.029 39.5859C102.582 39.6073 102.125 39.6864 101.779 40.0398C101.497 40.3279 101.163 40.3336 100.763 40.3183C99.7299 40.2785 99.1737 40.769 99.0445 41.8164C98.9118 42.8905 97.9088 43.2761 97.3783 44.0326C97.2068 44.2771 97.053 43.9602 96.9609 43.7972C96.5399 43.0511 96.8008 42.3576 97.1763 41.7029C97.358 41.3863 97.65 41.1345 97.8805 40.8439C98.0204 40.6677 98.3842 40.5545 98.2185 40.2805C98.0718 40.0381 97.7349 39.9723 97.4429 39.9799C97.078 39.9895 96.8311 40.2397 96.663 40.5237C96.3699 41.0188 96.0245 40.946 95.5168 40.8549C94.193 40.6177 92.8225 40.4788 91.9004 41.8073C91.6564 42.159 90.9011 42.2103 91.1314 42.7815C91.3481 43.319 92.0157 42.9634 92.4679 43.1026C92.802 43.2053 93.2523 43.0901 93.2673 43.5398C93.2833 44.0246 93.7767 44.5673 93.2263 44.9992C93.0554 45.1333 92.9012 45.2149 92.878 45.4432C92.8663 45.5582 92.8702 45.7323 92.7296 45.7319C92.5965 45.7315 92.611 45.5596 92.5973 45.4491C92.5872 45.3675 92.5942 45.284 92.5848 45.2022C92.5585 44.9727 92.6596 44.7237 92.4814 44.5172C92.4193 44.7496 92.3979 45.0039 92.2878 45.2108C91.7634 46.1987 91.2044 47.1318 89.9786 47.4291C88.8556 47.7015 88.7441 47.9314 89.0142 49.0655C89.1126 49.4789 89.1148 49.831 88.6715 49.9772C88.2429 50.1185 88.1093 49.7205 87.9615 49.4448C87.8475 49.2324 87.7835 48.9826 87.7464 48.742C87.692 48.3897 87.4964 48.3579 87.2218 48.4588C87.0081 48.5374 86.7813 48.8036 86.5862 48.4882C86.4517 48.2706 86.366 48.1266 86.1718 48.3996C86.0555 48.563 85.8724 48.7644 85.8951 48.9235C85.9445 49.2697 86.2013 48.9896 86.3682 49.0058C86.8455 49.0525 87.2952 49.1093 86.6681 49.6719C86.3836 49.927 86.4687 50.2609 86.5339 50.5939C86.867 52.2948 86.1379 53.5513 84.5236 54.128C84.1202 54.2722 83.6163 54.2476 83.4422 54.8163C83.3312 55.1786 83.1655 55.1479 83.0043 54.7851C82.8095 54.3464 82.5179 54.6272 82.2993 54.7802C82.0025 54.9881 81.9976 55.2486 82.273 55.4981C82.3953 55.6089 82.5261 55.711 82.6403 55.8293C83.4198 56.6363 83.1454 57.7661 82.0848 58.1875C81.7923 58.3038 81.7474 58.1041 81.6303 57.938C81.3118 57.4862 80.7622 56.953 80.3533 57.3229C79.8256 57.8003 80.3836 58.3674 80.8034 58.7691C81.1123 59.0646 81.4759 59.4205 81.3976 59.8044C81.2181 60.6825 81.996 61.2165 82.0454 61.9944C82.0678 62.3451 82.4055 62.3976 82.6867 62.4755C83.5113 62.7042 84.2791 63.1767 85.1905 63.0346C85.3472 63.0101 85.5775 63.0731 85.5889 63.2417C85.6053 63.4808 85.357 63.4119 85.2118 63.425C84.1723 63.5183 83.1081 63.3432 82.1732 63.0444C81.4523 62.8141 80.8424 61.985 80.374 61.293C79.985 60.7168 79.5584 60.1667 79.0972 59.6465C78.9623 59.4945 78.71 59.3985 78.873 59.1686C79.057 58.9094 79.3254 59.0113 79.5162 59.1793C79.793 59.4231 80.0346 59.707 80.2944 59.9705C80.3806 60.0578 80.5038 60.1534 80.608 60.0654C80.7302 59.9625 80.5994 59.8505 80.5354 59.7611C79.8589 58.8145 79.6052 57.7642 79.6981 56.607C79.7327 56.1755 79.6622 55.7436 79.0219 55.8818C78.4711 56.0008 78.4857 55.4752 78.2943 55.2045C77.4914 54.0683 77.1933 54.0392 76.1619 54.9602C75.925 55.1717 75.6654 55.3577 75.4064 55.5414C74.5155 56.1737 74.2807 57.1103 74.7385 58.15C74.8322 58.3631 75.0619 58.5989 74.8082 58.8147C74.5744 59.0136 74.3773 58.762 74.1546 58.6859C73.1268 58.3346 72.7396 57.4782 72.5983 56.5567C72.3877 55.1842 71.3545 54.3907 70.616 53.3852C70.4265 53.127 70.1435 53.0725 69.8465 53.0673C69.4756 53.0608 69.1015 53.028 68.7342 53.0639C68.5055 53.0862 68.2879 53.053 68.0734 53.006C67.7076 52.926 67.4906 53.3961 67.789 53.6223C67.9313 53.7302 68.0857 53.8284 68.2174 53.9453C68.4545 54.1557 68.2104 54.2833 68.1415 54.4617C67.7059 55.5906 66.6196 55.8812 65.6863 56.31C65.1027 56.5781 64.55 56.9833 63.8673 57.0235C63.7405 57.0309 63.6144 57.0975 63.6144 57.2423C63.6144 57.4378 63.769 57.5321 63.9335 57.5469C64.3517 57.5846 64.72 57.3566 65.1199 57.2928C65.6769 57.2042 65.9455 57.5819 65.6972 58.0883C65.2073 59.0876 64.5773 60.0094 63.6749 60.712C62.2931 61.7881 62.1614 62.2276 62.6797 63.8393C63.0857 65.1024 63.0381 65.2929 61.9367 66.1284C61.5165 66.4473 61.1564 66.7395 61.3653 67.343C61.448 67.5817 61.4683 67.908 61.2706 68.0444C60.4804 68.5901 60.2218 69.4978 59.7257 70.2361C58.9282 71.4229 57.7059 71.3659 56.53 71.4553C56.1615 71.4834 55.8836 71.1179 55.8463 70.8322C55.7117 69.8042 55.2019 68.8684 54.8486 67.9618C54.3049 66.5666 53.897 65.3638 54.4417 63.8928C54.598 63.4706 54.3921 62.7731 54.1142 62.3629C53.6486 61.6757 53.4274 60.9834 53.4489 60.1749C53.4557 59.9174 53.3156 59.5966 53.056 59.6344C52.348 59.7373 51.7738 59.0852 51.1807 59.2187C50.5153 59.3686 49.7866 59.2375 49.1751 59.618C48.7643 59.8735 48.4009 59.7707 48.0268 59.5249C47.0876 58.9076 46.5554 57.8978 45.7359 57.1652C45.65 57.0883 45.5981 56.9374 45.6186 56.824C45.9004 55.2637 45.3614 53.4695 46.8337 52.2454C47.5494 51.6503 47.832 50.7383 48.5207 50.1284C48.8098 49.8722 48.8232 49.5254 48.3837 49.354C48.0906 49.2396 47.7851 49.0749 47.8804 48.7585C48.0394 48.2312 47.7334 47.6754 48.0006 47.1929C48.2405 46.76 48.7065 46.8385 49.1146 46.8602C50.3309 46.9251 50.442 46.8317 50.2259 45.5914C50.1344 45.066 50.2595 44.821 50.7084 44.4961C51.2291 44.1192 51.7267 43.6809 52.256 43.3071C53.1074 42.7054 53.2036 42.4716 52.5956 41.5577C52.4053 41.2719 52.2818 40.9921 52.2067 40.6702C51.998 39.7732 52.1387 39.3872 52.9854 38.9894C53.5763 38.7119 54.0192 38.3487 54.2791 37.7419C54.7304 36.6876 55.6 36.09 56.6293 35.6937C57.0517 35.5311 57.493 35.4177 57.9184 35.2616C58.6761 34.9836 59.3234 34.855 60.0104 35.582C60.4626 36.0604 61.3253 35.9868 61.924 36.3748C62.1274 36.5069 62.4436 36.5296 62.571 36.7031C63.0693 37.3813 63.4346 37.7324 63.7176 36.5592C63.7826 36.2899 64.213 36.2001 64.4452 36.4765C64.7979 36.8967 65.1156 36.7983 65.5159 36.5672C66.1873 36.1796 66.9662 36.376 67.6893 36.2352C68.4567 36.0856 67.9533 35.7549 67.8544 35.4696L67.8681 35.4526C68.4719 35.5762 69.0728 35.7171 69.6804 35.8164C70.002 35.8689 70.2286 35.8767 70.3285 35.3732C70.5452 34.2803 71.036 34.0742 72.2359 34.1872C72.6653 34.2276 73.0804 34.1536 73.5154 34.3458C73.7666 34.4567 74.2172 34.4079 74.2869 33.9617C74.3841 33.3392 74.7022 33.4194 75.171 33.5568C75.6045 33.6838 76.1962 33.901 76.19 33.0259C76.1884 32.7966 76.4718 32.7548 76.6709 32.7113C77.5456 32.5206 78.3614 32.119 79.3043 32.1611C80.1702 32.1996 80.4038 31.6248 79.9384 30.7994C80.1935 30.5971 80.3404 30.3176 80.4776 30.0311ZM52.7311 47.0746C51.8183 47.2357 51.199 47.7864 50.8272 48.5798C50.6455 48.9676 50.4872 49.3154 50.0854 49.5064C49.9515 49.5699 49.68 49.5334 49.7128 49.7082C49.7384 49.8443 50.0124 49.8158 50.1592 49.7646C50.8951 49.508 51.6274 49.2679 52.4161 49.1994C52.847 49.1618 53.2338 49.2238 53.6093 49.3956C53.9784 49.5646 53.931 49.9137 53.9513 50.2451C53.9673 50.5026 54.1689 50.7174 54.4267 50.7307C55.2528 50.7731 56.0399 51.4735 56.9149 50.8632C57.0499 50.769 57.3433 50.7885 57.5078 50.8691C58.4179 51.316 59.3914 51.0059 60.3268 51.1345C60.785 51.1974 60.9478 50.7489 61.0356 50.4163C61.1428 50.0094 60.8126 50.0012 60.4958 49.9793C60.2214 49.9602 59.9367 49.7305 59.6874 49.7732C58.8285 49.92 58.4503 49.5634 58.396 48.739C58.3851 48.5724 58.284 48.4137 58.0771 48.4422C57.9379 48.4615 57.95 48.6143 57.8972 48.7156C57.5931 49.3009 56.8058 49.4014 56.4293 48.9034C56.3151 48.7525 56.305 48.352 56.1391 48.4352C55.2841 48.8643 54.906 48.0704 54.3363 47.7948C53.9622 47.6137 53.7297 47.5473 53.6921 48.0903C53.6722 48.3793 53.5106 48.7441 53.1848 48.6481C52.7166 48.5103 53.1321 48.1857 53.1522 47.9406C53.1831 47.5733 53.4489 47.0844 52.7311 47.0746ZM55.9935 42.5756C56.5634 42.6053 56.5163 42.5753 56.7478 42.2105C57.2914 41.3535 57.0759 40.5063 56.7921 39.6528C56.7123 39.4126 56.7441 38.969 56.304 39.1259C55.9689 39.2455 55.7591 39.6356 55.9763 39.9307C56.7103 40.929 55.7445 41.4109 55.3496 42.0147C55.1027 42.3922 54.6064 42.7751 54.1872 42.062C54.1259 41.9577 53.9846 41.8732 53.8853 41.9716C53.8141 42.0421 53.7858 42.2027 53.8057 42.3108C53.9366 43.0191 54.4946 42.8682 54.9716 42.8694C55.3395 42.8705 55.5727 42.3963 55.9935 42.5756ZM62.7744 47.5592C62.6005 46.8814 61.6391 46.94 61.497 46.1624C61.4646 45.985 61.2222 46.4347 61.0497 46.5651C60.7765 46.7717 60.5007 46.8334 60.3315 46.4938C60.1931 46.2159 60.0442 46.049 59.8035 46.3026C59.5282 46.5926 59.2024 46.892 59.2553 47.3602C59.2889 47.6578 59.5178 47.8276 59.7692 47.7728C60.5583 47.601 61.2892 47.7113 62.0343 48.0046C62.3464 48.1272 62.6883 47.98 62.7744 47.5592ZM61.9966 53.9927C61.7384 54.0484 61.7283 54.2361 61.7148 54.4414C61.675 55.0398 62.1052 55.3878 62.4217 55.7953C62.5652 55.9801 62.7127 56.3105 62.95 56.2093C63.2924 56.0633 63.0767 55.727 63.0119 55.4731C62.8891 54.9908 62.5335 54.638 62.2843 54.2262C62.2273 54.1315 62.1038 54.0769 61.9966 53.9927Z" fill="#13A031"/>
<path d="M0.257812 43.4135C1.28915 42.781 2.33341 42.1762 3.48779 41.7866C3.63504 41.7369 3.83971 41.6457 3.82371 41.4677C3.80525 41.2616 3.55649 41.3512 3.42606 41.2745C2.89471 40.962 2.34387 40.6767 1.8402 40.3242C1.21799 39.8886 1.2469 39.528 1.88757 39.1378C2.02579 39.0535 2.18842 39.0098 2.33895 38.945C2.51142 38.8706 2.86251 38.9218 2.7936 38.6673C2.73311 38.4438 2.43308 38.655 2.2401 38.6442C2.07788 38.6351 1.90356 38.6444 1.75734 38.5872C1.47536 38.4768 1.2266 38.2666 1.27705 37.9459C1.34124 37.5376 1.70382 37.506 2.04363 37.5021C2.19498 37.5002 2.41195 37.6776 2.47922 37.4881C2.54177 37.3122 2.28255 37.2841 2.15191 37.1994C1.17595 36.5657 1.17964 36.4107 2.16278 35.8399C2.41154 35.6955 2.64451 35.5182 2.90558 35.4027C3.64775 35.0746 4.34522 34.8759 5.22111 35.1839C6.17042 35.5177 7.23806 35.4983 8.23945 35.7048C9.48182 35.9609 10.6614 35.9669 11.9284 35.6449C13.1453 35.3356 14.4498 35.5657 15.6705 35.995C15.8171 36.0464 16.0051 36.176 16.1192 36.0058C16.2223 35.8518 16.0964 35.6847 15.9584 35.5918C15.7523 35.4534 15.5638 35.3371 15.5115 35.05C15.4523 34.7247 15.2599 34.6521 15.0091 34.9218C14.7117 35.2415 14.3539 35.2358 13.9888 35.0768C13.6152 34.9142 13.3295 34.6755 13.5881 34.2247C13.7329 33.9723 13.8914 33.7418 13.874 33.4303C13.8494 32.9932 14.2314 32.8971 14.4492 33.0369C15.15 33.4864 16.0285 33.2373 16.7404 33.7873C17.3256 34.2397 18.1339 34.3724 18.906 33.9017C19.3516 33.6302 19.8219 33.5701 19.7244 34.3714C19.6867 34.6825 19.7911 35.0221 20.0216 35.1441C20.6545 35.479 21.1854 35.7372 20.2845 36.3924C20.0956 36.5298 20.2361 36.7886 20.4711 36.8553C20.7513 36.9346 21.153 36.9898 21.1852 36.6326C21.223 36.214 21.3681 35.9868 21.6948 35.7454C22.2278 35.3516 22.1382 35.1113 21.4537 35.1041C20.8975 35.0982 20.707 34.5219 20.2884 34.2924C20.7759 34.2046 20.9674 33.62 21.493 33.5839C21.7791 33.5642 22.0625 33.5022 22.3466 33.4555C22.7518 33.3888 23.0293 33.187 23.089 32.7519C23.1193 32.5312 23.1033 32.3278 22.8427 32.2759C22.4709 32.202 22.144 31.981 21.8085 32.5193C21.3347 33.2791 20.3961 32.6432 19.74 32.9912L19.57 32.541C19.6728 32.4319 19.6843 32.323 19.5696 32.2141C19.6539 31.7765 19.3362 31.3819 19.5485 30.8912C19.9045 30.068 19.9939 29.9839 20.7117 30.4388C20.9258 30.5745 21.1998 30.7275 21.1161 30.9911C21.0039 31.3434 20.7055 31.0448 20.4923 31.0591C20.2275 31.077 19.9726 31.1008 19.9697 31.433C19.9668 31.7599 20.2082 31.8179 20.4814 31.8163C20.7691 31.8147 21.0577 31.843 21.3444 31.8276C21.8733 31.7993 22.1823 31.6198 21.7572 31.0721C21.5722 30.8336 21.3347 30.5702 21.6397 30.3295C21.9571 30.0787 22.1774 30.4431 22.3312 30.6371C22.4848 30.8309 23.0235 30.8307 22.7046 31.3633C22.608 31.5247 23.1193 31.6348 23.3804 31.6992C23.5053 31.73 23.6281 31.6537 23.6593 31.5144C23.7224 31.2316 23.5877 31.0431 23.3461 30.915C23.308 30.8954 23.2713 30.8731 23.2364 30.8481C21.7106 29.7268 21.7289 29.375 23.3672 28.4108C23.6507 28.2435 23.9578 28.1201 24.2782 28.0449C25.9553 27.645 27.6741 27.5295 29.3762 27.3304C30.0877 27.2472 30.8413 27.4908 31.571 27.6149C31.8483 27.662 32.3329 27.7765 32.3396 27.8845C32.3595 28.1987 31.9231 28.1872 31.7281 28.3878C31.6173 28.5018 31.4108 28.583 31.521 28.7746C31.6467 28.993 31.925 29.0034 32.0451 28.8423C32.7611 27.8831 33.7596 28.1257 34.7417 28.0646C35.5409 28.015 36.3481 27.9098 37.1694 27.6272C38.0738 27.3159 39.1525 27.2256 40.1687 27.1442C40.3723 27.128 40.6342 27.2437 40.7765 27.153C42.0058 26.3713 43.0336 27.5347 44.1812 27.4793C44.318 27.4727 44.4234 27.5884 44.3796 27.7256C44.3467 27.8281 44.2405 27.9754 44.157 27.9822C43.5836 28.0291 43.0074 28.0414 42.4323 28.0724C42.3138 28.0787 42.1969 28.1177 42.0792 28.1417C42.1489 28.3429 42.3277 28.2742 42.4576 28.274C43.6858 28.2711 44.9117 28.4446 46.1438 28.297C46.4431 28.2611 46.8768 28.2184 46.9356 28.6686C46.982 29.0227 46.6055 29.0898 46.3606 29.2241C45.4804 29.7073 44.4989 30.1322 45.1732 31.4508C45.2575 31.6155 45.0387 31.7677 45.0424 31.8957C45.0756 33.0328 44.0816 33.9216 44.2938 35.1072C44.3535 35.4406 44.1441 35.7885 43.8051 35.893C43.0646 36.1215 42.4885 36.7743 41.6428 36.7216C41.5628 36.7166 41.4638 36.7222 41.4018 36.7646C40.191 37.5927 38.5787 37.9857 38.1733 39.6938C38.0193 40.3424 37.6395 40.4234 37.0601 40.2577C36.1424 39.9952 35.6885 39.2969 35.2275 38.5431C34.7499 37.7619 34.5428 37.0548 35.2743 36.3212C35.3885 36.2068 35.3805 36.0633 35.2208 35.9138C34.8559 35.5725 34.2112 34.4544 34.1144 34.0826C33.8176 32.942 32.6819 32.0107 31.5566 32.3114C30.3132 32.6436 29.8658 31.8159 29.2413 31.1609C28.9874 30.8947 29.2099 30.7085 29.4394 30.5938C29.7677 30.4296 30.1545 30.4306 30.4726 30.2036C30.7304 30.0196 30.7478 29.8625 30.6163 29.5918C30.4777 29.3061 30.3079 29.4066 30.1201 29.4819C29.0026 29.9294 28.0108 30.4775 27.6439 31.7775C27.5211 32.2133 27.177 32.5689 27.0642 33.0681C26.9672 33.4975 26.379 33.3997 25.9824 33.4641C25.8378 33.4877 25.5874 33.3509 25.5747 33.551C25.5653 33.6995 25.8657 33.6286 25.9945 33.7026C26.8858 34.2141 27.9911 33.9028 28.8808 34.5469C29.5891 35.0598 30.4238 35.3287 30.7685 36.2929C30.9367 36.7636 31.5886 36.9338 32.0796 37.1401C32.3091 37.2365 32.6419 37.311 32.3913 37.6077C32.195 37.8401 32.1019 38.3973 31.5769 38.1204C31.4002 38.0271 31.2685 37.8497 31.1124 37.7152C31.0218 37.637 30.8989 37.5326 30.7983 37.6208C30.6871 37.718 30.7954 37.839 30.8727 37.927C30.9814 38.0509 31.1143 38.1557 31.2107 38.2875C31.3866 38.5283 31.8476 38.7535 31.4869 39.0851C31.2148 39.3355 30.8721 39.7385 30.4113 39.5223C29.5034 39.0968 28.6901 38.4114 27.5779 38.6091C27.4725 38.6278 27.3689 38.4881 27.3671 38.3538C27.3648 38.2035 27.4719 38.1419 27.6058 38.1313C27.8107 38.1149 28.0274 38.1448 28.219 38.0878C28.7448 37.9311 29.0678 37.2812 28.8806 36.8128C28.663 36.2687 27.3447 35.6361 26.7207 35.7077C26.2783 35.7585 26.5671 35.9326 26.5371 36.1207C26.4529 36.6506 26.8751 37.4904 25.7472 37.5357C25.3467 37.5519 25.6637 37.8819 25.8251 38.0314C26.1184 38.3031 26.8044 38.346 26.724 38.7418C26.6475 39.1191 25.9787 38.5705 25.6397 38.9549C25.4986 39.1148 25.2355 39.1314 25.0669 38.9938C24.4054 38.4541 24.0059 39.0143 23.5834 39.349C22.3267 40.3449 22.3786 40.8953 23.8375 41.5983C24.1675 41.7572 24.4716 41.9964 24.8247 42.0823C25.7447 42.3064 26.5285 42.6493 26.7596 43.7018C26.8005 43.8872 27.0293 44.2231 27.306 43.9635C27.4581 43.8205 27.4592 43.5822 27.3417 43.4098C26.9813 42.8807 27.0494 42.5296 27.6675 42.2591C27.9434 42.1385 27.8595 41.8208 27.744 41.6004C27.5387 41.2087 27.6175 40.7954 27.5986 40.3888C27.5506 39.3459 28.1363 38.9643 29.0754 39.4598C29.4324 39.6482 29.8432 39.8693 30.0432 40.1911C30.3787 40.731 30.6424 41.011 31.2917 40.6084C31.7137 40.3467 32.014 40.7485 32.1503 41.0754C32.4487 41.7905 32.9944 42.2511 33.5498 42.7447C33.9727 43.1206 34.6418 43.4582 34.2436 44.2627C34.1148 44.5225 34.4056 44.5799 34.5649 44.6874C34.8418 44.8742 35.1008 45.0812 35.1623 45.4376C35.1906 45.6014 35.0846 45.8904 35.0645 45.8748C34.6113 45.5239 34.0701 45.858 33.6242 45.6792C33.3236 45.5586 33.3068 45.2399 33.4194 44.929C33.5922 44.4514 33.3418 44.4637 32.9858 44.5518C32.7492 44.6105 32.4883 44.648 32.2506 44.6121C31.3938 44.4831 31.442 44.7744 31.7024 45.4577C31.9336 46.0641 32.1702 46.0167 32.6013 45.7733C32.8029 45.6595 33.0152 45.6851 33.1095 45.9216C33.1991 46.1461 33.0592 46.4088 32.888 46.4365C32.2455 46.5407 31.7209 47.3149 30.9576 46.7706C30.7279 46.6069 30.342 46.7312 30.3026 46.9139C30.1467 47.6391 29.5356 47.83 29.0315 48.1629C28.9363 48.2256 28.8668 48.3542 28.8252 48.467C28.4542 49.4674 27.9241 50.3236 27.0451 50.996C26.5985 51.3377 26.5695 51.9318 27.0279 52.4229C27.2529 52.6639 27.3164 52.9965 27.0133 53.17C26.7131 53.3417 26.6709 52.9108 26.4906 52.7775C26.2984 52.6354 26.136 52.4291 26.0142 52.2197C25.6551 51.6028 25.1036 51.5364 24.5163 51.7247C24.1568 51.8399 23.8096 51.9271 23.4349 51.9273C22.6975 51.9277 22.0392 51.8912 22.2102 53.0454C22.274 53.4758 21.6583 53.9594 22.2215 54.509C22.6316 54.9091 23.0022 55.099 23.5196 54.776C23.6941 54.6671 23.8574 54.5394 24.034 54.4337C24.2911 54.2797 24.611 54.1616 24.8563 54.3136C25.2326 54.5469 24.8641 54.8404 24.7647 55.0428C24.4447 55.6952 24.5077 56.0331 25.3266 56.0264C25.7634 56.0229 26.0072 56.3149 26.0173 56.7444C26.0267 57.1467 25.8561 57.6526 26.3706 57.8081C26.9073 57.9701 27.5886 58.0251 28.0073 57.6904C28.9089 56.9699 29.7971 57.1225 30.7663 57.4262C31.0269 57.5079 31.2976 57.5464 31.5702 57.5642C33.1423 57.668 34.0075 59.1528 35.4509 59.5035C35.9431 61.2069 37.702 60.9435 38.8344 61.6508C39.1279 61.8342 39.5048 61.9283 39.8223 62.1242C40.4345 62.5023 40.6032 62.9877 40.1387 63.5577C39.6742 64.1274 39.5541 64.7951 39.3564 65.47C39.0313 66.5793 38.8312 67.8606 37.2365 67.9615C36.8066 67.9888 36.5833 68.3932 36.4562 68.8249C35.9459 70.5574 35.7616 70.7401 33.8898 71.4632C33.7446 71.5194 33.7026 71.5768 33.7501 71.7101C34.0442 72.5333 33.4805 72.7575 32.8839 72.8132C32.3263 72.8655 32.2978 73.3292 32.0765 73.6311C31.6787 74.1739 31.586 74.9132 30.9929 75.3443C30.956 75.3712 30.9974 75.6097 31.0681 75.664C31.4516 75.9583 31.2816 76.148 31.0378 76.4544C30.229 77.4716 30.2435 77.5274 30.9699 78.5856C31.086 78.7546 31.3103 78.8805 30.9459 79.0031C29.9607 79.3345 29.0358 78.8764 28.6626 77.8955C28.3714 77.1305 28.3541 76.2946 28.5576 75.5795C28.9823 74.0862 28.9204 72.5343 29.2813 71.02C29.5575 69.8607 29.7805 68.571 29.7989 67.3089C29.8106 66.5192 29.4956 65.9111 28.8701 65.5414C28.1778 65.132 27.7898 64.557 27.5289 63.8405C27.4596 63.6501 27.3351 63.4803 27.2475 63.2958C27.0164 62.8087 26.0981 62.6477 26.6251 61.7854C26.9102 61.319 26.7849 60.6404 27.3101 60.2549C27.6483 60.0067 27.6655 59.6458 27.685 59.2621C27.7059 58.8521 27.607 58.6832 27.1561 58.6393C26.3405 58.5601 25.4855 58.4721 25.2845 57.4065C25.2408 57.175 24.9636 57.1496 24.78 57.1125C23.8326 56.9199 23.0853 56.2909 21.9901 56.2509C21.0659 56.2173 19.8202 55.7483 19.3512 54.5172C19.1441 53.9735 18.9123 53.5784 18.0553 53.7519C17.3544 53.8938 16.8995 53.0121 16.6616 52.3733C16.2906 51.3777 15.7617 50.6131 14.9051 49.9276C13.9792 49.1866 13.7249 47.9693 13.7483 46.7862C13.7643 45.9778 13.8256 45.2126 12.956 44.7727C12.7709 44.679 12.695 44.5283 12.6693 44.2863C12.5674 43.3265 12.4887 43.2728 11.4694 43.1918C11.1415 43.1657 11.1544 42.8872 11.0338 42.6842C10.2925 41.4369 9.35098 40.5134 7.77782 40.3434C7.20771 40.2817 6.85764 40.5758 6.40257 40.6638C5.91961 40.7571 5.34478 40.5319 5.66224 41.4295C5.75596 41.6949 5.34026 42.0967 5.00024 41.9867C4.37865 41.7855 4.08252 42.1186 3.76383 42.5136C3.68795 42.6077 3.59115 42.7527 3.49948 42.7562C2.37319 42.799 1.44214 43.5459 0.33 43.6274L0.257812 43.4135ZM23.6714 34.2063C23.4694 34.2403 23.2676 34.2801 23.1275 34.4481C22.9678 34.6396 23.0278 34.8406 23.1614 35.001C23.5937 35.52 23.915 36.1631 24.6797 36.3178C24.8282 36.3477 24.6412 36.7995 24.9613 36.7205C25.1176 36.6822 25.2786 36.4504 25.3352 36.2735C25.4082 36.0452 25.2004 35.8861 25.0068 35.8383C24.3434 35.6746 24.1092 35.2048 24.0381 34.5904C24.0137 34.3806 23.9497 34.1854 23.6714 34.2063Z" fill="#13A031"/>
<path d="M92.5886 64.729C92.5777 64.124 92.6005 63.606 91.9508 63.4491C91.8716 63.4301 91.727 63.387 91.7293 63.3685C91.8732 62.1173 90.7705 62.3191 90.1305 61.9802C89.989 61.9051 89.87 61.7775 89.7587 61.6576C89.5596 61.4428 89.328 61.1791 89.5579 60.9031C89.8272 60.5795 90.2576 60.6873 90.4018 60.9783C90.7035 61.5874 91.0775 61.4065 91.5952 61.3608C92.7413 61.2593 93.6607 61.8731 94.2854 62.7775C94.528 63.1288 95.2095 63.5223 94.9982 63.7553C94.6617 64.1265 94.2288 63.5592 93.8465 63.3665C93.5389 63.2114 93.2709 63.2885 93.0678 63.524C92.8412 63.7869 92.9917 64.0473 93.1203 64.3207C93.7462 65.6525 94.667 66.7833 95.5462 67.9432C96.3645 69.0227 96.4104 69.6189 95.7541 70.7952C95.6329 71.0124 95.5087 71.2284 95.4055 71.4546C94.6133 73.193 93.3002 73.4073 91.9534 72.1317C91.3163 71.5282 90.5487 71.0555 89.8108 70.5682C89.3506 70.2643 88.8789 70.4101 88.4144 70.6685C87.6591 71.0889 86.8677 71.3875 85.9834 71.4751C85.0169 71.5706 85.0056 71.6254 84.8696 70.6474C84.7527 69.8063 84.2499 69.0724 84.3664 68.1454C84.4593 67.4053 84.738 67.0378 85.4223 66.8434C85.9879 66.6828 86.518 66.5798 86.792 65.8116C86.944 65.3857 87.7456 64.9583 88.4126 64.9897C88.801 65.0079 89.0186 64.9478 89.213 64.6172C89.5179 64.0986 90.0423 64.1564 90.539 64.1938C90.8622 64.218 91.1333 64.3656 91.0537 64.7321C90.8743 65.5584 91.4059 65.8342 92.0131 65.801C92.7106 65.7626 92.5225 65.0875 92.5886 64.729ZM55.0709 29.641C54.6737 29.739 54.1329 29.3149 53.8807 29.9242C53.6217 30.5499 54.3423 30.7131 54.5174 31.1411C54.6151 31.3794 54.8249 31.5137 55.0187 31.6678C55.3681 31.9454 55.7385 31.9881 55.9643 31.5902C56.3121 30.9771 56.6896 30.9664 57.1976 31.3616C57.3293 31.4639 57.5132 31.4418 57.6525 31.3267C57.7564 31.2408 57.8135 31.0831 57.7097 31.0056C56.616 30.1894 57.5944 30.3278 58.0643 30.2C58.2546 30.1481 58.4279 30.0195 58.5969 29.9076C58.692 29.8446 58.8247 29.747 58.829 29.6598C58.8354 29.529 58.6723 29.5105 58.5583 29.503C57.9857 29.4652 57.4482 29.1857 56.7996 29.2788C56.2132 29.1558 55.6638 29.4945 55.0709 29.641ZM18.718 31.8119C18.5262 31.5974 18.2305 31.5466 18.1126 31.8355C17.6528 32.9618 17.0929 32.1083 16.7439 31.8411C15.813 31.1288 15.4123 31.0905 14.6222 31.8554C14.2797 32.187 14.2581 32.395 14.7708 32.4975C15.4542 32.6341 16.0965 32.8306 16.7146 33.1981C17.4633 33.6433 18.9702 33.2323 19.5699 32.541C19.6726 32.4319 19.6841 32.323 19.5695 32.2141C19.2079 32.244 18.9514 32.073 18.718 31.8119ZM82.9655 60.3602C82.9212 60.3918 82.9134 60.5196 82.9335 60.5901C83.092 61.1483 83.2602 61.7084 83.9265 61.8694C84.5025 62.0087 84.9242 61.8524 85.2904 61.3325C85.7492 60.6812 85.5406 59.908 85.8031 59.2249C85.9001 58.9727 85.5767 58.839 85.1514 58.8361C84.49 59.2942 83.7238 59.8217 82.9655 60.3602ZM65.3117 64.4926C64.7984 64.8533 64.0868 65.1355 63.8231 65.6843C63.5193 66.3165 63.4098 67.0815 63.4537 67.8216C63.4691 68.0814 63.6061 68.289 63.8877 68.339C64.2285 68.3997 64.6333 68.3774 64.7307 68.0279C65.0008 67.0599 65.5242 66.1719 65.6575 65.2241C65.5429 64.9021 65.6501 64.2547 65.3117 64.4926ZM67.8689 35.4545C67.02 34.512 67.0211 34.3133 67.9839 33.5141C68.552 33.0426 69.1717 32.6503 69.9104 32.476C70.2258 32.4015 70.5338 32.2814 70.8296 32.1472C70.9083 32.1115 70.9721 31.9456 70.967 31.8435C70.9569 31.6501 70.7963 31.5498 70.6216 31.5927C69.0308 31.9817 67.439 32.3728 66.4085 33.8246C65.9965 34.4049 66.1382 35.036 66.7686 35.3499C67.1142 35.522 67.4888 35.467 67.8551 35.4713L67.8689 35.4545ZM101.368 75.2099C101.664 74.494 102.205 74.0453 102.806 73.5991C103.535 73.0574 103.483 72.6662 102.73 72.07C102.571 71.9441 102.412 71.7376 102.206 71.8315C101.958 71.9449 102.116 72.1826 102.149 72.3715C102.243 72.9174 102.17 73.2906 101.571 73.6075C101.062 73.8767 100.699 74.4499 100.317 74.9247C100.016 75.2987 100.179 75.6945 100.647 75.7216C100.968 75.7259 101.245 75.5063 101.368 75.2099ZM92.5802 48.0219C92.4149 47.9268 92.2412 47.9602 92.1546 48.1158C91.6302 49.0604 90.7554 49.5219 89.8028 49.9107C89.4133 50.0696 89.142 50.3973 89.1621 50.8694C89.1699 51.0519 89.2714 51.2129 89.4623 51.128C90.3331 50.7413 91.2316 50.3936 92.0428 49.9041C92.5311 49.6096 92.6962 48.9895 92.8094 48.5084C92.8226 48.236 92.7297 48.1078 92.5802 48.0219ZM79.3056 28.9761C78.7154 28.5908 78.3514 28.9577 78.1308 29.414C77.9011 29.8885 78.0686 30.3073 78.6252 30.4668C79.0596 30.5913 79.5009 30.691 79.9391 30.8017C80.1936 30.5973 80.3405 30.3177 80.4777 30.0312C80.2068 29.5462 79.7517 29.2671 79.3056 28.9761ZM91.4061 32.4667C91.1631 32.8931 91.6821 32.9581 91.8659 33.1837C91.943 33.2784 92.0297 33.3666 92.0956 33.4686C92.2803 33.7546 92.5026 34.0545 92.8712 33.9339C93.3268 33.7848 92.7635 33.4464 92.9413 33.2147C93.0391 33.0871 93.1218 32.9468 93.2257 32.8248C93.4716 32.5359 93.309 32.3777 93.0385 32.3033C92.8059 32.2393 92.556 32.2385 92.3939 32.2194C91.9918 32.2539 91.5843 32.154 91.4061 32.4667ZM86.7756 57.4539C87.1745 57.7984 87.5369 57.5244 87.7387 57.2808C87.9569 57.0173 87.7161 56.7113 87.3968 56.6479C86.8189 56.5333 86.784 56.2507 86.9846 55.7669C87.0697 55.5616 86.8265 55.3855 86.6319 55.3328C86.3718 55.2622 86.2787 55.497 86.2139 55.6863C86.1618 55.8385 86.1678 56.0107 86.1479 56.174C86.1075 56.7252 86.3817 57.1134 86.7756 57.4539ZM85.8046 61.4297C85.8347 61.7956 85.8868 62.3193 86.2843 62.4104C86.4988 62.4596 87.0473 62.266 87.0113 61.7837C86.985 61.4305 86.9017 61.0399 86.4075 60.988C86.113 61.0023 85.7777 61.1026 85.8046 61.4297Z" fill="#13A031"/>
</g>
<defs>
<clipPath id="clip0_2_404">
<rect width="105" height="105" fill="white" transform="translate(1 0.496338)"/>
</clipPath>
</defs>
</svg>
