<svg width="66" height="32" viewBox="0 0 66 32" fill="none" xmlns="http://www.w3.org/2000/svg">
<rect x="0.5" y="0.5" width="65" height="31" rx="3.5" fill="#181818"/>
<path d="M30.3291 11.6735H36.6677V14.3241H32.9798V16.9748H36.6677V19.6255H30.3291V11.6735Z" fill="white"/>
<path d="M37.9354 11.6735H44.274V13.9784H40.5861V14.4394H44.274V19.7408H37.9354V17.3206H41.6233V16.8596H37.9354V11.6735Z" fill="white"/>
<path d="M45.5417 11.6735H51.8804V13.9784H48.1924V14.4394H51.8804V19.7408H45.5417V17.3206H49.2297V16.8596H45.5417V11.6735Z" fill="white"/>
<path d="M26.2394 22.2183L20.4567 23.8215L14.6898 22.2205L13.4047 7.8064H27.5259L26.2394 22.2183Z" fill="#264DE4"/>
<path d="M20.4653 22.5961L25.1381 21.3006L26.2375 8.98499H20.4653V22.5961Z" fill="#2965F1"/>
<path d="M20.4654 14.3309H16.3508L16.5093 16.0988H20.4654V14.3309Z" fill="#EBEBEB"/>
<path d="M20.4592 10.7528H16.0325L16.1932 12.5207H20.4654V10.7528H20.4592Z" fill="#EBEBEB"/>
<path d="M20.4576 18.9242L18.4887 18.3926L18.3629 16.9827H17.4062H16.5883L16.8359 19.7584L20.4572 20.7637L20.4653 20.7615V18.9222L20.4576 18.9242Z" fill="#EBEBEB"/>
<path d="M22.9503 12.5207L22.7894 14.331H20.4592V16.0988H22.6361L22.4309 18.3915L20.4592 18.9237V20.7629L24.0834 19.7585L24.11 19.4598L24.5254 14.8057L24.5685 14.331L24.8877 10.7528H20.4592V12.5207H22.9503Z" fill="white"/>
<rect x="0.5" y="0.5" width="65" height="31" rx="3.5" stroke="#CCCCCC"/>
</svg>
