<svg width="955" height="524" viewBox="0 0 955 524" fill="none" xmlns="http://www.w3.org/2000/svg">
<rect x="0.00708008" y="0.161133" width="954.705" height="523.677" fill="#231F20"/>
<path fill-rule="evenodd" clip-rule="evenodd" d="M36.9282 489.402C36.9282 489.667 36.8229 489.922 36.6353 490.109C36.4478 490.297 36.1934 490.402 35.9282 490.402H34.9282C34.663 490.402 34.4087 490.297 34.2211 490.109C34.0336 489.922 33.9282 489.667 33.9282 489.402V477.402C33.9282 477.137 34.0336 476.883 34.2211 476.695C34.4087 476.507 34.663 476.402 34.9282 476.402H35.9282C36.1934 476.402 36.4478 476.507 36.6353 476.695C36.8229 476.883 36.9282 477.137 36.9282 477.402V489.402ZM43.9282 489.402C43.9282 489.667 43.8229 489.922 43.6353 490.109C43.4478 490.297 43.1934 490.402 42.9282 490.402H41.9282C41.663 490.402 41.4087 490.297 41.2211 490.109C41.0336 489.922 40.9282 489.667 40.9282 489.402V477.402C40.9282 477.137 41.0336 476.883 41.2211 476.695C41.4087 476.507 41.663 476.402 41.9282 476.402H42.9282C43.1934 476.402 43.4478 476.507 43.6353 476.695C43.8229 476.883 43.9282 477.137 43.9282 477.402V489.402Z" fill="white"/>
<path d="M69.6885 478.402V488.402L76.6885 483.402L69.6885 478.402ZM78.6885 488.402V478.402H76.6885V488.402H78.6885Z" fill="white"/>
<path d="M115.753 492.417C116.938 491.235 117.879 489.829 118.52 488.282C119.161 486.735 119.49 485.077 119.488 483.402C119.49 481.727 119.161 480.069 118.52 478.522C117.879 476.975 116.938 475.57 115.753 474.387L114.691 475.448C115.737 476.491 116.567 477.731 117.132 479.096C117.698 480.461 117.988 481.924 117.986 483.402C117.986 486.509 116.726 489.321 114.691 491.357L115.753 492.417Z" fill="white"/>
<path d="M113.63 490.296C114.537 489.392 115.256 488.317 115.746 487.134C116.236 485.951 116.488 484.683 116.486 483.402C116.488 482.121 116.236 480.853 115.746 479.67C115.256 478.487 114.537 477.412 113.63 476.508L112.57 477.569C113.337 478.334 113.945 479.243 114.36 480.244C114.775 481.245 114.988 482.318 114.986 483.402C114.988 484.486 114.776 485.559 114.361 486.561C113.947 487.562 113.338 488.472 112.571 489.237L113.63 490.296Z" fill="white"/>
<path d="M111.509 488.175C112.137 487.549 112.635 486.805 112.974 485.986C113.313 485.167 113.487 484.289 113.486 483.402C113.487 482.516 113.313 481.637 112.974 480.818C112.635 479.999 112.137 479.255 111.509 478.629L110.449 479.69C110.937 480.177 111.324 480.755 111.588 481.392C111.852 482.03 111.987 482.713 111.986 483.402C111.987 484.092 111.852 484.775 111.588 485.412C111.324 486.049 110.937 486.628 110.449 487.115L111.509 488.175ZM108.524 476.727C108.651 476.788 108.759 476.884 108.834 477.004C108.909 477.123 108.949 477.261 108.949 477.402V489.402C108.949 489.543 108.909 489.681 108.833 489.801C108.758 489.92 108.651 490.016 108.523 490.077C108.396 490.138 108.254 490.162 108.114 490.146C107.974 490.13 107.841 490.075 107.731 489.987L104.186 487.152H100.699C100.5 487.152 100.309 487.073 100.168 486.932C100.028 486.792 99.9487 486.601 99.9487 486.402V480.402C99.9487 480.203 100.028 480.012 100.168 479.872C100.309 479.731 100.5 479.652 100.699 479.652H104.186L107.731 476.817C107.841 476.729 107.974 476.674 108.115 476.658C108.255 476.642 108.397 476.666 108.524 476.727Z" fill="white"/>
<path d="M835.82 493.402H832.18C831.952 493.402 831.731 493.324 831.553 493.181C831.375 493.038 831.252 492.839 831.203 492.616L830.796 490.732C830.253 490.494 829.738 490.197 829.261 489.845L827.424 490.43C827.206 490.499 826.972 490.492 826.759 490.41C826.546 490.328 826.368 490.175 826.254 489.977L824.43 486.826C824.317 486.628 824.275 486.398 824.31 486.173C824.345 485.948 824.455 485.741 824.623 485.587L826.048 484.287C825.983 483.698 825.983 483.104 826.048 482.515L824.623 481.218C824.455 481.064 824.344 480.857 824.309 480.632C824.274 480.407 824.317 480.176 824.43 479.978L826.25 476.825C826.364 476.627 826.542 476.475 826.755 476.392C826.968 476.31 827.202 476.303 827.42 476.372L829.257 476.957C829.501 476.777 829.755 476.609 830.017 476.457C830.27 476.315 830.53 476.186 830.796 476.071L831.204 474.189C831.252 473.966 831.376 473.767 831.553 473.624C831.731 473.481 831.952 473.402 832.18 473.402H835.82C836.048 473.402 836.269 473.481 836.447 473.624C836.624 473.767 836.747 473.966 836.796 474.189L837.208 476.072C837.488 476.196 837.762 476.335 838.027 476.49C838.274 476.633 838.513 476.79 838.743 476.959L840.581 476.374C840.798 476.305 841.033 476.312 841.245 476.395C841.458 476.477 841.636 476.63 841.75 476.827L843.57 479.98C843.802 480.387 843.722 480.902 843.377 481.219L841.952 482.519C842.017 483.108 842.017 483.702 841.952 484.291L843.377 485.591C843.722 485.909 843.802 486.423 843.57 486.83L841.75 489.983C841.636 490.181 841.458 490.334 841.245 490.416C841.032 490.498 840.797 490.505 840.58 490.436L838.743 489.851C838.266 490.202 837.752 490.5 837.209 490.737L836.796 492.616C836.747 492.839 836.624 493.038 836.446 493.181C836.269 493.324 836.048 493.402 835.82 493.402ZM833.996 479.402C832.935 479.402 831.918 479.824 831.167 480.574C830.417 481.324 829.996 482.341 829.996 483.402C829.996 484.463 830.417 485.48 831.167 486.231C831.918 486.981 832.935 487.402 833.996 487.402C835.057 487.402 836.074 486.981 836.824 486.231C837.574 485.48 837.996 484.463 837.996 483.402C837.996 482.341 837.574 481.324 836.824 480.574C836.074 479.824 835.057 479.402 833.996 479.402Z" fill="white"/>
<g clip-path="url(#clip0_277_2254)">
<path d="M862.88 476.652C862.88 476.055 863.117 475.483 863.539 475.061C863.961 474.639 864.533 474.402 865.13 474.402H884.63C885.227 474.402 885.799 474.639 886.221 475.061C886.643 475.483 886.88 476.055 886.88 476.652V490.152C886.88 490.749 886.643 491.321 886.221 491.743C885.799 492.165 885.227 492.402 884.63 492.402H865.13C864.533 492.402 863.961 492.165 863.539 491.743C863.117 491.321 862.88 490.749 862.88 490.152V476.652ZM865.13 475.902C864.931 475.902 864.74 475.981 864.6 476.122C864.459 476.262 864.38 476.453 864.38 476.652V490.152C864.38 490.351 864.459 490.542 864.6 490.682C864.74 490.823 864.931 490.902 865.13 490.902H884.63C884.829 490.902 885.02 490.823 885.16 490.682C885.301 490.542 885.38 490.351 885.38 490.152V476.652C885.38 476.453 885.301 476.262 885.16 476.122C885.02 475.981 884.829 475.902 884.63 475.902H865.13Z" fill="white"/>
<path d="M874.88 484.152C874.88 483.953 874.959 483.762 875.1 483.622C875.24 483.481 875.431 483.402 875.63 483.402H883.13C883.329 483.402 883.52 483.481 883.66 483.622C883.801 483.762 883.88 483.953 883.88 484.152V488.652C883.88 488.851 883.801 489.042 883.66 489.182C883.52 489.323 883.329 489.402 883.13 489.402H875.63C875.431 489.402 875.24 489.323 875.1 489.182C874.959 489.042 874.88 488.851 874.88 488.652V484.152Z" fill="white"/>
</g>
<path d="M911.775 473.62H906.572C906.157 473.62 905.822 473.95 905.822 474.358V479.526C905.822 479.729 905.991 479.895 906.197 479.895H907.322C907.529 479.895 907.697 479.729 907.697 479.526V475.466H911.775C911.982 475.466 912.15 475.299 912.15 475.096V473.989C912.15 473.786 911.982 473.62 911.775 473.62ZM925.322 486.909H924.197C923.991 486.909 923.822 487.075 923.822 487.278V491.339H919.744C919.538 491.339 919.369 491.505 919.369 491.708V492.815C919.369 493.018 919.538 493.184 919.744 493.184H924.947C925.362 493.184 925.697 492.854 925.697 492.446V487.278C925.697 487.075 925.529 486.909 925.322 486.909ZM911.775 491.339H907.697V487.278C907.697 487.075 907.529 486.909 907.322 486.909H906.197C905.991 486.909 905.822 487.075 905.822 487.278V492.446C905.822 492.854 906.157 493.184 906.572 493.184H911.775C911.982 493.184 912.15 493.018 912.15 492.815V491.708C912.15 491.505 911.982 491.339 911.775 491.339ZM924.947 473.62H919.744C919.538 473.62 919.369 473.786 919.369 473.989V475.096C919.369 475.299 919.538 475.466 919.744 475.466H923.822V479.526C923.822 479.729 923.991 479.895 924.197 479.895H925.322C925.529 479.895 925.697 479.729 925.697 479.526V474.358C925.697 473.95 925.362 473.62 924.947 473.62Z" fill="white"/>
<rect x="421.463" y="205.15" width="111.792" height="111.792" rx="55.8962" fill="#514D4E"/>
<path d="M494.59 264.03L467.339 279.842C465.026 281.182 462.058 279.559 462.058 276.857V245.233C462.058 242.535 465.022 240.907 467.339 242.252L494.59 258.064C495.116 258.364 495.553 258.799 495.857 259.322C496.162 259.846 496.322 260.441 496.322 261.047C496.322 261.653 496.162 262.248 495.857 262.772C495.553 263.296 495.116 263.73 494.59 264.03Z" fill="white"/>
<line x1="31.7566" y1="440.547" x2="925.697" y2="440.547" stroke="#AFADB0" stroke-width="4"/>
<line x1="31.7566" y1="440.547" x2="582.162" y2="440.547" stroke="#F40000" stroke-width="4"/>
<rect x="579.086" y="433.554" width="4.85901" height="13.1891" fill="white"/>
<defs>
<clipPath id="clip0_277_2254">
<rect width="24" height="24" fill="white" transform="translate(862.88 471.402)"/>
</clipPath>
</defs>
</svg>
