<svg width="240" height="45" viewBox="0 0 240 45" fill="none" xmlns="http://www.w3.org/2000/svg">
<g clip-path="url(#clip0_45_1409)">
<path d="M50.8147 3.76874C46.9317 2.00812 42.7797 0.728583 38.4389 0C37.9058 0.934017 37.283 2.19029 36.8536 3.18965C32.2393 2.51717 27.6674 2.51717 23.1379 3.18965C22.7086 2.19029 22.0716 0.934017 21.5338 0C17.1883 0.728583 13.0316 2.01283 9.14851 3.77806C1.31632 15.2476 -0.806854 26.4322 0.254737 37.458C5.44945 41.2173 10.4838 43.501 15.4331 44.9954C16.6551 43.3655 17.745 41.633 18.6839 39.807C16.8957 39.1485 15.183 38.336 13.5648 37.3926C13.9941 37.0844 14.414 36.7621 14.8198 36.4306C24.6902 40.9045 35.4146 40.9045 45.1671 36.4306C45.5776 36.7621 45.9975 37.0844 46.4221 37.3926C44.799 38.3406 43.0817 39.1532 41.2935 39.8117C42.2324 41.633 43.3176 43.3702 44.5443 45C49.4984 43.5056 54.5374 41.222 59.7321 37.458C60.9777 24.6763 57.6042 13.5944 50.8147 3.76874ZM20.0286 30.6772C17.0656 30.6772 14.6357 27.9966 14.6357 24.7323C14.6357 21.468 17.0137 18.7827 20.0286 18.7827C23.0436 18.7827 25.4734 21.4633 25.4215 24.7323C25.4262 27.9966 23.0436 30.6772 20.0286 30.6772ZM39.9582 30.6772C36.9952 30.6772 34.5653 27.9966 34.5653 24.7323C34.5653 21.468 36.9433 18.7827 39.9582 18.7827C42.9731 18.7827 45.403 21.4633 45.3511 24.7323C45.3511 27.9966 42.9731 30.6772 39.9582 30.6772Z" fill="#5865F2"/>
<path d="M80.6094 11.4799H93.4896C96.5947 11.4799 99.2178 11.9609 101.37 12.9182C103.516 13.8755 105.125 15.2111 106.192 16.9204C107.257 18.6296 107.795 20.5863 107.795 22.7905C107.795 24.9481 107.239 26.9048 106.125 28.656C105.012 30.4119 103.318 31.799 101.039 32.8217C98.7606 33.8444 95.9385 34.3581 92.5654 34.3581H80.6094V11.4799ZM92.433 28.544C94.5233 28.544 96.1325 28.0256 97.255 26.9935C98.3782 25.9568 98.9399 24.5465 98.9399 22.7579C98.9399 21.1 98.4391 19.7784 97.4392 18.7883C96.4392 17.7983 94.9246 17.2986 92.9001 17.2986H88.8708V28.544H92.433Z" fill="#5865F2"/>
<path d="M127.079 34.3301C125.296 33.8725 123.686 33.2093 122.257 32.336V26.9095C123.338 27.7361 124.786 28.4179 126.602 28.955C128.419 29.4874 130.174 29.7535 131.872 29.7535C132.665 29.7535 133.265 29.6508 133.67 29.4453C134.076 29.2398 134.279 28.9923 134.279 28.7074C134.279 28.3806 134.171 28.1097 133.949 27.8902C133.727 27.6707 133.298 27.4886 132.661 27.3344L128.698 26.4518C126.428 25.9288 124.819 25.2049 123.862 24.2756C122.904 23.3509 122.427 22.1367 122.427 20.633C122.427 19.3674 122.842 18.2701 123.682 17.3313C124.517 16.3927 125.706 15.6688 127.249 15.1598C128.792 14.6461 130.594 14.3893 132.665 14.3893C134.515 14.3893 136.208 14.5854 137.752 14.9777C139.295 15.37 140.568 15.8696 141.583 16.4814V21.6137C140.544 21.002 139.355 20.521 137.997 20.1567C136.643 19.7971 135.251 19.6196 133.816 19.6196C131.745 19.6196 130.712 19.9699 130.712 20.6657C130.712 20.9927 130.873 21.2355 131.193 21.3989C131.514 21.5623 132.104 21.7305 132.958 21.908L136.26 22.4964C138.417 22.8653 140.026 23.5145 141.082 24.4391C142.14 25.3638 142.668 26.7321 142.668 28.544C142.668 30.5287 141.795 32.1025 140.045 33.27C138.294 34.4375 135.812 35.0212 132.594 35.0212C130.702 35.0166 128.863 34.7878 127.079 34.3301Z" fill="#5865F2"/>
<path d="M150.463 33.6435C148.572 32.7281 147.142 31.486 146.188 29.9168C145.235 28.3477 144.754 26.5825 144.754 24.621C144.754 22.6597 145.249 20.9038 146.24 19.358C147.231 17.8122 148.684 16.598 150.6 15.7154C152.515 14.8328 154.804 14.3938 157.47 14.3938C160.772 14.3938 163.514 15.0803 165.693 16.4532V22.4355C164.925 21.9125 164.027 21.4875 163.004 21.1606C161.98 20.8337 160.885 20.6702 159.715 20.6702C157.668 20.6702 156.068 21.0392 154.912 21.7817C153.756 22.5242 153.176 23.4909 153.176 24.6911C153.176 25.8679 153.737 26.83 154.86 27.5865C155.984 28.3384 157.611 28.7167 159.748 28.7167C160.848 28.7167 161.933 28.5579 163.004 28.245C164.07 27.9274 164.99 27.5398 165.759 27.0821V32.8682C163.339 34.3066 160.532 35.0258 157.337 35.0258C154.648 35.0164 152.355 34.5588 150.463 33.6435Z" fill="#5865F2"/>
<path d="M173.932 33.6437C172.025 32.7284 170.572 31.4768 169.572 29.8843C168.572 28.2919 168.067 26.5173 168.067 24.5559C168.067 22.5945 168.567 20.8432 169.572 19.3069C170.577 17.7704 172.021 16.5655 173.918 15.6922C175.809 14.8189 178.069 14.3846 180.688 14.3846C183.307 14.3846 185.566 14.8189 187.458 15.6922C189.351 16.5655 190.794 17.7611 191.785 19.2881C192.776 20.8153 193.271 22.5665 193.271 24.5513C193.271 26.5126 192.776 28.2872 191.785 29.8796C190.794 31.4721 189.346 32.7237 187.439 33.639C185.533 34.5543 183.283 35.012 180.683 35.012C178.083 35.012 175.833 34.559 173.932 33.6437ZM183.967 27.8435C184.769 27.0497 185.175 25.9989 185.175 24.6913C185.175 23.3838 184.774 22.3423 183.967 21.5717C183.165 20.7965 182.07 20.4089 180.683 20.4089C179.272 20.4089 178.168 20.7965 177.361 21.5717C176.56 22.347 176.158 23.3838 176.158 24.6913C176.158 25.9989 176.56 27.0497 177.361 27.8435C178.164 28.6375 179.272 29.0391 180.683 29.0391C182.07 29.0344 183.165 28.6375 183.967 27.8435Z" fill="#5865F2"/>
<path d="M213.115 15.5987V22.6598C212.276 22.1133 211.19 21.8425 209.846 21.8425C208.085 21.8425 206.727 22.3703 205.783 23.4256C204.835 24.4811 204.363 26.1249 204.363 28.3478V34.3627H196.271V15.2392H204.198V21.3195C204.637 19.0965 205.35 17.4574 206.331 16.3973C207.308 15.3419 208.571 14.8142 210.11 14.8142C211.275 14.8142 212.276 15.0757 213.115 15.5987Z" fill="#5865F2"/>
<path d="M240 10.826V34.3628H231.908V30.0805C231.224 31.6916 230.186 32.9198 228.79 33.7603C227.393 34.5963 225.666 35.0166 223.618 35.0166C221.788 35.0166 220.193 34.5776 218.829 33.695C217.466 32.8124 216.414 31.6029 215.673 30.0664C214.937 28.53 214.564 26.7928 214.564 24.8501C214.541 22.8467 214.932 21.0487 215.739 19.4562C216.542 17.8637 217.678 16.6216 219.141 15.7295C220.604 14.8376 222.274 14.3893 224.147 14.3893C228.002 14.3893 230.587 16.0471 231.908 19.3581V10.826H240ZM230.701 27.7128C231.526 26.9189 231.937 25.8868 231.937 24.6259C231.937 23.407 231.535 22.4123 230.734 21.6511C229.931 20.8899 228.832 20.507 227.449 20.507C226.086 20.507 224.996 20.8946 224.18 21.6698C223.363 22.445 222.958 23.449 222.958 24.6913C222.958 25.9335 223.363 26.9469 224.18 27.7314C224.996 28.516 226.072 28.9083 227.417 28.9083C228.78 28.9036 229.874 28.5066 230.701 27.7128Z" fill="#5865F2"/>
<path d="M114.614 17.2751C116.841 17.2751 118.648 15.6693 118.648 13.6885C118.648 11.7078 116.841 10.1021 114.614 10.1021C112.385 10.1021 110.58 11.7078 110.58 13.6885C110.58 15.6693 112.385 17.2751 114.614 17.2751Z" fill="#5865F2"/>
<path d="M110.577 19.7457C113.048 20.8011 116.116 20.8478 118.644 19.7457V34.4655H110.577V19.7457Z" fill="#5865F2"/>
</g>
<defs>
<clipPath id="clip0_45_1409">
<rect width="240" height="45" fill="white"/>
</clipPath>
</defs>
</svg>
