<svg width="106" height="106" viewBox="0 0 106 106" fill="none" xmlns="http://www.w3.org/2000/svg">
<rect x="0.673706" y="0.813232" width="104.906" height="104.906" fill="white"/>
<path d="M53.1265 13.266C31.0465 13.266 13.1265 31.186 13.1265 53.266C13.1265 75.346 31.0465 93.266 53.1265 93.266C75.2065 93.266 93.1265 75.346 93.1265 53.266C93.1265 31.186 75.2065 13.266 53.1265 13.266ZM82.9665 41.746L71.8465 46.346C70.8446 43.6505 69.2712 41.2037 67.2343 39.1738C65.1974 37.1438 62.7454 35.5787 60.0465 34.586L64.6465 23.466C73.0465 26.666 79.7265 33.346 82.9665 41.746V41.746ZM53.1265 65.266C46.4865 65.266 41.1265 59.906 41.1265 53.266C41.1265 46.626 46.4865 41.266 53.1265 41.266C59.7665 41.266 65.1265 46.626 65.1265 53.266C65.1265 59.906 59.7665 65.266 53.1265 65.266ZM41.6465 23.426L46.3265 34.546C43.5957 35.5411 41.1147 37.1195 39.0561 39.1712C36.9975 41.2229 35.4108 43.6986 34.4065 46.426L23.2865 41.786C24.8904 37.6106 27.3536 33.8187 30.5164 30.6559C33.6792 27.4931 37.4711 25.0299 41.6465 23.426V23.426ZM23.2865 64.746L34.4065 60.146C35.4038 62.8663 36.9839 65.3355 39.0361 67.3808C41.0883 69.426 43.5629 70.9978 46.2865 71.986L41.6065 83.106C37.44 81.4947 33.6572 79.0286 30.5019 75.8663C27.3465 72.7041 24.8886 68.916 23.2865 64.746V64.746ZM64.6465 83.106L60.0465 71.986C62.758 70.9814 65.2181 69.3982 67.2559 67.3466C69.2937 65.295 70.8602 62.8242 71.8465 60.106L82.9665 64.786C81.3572 68.9472 78.8964 72.7263 75.7416 75.8811C72.5868 79.0359 68.8077 81.4968 64.6465 83.106V83.106Z" fill="#F00303"/>
</svg>
