<svg width="111" height="111" viewBox="0 0 111 111" fill="none" xmlns="http://www.w3.org/2000/svg">
<path d="M35.029 91.9731H87.7373L101.487 105.723V57.5981C101.487 52.5564 97.3623 48.4314 92.3206 48.4314H35.029C29.9873 48.4314 25.8623 52.5564 25.8623 57.5981V82.8064C25.8623 87.8481 29.9873 91.9731 35.029 91.9731Z" fill="#FD9019"/>
<path d="M66.6546 75.4731H58.4046L56.8005 80.2856H51.7588L60.238 57.3689H64.5921L73.0713 80.2856H68.0296L66.6546 75.4731ZM59.5505 71.8064H65.2796L62.5296 63.0981L59.5505 71.8064Z" fill="#FFCE31"/>
<path d="M76.2796 57.5981H23.5713L9.82129 71.3481V18.6398C9.82129 13.5981 13.9463 9.47314 18.988 9.47314H76.2796C81.3213 9.47314 85.4463 13.5981 85.4463 18.6398V48.4315C85.4463 53.4731 81.3213 57.5981 76.2796 57.5981Z" fill="#FFCE31"/>
<path d="M58.863 32.848C58.863 35.1396 58.4046 36.973 57.7171 38.5772C57.0296 40.1813 56.113 41.5563 54.738 42.473L58.6338 45.4522L55.6546 48.2021L50.613 44.3063C50.1546 44.3063 49.4671 44.5355 48.7796 44.5355C47.4046 44.5355 46.0296 44.3063 44.6546 43.848C43.5088 43.3897 42.363 42.473 41.4463 41.5563C40.5296 40.6397 39.8421 39.2646 39.3838 37.8896C38.9255 36.5146 38.6963 34.9105 38.6963 33.0772V32.1605C38.6963 30.3271 38.9255 28.723 39.3838 27.348C39.8421 25.973 40.5296 24.598 41.4463 23.6813C42.363 22.7646 43.2796 21.848 44.6546 21.3896C45.8005 20.9313 47.1755 20.7021 48.7796 20.7021C50.1546 20.7021 51.5296 20.9313 52.9046 21.3896C54.0505 21.848 55.1963 22.7646 56.113 23.6813C57.0296 24.598 57.7171 25.973 58.1755 27.348C58.6338 28.723 58.863 30.3271 58.863 32.1605V32.848ZM53.8213 31.7021C53.8213 29.1813 53.363 27.348 52.4463 26.2021C51.5296 24.8271 50.3838 24.3688 48.7796 24.3688C47.1755 24.3688 45.8005 25.0563 45.113 26.2021C44.1963 27.5771 43.738 29.4105 43.738 31.7021V32.848C43.738 33.9938 43.9671 35.1397 44.1963 36.0563C44.4255 36.973 44.6546 37.8897 45.113 38.348C45.5713 39.0355 46.0296 39.4938 46.7171 39.723C47.4046 39.9522 48.0921 40.1813 48.7796 40.1813C50.3838 40.1813 51.7588 39.4938 52.4463 38.348C53.363 36.973 53.8213 35.1397 53.8213 32.6188V31.7021Z" fill="white"/>
</svg>
