<svg width="251" height="51" viewBox="0 0 251 51" fill="none" xmlns="http://www.w3.org/2000/svg">
<path d="M48.8747 20.1074H30.9672L25.4151 2.74731L19.863 20.1074H1.95557L16.4223 30.8206L10.9484 48.1025L25.4151 37.3893L39.8819 48.1025L34.3298 30.7424L48.8747 20.1074Z" fill="#FFCE31"/>
<path d="M98.9218 20.1074H81.0144L75.4623 2.74731L69.9102 20.1074H52.0027L66.4694 30.8206L60.9955 48.1025L75.4623 37.3893L89.929 48.1025L84.3769 30.7424L98.9218 20.1074Z" fill="#FFCE31"/>
<path d="M148.969 20.1074H131.061L125.509 2.74731L119.957 20.1074H102.05L116.517 30.8206L111.043 48.1025L125.509 37.3893L139.976 48.1025L134.424 30.7424L148.969 20.1074Z" fill="#FFCE31"/>
<path d="M199.016 20.1074H181.109L175.556 2.74731L170.004 20.1074H152.097L166.564 30.8206L161.09 48.1025L175.556 37.3893L190.023 48.1025L184.471 30.7424L199.016 20.1074Z" fill="#FFCE31"/>
<path d="M249.063 20.1074H231.156L225.604 2.74731L220.052 20.1074H202.144L216.611 30.8206L211.137 48.1025L225.604 37.3893L240.07 48.1025L234.518 30.7424L249.063 20.1074Z" fill="#FFCE31"/>
</svg>
