<svg width="66" height="31" viewBox="0 0 66 31" fill="none" xmlns="http://www.w3.org/2000/svg">
<rect x="0.5" y="0.5" width="65" height="30" rx="3.5" fill="#181818"/>
<path d="M11.52 11.9479H13.8V14.2937H15.8852V11.9479H18.1652V19.052H15.8852V16.677H13.8V19.052H11.52V11.9479ZM21.1628 14.3041H19.152V11.9483H25.4464V14.3041H23.4384V19.0529H21.1584V14.3041H21.1628ZM26.4456 11.9479H28.8228L30.2852 14.4479L31.746 11.9479H34.12V19.052H31.8496V15.5304L30.2816 18.0566H30.2424L28.68 15.5308V19.0525H26.4496L26.4456 11.9479ZM35.2576 11.9479H37.5376V16.7083H40.7436V19.0566H35.258L35.2576 11.9479Z" fill="white"/>
<path d="M41.828 8.02502H54.4828L53.33 21.4784L48.148 22.975L42.98 21.4804L41.828 8.02502Z" fill="#E44D26"/>
<path d="M52.344 20.622L53.3292 9.12537H48.16V21.8312L52.344 20.622Z" fill="#F16529"/>
<path d="M46.06 14.1159L45.9152 12.4259H48.16V10.7759H44.188L44.6152 15.7663H48.16V14.1163L46.06 14.1159ZM44.6816 16.5917L44.9036 19.1834L48.1488 20.1217L48.156 20.1196V18.403L48.1492 18.405L46.3892 17.905L46.2764 16.5884H45.4192L44.6816 16.5917Z" fill="#EBEBEB"/>
<path d="M51.7944 14.5583L51.8332 14.1149H48.1508V15.7649H50.1016L49.9176 17.9054L48.1508 18.402V20.1187L51.3988 19.1812L51.4228 18.902L51.7944 14.5583ZM48.1544 12.4258H51.9812L52.1232 10.7716H48.1544V12.4174V12.4258Z" fill="white"/>
<rect x="0.5" y="0.5" width="65" height="30" rx="3.5" stroke="#CCCCCC"/>
</svg>
