<svg width="193" height="39" viewBox="0 0 193 39" fill="none" xmlns="http://www.w3.org/2000/svg">
<path fill-rule="evenodd" clip-rule="evenodd" d="M37.9987 2.73476L40.8084 2.79582L40.7848 4.63884L37.9624 4.64026L37.9982 2.73476H37.9987ZM34.3886 2.73192L37.1979 2.80197L37.1804 4.63694L34.3533 4.64546L34.3886 2.73192ZM41.6503 2.74896L44.5298 2.74754L44.527 4.65162L41.6456 4.63079L41.6508 2.74849L41.6503 2.74896ZM47.499 30.8372C45.3675 30.6096 47.0592 33.3169 44.7606 34.0164C44.1471 34.2033 44.4119 33.9743 44.032 34.4821C43.6766 34.9573 43.3019 35.3359 42.6177 35.6048C41.4068 36.0804 34.8459 35.8457 33.0187 35.8457C26.438 35.8457 19.8573 35.8457 13.2767 35.8457C6.39207 35.8457 3.02363 36.9797 3.02599 31.4653C3.02976 23.264 2.90659 14.8408 3.03212 6.70099L44.6464 6.64846L44.6502 7.78484C44.9121 8.40533 45.7431 8.1081 46.1588 9.47499C46.4472 10.4239 46.3198 11.4576 47.4995 11.345C47.5538 9.4499 47.7935 3.7888 47.0885 2.50711C45.8516 0.258946 42.6762 0.864766 39.422 0.864766C33.1523 0.864766 26.883 0.864766 20.6133 0.864766C17.8385 0.864766 3.46958 0.53109 2.11097 1.14448C-0.476948 2.31258 0.170031 5.26027 0.170031 8.58708V27.4513C0.170031 29.3842 -0.113582 35.335 0.531037 36.6214C1.7207 38.9959 4.95984 38.3949 8.07393 38.3949H36.3532C46.862 38.3949 47.7709 39.6373 47.4986 30.8363L47.499 30.8372Z" fill="#5D5D5D"/>
<path fill-rule="evenodd" clip-rule="evenodd" d="M42.1666 14.3839C46.0074 13.7506 49.256 16.5653 49.7524 19.8481C50.3616 23.8759 47.6185 26.9774 44.2741 27.524C40.387 28.1597 37.1422 25.3701 36.6311 22.0925C35.9794 17.9085 38.8581 14.9291 42.1666 14.3834V14.3839ZM33.3764 14.2064C33.5199 14.9372 34.6487 15.2898 34.3306 16.8512C34.1168 17.8995 33.4184 18.2981 32.3694 18.4893C30.9513 18.7482 30.9273 19.1552 30.831 20.6229C30.5667 24.6511 33.0636 22.4475 34.0838 24.5177C35.3273 27.0399 31.7644 26.9499 34.2183 29.4594C37.2012 32.5098 36.3518 29.4258 39.0246 29.8318C40.0156 29.9824 40.5899 30.7543 40.7117 31.7326C40.8896 33.1605 41.344 33.2817 42.755 33.3044C47.3065 33.3783 44.3024 31.3473 46.6194 30.1196C48.9162 28.9028 49.2975 32.2906 51.6343 29.9346C54.6706 26.8728 51.4664 27.6329 52.0114 25.0956C52.6461 22.1384 55.4742 24.9734 55.47 21.2973C55.4686 20.161 55.5653 19.0161 54.5668 18.6824C53.5423 18.3402 52.8132 18.6199 52.2313 17.4121C50.9978 14.8525 54.6937 15.0957 51.9652 12.3284C49.1705 9.49379 49.7991 12.6578 47.0611 12.0335C46.0579 11.8049 45.7294 10.952 45.5827 9.92638C45.401 8.657 44.6039 8.62624 43.2897 8.62624C42.1411 8.62624 41.1322 8.56045 40.8764 9.66134C40.6234 10.7499 40.5446 11.5252 39.5333 11.919C38.3824 12.3672 37.6377 11.8281 36.9558 11.324C35.6019 10.324 33.1938 13.2783 33.3764 14.2064Z" fill="#FD9019"/>
<path fill-rule="evenodd" clip-rule="evenodd" d="M47.3228 22.1002C45.5423 27.7457 37.5082 25.125 38.9815 19.7583C39.509 17.8358 41.6019 15.9932 44.2517 16.7093C46.2181 17.2408 48.1661 19.4261 47.3228 22.1002ZM42.1663 14.3845C38.8578 14.9302 35.9792 17.9096 36.6309 22.0936C37.1415 25.3716 40.3868 28.1608 44.2739 27.5251C47.6182 26.9785 50.3614 23.8769 49.7522 19.8492C49.2557 16.5664 46.0071 13.7512 42.1663 14.385V14.3845Z" fill="#F7F7F7"/>
<path fill-rule="evenodd" clip-rule="evenodd" d="M42.6541 18.7399C45.4756 17.9443 46.7917 22.4524 43.6998 23.195C40.9519 23.8548 39.5541 19.614 42.6541 18.7399ZM47.3236 22.1003C48.1668 19.4261 46.2188 17.2409 44.2524 16.7094C41.6027 15.9933 39.5098 17.8359 38.9822 19.7584C37.5085 25.1251 45.5431 27.7458 47.3236 22.1003Z" fill="#707070"/>
<path fill-rule="evenodd" clip-rule="evenodd" d="M42.6539 18.7398C39.554 19.6139 40.9523 23.8547 43.6997 23.1949C46.7911 22.4523 45.4754 17.9441 42.6539 18.7398Z" fill="#F7F7F7"/>
<path fill-rule="evenodd" clip-rule="evenodd" d="M41.6445 4.63081L44.526 4.65163L44.5293 2.74756L41.6497 2.74898L41.6445 4.63081Z" fill="#F7F7F7"/>
<path fill-rule="evenodd" clip-rule="evenodd" d="M34.353 4.64548L37.1797 4.63696L37.1977 2.80198L34.3879 2.73193L34.353 4.64548Z" fill="#F7F7F7"/>
<path fill-rule="evenodd" clip-rule="evenodd" d="M37.9629 4.64035L40.7853 4.63894L40.8085 2.79639L37.9988 2.73486L37.9629 4.64035Z" fill="#F7F7F7"/>
<path fill-rule="evenodd" clip-rule="evenodd" d="M20.1304 20.2632C21.2346 20.2674 22.1383 20.4643 22.6867 19.7918C23.0897 17.9828 21.5532 18.2999 20.1341 18.3103L20.1304 20.2632Z" fill="#F7F7F7"/>
<path fill-rule="evenodd" clip-rule="evenodd" d="M11.9453 21.4703L14.0217 21.5086C14.0151 21.0642 13.8046 20.7726 13.5894 20.3022C13.5073 20.1228 13.4162 19.9075 13.3521 19.7498C13.3157 19.6599 13.278 19.5406 13.2388 19.463L13.009 19.1279L11.9453 21.4708V21.4703Z" fill="#F7F7F7"/>
<path d="M61.0166 27.6187V11.978H65.668C66.3125 11.9852 66.9427 12.0711 67.5586 12.2358C68.1745 12.3934 68.7223 12.6405 69.2021 12.9771C69.682 13.3136 70.0651 13.7433 70.3516 14.2661C70.638 14.7889 70.7777 15.4155 70.7705 16.146C70.7633 16.5542 70.6953 16.9266 70.5664 17.2632C70.4447 17.5998 70.2728 17.9041 70.0508 18.1763C69.8359 18.4412 69.5817 18.674 69.2881 18.8745C68.9945 19.075 68.6829 19.2469 68.3535 19.3901C68.7689 19.5119 69.1484 19.6873 69.4922 19.9165C69.8431 20.1385 70.1439 20.4106 70.3945 20.7329C70.6452 21.048 70.8385 21.4061 70.9746 21.8071C71.1178 22.2082 71.1895 22.6414 71.1895 23.1069C71.1966 23.8374 71.057 24.4819 70.7705 25.0405C70.484 25.5991 70.1009 26.0682 69.6211 26.4478C69.1413 26.8201 68.5863 27.1066 67.9561 27.3071C67.333 27.5076 66.6885 27.6115 66.0225 27.6187H61.0166ZM63.0146 20.3032V25.9321H66.0762C66.4915 25.925 66.8854 25.8569 67.2578 25.728C67.6302 25.592 67.9596 25.4058 68.2461 25.1694C68.5326 24.9331 68.7581 24.6431 68.9229 24.2993C69.0947 23.9556 69.1807 23.5653 69.1807 23.1284C69.1878 22.6844 69.1126 22.2905 68.9551 21.9468C68.8047 21.603 68.5934 21.313 68.3213 21.0767C68.0492 20.8332 67.7305 20.647 67.3652 20.5181C67 20.3892 66.6061 20.3175 66.1836 20.3032H63.0146ZM63.0146 18.6489H65.7861C66.1585 18.6418 66.5238 18.5845 66.8818 18.4771C67.2399 18.3625 67.5586 18.2013 67.8379 17.9937C68.1172 17.7788 68.3428 17.5174 68.5146 17.2095C68.6865 16.9015 68.7725 16.5435 68.7725 16.1353C68.7725 15.6984 68.6865 15.326 68.5146 15.0181C68.3499 14.7101 68.1243 14.4595 67.8379 14.2661C67.5586 14.0656 67.2327 13.9188 66.8604 13.8257C66.4951 13.7326 66.1191 13.6825 65.7324 13.6753H63.0146V18.6489ZM74.5625 15.9956H80.5029V25.8999H84.2949V27.6187H74.5625V25.8999H78.5156V17.7251H74.5625V15.9956ZM78.2578 12.9448C78.2578 12.6154 78.3545 12.3397 78.5479 12.1177C78.7484 11.8885 79.0492 11.7739 79.4502 11.7739C79.8441 11.7739 80.1413 11.8885 80.3418 12.1177C80.5423 12.3397 80.6426 12.6154 80.6426 12.9448C80.6426 13.2671 80.5423 13.5356 80.3418 13.7505C80.1413 13.9653 79.8441 14.0728 79.4502 14.0728C79.0492 14.0728 78.7484 13.9653 78.5479 13.7505C78.3545 13.5356 78.2578 13.2671 78.2578 12.9448ZM87.0986 21.7104C87.0986 20.8439 87.2025 20.049 87.4102 19.3257C87.625 18.5952 87.9329 17.9686 88.334 17.4458C88.735 16.923 89.222 16.5148 89.7949 16.2212C90.3678 15.9276 91.016 15.7808 91.7393 15.7808C92.4554 15.7808 93.082 15.9097 93.6191 16.1675C94.1634 16.4181 94.6253 16.7834 95.0049 17.2632L95.1016 15.9956H96.9062V27.3716C96.9062 28.1379 96.7845 28.8182 96.541 29.4126C96.3047 30.007 95.9681 30.5119 95.5312 30.9272C95.1016 31.3426 94.5859 31.6577 93.9844 31.8726C93.3828 32.0874 92.7168 32.1948 91.9863 32.1948C91.6855 32.1948 91.3418 32.159 90.9551 32.0874C90.5684 32.0229 90.1745 31.9119 89.7734 31.7544C89.3796 31.604 88.9964 31.3999 88.624 31.1421C88.2588 30.8843 87.9437 30.5656 87.6787 30.186L88.71 28.9937C88.9535 29.2873 89.2041 29.5343 89.4619 29.7349C89.7197 29.9425 89.9811 30.1073 90.2461 30.229C90.5111 30.3507 90.776 30.4367 91.041 30.4868C91.306 30.5441 91.571 30.5728 91.8359 30.5728C92.3086 30.5728 92.7347 30.5047 93.1143 30.3687C93.4938 30.2326 93.8161 30.0321 94.0811 29.7671C94.3532 29.5093 94.5609 29.187 94.7041 28.8003C94.8473 28.4136 94.9189 27.9696 94.9189 27.4683V26.4692C94.5322 26.9132 94.0739 27.2534 93.5439 27.4897C93.0212 27.7189 92.4124 27.8335 91.7178 27.8335C91.0088 27.8335 90.3678 27.6831 89.7949 27.3823C89.222 27.0815 88.735 26.6662 88.334 26.1362C87.9401 25.6063 87.6357 24.9832 87.4209 24.2671C87.2061 23.5438 87.0986 22.7668 87.0986 21.936V21.7104ZM89.0859 21.936C89.0859 22.5018 89.1432 23.0389 89.2578 23.5474C89.3796 24.0558 89.5658 24.5034 89.8164 24.8901C90.0742 25.2769 90.4001 25.5848 90.7939 25.814C91.1878 26.036 91.6605 26.147 92.2119 26.147C92.5557 26.147 92.8636 26.1076 93.1357 26.0288C93.415 25.9429 93.6621 25.8247 93.877 25.6743C94.099 25.5239 94.2959 25.3449 94.4678 25.1372C94.6396 24.9295 94.79 24.7004 94.9189 24.4497V19.1216C94.79 18.8781 94.6396 18.6561 94.4678 18.4556C94.2959 18.255 94.099 18.0832 93.877 17.9399C93.6549 17.7896 93.4079 17.675 93.1357 17.5962C92.8636 17.5103 92.5628 17.4673 92.2334 17.4673C91.6748 17.4673 91.195 17.5819 90.7939 17.811C90.4001 18.0402 90.0742 18.3517 89.8164 18.7456C89.5658 19.1323 89.3796 19.5835 89.2578 20.0991C89.1432 20.6076 89.0859 21.1447 89.0859 21.7104V21.936ZM109.378 20.7114H102.868V27.6187H100.859V11.978H110.463V13.6753H102.868V19.0249H109.378V20.7114ZM121.527 27.6187C121.449 27.4683 121.384 27.2821 121.334 27.0601C121.291 26.8309 121.259 26.5946 121.237 26.3511C121.037 26.5516 120.811 26.7414 120.561 26.9204C120.317 27.0994 120.045 27.257 119.744 27.3931C119.451 27.5291 119.135 27.6366 118.799 27.7153C118.462 27.7941 118.104 27.8335 117.725 27.8335C117.109 27.8335 116.55 27.744 116.049 27.5649C115.555 27.3859 115.132 27.146 114.781 26.8452C114.438 26.5373 114.169 26.1756 113.976 25.7603C113.789 25.3377 113.696 24.883 113.696 24.396C113.696 23.7586 113.822 23.2 114.072 22.7202C114.33 22.2404 114.692 21.8429 115.157 21.5278C115.623 21.2056 116.181 20.9657 116.833 20.8081C117.492 20.6506 118.226 20.5718 119.035 20.5718H121.205V19.6587C121.205 19.3078 121.141 18.9927 121.012 18.7134C120.883 18.4341 120.7 18.1978 120.464 18.0044C120.228 17.8039 119.938 17.6499 119.594 17.5425C119.257 17.4351 118.878 17.3813 118.455 17.3813C118.061 17.3813 117.707 17.4315 117.392 17.5317C117.084 17.632 116.822 17.7645 116.607 17.9292C116.393 18.0939 116.224 18.2909 116.103 18.52C115.988 18.742 115.931 18.9748 115.931 19.2183H113.933C113.94 18.7957 114.047 18.3804 114.255 17.9722C114.47 17.564 114.774 17.1987 115.168 16.8765C115.569 16.547 116.052 16.2821 116.618 16.0815C117.191 15.881 117.839 15.7808 118.562 15.7808C119.221 15.7808 119.834 15.8631 120.399 16.0278C120.965 16.1854 121.452 16.4289 121.86 16.7583C122.276 17.0806 122.602 17.4852 122.838 17.9722C123.074 18.4591 123.192 19.0285 123.192 19.6802V25.0835C123.192 25.4702 123.228 25.882 123.3 26.3188C123.371 26.7485 123.472 27.1245 123.601 27.4468V27.6187H121.527ZM118.015 26.104C118.401 26.104 118.763 26.0539 119.1 25.9536C119.436 25.8534 119.741 25.7209 120.013 25.5562C120.292 25.3914 120.532 25.2052 120.732 24.9976C120.933 24.7827 121.09 24.5607 121.205 24.3315V21.979H119.357C118.197 21.979 117.295 22.1509 116.65 22.4946C116.006 22.8384 115.684 23.3791 115.684 24.1167C115.684 24.4032 115.73 24.6681 115.823 24.9116C115.924 25.1551 116.07 25.3664 116.264 25.5454C116.457 25.7173 116.701 25.8534 116.994 25.9536C117.288 26.0539 117.628 26.104 118.015 26.104ZM134.826 24.5356C134.826 24.2993 134.78 24.0881 134.687 23.9019C134.593 23.7085 134.436 23.533 134.214 23.3755C133.992 23.2179 133.698 23.0747 133.333 22.9458C132.968 22.8097 132.513 22.688 131.969 22.5806C131.303 22.4445 130.694 22.2798 130.143 22.0864C129.598 21.8931 129.129 21.6639 128.735 21.3989C128.349 21.1268 128.048 20.8117 127.833 20.4536C127.618 20.0884 127.511 19.6659 127.511 19.186C127.511 18.7134 127.622 18.2729 127.844 17.8647C128.066 17.4494 128.377 17.0877 128.778 16.7798C129.179 16.4718 129.656 16.2284 130.207 16.0493C130.766 15.8703 131.378 15.7808 132.044 15.7808C132.76 15.7808 133.405 15.8739 133.978 16.0601C134.55 16.2463 135.037 16.5041 135.438 16.8335C135.84 17.1629 136.147 17.5496 136.362 17.9937C136.584 18.4305 136.695 18.9032 136.695 19.4116H134.708C134.708 19.161 134.644 18.9175 134.515 18.6812C134.386 18.4377 134.207 18.2228 133.978 18.0366C133.748 17.8504 133.469 17.7 133.14 17.5854C132.817 17.4709 132.452 17.4136 132.044 17.4136C131.621 17.4136 131.249 17.4601 130.927 17.5532C130.612 17.6463 130.347 17.7716 130.132 17.9292C129.924 18.0868 129.767 18.2694 129.659 18.4771C129.552 18.6847 129.498 18.8996 129.498 19.1216C129.498 19.3507 129.541 19.5549 129.627 19.7339C129.713 19.9129 129.86 20.0741 130.067 20.2173C130.282 20.3605 130.565 20.4894 130.916 20.604C131.274 20.7186 131.725 20.8296 132.27 20.937C132.986 21.0874 133.627 21.2629 134.192 21.4634C134.758 21.6567 135.234 21.8931 135.621 22.1724C136.008 22.4445 136.301 22.7632 136.502 23.1284C136.71 23.4937 136.813 23.9162 136.813 24.396C136.813 24.9116 136.695 25.3807 136.459 25.8032C136.23 26.2257 135.908 26.5874 135.492 26.8882C135.077 27.189 134.579 27.4217 133.999 27.5864C133.419 27.7511 132.785 27.8335 132.098 27.8335C131.31 27.8335 130.608 27.7297 129.992 27.522C129.376 27.3071 128.854 27.0278 128.424 26.6841C128.001 26.3332 127.675 25.9285 127.446 25.4702C127.224 25.0119 127.113 24.5356 127.113 24.0415H129.101C129.129 24.4497 129.237 24.7935 129.423 25.0728C129.616 25.3521 129.853 25.5776 130.132 25.7495C130.418 25.9214 130.733 26.0431 131.077 26.1147C131.421 26.1864 131.761 26.2222 132.098 26.2222C132.936 26.2222 133.598 26.0682 134.085 25.7603C134.572 25.4523 134.819 25.0441 134.826 24.5356ZM145.021 13.1812V15.9956H149.446V17.5317H145.021V23.8481C145.021 24.2993 145.078 24.6717 145.192 24.9653C145.307 25.259 145.465 25.4953 145.665 25.6743C145.866 25.8462 146.095 25.9679 146.353 26.0396C146.618 26.1112 146.897 26.147 147.19 26.147C147.405 26.147 147.627 26.1362 147.856 26.1147C148.086 26.0861 148.308 26.0539 148.522 26.0181C148.744 25.9823 148.949 25.9465 149.135 25.9106C149.328 25.8677 149.486 25.8319 149.607 25.8032L149.887 27.2104C149.722 27.3107 149.521 27.4002 149.285 27.479C149.049 27.5506 148.791 27.6115 148.512 27.6616C148.232 27.7189 147.935 27.7619 147.62 27.7905C147.312 27.8192 147.004 27.8335 146.696 27.8335C146.181 27.8335 145.697 27.7619 145.246 27.6187C144.802 27.4683 144.415 27.2355 144.086 26.9204C143.757 26.5981 143.495 26.1864 143.302 25.6851C143.116 25.1766 143.022 24.5643 143.022 23.8481V17.5317H139.972V15.9956H143.022V13.1812H145.021ZM160.994 23.5688H155.773L154.517 27.6187H152.529L157.578 11.978H159.243L164.206 27.6187H162.229L160.994 23.5688ZM156.311 21.8394H160.468L158.405 15.0503L156.311 21.8394ZM168.911 21.3452V27.6187H166.924V11.978H171.994C172.696 11.9924 173.358 12.1034 173.981 12.311C174.612 12.5187 175.163 12.8195 175.636 13.2134C176.108 13.6073 176.481 14.0942 176.753 14.6743C177.032 15.2544 177.172 15.9204 177.172 16.6724C177.172 17.4243 177.032 18.0903 176.753 18.6704C176.481 19.2433 176.108 19.7267 175.636 20.1206C175.163 20.5145 174.612 20.8153 173.981 21.0229C173.358 21.2306 172.696 21.3381 171.994 21.3452H168.911ZM168.911 19.7124H171.994C172.452 19.7052 172.875 19.6336 173.262 19.4976C173.648 19.3543 173.985 19.1538 174.271 18.896C174.558 18.6382 174.78 18.3267 174.938 17.9614C175.102 17.589 175.185 17.1665 175.185 16.6938C175.185 16.2212 175.102 15.7951 174.938 15.4155C174.78 15.036 174.558 14.7137 174.271 14.4487C173.992 14.1838 173.656 13.9797 173.262 13.8364C172.875 13.6932 172.452 13.618 171.994 13.6108H168.911V19.7124ZM179.954 11.978H189.407V13.7075H185.658V25.8999H189.407V27.6187H179.954V25.8999H183.617V13.7075H179.954V11.978Z" fill="#181818"/>
</svg>
