<svg width="106" height="106" viewBox="0 0 106 106" fill="none" xmlns="http://www.w3.org/2000/svg">
<rect x="0.673706" y="0.140869" width="104.906" height="104.906" fill="white"/>
<path d="M89.75 89.7446H16.25V24.4113C16.25 19.9196 19.925 16.2446 24.4167 16.2446H81.5833C86.075 16.2446 89.75 19.9196 89.75 24.4113V89.7446Z" fill="#90CAF9"/>
<path d="M16.25 89.7446H89.75V93.828H16.25V89.7446Z" fill="#64B5F6"/>
<path d="M67.2917 59.1196H79.5417V69.328H67.2917V59.1196Z" fill="#1565C0"/>
<path d="M46.875 59.1196H59.125V69.328H46.875V59.1196Z" fill="#1565C0"/>
<path d="M26.4584 59.1196H38.7084V69.328H26.4584V59.1196Z" fill="#1565C0"/>
<path d="M67.2917 75.453H79.5417V85.6613H67.2917V75.453Z" fill="#1565C0"/>
<path d="M26.4584 75.453H38.7084V85.6613H26.4584V75.453Z" fill="#1565C0"/>
<path d="M67.2917 42.7864H79.5417V52.9947H67.2917V42.7864Z" fill="#1565C0"/>
<path d="M46.875 42.7864H59.125V52.9947H46.875V42.7864Z" fill="#1565C0"/>
<path d="M26.4584 42.7864H38.7084V52.9947H26.4584V42.7864Z" fill="#1565C0"/>
<path d="M67.2917 26.453H79.5417V36.6613H67.2917V26.453Z" fill="#1565C0"/>
<path d="M46.875 26.453H59.125V36.6613H46.875V26.453Z" fill="#1565C0"/>
<path d="M26.4584 26.453H38.7084V36.6613H26.4584V26.453Z" fill="#1565C0"/>
<path d="M46.875 75.453H59.125V93.828H46.875V75.453Z" fill="#1565C0"/>
</svg>
