<svg width="101" height="27" viewBox="0 0 101 27" fill="none" xmlns="http://www.w3.org/2000/svg">
<rect x="0.862305" y="0.743408" width="99" height="25" rx="3.5" fill="#181818"/>
<path d="M50.3622 22.9635C60.9763 22.9635 69.5808 18.6117 69.5808 13.2435C69.5808 7.87524 60.9763 3.52344 50.3622 3.52344C39.748 3.52344 31.1436 7.87524 31.1436 13.2435C31.1436 18.6117 39.748 22.9635 50.3622 22.9635Z" fill="#6181B6"/>
<path d="M54.2535 16.3847L55.2085 11.4885C55.4256 10.3836 55.2447 9.56045 54.6733 9.04038C54.1234 8.5349 53.1905 8.28932 51.816 8.28932H50.1672L50.6371 5.86296C50.6517 5.76908 50.6302 5.67519 50.5723 5.60306C50.5144 5.53093 50.4278 5.48743 50.3335 5.48743H48.0551C47.9031 5.48743 47.7801 5.5959 47.7512 5.74017L46.7386 10.9395C46.6445 10.3545 46.4203 9.84898 46.0588 9.43738C45.3934 8.67201 44.33 8.28932 42.9194 8.28932H38.5C38.348 8.28932 38.225 8.39779 38.1961 8.54206L36.1419 19.0635C36.1275 19.1577 36.149 19.2516 36.207 19.3237C36.2649 19.3958 36.3515 19.4393 36.4458 19.4393H38.746C38.8979 19.4393 39.0209 19.3306 39.0499 19.1866L39.549 16.6372H41.256C42.1528 16.6372 42.9051 16.5433 43.4983 16.3484C44.0986 16.1532 44.6554 15.8211 45.1402 15.3663C45.5379 15.0051 45.8635 14.6009 46.1095 14.1604L45.6973 16.2619C45.6826 16.3555 45.7044 16.4497 45.7623 16.5215C45.8203 16.5939 45.9071 16.6372 46.0012 16.6372H48.2796C48.4315 16.6372 48.5545 16.5287 48.5835 16.3844L49.7047 10.6075H51.2672C51.9324 10.6075 52.1279 10.7374 52.1787 10.7952C52.2294 10.8459 52.3306 11.0337 52.2148 11.6041L51.3249 16.2691C51.3103 16.3632 51.332 16.4568 51.39 16.529C51.4479 16.6011 51.5345 16.6446 51.6285 16.6446H53.9433C54.0947 16.6374 54.2246 16.5364 54.2535 16.3847ZM43.693 12.3406C43.5485 13.0771 43.2807 13.5969 42.8899 13.9003C42.4923 14.2037 41.8627 14.3551 41.0095 14.3551H39.9894L40.7274 10.5711H42.0436C43.0129 10.5711 43.4034 10.7807 43.5554 10.9538C43.7727 11.1925 43.8234 11.6691 43.693 12.3406Z" fill="white"/>
<path d="M63.9968 9.43762C63.3313 8.67224 62.268 8.28955 60.8574 8.28955H56.4382C56.2863 8.28955 56.1633 8.39803 56.1343 8.54229L54.087 19.0712C54.0724 19.1648 54.0945 19.259 54.1521 19.3308C54.21 19.4032 54.2969 19.4465 54.3906 19.4465H56.6911C56.8431 19.4465 56.9658 19.3383 56.995 19.1937L57.4941 16.6446H59.2012C60.098 16.6446 60.8502 16.5507 61.4434 16.3555C62.0441 16.1608 62.6008 15.8285 63.0854 15.3737C63.4905 14.9982 63.8305 14.5794 64.0836 14.1243C64.3368 13.6695 64.5174 13.164 64.6261 12.6222C64.8795 11.2789 64.6696 10.2104 63.9968 9.43762ZM61.6172 12.3405C61.4729 13.077 61.2052 13.5968 60.8147 13.9002C60.4167 14.2036 59.7874 14.355 58.9339 14.355H57.9141L58.6518 10.5711H59.9683C60.9377 10.5711 61.3282 10.7806 61.4798 10.9538C61.704 11.1925 61.7473 11.6691 61.6172 12.3405Z" fill="white"/>
<rect x="0.862305" y="0.743408" width="99" height="25" rx="3.5" stroke="#CCCCCC"/>
</svg>
