<svg width="101" height="27" viewBox="0 0 101 27" fill="none" xmlns="http://www.w3.org/2000/svg">
<rect x="0.862305" y="1.49341" width="99" height="25" rx="3.5" fill="#181818"/>
<g clip-path="url(#clip0_189_467)">
<path d="M41.3868 14.3605C41.3868 12.037 40.7485 10.8441 39.4716 10.7789C38.9634 10.754 38.4676 10.8379 37.985 11.0324C37.5998 11.1754 37.3406 11.3171 37.2043 11.4602V17.0061C38.021 17.538 38.7462 17.7853 39.3787 17.7464C40.7168 17.6543 41.3868 16.5269 41.3868 14.3605ZM42.9618 14.4568C42.9618 15.6372 42.6951 16.6171 42.1585 17.3962C41.5606 18.278 40.7319 18.7321 39.6724 18.757C38.8737 18.7834 38.0508 18.5238 37.2041 17.9794V23.0199L35.8344 22.5128V11.3247C36.0591 11.0386 36.3485 10.7929 36.699 10.5844C37.5144 10.0914 38.5048 9.83799 39.6708 9.82554L39.6902 9.84564C40.7558 9.83176 41.5769 10.2859 42.1539 11.2065C42.692 12.051 42.9618 13.1335 42.9618 14.4568ZM51.333 17.7649C51.333 19.3482 51.1802 20.4445 50.8745 21.0542C50.5673 21.6637 49.9828 22.1505 49.1196 22.513C48.4198 22.7991 47.6628 22.9546 46.8507 22.9811L46.6243 22.0854C47.4501 21.9689 48.0315 21.8521 48.3687 21.7355C49.0326 21.5022 49.4882 21.1446 49.7385 20.6655C49.9393 20.2752 50.0381 19.5302 50.0381 18.4277V18.0575C49.1015 18.4993 48.1199 18.7186 47.0935 18.7186C46.419 18.7186 45.8242 18.4993 45.3116 18.0575C44.7361 17.577 44.4484 16.9674 44.4484 16.2287V10.3123L45.8182 9.82554V15.7803C45.8182 16.4163 46.0159 16.9063 46.4115 17.25C46.8071 17.5937 47.3197 17.7587 47.9476 17.7461C48.5755 17.732 49.2483 17.4801 49.9631 16.9871V10.04H51.3328V17.7649H51.333ZM56.6799 18.6793C56.5299 18.6925 56.3794 18.6992 56.2288 18.6994C55.4541 18.6994 54.85 18.5083 54.4186 18.1241C53.9884 17.74 53.7727 17.2098 53.7727 16.5331V10.9343H52.8345V10.0401H53.7727V7.66531L55.1409 7.15983V10.0401H56.6799V10.9343H55.1409V16.4942C55.1409 17.0278 55.2786 17.4056 55.5543 17.6266C55.7911 17.8085 56.1673 17.9127 56.6797 17.9391V18.6793H56.6799ZM64.9733 18.5627H63.6035V13.0759C63.6035 12.5176 63.4777 12.037 63.2274 11.6359C62.9382 11.1816 62.5367 10.9546 62.021 10.9546C61.3931 10.9546 60.6079 11.2982 59.6652 11.9856V18.5627H58.2956V5.44763L59.6652 4.99976V10.9732C60.5404 10.3122 61.4965 9.98095 62.5351 9.98095C63.2605 9.98095 63.8478 10.2345 64.2975 10.74C64.7486 11.2453 64.9734 11.8752 64.9734 12.628V18.5627H64.9733ZM72.2534 14.1366C72.2534 13.2439 72.0901 12.5067 71.7648 11.9235C71.3781 11.2129 70.7773 10.8379 69.965 10.7992C68.4634 10.8893 67.714 12.0059 67.714 14.146C67.714 15.1273 67.8699 15.9469 68.1846 16.6048C68.5862 17.4431 69.1887 17.8568 69.9921 17.8428C71.4996 17.8302 72.2534 16.5954 72.2534 14.1366ZM73.7535 14.1458C73.7535 15.4166 73.4403 16.4741 72.8154 17.3185C72.1273 18.2642 71.1775 18.7384 69.965 18.7384C68.7632 18.7384 67.8265 18.264 67.1506 17.3185C66.5377 16.4741 66.2318 15.4166 66.2318 14.1458C66.2318 12.9516 66.563 11.9468 67.2255 11.1288C67.9254 10.261 68.8454 9.82554 69.983 9.82554C71.1203 9.82554 72.0465 10.261 72.7599 11.1288C73.4224 11.9468 73.7535 12.9516 73.7535 14.1458ZM81.6061 18.5627H80.2363V12.7649C80.2363 12.1289 80.0522 11.6327 79.6835 11.275C79.3148 10.9188 78.8231 10.7462 78.2103 10.7601C77.56 10.7725 76.9409 10.9933 76.3536 11.4211V18.5627H74.9838V11.2454C75.7721 10.65 76.4975 10.261 77.1598 10.0791C77.7847 9.90963 78.3362 9.82554 78.8113 9.82554C79.1363 9.82554 79.4422 9.85809 79.7299 9.92351C80.2679 10.0526 80.7056 10.2921 81.0426 10.6436C81.4188 11.0324 81.6061 11.4988 81.6061 12.0448V18.5627Z" fill="white"/>
<path d="M22.3061 5.50016C21.6013 5.50351 20.9283 5.56589 20.3363 5.67471C18.5918 5.99462 18.2751 6.66396 18.2751 7.89861V9.52912H22.3974V10.0726H16.7279C15.5299 10.0726 14.4807 10.8199 14.1526 12.2416C13.7741 13.8711 13.7574 14.888 14.1526 16.5895C14.4457 17.8561 15.1456 18.7585 16.3436 18.7585H17.761V16.8039C17.761 15.3919 18.9382 14.1464 20.3363 14.1464H24.4538C25.6 14.1464 26.515 13.167 26.515 11.9724V7.89845C26.515 6.73911 25.5725 5.86809 24.4538 5.67455C23.7455 5.55233 23.0109 5.49665 22.3061 5.50016ZM20.0767 6.81139C20.5026 6.81139 20.8502 7.17821 20.8502 7.62912C20.8502 8.07843 20.5025 8.4419 20.0767 8.4419C19.6495 8.4419 19.3032 8.07859 19.3032 7.62912C19.3032 7.17821 19.6495 6.81139 20.0767 6.81139Z" fill="url(#paint0_linear_189_467)"/>
<path d="M27.029 10.0724V11.9721C27.029 13.4449 25.8258 14.6845 24.4537 14.6845H20.3362C19.2083 14.6845 18.275 15.6862 18.275 16.8585V20.9321C18.275 22.0916 19.2464 22.7736 20.3362 23.1061C21.641 23.5043 22.8924 23.5763 24.4537 23.1061C25.4915 22.7943 26.5149 22.1666 26.5149 20.9321V19.3018H22.3973V18.7583H28.576C29.7742 18.7583 30.2205 17.891 30.6372 16.5893C31.0677 15.2494 31.0494 13.9605 30.6372 12.2414C30.3411 11.0037 29.7756 10.0724 28.576 10.0724H27.029ZM24.7131 20.3887C25.1404 20.3887 25.4866 20.752 25.4866 21.2015C25.4866 21.6524 25.1404 22.0192 24.7131 22.0192C24.2872 22.0192 23.9396 21.6524 23.9396 21.2015C23.9396 20.7521 24.2874 20.3887 24.7131 20.3887Z" fill="url(#paint1_linear_189_467)"/>
<path d="M84.2735 8.77281H84.5136V7.2098H85.0823V7.02344H83.7045V7.2098H84.2733V8.77281H84.2735ZM85.2954 8.77281H85.5005V7.34526L85.9458 8.77265H86.1741L86.6383 7.35005V8.77281H86.8621V7.0236H86.566L86.0588 8.52231L85.6265 7.0236H85.2954V8.77281Z" fill="white"/>
<path opacity="0.444" d="M27.9684 25.8755C27.9684 26.4894 25.495 26.9871 22.4439 26.9871C19.3929 26.9871 16.9196 26.4894 16.9196 25.8755C16.9196 25.2615 19.3929 24.7637 22.4439 24.7637C25.495 24.7637 27.9684 25.2615 27.9684 25.8755Z" fill="url(#paint2_radial_189_467)"/>
</g>
<rect x="0.862305" y="1.49341" width="99" height="25" rx="3.5" stroke="#CCCCCC"/>
<defs>
<linearGradient id="paint0_linear_189_467" x1="13.4559" y1="6.0093" x2="23.2565" y2="14.0558" gradientUnits="userSpaceOnUse">
<stop stop-color="#5A9FD4"/>
<stop offset="1" stop-color="#306998"/>
</linearGradient>
<linearGradient id="paint1_linear_189_467" x1="26.5287" y1="19.6545" x2="22.9486" y2="14.8208" gradientUnits="userSpaceOnUse">
<stop stop-color="#FFD43B"/>
<stop offset="1" stop-color="#FFE873"/>
</linearGradient>
<radialGradient id="paint2_radial_189_467" cx="0" cy="0" r="1" gradientUnits="userSpaceOnUse" gradientTransform="translate(22.4421 25.8499) rotate(-90) scale(1.11147 4.70861)">
<stop stop-color="white" stop-opacity="0.498"/>
<stop offset="1" stop-color="white" stop-opacity="0"/>
</radialGradient>
<clipPath id="clip0_189_467">
<rect width="73" height="22" fill="white" transform="translate(13.8623 2.99341)"/>
</clipPath>
</defs>
</svg>
