<svg width="66" height="31" viewBox="0 0 66 31" fill="none" xmlns="http://www.w3.org/2000/svg">
<rect x="0.5" y="0.5" width="65" height="30" rx="3.5" fill="#181818"/>
<path d="M18.2842 16.9349C19.1159 16.9349 19.7902 16.2865 19.7902 15.4867C19.7902 14.6869 19.1159 14.0386 18.2842 14.0386C17.4524 14.0386 16.7781 14.6869 16.7781 15.4867C16.7781 16.2865 17.4524 16.9349 18.2842 16.9349Z" fill="#00D8FF"/>
<path fill-rule="evenodd" clip-rule="evenodd" d="M18.2842 12.5424C20.3063 12.5424 22.1848 12.8214 23.6012 13.2902C25.3077 13.8551 26.357 14.7114 26.357 15.4868C26.357 16.2947 25.245 17.2044 23.4124 17.7882C22.0269 18.2296 20.2037 18.46 18.2842 18.46C16.3162 18.46 14.4526 18.2438 13.0515 17.7834C11.2789 17.2008 10.2112 16.2794 10.2112 15.4868C10.2112 14.7177 11.213 13.868 12.8955 13.304C14.3172 12.8274 16.2421 12.5424 18.2839 12.5424H18.2842Z" stroke="#00D8FF" stroke-width="1.66272"/>
<path fill-rule="evenodd" clip-rule="evenodd" d="M15.6184 14.023C16.6287 12.3387 17.8184 10.9134 18.9484 9.96784C20.3099 8.82859 21.6055 8.38243 22.304 8.76973C23.032 9.17337 23.296 10.5541 22.9065 12.3722C22.6122 13.7467 21.9087 15.3804 20.9498 16.9793C19.9666 18.6186 18.8408 20.0628 17.7262 20.9996C16.3158 22.1851 14.9522 22.6141 14.2382 22.2182C13.5453 21.8342 13.2803 20.5751 13.6127 18.8918C13.8935 17.4695 14.5984 15.7238 15.6181 14.023L15.6184 14.023Z" stroke="#00D8FF" stroke-width="1.66272"/>
<path fill-rule="evenodd" clip-rule="evenodd" d="M15.621 16.9836C14.608 15.3012 13.9182 13.5979 13.6303 12.1844C13.2837 10.4813 13.5288 9.17909 14.2267 8.79066C14.9539 8.38583 16.3298 8.85544 17.7734 10.0879C18.8648 11.0197 19.9856 12.4214 20.9473 14.0188C21.9333 15.6565 22.6723 17.3157 22.9598 18.712C23.3236 20.479 23.0292 21.8291 22.3158 22.2262C21.6236 22.6115 20.3569 22.2036 19.0062 21.086C17.865 20.1418 16.6441 18.6827 15.621 16.9836V16.9836Z" stroke="#00D8FF" stroke-width="1.66272"/>
<path fill-rule="evenodd" clip-rule="evenodd" d="M35.002 19.1867L33.156 16.505C34.0889 16.4259 34.9296 15.7759 34.9296 14.5884C34.9296 13.38 34.0378 12.6067 32.7868 12.6067H30.0394V19.1817H30.8905V16.5692H32.2542L33.9971 19.1817L35.002 19.1867ZM32.6849 15.8546H30.8909V13.3409H32.6849C33.4953 13.3409 34.0486 13.8534 34.0486 14.5929C34.0486 15.3325 33.4948 15.8554 32.6849 15.8554V15.8546ZM38.1701 19.3046C38.9804 19.3046 39.6464 19.0484 40.1387 18.5754L39.7695 18.0921C39.3795 18.4767 38.8058 18.6934 38.242 18.6934C37.176 18.6934 36.5195 17.9442 36.458 17.0475H40.4663V16.86C40.4663 15.4309 39.5845 14.3067 38.0873 14.3067C36.6725 14.3067 35.6476 15.4209 35.6476 16.8009C35.6476 18.2896 36.7037 19.3009 38.1696 19.3009L38.1701 19.3046ZM39.7084 16.5046H36.4584C36.4996 15.7754 37.0217 14.9171 38.0782 14.9171C39.2062 14.9171 39.698 15.7946 39.7084 16.5046ZM45.5731 19.1863V15.9134C45.5731 14.76 44.7021 14.3063 43.6561 14.3063C42.8457 14.3063 42.2105 14.5625 41.6775 15.095L42.0363 15.6075C42.477 15.1542 42.9593 14.9471 43.5538 14.9471C44.2714 14.9471 44.8048 15.3117 44.8048 15.9525V16.81C44.4049 16.3663 43.8411 16.1592 43.1642 16.1592C42.3236 16.1592 41.4309 16.6621 41.4309 17.7267C41.4309 18.7617 42.3227 19.3042 43.1642 19.3042C43.8307 19.3042 44.3949 19.0775 44.8048 18.6438V19.1854L45.5731 19.1863ZM43.4411 18.7721C42.7235 18.7721 42.2209 18.3388 42.2209 17.7371C42.2209 17.1259 42.7235 16.6921 43.4411 16.6921C43.9845 16.6921 44.5071 16.8892 44.8048 17.2838V18.1809C44.5076 18.575 43.9845 18.7725 43.4411 18.7725V18.7721ZM49.2911 19.3046C50.1933 19.3046 50.7263 18.9496 51.1059 18.4767L50.5933 18.0234C50.2653 18.4471 49.8449 18.6442 49.3366 18.6442C48.2806 18.6442 47.625 17.8554 47.625 16.8009C47.625 15.7463 48.281 14.9675 49.3366 14.9675C49.8493 14.9675 50.2696 15.155 50.5933 15.5884L51.1059 15.135C50.7268 14.6617 50.1933 14.3071 49.2911 14.3071C47.8148 14.3071 46.8203 15.3917 46.8203 16.8013C46.8203 18.2209 47.8148 19.3013 49.2911 19.3013V19.3046ZM53.4338 19.3046C53.8845 19.3046 54.1618 19.1763 54.3568 18.9992L54.1315 18.4471C54.0288 18.5554 53.8281 18.6442 53.6084 18.6442C53.2704 18.6442 53.1058 18.3879 53.1058 18.0329V15.0754H54.1111V14.425H53.1058V13.1238H52.3366V14.425H51.5163V15.0759H52.3366V18.1913C52.3366 18.9013 52.7058 19.3054 53.4338 19.3054V19.3046Z" fill="#00D8FF"/>
<rect x="0.5" y="0.5" width="65" height="30" rx="3.5" stroke="#CCCCCC"/>
</svg>
