<svg width="101" height="27" viewBox="0 0 101 27" fill="none" xmlns="http://www.w3.org/2000/svg">
<g clip-path="url(#clip0_52_2939)">
<rect x="0.362305" y="0.243408" width="100" height="26" rx="4" fill="#181818"/>
<path d="M31.6845 15.1375C32.7402 15.1375 33.5961 14.2816 33.5961 13.2259C33.5961 12.1702 32.7402 11.3143 31.6845 11.3143C30.6288 11.3143 29.7729 12.1702 29.7729 13.2259C29.7729 14.2816 30.6288 15.1375 31.6845 15.1375Z" fill="#00D8FF"/>
<path fill-rule="evenodd" clip-rule="evenodd" d="M31.6845 9.33923C34.2511 9.33923 36.6353 9.70751 38.433 10.3264C40.599 11.0721 41.9307 12.2024 41.9307 13.2258C41.9307 14.2924 40.5194 15.4931 38.1934 16.2638C36.4349 16.8464 34.1208 17.1506 31.6845 17.1506C29.1867 17.1506 26.8213 16.8651 25.043 16.2574C22.7931 15.4884 21.438 14.2721 21.438 13.2258C21.438 12.2107 22.7095 11.0891 24.8451 10.3446C26.6495 9.71547 29.0926 9.33923 31.6842 9.33923H31.6845Z" stroke="#00D8FF" stroke-width="1.66272"/>
<path fill-rule="evenodd" clip-rule="evenodd" d="M28.3011 11.2938C29.5833 9.07047 31.0934 7.18905 32.5276 5.94091C34.2556 4.4371 35.9001 3.84816 36.7866 4.3594C37.7106 4.89221 38.0457 6.71477 37.5513 9.11463C37.1778 10.9291 36.2849 13.0855 35.0678 15.196C33.8199 17.3599 32.391 19.2663 30.9763 20.5029C29.1862 22.0677 27.4555 22.634 26.5492 22.1113C25.6698 21.6046 25.3334 19.9425 25.7553 17.7205C26.1118 15.8431 27.0064 13.5388 28.3007 11.2937L28.3011 11.2938Z" stroke="#00D8FF" stroke-width="1.66272"/>
<path fill-rule="evenodd" clip-rule="evenodd" d="M28.3043 15.2017C27.0185 12.9809 26.1431 10.7326 25.7776 8.86673C25.3378 6.6186 25.6488 4.89972 26.5345 4.387C27.4576 3.85263 29.2039 4.4725 31.0361 6.09939C32.4215 7.32939 33.844 9.17961 35.0646 11.2881C36.3161 13.4499 37.2541 15.64 37.619 17.4832C38.0807 19.8156 37.707 21.5978 36.8015 22.1219C35.9229 22.6305 34.3152 22.0921 32.6009 20.6168C31.1525 19.3704 29.6028 17.4446 28.3043 15.2017V15.2017Z" stroke="#00D8FF" stroke-width="1.66272"/>
<path fill-rule="evenodd" clip-rule="evenodd" d="M52.9033 18.1098L50.5603 14.57C51.7445 14.4655 52.8115 13.6075 52.8115 12.04C52.8115 10.445 51.6796 9.42419 50.0917 9.42419H46.6047V18.1032H47.6849V14.6547H49.4158L51.6279 18.1032L52.9033 18.1098ZM49.9625 13.7114H47.6855V10.3933H49.9625C50.991 10.3933 51.6933 11.0698 51.6933 12.046C51.6933 13.0223 50.9904 13.7125 49.9625 13.7125V13.7114ZM56.9244 18.2654C57.9529 18.2654 58.7982 17.9272 59.423 17.3029L58.9544 16.6649C58.4594 17.1726 57.7312 17.4586 57.0157 17.4586C55.6627 17.4586 54.8294 16.4697 54.7513 15.2861H59.8388V15.0386C59.8388 13.1521 58.7196 11.6682 56.8193 11.6682C55.0236 11.6682 53.7228 13.1389 53.7228 14.9605C53.7228 16.9256 55.0632 18.2605 56.9238 18.2605L56.9244 18.2654ZM58.8769 14.5694H54.7519C54.8041 13.6069 55.4669 12.4739 56.8078 12.4739C58.2394 12.4739 58.8637 13.6322 58.8769 14.5694ZM66.3206 18.1092V13.789C66.3206 12.2666 65.2151 11.6676 63.8874 11.6676C62.8589 11.6676 62.0526 12.0059 61.3761 12.7088L61.8315 13.3853C62.3908 12.7869 63.003 12.5135 63.7576 12.5135C64.6684 12.5135 65.3454 12.9948 65.3454 13.8407V14.9726C64.8378 14.3868 64.1222 14.1135 63.2631 14.1135C62.1961 14.1135 61.0631 14.7773 61.0631 16.1826C61.0631 17.5488 62.195 18.2649 63.2631 18.2649C64.109 18.2649 64.8251 17.9657 65.3454 17.3931V18.1081L66.3206 18.1092ZM63.6146 17.5625C62.7038 17.5625 62.0658 16.9905 62.0658 16.1963C62.0658 15.3895 62.7038 14.8169 63.6146 14.8169C64.3043 14.8169 64.9676 15.0771 65.3454 15.5979V16.7821C64.9681 17.3024 64.3043 17.5631 63.6146 17.5631V17.5625ZM71.0396 18.2654C72.1847 18.2654 72.8612 17.7968 73.343 17.1726L72.6923 16.5742C72.276 17.1335 71.7425 17.3937 71.0973 17.3937C69.757 17.3937 68.9248 16.3525 68.9248 14.9605C68.9248 13.5684 69.7575 12.5405 71.0973 12.5405C71.748 12.5405 72.2815 12.788 72.6923 13.36L73.343 12.7616C72.8617 12.1368 72.1847 11.6687 71.0396 11.6687C69.1657 11.6687 67.9035 13.1004 67.9035 14.961C67.9035 16.8349 69.1657 18.261 71.0396 18.261V18.2654ZM76.2976 18.2654C76.8696 18.2654 77.2216 18.096 77.4691 17.8623L77.1831 17.1335C77.0527 17.2765 76.7981 17.3937 76.5192 17.3937C76.0902 17.3937 75.8812 17.0554 75.8812 16.5868V12.6829H77.1572V11.8244H75.8812V10.1067H74.905V11.8244H73.8638V12.6835H74.905V16.7958C74.905 17.733 75.3736 18.2665 76.2976 18.2665V18.2654Z" fill="#00D8FF"/>
</g>
<rect x="0.862305" y="0.743408" width="99" height="25" rx="3.5" stroke="#CCCCCC"/>
<defs>
<clipPath id="clip0_52_2939">
<rect x="0.362305" y="0.243408" width="100" height="26" rx="4" fill="white"/>
</clipPath>
</defs>
</svg>
