<svg width="190" height="56" viewBox="0 0 190 56" fill="none" xmlns="http://www.w3.org/2000/svg">
<g clip-path="url(#clip0_45_1399)">
<path d="M67.509 21.9694C67.509 16.4095 71.6297 12.5271 79.1183 12.5271C83.6876 12.5271 87.4266 13.9623 89.4522 15.3682C89.7421 15.569 90.2593 16.056 89.9492 16.9618C89.5518 17.9373 88.8229 19.4045 88.3 20.3575C87.9956 20.9128 87.2183 20.8397 86.8201 20.6412C85.3773 19.9219 83.0106 18.705 80.8366 18.4807C80.2861 18.4217 79.7322 18.3981 79.1786 18.4101C77.2639 18.4521 75.6643 19.1062 75.1009 20.5432C74.9905 20.8151 74.929 21.1039 74.919 21.3965C74.8664 23.2902 77.5454 23.975 80.7908 24.5236C86.8243 25.5404 91.389 27.2807 91.389 33.39C91.389 38.5781 87.1977 43.2668 78.9856 43.1231C73.5719 43.0155 69.7311 41.2159 67.673 39.4696C67.6028 39.4104 66.8194 38.6254 67.2393 37.6813C67.7199 36.466 68.5311 35.0732 69.1677 34.3336C69.5217 33.8586 70.4557 33.7832 70.9413 34.0793C72.6378 35.1164 75.4297 36.7793 78.648 36.8896C78.9021 36.8983 79.1538 36.8998 79.4009 36.8934C82.2958 36.8243 84.0473 35.7445 84.0107 33.9254C83.9794 32.3228 81.6841 31.3867 78.029 30.709C72.1995 29.6288 67.5097 27.7384 67.5097 21.9694H67.509ZM120.469 29.8862C116.358 29.9391 112.589 31.0445 112.48 34.2049C112.479 36.7129 114.547 37.9448 117.45 37.7834C120.234 37.5196 122.357 36.3317 123.293 34.7554C123.639 34.1712 123.691 31.9852 123.67 31.0509C123.665 30.852 123.265 30.4756 123.09 30.4032C122.217 30.0411 121.57 29.9293 120.468 29.8854L120.469 29.8862ZM106.79 17.1513C108.713 15.459 112.524 12.825 118.598 12.9638C126.614 13.1278 130.849 16.8248 131.244 25.6687C131.406 29.3158 131.137 39.4888 131.073 42.0234C131.063 42.387 130.938 42.6384 130.44 42.6477C129.12 42.6999 126.07 42.6793 124.669 42.6612C123.962 42.6275 123.88 42.2823 123.871 41.9209C123.865 41.6846 123.844 40.9837 123.829 40.4122C123.821 40.109 123.532 40.1176 123.458 40.1953C121.577 42.1705 118.498 43.1243 115.223 43.1243C110.246 43.1243 105.283 40.2437 105.299 34.5393C105.314 28.6971 109.525 25.8154 114.15 25.1359C117.112 24.7022 120.451 25.0879 122.98 26.0762C123.141 26.14 123.472 26.0477 123.474 25.8222C123.485 25.0778 123.448 23.6591 123.303 22.9867C122.932 21.2734 121.479 19.8949 118.427 19.5234C117.798 19.4472 117.165 19.4221 116.532 19.4716C114.106 19.6592 111.186 21.5203 109.977 22.2171C109.693 22.3807 109.247 22.261 109.103 22.0783C108.397 21.1815 106.624 18.5587 106.484 18.1396C106.344 17.7216 106.541 17.3696 106.79 17.1498L106.79 17.1513ZM133.887 28.0266C133.839 19.8787 139.61 13.0051 148.98 12.9447C154.827 12.9072 159.075 15.5149 159.824 16.7449C159.976 17.0338 159.898 17.2751 159.793 17.5659C159.298 18.594 158.048 20.5804 157.157 21.706C156.777 22.1856 156.365 21.7747 155.887 21.4614C154.558 20.5909 152.034 19.5264 149.55 19.5264C145.043 19.5271 141.687 22.5672 141.724 28.1602C141.76 33.5273 144.974 36.4769 149.565 36.5838C151.966 36.6431 154.291 35.286 155.542 34.1742C155.935 33.8369 156.342 34.0057 156.79 34.3509C157.672 35.2368 158.935 36.6045 159.636 37.5459C160.095 38.0689 159.751 38.5807 159.586 38.7864C157.685 41.1529 154.014 43.1445 149.155 43.1715C138.981 43.2417 133.935 36.2045 133.888 28.0277L133.887 28.0266ZM182.451 42.8042C182.928 42.7689 188.024 42.077 189.588 41.7247C189.977 41.6376 190.115 41.3165 189.898 40.9983C189.024 39.7098 186.728 36.0506 184.323 32.775C182.11 29.7631 179.779 27.1141 179.025 26.095C178.841 25.8473 178.851 25.6034 179.051 25.4113C180.486 24.0305 186.486 18.2428 188.742 15.8526C189.615 14.9228 189.091 14.5229 188.349 14.3056C186.916 13.8854 184.598 13.3616 183.28 13.088C182.724 12.9725 182.055 13.013 181.569 13.5045C179.313 15.5738 172.429 22.3709 170.374 24.4027C170.004 24.7693 169.789 24.6879 169.787 24.1641C169.77 20.2468 169.692 3.4753 169.549 0.716688C169.539 0.351976 169.094 0.0750643 168.842 0.0619316C167.55 -0.00448209 164.286 -0.0236185 162.999 0.0506748C162.639 0.0908232 162.294 0.452159 162.263 0.757587C161.966 5.16866 162.389 37.5493 162.565 42.0789C162.578 42.4065 162.826 42.6605 163.142 42.6789C164.425 42.752 167.6 42.7472 169.082 42.7198C169.811 42.7198 169.9 42.2155 169.9 42.2155L170.01 33.5266C170.01 33.5266 170.085 33.1401 170.207 33.0125C170.729 32.4591 172.175 30.9349 172.791 30.3458C172.939 30.2044 173.173 30.2145 173.324 30.4145C174.056 31.3863 176.144 34.5456 178.08 37.3673C179.859 39.9593 181.519 42.2598 181.635 42.4222C181.902 42.7975 182.215 42.8125 182.451 42.8053V42.8042H182.451ZM95.7817 42.7742C96.2299 42.7888 99.6301 42.7851 101.137 42.7832C101.644 42.7929 101.908 42.4151 101.924 42.0815C102.244 35.7306 102.107 5.49322 101.905 0.718564C101.888 0.305824 101.709 0.150859 101.422 0.113337C100.129 -0.0570123 96.4549 -0.0172395 95.2771 0.285937C95.0467 0.344846 94.911 0.517072 94.9037 0.738451C94.6154 13.0456 94.8099 41.4196 94.8709 41.957C94.9316 42.495 95.2176 42.7554 95.7825 42.7742H95.7817Z" fill="#443642"/>
<path d="M4.7802 30.1466C2.68473 30.1623 0.90965 28.9339 0.255151 27.0165C0.230871 26.9441 0.208235 26.8712 0.18726 26.7978C-0.525976 24.3423 0.857016 21.7736 3.3358 20.9511L43.0939 7.84733C43.566 7.71298 44.0546 7.64279 44.546 7.63871C46.6971 7.6222 48.521 8.87768 49.1915 10.8356L49.251 11.0247C49.9948 13.5822 48.1469 15.865 45.9328 16.5967C45.9312 16.5978 45.5285 16.7318 6.39508 29.876C5.87493 30.0505 5.32972 30.1418 4.7802 30.1466Z" fill="#70CADB"/>
<path d="M11.4073 49.3822C9.2954 49.3972 7.51422 48.186 6.86735 46.296C6.84279 46.2241 6.8199 46.1517 6.79869 46.0787C6.07554 43.594 7.45701 40.9983 9.94418 40.1747L49.7038 26.9508C50.2176 26.782 50.7481 26.6957 51.2817 26.6908C53.3993 26.6751 55.2598 27.9478 55.9162 29.8592L55.9773 30.058C56.3614 31.3792 56.1344 32.8639 55.3708 34.0357C54.8018 34.907 53.0069 35.6739 53.0069 35.6739L13.0961 49.0989C12.5518 49.2801 11.9819 49.376 11.4073 49.3829V49.3822Z" fill="#E01765"/>
<path d="M44.5043 49.4658C43.4737 49.4756 42.4665 49.1642 41.6268 48.5762C40.7872 47.9883 40.1582 47.1539 39.8301 46.1928L26.5609 7.41772L26.4945 7.2001C25.7756 4.7274 27.1582 2.14815 29.6362 1.32642C30.132 1.16245 30.6446 1.0769 31.1607 1.0724C31.9273 1.06677 32.6692 1.23675 33.3679 1.57632C33.9435 1.85634 34.4571 2.24554 34.8792 2.72154C35.3014 3.19755 35.6237 3.75095 35.8276 4.34993L49.0957 43.1216L49.1342 43.2462C49.8795 45.8135 48.5 48.3942 46.0219 49.2159C45.5325 49.3768 45.0204 49.4611 44.5043 49.4658Z" fill="#E8A723"/>
<path d="M24.7805 55.997C23.7493 56.0066 22.7415 55.6949 21.9015 55.1065C21.0615 54.518 20.4324 53.6831 20.1044 52.7213L6.83859 13.9477C6.63305 13.3496 6.54944 12.7174 6.59258 12.0874C6.63571 11.4573 6.80473 10.8419 7.08996 10.2762C7.37519 9.71057 7.77103 9.20581 8.25481 8.79085C8.7386 8.37588 9.30083 8.05886 9.90932 7.85794C10.3995 7.69673 10.9124 7.61215 11.4292 7.60729C12.46 7.59728 13.4675 7.90858 14.3073 8.49655C15.1471 9.08453 15.7761 9.91899 16.1042 10.8803L29.3704 49.6554C29.576 50.2539 29.6596 50.8864 29.6163 51.5167C29.5731 52.147 29.4038 52.7627 29.1182 53.3285C28.8326 53.8943 28.4363 54.3991 27.9521 54.814C27.4679 55.2289 26.9051 55.5457 26.2962 55.7463C25.807 55.9076 25.2949 55.9921 24.779 55.9966H24.7805V55.997Z" fill="#3EB890"/>
<path d="M37.963 40.7337L47.2152 37.6217L44.1907 28.7853L34.9277 31.8647L37.963 40.7337Z" fill="#CC2027"/>
<path d="M18.2695 47.3579L27.521 44.2462L24.4735 35.3423L15.2129 38.4228L18.2695 47.3579Z" fill="#361238"/>
<path d="M31.3759 21.4865L40.6289 18.3786L37.6398 9.64539L28.3696 12.7008L31.3759 21.4865Z" fill="#65863A"/>
<path d="M11.6801 28.1016L20.9331 24.9937L17.9074 16.149L8.63721 19.2041L11.6801 28.1016Z" fill="#1A937D"/>
</g>
<defs>
<clipPath id="clip0_45_1399">
<rect width="190" height="56" fill="white"/>
</clipPath>
</defs>
</svg>
