<svg width="236" height="78" viewBox="0 0 236 78" fill="none" xmlns="http://www.w3.org/2000/svg">
<path d="M194.826 47.2411C194.798 47.2471 194.771 47.2451 194.743 47.249L194.885 47.2291C194.865 47.2311 194.846 47.2411 194.826 47.2451V47.2411ZM99.5961 54.0092C99.6017 54.4592 99.5159 54.9055 99.3441 55.3205C99.1722 55.7356 98.9179 56.1104 98.597 56.4218C98.2868 56.7456 97.9144 57.0018 97.5028 57.1746C97.0913 57.3475 96.6491 57.4334 96.2036 57.4271H89.4835C88.151 57.4479 86.8285 57.1926 85.5971 56.6771C84.3657 56.1616 83.2515 55.3966 82.3228 54.4292C80.3404 52.4286 79.3728 50.022 79.3728 47.2033V33.5018C79.3728 32.5363 79.7013 31.7261 80.3621 31.0673C81.0229 30.4084 81.8292 30.0819 82.7811 30.0819C83.224 30.0753 83.6636 30.1612 84.0723 30.3341C84.4811 30.5071 84.8502 30.7634 85.1568 31.0872C85.8176 31.756 86.15 32.5602 86.15 33.4998V38.4624H95.6922C96.5576 38.4624 97.301 38.773 97.9205 39.394C98.54 40.0151 98.8487 40.7596 98.8487 41.6315C98.8543 42.0486 98.7751 42.4625 98.6161 42.8474C98.4571 43.2323 98.2216 43.58 97.9244 43.869C97.6358 44.1687 97.2899 44.4059 96.9079 44.566C96.5258 44.7262 96.1155 44.806 95.7021 44.8006H86.15V47.2013C86.15 48.1428 86.4745 48.9431 87.1274 49.602C87.7803 50.2609 88.5709 50.5893 89.5031 50.5893H96.1898C97.12 50.5893 97.9205 50.9277 98.5832 51.5966C98.9042 51.908 99.1584 52.2828 99.3303 52.6979C99.5022 53.1129 99.5879 53.5592 99.5823 54.0092H99.5961ZM178.098 54.0092C178.103 54.459 178.018 54.9053 177.846 55.3203C177.675 55.7353 177.421 56.1102 177.1 56.4218C176.79 56.7454 176.418 57.0015 176.007 57.1744C175.596 57.3473 175.154 57.4333 174.709 57.4271H171.665C170.332 57.4481 169.009 57.193 167.777 56.6775C166.545 56.1619 165.431 55.3968 164.502 54.4292C163.545 53.4947 162.787 52.3711 162.276 51.1281C161.766 49.8852 161.512 48.5493 161.532 47.2033V33.5018C161.532 32.5363 161.861 31.7261 162.522 31.0673C163.182 30.4084 163.987 30.0819 164.941 30.0819C165.383 30.0753 165.823 30.1612 166.232 30.3341C166.641 30.5071 167.01 30.7634 167.316 31.0872C167.636 31.3993 167.889 31.7744 168.059 32.1894C168.23 32.6044 168.314 33.0504 168.307 33.4998V38.4624H174.194C174.608 38.4565 175.019 38.536 175.402 38.6962C175.784 38.8564 176.131 39.0938 176.42 39.394C177.039 40.0151 177.348 40.7596 177.348 41.6315C177.354 42.0486 177.275 42.4625 177.116 42.8474C176.957 43.2323 176.721 43.58 176.424 43.869C176.135 44.1687 175.789 44.4059 175.407 44.566C175.025 44.7262 174.615 44.806 174.202 44.8006H168.307V47.2013C168.307 48.1428 168.632 48.9431 169.285 49.602C169.938 50.2609 170.728 50.5893 171.661 50.5893H174.709C175.639 50.5893 176.44 50.9277 177.102 51.5966C177.423 51.9082 177.677 52.2831 177.848 52.6981C178.02 53.1131 178.105 53.5594 178.099 54.0092H178.098ZM160.398 54.0092C160.398 54.9448 160.063 55.751 159.4 56.4218C159.09 56.7457 158.718 57.0019 158.306 57.1748C157.895 57.3477 157.453 57.4335 157.007 57.4271H153.963C151.17 57.4271 148.784 56.4278 146.804 54.4292C145.846 53.495 145.088 52.3716 144.576 51.1286C144.065 49.8857 143.811 48.5496 143.83 47.2033V33.5018C143.82 33.0489 143.903 32.5988 144.073 32.1798C144.244 31.7609 144.498 31.3821 144.82 31.0673C145.48 30.4103 146.287 30.0819 147.239 30.0819C147.682 30.0753 148.121 30.1612 148.53 30.3341C148.939 30.5071 149.308 30.7634 149.614 31.0872C150.275 31.756 150.607 32.5602 150.607 33.4998V38.4624H156.492C157.357 38.4624 158.1 38.773 158.72 39.394C159.019 39.6821 159.255 40.0296 159.414 40.4147C159.574 40.7997 159.653 41.214 159.646 41.6315C159.652 42.0486 159.573 42.4625 159.414 42.8474C159.255 43.2323 159.019 43.58 158.722 43.869C158.106 44.4661 157.345 44.8006 156.504 44.8006H150.588V47.2013C150.588 48.1428 150.912 48.9431 151.565 49.602C152.218 50.2609 153.009 50.5893 153.941 50.5893H156.989C157.92 50.5893 158.72 50.9277 159.383 51.5966C159.703 51.9082 159.957 52.2831 160.129 52.6981C160.3 53.1131 160.386 53.5594 160.38 54.0092H160.398ZM132.278 47.8622C132.278 50.4997 131.354 52.7511 129.497 54.6223C128.629 55.528 127.588 56.244 126.436 56.7264C125.284 57.2088 124.047 57.4473 122.801 57.4271C120.413 57.4271 118.311 56.6309 116.494 54.9786C114.791 56.5764 112.548 57.4521 110.226 57.4251C108.979 57.4444 107.742 57.2055 106.59 56.7232C105.438 56.2409 104.396 55.5253 103.527 54.6203C102.632 53.7462 101.923 52.6951 101.445 51.5322C100.967 50.3694 100.73 49.1195 100.749 47.8602V41.1816C100.739 40.7572 100.816 40.3354 100.977 39.9433C101.137 39.5511 101.377 39.1972 101.681 38.9043C102.3 38.3072 103.048 37.9807 103.917 37.9807C104.332 37.9735 104.744 38.0517 105.128 38.2104C105.513 38.3692 105.861 38.6053 106.153 38.9043C106.774 39.5015 107.085 40.2978 107.085 41.1836V47.8661C107.078 48.2832 107.155 48.6974 107.312 49.083C107.47 49.4685 107.704 49.8173 108 50.1076C108.29 50.4046 108.636 50.6393 109.018 50.7977C109.4 50.956 109.809 51.0348 110.222 51.0292C111.068 51.0292 111.795 50.7247 112.385 50.1076C112.681 49.8171 112.914 49.4683 113.071 49.0827C113.228 48.6972 113.305 48.2831 113.298 47.8661V41.2174C113.298 40.3416 113.612 39.5812 114.232 38.9402C114.526 38.6295 114.881 38.3838 115.273 38.2184C115.666 38.0529 116.088 37.9713 116.513 37.9787C116.931 37.973 117.345 38.0536 117.73 38.2155C118.116 38.3774 118.465 38.6172 118.755 38.9203C119.379 39.5493 119.689 40.3018 119.689 41.1816V47.8641C119.674 48.2798 119.742 48.6944 119.89 49.0823C120.039 49.4702 120.264 49.8232 120.552 50.1196C120.841 50.416 121.186 50.6494 121.567 50.8055C121.948 50.9616 122.356 51.0371 122.767 51.0272C123.639 51.0272 124.38 50.7227 124.99 50.1056C125.286 49.8153 125.52 49.4665 125.677 49.081C125.834 48.6954 125.912 48.2812 125.904 47.8641V41.1816C125.904 40.3018 126.215 39.5493 126.836 38.9203C127.126 38.6171 127.474 38.3772 127.858 38.2152C128.243 38.0533 128.656 37.9728 129.072 37.9787C129.944 37.9787 130.689 38.2932 131.311 38.9203C131.932 39.5473 132.241 40.2998 132.241 41.1796V47.8582L132.278 47.8622ZM141.433 32.7334C141.439 33.1836 141.354 33.6302 141.182 34.0456C141.011 34.461 140.757 34.8362 140.436 35.148C140.126 35.4716 139.754 35.7277 139.343 35.9006C138.931 36.0735 138.49 36.1595 138.044 36.1533C137.599 36.1588 137.157 36.0725 136.746 35.8997C136.334 35.7269 135.962 35.4711 135.651 35.148C135.331 34.8361 135.077 34.4611 134.906 34.0461C134.735 33.6311 134.65 33.185 134.656 32.7354C134.656 31.7958 134.99 30.9916 135.651 30.3228C135.961 29.9989 136.333 29.7427 136.745 29.5698C137.157 29.3969 137.599 29.3111 138.044 29.3175C138.49 29.3111 138.932 29.397 139.343 29.5699C139.754 29.7427 140.126 29.999 140.436 30.3228C141.101 30.9916 141.433 31.7958 141.433 32.7354V32.7334ZM141.433 53.9873C141.438 54.4376 141.353 54.8843 141.181 55.2999C141.01 55.7154 140.756 56.0911 140.436 56.4039C140.126 56.7277 139.754 56.9839 139.343 57.1568C138.932 57.3297 138.49 57.4156 138.044 57.4092C137.114 57.4092 136.318 57.0748 135.651 56.4039C135.331 56.0913 135.077 55.7156 134.906 55.3C134.735 54.8843 134.65 54.4376 134.656 53.9873V41.3867C134.656 40.4471 134.99 39.6409 135.651 38.972C135.961 38.6478 136.333 38.3912 136.745 38.218C137.156 38.0448 137.599 37.9586 138.044 37.9648C138.49 37.9586 138.932 38.0448 139.343 38.2181C139.754 38.3913 140.126 38.6479 140.436 38.972C141.101 39.6409 141.433 40.4451 141.433 41.3867V53.9873ZM218.398 41.6116C218.398 42.4815 218.09 43.228 217.47 43.849C217.183 44.1495 216.837 44.3871 216.455 44.5473C216.073 44.7076 215.663 44.787 215.25 44.7807H210.624C209.759 44.7807 209.025 45.0872 208.422 45.6964C208.127 45.9839 207.895 46.3298 207.739 46.7124C207.582 47.0949 207.505 47.506 207.513 47.9199V54.2302C207.513 55.1021 207.206 55.8505 206.589 56.4736C206.302 56.7743 205.957 57.0124 205.576 57.1732C205.195 57.3341 204.785 57.4144 204.372 57.4092C203.513 57.4092 202.769 57.0987 202.154 56.4736C201.856 56.1842 201.621 55.8362 201.462 55.4509C201.303 55.0657 201.224 54.6516 201.229 54.2341V47.9239C201.211 46.6757 201.445 45.437 201.919 44.2844C202.393 43.1318 203.095 42.09 203.983 41.2234C204.844 40.3255 205.878 39.6155 207.02 39.1369C208.163 38.6583 209.39 38.4213 210.626 38.4405H215.248C215.662 38.4345 216.073 38.5144 216.455 38.6753C216.837 38.8362 217.183 39.0747 217.47 39.3761C217.769 39.6634 218.006 40.0105 218.165 40.3954C218.324 40.7803 218.402 41.1944 218.395 41.6116H218.398ZM188.708 57.4072C186.041 57.4072 183.527 56.38 181.545 54.3297C179.563 52.2794 178.802 50.0439 178.802 47.1515C178.802 47.1515 178.609 37.9588 188.883 37.9588C196.921 37.9588 199.365 43.6719 199.365 46.4946C199.365 48.736 198.352 49.5323 196.045 49.5323H185.771C185.771 49.5323 185.378 51.9111 190.098 51.9111H195.959C196.315 51.9111 196.668 51.9821 196.997 52.1202C197.327 52.2582 197.626 52.4606 197.878 52.7157C198.13 52.9708 198.33 53.2736 198.466 53.6069C198.603 53.9402 198.673 54.2974 198.673 54.6581C198.673 55.0189 198.603 55.3761 198.466 55.7094C198.33 56.0427 198.13 56.3455 197.878 56.6006C197.626 56.8557 197.327 57.058 196.997 57.1961C196.668 57.3342 196.315 57.4052 195.959 57.4052H188.721L188.708 57.4072ZM185.84 45.1947H192.586C192.586 42.9513 189.231 42.9513 189.231 42.9513C189.231 42.9513 185.84 42.9513 185.84 45.1947ZM69.9741 37.1168C67.8757 37.4791 64.8352 37.1008 63.2226 36.42C66.5718 36.1414 68.8394 34.6006 69.7126 32.5085C68.505 33.2609 64.7566 34.101 62.6916 33.2987L62.3612 31.9133C60.7878 26.0489 55.3854 21.3231 49.7312 21.8945L51.1177 21.3729C51.7372 21.148 55.3913 20.5448 54.8151 19.2429C54.3293 18.0924 49.865 20.1069 49.0252 20.3716C50.1344 19.9735 51.9713 19.225 52.166 17.9331C50.4291 18.1935 48.808 18.971 47.5089 20.1666C47.977 19.659 48.329 19.0419 48.4037 18.375C43.8686 21.3112 41.2195 27.2253 39.0778 32.9663C37.3943 31.3141 35.8997 30.0102 34.5623 29.2837C30.8099 27.2472 26.3023 25.1193 19.2754 22.4678C19.0788 24.8306 20.4279 27.9718 24.3888 30.06C23.5352 29.9406 21.9737 30.2033 20.7268 30.5039C21.2342 33.2112 22.8961 35.4407 27.3978 36.5156C25.3406 36.6549 24.2767 37.1128 23.315 38.1479C24.2511 40.033 26.5403 42.2486 30.6506 41.7907C26.0762 43.7893 28.7823 47.4879 32.5072 46.9365C26.1607 53.5812 16.1524 53.1074 10.4058 47.5337C25.4075 68.2501 58.0247 59.784 62.8823 39.83C66.5285 39.8598 68.6643 38.552 69.9918 37.1108L69.9741 37.1168Z" fill="#1DA1F2"/>
</svg>
