<svg width="121" height="61" viewBox="0 0 121 61" fill="none" xmlns="http://www.w3.org/2000/svg">
<path d="M99.5499 34.9852C99.5359 34.9882 99.5219 34.9872 99.5079 34.9892L99.5799 34.9792C99.5699 34.9802 99.5599 34.9852 99.5499 34.9872V34.9852ZM51.1279 38.3852C51.1307 38.6112 51.0871 38.8355 50.9997 39.044C50.9123 39.2525 50.783 39.4408 50.6199 39.5972C50.4621 39.7598 50.2728 39.8885 50.0635 39.9754C49.8542 40.0622 49.6294 40.1054 49.4029 40.1022H45.9859C45.3084 40.1126 44.6359 39.9844 44.0097 39.7254C43.3836 39.4665 42.817 39.0822 42.3449 38.5962C41.3369 37.5912 40.8449 36.3822 40.8449 34.9662V28.0832C40.8449 27.5982 41.0119 27.1912 41.3479 26.8602C41.6839 26.5292 42.0939 26.3652 42.5779 26.3652C42.8031 26.3619 43.0266 26.405 43.2344 26.4919C43.4423 26.5788 43.63 26.7076 43.7859 26.8702C44.1219 27.2062 44.2909 27.6102 44.2909 28.0822V30.5752H49.1429C49.5829 30.5752 49.9609 30.7312 50.2759 31.0432C50.5909 31.3552 50.7479 31.7292 50.7479 32.1672C50.7507 32.3768 50.7104 32.5847 50.6296 32.778C50.5487 32.9714 50.429 33.146 50.2779 33.2912C50.1311 33.4418 49.9552 33.5609 49.761 33.6414C49.5667 33.7218 49.3581 33.7619 49.1479 33.7592H44.2909V34.9652C44.2909 35.4382 44.4559 35.8402 44.7879 36.1712C45.1199 36.5022 45.5219 36.6672 45.9959 36.6672H49.3959C49.8689 36.6672 50.2759 36.8372 50.6129 37.1732C50.776 37.3297 50.9053 37.518 50.9927 37.7264C51.0801 37.9349 51.1237 38.1592 51.1209 38.3852H51.1279ZM91.0439 38.3852C91.0469 38.6112 91.0034 38.8354 90.9162 39.0438C90.829 39.2523 90.6999 39.4407 90.5369 39.5972C90.3793 39.7598 90.1901 39.8884 89.981 39.9753C89.7719 40.0621 89.5472 40.1053 89.3209 40.1022H87.7729C87.0952 40.1128 86.4225 39.9846 85.7962 39.7256C85.1699 39.4667 84.6031 39.0823 84.1309 38.5962C83.6441 38.1267 83.2589 37.5623 82.9992 36.9379C82.7394 36.3135 82.6107 35.6424 82.6209 34.9662V28.0832C82.6209 27.5982 82.7879 27.1912 83.1239 26.8602C83.4599 26.5292 83.8689 26.3652 84.3539 26.3652C84.5791 26.3619 84.8026 26.405 85.0104 26.4919C85.2183 26.5788 85.406 26.7076 85.5619 26.8702C85.7243 27.027 85.8529 27.2155 85.9396 27.4239C86.0263 27.6324 86.0692 27.8565 86.0659 28.0822V30.5752H89.0589C89.2694 30.5722 89.4784 30.6122 89.673 30.6926C89.8677 30.7731 90.0439 30.8924 90.1909 31.0432C90.5059 31.3552 90.6629 31.7292 90.6629 32.1672C90.6657 32.3768 90.6254 32.5847 90.5446 32.778C90.4637 32.9714 90.344 33.146 90.1929 33.2912C90.0461 33.4418 89.8702 33.5609 89.676 33.6414C89.4817 33.7218 89.2731 33.7619 89.0629 33.7592H86.0659V34.9652C86.0659 35.4382 86.2309 35.8402 86.5629 36.1712C86.8949 36.5022 87.2969 36.6672 87.7709 36.6672H89.3209C89.7939 36.6672 90.2009 36.8372 90.5379 37.1732C90.7009 37.3297 90.83 37.5181 90.9172 37.7266C91.0044 37.9351 91.0479 38.1592 91.0449 38.3852H91.0439ZM82.0439 38.3852C82.0439 38.8552 81.8739 39.2602 81.5369 39.5972C81.3791 39.7599 81.1898 39.8886 80.9805 39.9755C80.7713 40.0623 80.5464 40.1054 80.3199 40.1022H78.7719C77.3519 40.1022 76.1389 39.6002 75.1319 38.5962C74.6447 38.1269 74.2592 37.5625 73.9991 36.9381C73.739 36.3137 73.6099 35.6425 73.6199 34.9662V28.0832C73.6148 27.8557 73.6569 27.6296 73.7435 27.4191C73.83 27.2086 73.9592 27.0184 74.1229 26.8602C74.4589 26.5302 74.8689 26.3652 75.3529 26.3652C75.5781 26.3619 75.8016 26.405 76.0094 26.4919C76.2173 26.5788 76.405 26.7076 76.5609 26.8702C76.8969 27.2062 77.0659 27.6102 77.0659 28.0822V30.5752H80.0579C80.4979 30.5752 80.8759 30.7312 81.1909 31.0432C81.3427 31.1879 81.4629 31.3625 81.5439 31.5559C81.625 31.7494 81.6651 31.9575 81.6619 32.1672C81.6647 32.3768 81.6244 32.5847 81.5436 32.778C81.4627 32.9714 81.343 33.146 81.1919 33.2912C80.8789 33.5912 80.4919 33.7592 80.0639 33.7592H77.0559V34.9652C77.0559 35.4382 77.2209 35.8402 77.5529 36.1712C77.8849 36.5022 78.2869 36.6672 78.7609 36.6672H80.3109C80.7839 36.6672 81.1909 36.8372 81.5279 37.1732C81.6909 37.3297 81.82 37.5181 81.9072 37.7266C81.9944 37.9351 82.0379 38.1592 82.0349 38.3852H82.0439ZM67.7459 35.2972C67.7459 36.6222 67.2759 37.7532 66.3319 38.6932C65.8906 39.1482 65.3609 39.5079 64.7752 39.7502C64.1896 39.9926 63.5606 40.1123 62.9269 40.1022C61.7129 40.1022 60.6439 39.7022 59.7199 38.8722C58.8541 39.6748 57.7134 40.1147 56.5329 40.1012C55.8991 40.1109 55.27 39.9909 54.6843 39.7486C54.0986 39.5063 53.5686 39.1468 53.1269 38.6922C52.6713 38.2531 52.3109 37.7251 52.0678 37.1409C51.8248 36.5567 51.7043 35.9289 51.7139 35.2962V31.9412C51.7088 31.728 51.7483 31.5161 51.8299 31.3191C51.9116 31.1221 52.0335 30.9443 52.1879 30.7972C52.5029 30.4972 52.8829 30.3332 53.3249 30.3332C53.5359 30.3296 53.7455 30.3689 53.9409 30.4486C54.1364 30.5284 54.3136 30.647 54.4619 30.7972C54.7779 31.0972 54.9359 31.4972 54.9359 31.9422V35.2992C54.9321 35.5087 54.9715 35.7168 55.0515 35.9105C55.1314 36.1042 55.2504 36.2794 55.4009 36.4252C55.5484 36.5744 55.7245 36.6923 55.9187 36.7719C56.1128 36.8514 56.321 36.891 56.5309 36.8882C56.9609 36.8882 57.3309 36.7352 57.6309 36.4252C57.7812 36.2793 57.8999 36.1041 57.9797 35.9104C58.0595 35.7167 58.0987 35.5087 58.0949 35.2992V31.9592C58.0949 31.5192 58.2549 31.1372 58.5699 30.8152C58.7195 30.6592 58.8998 30.5357 59.0994 30.4526C59.299 30.3695 59.5137 30.3285 59.7299 30.3322C59.9421 30.3294 60.1526 30.3698 60.3486 30.4512C60.5446 30.5325 60.722 30.653 60.8699 30.8052C61.1869 31.1212 61.3449 31.4992 61.3449 31.9412V35.2982C61.3367 35.507 61.3715 35.7153 61.4469 35.9102C61.5224 36.105 61.637 36.2824 61.7836 36.4312C61.9303 36.5801 62.1058 36.6974 62.2995 36.7758C62.4932 36.8542 62.7009 36.8921 62.9099 36.8872C63.3529 36.8872 63.7299 36.7342 64.0399 36.4242C64.1903 36.2784 64.3093 36.1032 64.3893 35.9095C64.4692 35.7158 64.5086 35.5077 64.5049 35.2982V31.9412C64.5049 31.4992 64.6628 31.1212 64.9789 30.8052C65.126 30.6529 65.3028 30.5324 65.4984 30.451C65.6939 30.3697 65.9041 30.3292 66.1159 30.3322C66.5589 30.3322 66.9379 30.4902 67.2539 30.8052C67.5699 31.1202 67.7269 31.4982 67.7269 31.9402V35.2952L67.7459 35.2972ZM72.4009 27.6972C72.404 27.9233 72.3606 28.1477 72.2734 28.3564C72.1862 28.5651 72.057 28.7536 71.8939 28.9102C71.7363 29.0728 71.5471 29.2014 71.338 29.2883C71.1289 29.3751 70.9043 29.4183 70.6779 29.4152C70.4514 29.418 70.2267 29.3746 70.0174 29.2878C69.8082 29.201 69.6189 29.0725 69.4609 28.9102C69.2981 28.7535 69.1693 28.5651 69.0822 28.3567C68.9952 28.1482 68.9519 27.9241 68.9549 27.6982C68.9549 27.2262 69.1249 26.8222 69.4609 26.4862C69.6186 26.3235 69.8079 26.1948 70.0172 26.108C70.2265 26.0211 70.4513 25.978 70.6779 25.9812C70.9043 25.978 71.1289 26.0211 71.3381 26.108C71.5472 26.1948 71.7363 26.3235 71.8939 26.4862C72.2318 26.8222 72.4009 27.2262 72.4009 27.6982V27.6972ZM72.4009 38.3742C72.4035 38.6004 72.3599 38.8248 72.2728 39.0336C72.1856 39.2423 72.0566 39.4311 71.8939 39.5882C71.7363 39.7509 71.5472 39.8796 71.3381 39.9664C71.1289 40.0533 70.9043 40.0964 70.6779 40.0932C70.2049 40.0932 69.7999 39.9252 69.4609 39.5882C69.298 39.4312 69.1691 39.2424 69.0821 39.0336C68.9951 38.8248 68.9518 38.6004 68.9549 38.3742V32.0442C68.9549 31.5722 69.1249 31.1672 69.4609 30.8312C69.6185 30.6683 69.8078 30.5394 70.0171 30.4524C70.2263 30.3654 70.4512 30.3221 70.6779 30.3252C70.9043 30.3221 71.1291 30.3654 71.3382 30.4524C71.5473 30.5395 71.7364 30.6684 71.8939 30.8312C72.2318 31.1672 72.4009 31.5712 72.4009 32.0442V38.3742ZM111.536 32.1572C111.536 32.5942 111.379 32.9692 111.064 33.2812C110.918 33.4321 110.742 33.5515 110.548 33.632C110.354 33.7125 110.145 33.7524 109.935 33.7492H107.583C107.143 33.7492 106.77 33.9032 106.463 34.2092C106.313 34.3537 106.195 34.5274 106.116 34.7196C106.036 34.9118 105.997 35.1183 106.001 35.3262V38.4962C106.001 38.9342 105.845 39.3102 105.531 39.6232C105.385 39.7742 105.21 39.8939 105.016 39.9747C104.822 40.0555 104.614 40.0958 104.404 40.0932C103.967 40.0932 103.589 39.9372 103.276 39.6232C103.125 39.4778 103.005 39.303 102.924 39.1095C102.843 38.916 102.803 38.7079 102.806 38.4982V35.3282C102.796 34.7012 102.916 34.0789 103.157 33.4999C103.397 32.9209 103.754 32.3975 104.206 31.9622C104.644 31.5112 105.169 31.1545 105.75 30.914C106.331 30.6736 106.955 30.5546 107.584 30.5642H109.934C110.144 30.5612 110.353 30.6013 110.548 30.6821C110.742 30.763 110.918 30.8828 111.064 31.0342C111.216 31.1785 111.336 31.3529 111.417 31.5462C111.498 31.7396 111.538 31.9477 111.534 32.1572H111.536ZM96.4389 40.0922C95.0829 40.0922 93.8049 39.5762 92.7969 38.5462C91.7888 37.5162 91.4019 36.3932 91.4019 34.9402C91.4019 34.9402 91.3039 30.3222 96.5279 30.3222C100.615 30.3222 101.858 33.1922 101.858 34.6102C101.858 35.7362 101.343 36.1362 100.17 36.1362H94.9459C94.9459 36.1362 94.7459 37.3312 97.1459 37.3312H100.126C100.307 37.3312 100.487 37.3669 100.654 37.4363C100.821 37.5056 100.974 37.6073 101.102 37.7354C101.23 37.8635 101.331 38.0157 101.401 38.1831C101.47 38.3505 101.506 38.53 101.506 38.7112C101.506 38.8924 101.47 39.0719 101.401 39.2393C101.331 39.4067 101.23 39.5589 101.102 39.687C100.974 39.8152 100.821 39.9168 100.654 39.9862C100.487 40.0555 100.307 40.0912 100.126 40.0912H96.4459L96.4389 40.0922ZM94.9809 33.9572H98.4109C98.4109 32.8302 96.7049 32.8302 96.7049 32.8302C96.7049 32.8302 94.9809 32.8302 94.9809 33.9572ZM36.0659 29.8992C34.9989 30.0812 33.4529 29.8912 32.6329 29.5492C34.3359 29.4092 35.4889 28.6352 35.9329 27.5842C35.3189 27.9622 33.4129 28.3842 32.3629 27.9812L32.1949 27.2852C31.3949 24.3392 28.6479 21.9652 25.7729 22.2522L26.4779 21.9902C26.7929 21.8772 28.6509 21.5742 28.3579 20.9202C28.1109 20.3422 25.8409 21.3542 25.4139 21.4872C25.9779 21.2872 26.9119 20.9112 27.0109 20.2622C26.1277 20.393 25.3034 20.7836 24.6429 21.3842C24.8809 21.1292 25.0599 20.8192 25.0979 20.4842C22.7919 21.9592 21.4449 24.9302 20.3559 27.8142C19.4999 26.9842 18.7399 26.3292 18.0599 25.9642C16.1519 24.9412 13.8599 23.8722 10.2869 22.5402C10.1869 23.7272 10.8729 25.3052 12.8869 26.3542C12.4529 26.2942 11.6589 26.4262 11.0249 26.5772C11.2829 27.9372 12.1279 29.0572 14.4169 29.5972C13.3709 29.6672 12.8299 29.8972 12.3409 30.4172C12.8169 31.3642 13.9809 32.4772 16.0709 32.2472C13.7449 33.2512 15.1209 35.1092 17.0149 34.8322C13.7879 38.1702 8.69886 37.9322 5.77686 35.1322C13.4049 45.5392 29.9899 41.2862 32.4599 31.2622C34.3139 31.2772 35.3999 30.6202 36.0749 29.8962L36.0659 29.8992Z" fill="#1DA1F2"/>
</svg>
