<svg width="66" height="32" viewBox="0 0 66 32" fill="none" xmlns="http://www.w3.org/2000/svg">
<rect x="0.5" y="0.5" width="65" height="31" rx="3.5" fill="#181818"/>
<g clip-path="url(#clip0_52_4010)">
<path fill-rule="evenodd" clip-rule="evenodd" d="M25.9286 6.53918H30.2099L19.3993 25.4617L8.5177 6.53918H12.8964L19.3993 17.931L25.9286 6.53918Z" fill="#41B883"/>
<path fill-rule="evenodd" clip-rule="evenodd" d="M21.8827 6.53528H25.9547L19.394 17.9508L12.886 6.53528H16.8942L19.394 10.93L21.8827 6.53528Z" fill="#35495E"/>
<path fill-rule="evenodd" clip-rule="evenodd" d="M34.5249 11.848C34.5249 11.7361 34.586 11.6429 34.7083 11.5683C34.8306 11.4937 34.9584 11.4564 35.0918 11.4564C35.2771 11.4564 35.3919 11.5273 35.4364 11.669L37.3927 18.3138L39.3379 11.669C39.3898 11.5273 39.5009 11.4564 39.6714 11.4564C39.8122 11.4564 39.9437 11.4974 40.066 11.5795C40.1883 11.6615 40.2494 11.7547 40.2494 11.8591C40.2494 11.8666 40.2475 11.8778 40.2438 11.8927C40.2401 11.9076 40.2383 11.9225 40.2383 11.9374L37.9818 19.3765C37.9003 19.5928 37.7039 19.7009 37.3927 19.7009C37.0815 19.7009 36.8925 19.5928 36.8258 19.3765L34.5471 11.9374C34.5323 11.8927 34.5249 11.8629 34.5249 11.848ZM40.3369 17.5755V14.667C40.3369 14.5775 40.3832 14.4992 40.4759 14.4321C40.5685 14.3649 40.6778 14.3314 40.8038 14.3314C40.9223 14.3314 41.0279 14.3668 41.1206 14.4376C41.2132 14.5085 41.2595 14.5849 41.2595 14.667V17.5755C41.2595 17.9111 41.3855 18.2131 41.6374 18.4816C41.8894 18.7501 42.1895 18.8843 42.5378 18.8843C42.8787 18.8843 43.1751 18.7519 43.427 18.4872C43.679 18.2224 43.805 17.9185 43.805 17.5755V14.6558C43.805 14.5738 43.8513 14.4992 43.9439 14.4321C44.0365 14.3649 44.1458 14.3314 44.2718 14.3314C44.4052 14.3314 44.5145 14.3631 44.5997 14.4265C44.685 14.4899 44.7276 14.5663 44.7276 14.6558V17.5755C44.7276 18.1497 44.5108 18.6513 44.0773 19.0801C43.6438 19.5089 43.1306 19.7233 42.5378 19.7233C41.9376 19.7233 41.4207 19.5089 40.9872 19.0801C40.5537 18.6513 40.3369 18.1497 40.3369 17.5755ZM45.482 17.5531V16.3785C45.482 15.8043 45.6988 15.3083 46.1323 14.8907C46.5658 14.4731 47.0864 14.2643 47.694 14.2643C48.272 14.2643 48.7722 14.46 49.1946 14.8516C49.617 15.2431 49.8282 15.7334 49.8282 16.3226C49.8282 16.5389 49.8023 16.7123 49.7504 16.8428C49.6985 16.9733 49.6189 17.0665 49.5114 17.1224C49.4039 17.1784 49.3039 17.2138 49.2113 17.2287C49.1187 17.2436 48.9945 17.2511 48.8389 17.2511H46.4046V17.5867C46.4046 17.9968 46.551 18.325 46.8437 18.5711C47.1364 18.8172 47.5162 18.9402 47.983 18.9402C48.2276 18.9402 48.4406 18.903 48.6222 18.8284C48.8037 18.7538 48.9501 18.6811 49.0612 18.6102C49.1724 18.5394 49.2613 18.504 49.328 18.504C49.4317 18.504 49.5207 18.5506 49.5948 18.6438C49.6689 18.737 49.7059 18.8321 49.7059 18.9291C49.7059 19.1006 49.5373 19.2758 49.2002 19.4548C48.863 19.6338 48.4462 19.7233 47.9497 19.7233C47.2235 19.7233 46.6306 19.5238 46.1712 19.1248C45.7117 18.7258 45.482 18.2019 45.482 17.5531ZM46.4046 16.6246H48.461C48.6537 16.6246 48.7833 16.6004 48.85 16.5519C48.9167 16.5034 48.9501 16.4084 48.9501 16.2667C48.9501 15.9311 48.8278 15.6365 48.5833 15.3829C48.3387 15.1294 48.0386 15.0026 47.6829 15.0026C47.3346 15.0026 47.0345 15.12 46.7825 15.3549C46.5306 15.5899 46.4046 15.8789 46.4046 16.2219V16.6246ZM50.2937 19.1192C50.2937 18.9552 50.3492 18.8153 50.4604 18.6997C50.5715 18.5841 50.7086 18.5263 50.8717 18.5263C51.0273 18.5263 51.1607 18.5841 51.2718 18.6997C51.383 18.8153 51.4386 18.9552 51.4386 19.1192C51.4386 19.2758 51.383 19.412 51.2718 19.5275C51.1607 19.6431 51.0273 19.7009 50.8717 19.7009C50.7086 19.7009 50.5715 19.6431 50.4604 19.5275C50.3492 19.412 50.2937 19.2758 50.2937 19.1192ZM51.1148 21.7928C51.1148 21.6735 51.1519 21.5747 51.226 21.4964C51.3001 21.4181 51.389 21.3789 51.4927 21.3789C51.7817 21.3789 51.9707 21.2708 52.0596 21.0545C52.1486 20.8382 52.193 20.5138 52.193 20.0813V14.6558C52.193 14.5588 52.2356 14.4805 52.3208 14.4209C52.4061 14.3612 52.5154 14.3314 52.6488 14.3314C52.7821 14.3314 52.8933 14.3612 52.9822 14.4209C53.0711 14.4805 53.1156 14.5588 53.1156 14.6558V20.0813C53.1156 20.7301 52.9896 21.2447 52.7377 21.625C52.4857 22.0054 52.1041 22.1955 51.5928 22.1955C51.2741 22.1955 51.1148 22.0613 51.1148 21.7928ZM52.0707 12.3402C52.0707 12.1985 52.1263 12.0754 52.2375 11.971C52.3486 11.8666 52.4857 11.8144 52.6488 11.8144C52.8044 11.8144 52.9378 11.8666 53.0489 11.971C53.1601 12.0754 53.2156 12.1985 53.2156 12.3402C53.2156 12.4819 53.1601 12.6068 53.0489 12.7149C52.9378 12.823 52.8044 12.8771 52.6488 12.8771C52.4931 12.8771 52.3579 12.823 52.243 12.7149C52.1282 12.6068 52.0707 12.4819 52.0707 12.3402ZM53.8034 18.8731C53.8034 18.7762 53.8349 18.6811 53.8979 18.5879C53.9609 18.4947 54.0368 18.448 54.1257 18.448C54.185 18.448 54.2702 18.4928 54.3814 18.5823C54.4925 18.6718 54.6519 18.7594 54.8594 18.8452C55.0668 18.9309 55.3114 18.9738 55.593 18.9738C55.9635 18.9738 56.2321 18.9067 56.3989 18.7725C56.5656 18.6382 56.649 18.4704 56.649 18.2691C56.649 18.0229 56.5563 17.8272 56.3711 17.6818C56.1858 17.5363 55.9598 17.4263 55.693 17.3518C55.4262 17.2772 55.1595 17.1951 54.8927 17.1056C54.6259 17.0162 54.3999 16.867 54.2147 16.6582C54.0294 16.4494 53.9368 16.1734 53.9368 15.8304C53.9368 15.4053 54.0868 15.038 54.3869 14.7285C54.6871 14.419 55.1446 14.2643 55.7597 14.2643C56.1525 14.2643 56.5119 14.3258 56.8379 14.4488C57.164 14.5719 57.327 14.7117 57.327 14.8683C57.327 14.9578 57.2918 15.0585 57.2214 15.1704C57.151 15.2822 57.0639 15.3382 56.9602 15.3382C56.9305 15.3382 56.7879 15.2841 56.5322 15.176C56.2766 15.0678 56.0228 15.0138 55.7708 15.0138C55.4299 15.0138 55.1761 15.0939 55.0094 15.2543C54.8427 15.4146 54.7593 15.5955 54.7593 15.7968C54.7593 16.0056 54.8519 16.1697 55.0372 16.289C55.2225 16.4084 55.4503 16.5016 55.7208 16.5687C55.9913 16.6358 56.2599 16.7178 56.5267 16.8148C56.7935 16.9117 57.0195 17.0777 57.2047 17.3126C57.39 17.5475 57.4826 17.8514 57.4826 18.2243C57.4826 18.6867 57.3196 19.0521 56.9935 19.3206C56.6675 19.5891 56.2117 19.7233 55.6263 19.7233C55.1224 19.7233 54.6926 19.632 54.3369 19.4492C53.9812 19.2665 53.8034 19.0745 53.8034 18.8731Z" fill="white"/>
</g>
<rect x="0.5" y="0.5" width="65" height="31" rx="3.5" stroke="#CCCCCC"/>
<defs>
<clipPath id="clip0_52_4010">
<rect width="49" height="19" fill="white" transform="translate(8.5 6.5)"/>
</clipPath>
</defs>
</svg>
